<svg width="40" height="40" viewBox="0 0 40 40" fill="none" xmlns="http://www.w3.org/2000/svg">
<path d="M39.2162 3.125H32.2609V0.78125C32.2609 0.349844 31.9112 0 31.4797 0H27.7297C27.2982 0 26.9484 0.349844 26.9484 0.78125V3.125H19.9692C19.5377 3.125 19.188 3.47484 19.188 3.90625V9.60461L18.6435 9.05875C17.6679 8.08055 16.4592 7.42117 15.1428 7.12812C15.762 6.41773 16.1383 5.49047 16.1383 4.47633V4.04164C16.1383 1.81305 14.3252 0 12.0966 0C9.86805 0 8.055 1.81305 8.055 4.04156V4.47625C8.055 5.5293 8.46016 6.48922 9.12235 7.2093C7.50117 7.67023 6.0775 8.73367 5.19282 10.2083L0.330394 18.313C-0.165153 19.1388 -0.0928092 20.1982 0.510316 20.9491C0.952738 21.4998 1.60641 21.8127 2.31039 21.8127C2.32743 21.8127 2.34453 21.8126 2.36164 21.8122C3.08508 21.7966 3.74578 21.4532 4.17422 20.8701L7.25289 16.6797V19.8792C7.25289 19.9012 7.25438 19.923 7.25618 19.9445C7.25438 19.9661 7.25289 19.9878 7.25289 20.0098V27.1094C7.25289 27.5408 7.60266 27.8906 8.03414 27.8906C8.46563 27.8906 8.81539 27.5408 8.81539 27.1094V20.6605H15.3779V37.1875C15.3779 37.8767 14.8171 38.4375 14.1279 38.4375C13.4387 38.4375 12.8779 37.8767 12.8779 37.1875V25.6707C12.8779 25.2393 12.5281 24.8895 12.0966 24.8895C11.6652 24.8895 11.3154 25.2393 11.3154 25.6707V37.1875C11.3154 37.8767 10.7546 38.4375 10.0654 38.4375C9.37618 38.4375 8.81539 37.8767 8.81539 37.1875V33.3594C8.81539 32.928 8.46563 32.5781 8.03414 32.5781C7.60266 32.5781 7.25289 32.928 7.25289 33.3594V37.1875C7.25289 38.7384 8.51453 40 10.0654 40C10.8634 40 11.5843 39.6654 12.0966 39.1298C12.609 39.6654 13.3299 40 14.1279 40C15.6788 40 16.9404 38.7384 16.9404 37.1875V20.0099C16.9404 19.9879 16.9389 19.9662 16.9371 19.9446C16.9389 19.923 16.9404 19.9013 16.9404 19.8793V14.6083L18.2777 15.9528C18.5485 16.2252 18.8575 16.4388 19.188 16.5943V25.7812C19.188 25.8466 19.1969 25.9098 19.212 25.9704V28.9062C19.212 29.3377 19.5618 29.6875 19.9933 29.6875H21.0399L19.2026 39.0686C19.1577 39.2977 19.2177 39.535 19.3661 39.7152C19.5145 39.8955 19.7358 40 19.9693 40H23.4463C23.8199 40 24.1413 39.7355 24.213 39.3689L26.1091 29.6875H33.0622L34.9584 39.3689C35.0302 39.7355 35.3515 40 35.725 40H39.202C39.4356 40 39.6568 39.8955 39.8052 39.7152C39.9537 39.5349 40.0136 39.2977 39.9688 39.0686L38.1314 29.6875H39.2162C39.6477 29.6875 39.9974 29.3377 39.9974 28.9062V25.7812V3.90625C39.9974 3.47484 39.6477 3.125 39.2162 3.125ZM28.5109 1.5625H30.6984V3.125H28.5109V1.5625ZM20.7505 11.0938V4.6875H27.7297H31.4797H38.4349V25H20.7505V16.8972C21.447 16.858 22.1347 16.5949 22.6951 16.1036L24.75 14.3018C25.2419 13.8705 25.5354 13.2481 25.5552 12.5942C25.5751 11.9402 25.3198 11.3012 24.855 10.8409C24.0224 10.0164 22.7327 9.92148 21.7885 10.6152L20.8695 11.2905L20.7468 11.1675C20.749 11.1432 20.7505 11.1186 20.7505 11.0938ZM9.61758 4.04156C9.61758 2.67461 10.7297 1.5625 12.0967 1.5625C13.4638 1.5625 14.5759 2.67461 14.5759 4.04156V4.47625C14.5759 5.82719 13.4896 6.92836 12.1448 6.95422H12.0487C10.7038 6.92836 9.61766 5.82719 9.61766 4.47625V4.04156H9.61758ZM16.7131 12.1639C16.49 11.9396 16.1537 11.872 15.8612 11.9927C15.5688 12.1134 15.3779 12.3984 15.3779 12.7148V19.098H8.81539V14.2969C8.81539 13.9592 8.59844 13.6598 8.27758 13.5545C7.95672 13.4491 7.60453 13.5623 7.40461 13.8343L2.915 19.945C2.77625 20.1338 2.56227 20.2451 2.32797 20.2501C2.0925 20.2548 1.87516 20.1532 1.72844 19.9705C1.53313 19.7274 1.50969 19.3844 1.67016 19.1169L6.53266 11.0122C7.45617 9.47297 9.145 8.5168 10.9401 8.5168H11.3155V11.0938C11.3155 11.5252 11.6652 11.875 12.0967 11.875C12.5282 11.875 12.878 11.5252 12.878 11.0938V8.5168H13.5723C15.0709 8.5168 16.479 9.10109 17.5373 10.1622L20.2375 12.8695C20.5102 13.143 20.942 13.1762 21.2532 12.9473L22.7136 11.8744C23.0344 11.6387 23.4726 11.6709 23.7555 11.9511C23.9157 12.1098 24.0002 12.3213 23.9934 12.5468C23.9865 12.7723 23.8893 12.9783 23.7198 13.127L21.6648 14.9288C21.0052 15.5072 20.0041 15.4729 19.3855 14.851L16.7131 12.1639ZM22.8032 38.4375H20.9184L22.6321 29.6875H24.517L22.8032 38.4375ZM38.253 38.4375H36.3681L34.6544 29.6875H36.5392L38.253 38.4375ZM38.4349 28.125H20.7745V26.5625H38.4349V28.125Z" fill="#EDA942"/>
<path d="M35.4521 12.5H31.7021C31.2707 12.5 30.9209 12.8498 30.9209 13.2813V14.5762H27.9521C27.5207 14.5762 27.1709 14.926 27.1709 15.3574V17.1622H24.2021C23.7707 17.1622 23.4209 17.512 23.4209 17.9434V21.7763C23.4209 22.2077 23.7707 22.5576 24.2021 22.5576H27.9521H31.7021H35.4521C35.8836 22.5576 36.2334 22.2077 36.2334 21.7763V13.2813C36.2334 12.8498 35.8836 12.5 35.4521 12.5ZM24.9834 18.7247H27.1709V20.9951H24.9834V18.7247ZM28.7334 17.9434V16.1387H30.9209V20.995H28.7334V17.9434ZM34.6709 20.995H32.4834V15.3574V14.0625H34.6709V20.995Z" fill="#EDA942"/>
<path d="M24.2021 7.8125C24.4076 7.8125 24.6092 7.72891 24.7545 7.58352C24.8998 7.43828 24.9826 7.23672 24.9826 7.03125C24.9826 6.82578 24.8998 6.62422 24.7545 6.47891C24.6092 6.33359 24.4076 6.25 24.2021 6.25C23.9959 6.25 23.7943 6.33352 23.649 6.47891C23.5037 6.6243 23.4209 6.82578 23.4209 7.03125C23.4209 7.23672 23.5037 7.43828 23.649 7.58352C23.7943 7.72891 23.9959 7.8125 24.2021 7.8125Z" fill="#EDA942"/>
<path d="M27.3271 7.8125H35.4521C35.8836 7.8125 36.2334 7.46266 36.2334 7.03125C36.2334 6.59984 35.8836 6.25 35.4521 6.25H27.3271C26.8957 6.25 26.5459 6.59984 26.5459 7.03125C26.5459 7.46266 26.8957 7.8125 27.3271 7.8125Z" fill="#EDA942"/>
<path d="M35.4521 9.375H28.3818C27.9504 9.375 27.6006 9.72484 27.6006 10.1562C27.6006 10.5877 27.9504 10.9375 28.3818 10.9375H35.4521C35.8836 10.9375 36.2334 10.5877 36.2334 10.1562C36.2334 9.72484 35.8836 9.375 35.4521 9.375Z" fill="#EDA942"/>
<path d="M8.03418 31.0156C8.23965 31.0156 8.44043 30.932 8.58652 30.7866C8.73184 30.6414 8.81543 30.4398 8.81543 30.2344C8.81543 30.0289 8.73184 29.8273 8.58652 29.682C8.44121 29.5367 8.23965 29.4531 8.03418 29.4531C7.82793 29.4531 7.62715 29.5366 7.48184 29.682C7.33574 29.8273 7.25293 30.0289 7.25293 30.2344C7.25293 30.4398 7.33574 30.6414 7.48184 30.7866C7.62715 30.932 7.82871 31.0156 8.03418 31.0156Z" fill="#EDA942"/>
</svg>
