<svg width="70" height="70" viewBox="0 0 70 70" fill="none" xmlns="http://www.w3.org/2000/svg">
<g clip-path="url(#clip0)">
<path d="M18.7992 49.2201V43.1714H16.4656V49.2201C16.0657 49.3631 15.6959 49.5785 15.3734 49.8548L12.1482 47.9947L10.9814 50.0161L14.1913 51.8699C14.152 52.0796 14.132 52.2927 14.132 52.5057C14.1246 54.2878 15.4572 55.7908 17.2273 55.997C18.9969 56.2033 20.6394 55.0473 21.0422 53.3113C21.445 51.5754 20.4793 49.8138 18.7992 49.2201ZM17.6324 53.6725C16.988 53.6725 16.4656 53.1501 16.4656 52.5057C16.4656 51.8614 16.988 51.339 17.6324 51.339C18.2768 51.339 18.7992 51.8614 18.7992 52.5057C18.7992 53.1501 18.2768 53.6725 17.6324 53.6725Z" fill="#EDA942"/>
<path d="M61.9702 18.6687H3.63049C2.98614 18.6687 2.4637 19.1911 2.4637 19.8355V38.5042C2.47111 40.0368 2.62208 41.5653 2.91435 43.07C-2.17328 50.984 -0.0835364 61.5051 7.64192 66.8742C15.3674 72.2433 25.9568 70.5341 31.6011 63.0069H33.9672C47.493 62.9915 58.4545 52.03 58.4699 38.5042V37.3374H61.9702C66.479 37.3323 70.1327 33.6786 70.1378 29.1699V26.8363C70.1327 22.3275 66.479 18.6738 61.9702 18.6687ZM17.632 67.6741C9.25481 67.6741 2.4637 60.883 2.4637 52.5057C2.4637 44.1285 9.25481 37.3374 17.632 37.3374C26.0093 37.3374 32.8004 44.1285 32.8004 52.5057C32.7907 60.879 26.0053 67.6644 17.632 67.6741ZM56.1363 38.5042C56.1226 50.7424 46.2054 60.6596 33.9672 60.6733H33.0989C37.206 52.9342 34.9494 43.3503 27.8198 38.2575C20.6909 33.1648 10.8928 34.1367 4.90326 40.5307C4.84059 39.8556 4.79729 39.1788 4.79729 38.5042V21.0023H56.1363V38.5042ZM67.8042 29.1699C67.8002 32.3905 65.1909 34.9998 61.9702 35.0038H58.4699V21.0023H61.9702C65.1909 21.0063 67.8002 23.6156 67.8042 26.8363V29.1699Z" fill="#EDA942"/>
<path d="M28.1328 14.0015H30.4664C30.4664 13.3469 30.7194 13.0683 31.2914 12.4952C32.2457 11.7244 32.8 10.5638 32.8 9.33721C32.8 8.11059 32.2457 6.95006 31.2914 6.17923C30.7194 5.60779 30.4664 5.32635 30.4664 4.66718C30.4664 4.00801 30.7194 3.73397 31.2914 3.15741C32.2343 2.37803 32.7857 1.2232 32.8 0H30.4664C30.4664 0.655752 30.2134 0.933208 29.6414 1.50977C28.6991 2.28915 28.1471 3.44398 28.1328 4.66718C28.1453 5.89209 28.6974 7.04863 29.6414 7.82915C30.2134 8.40115 30.4664 8.68316 30.4664 9.33436C30.4664 9.98555 30.2134 10.2676 29.6414 10.8396C28.6974 11.6195 28.1453 12.7766 28.1328 14.0015Z" fill="#EDA942"/>
<path d="M39.8018 14.0015H42.1353C42.1353 13.3469 42.3883 13.0683 42.9603 12.4952C43.9146 11.7244 44.4689 10.5638 44.4689 9.33721C44.4689 8.11059 43.9146 6.95006 42.9603 6.17923C42.3883 5.60779 42.1353 5.32635 42.1353 4.66718C42.1353 4.00801 42.3883 3.73397 42.9603 3.15741C43.9032 2.37803 44.4547 1.2232 44.4689 0H42.1353C42.1353 0.655752 41.8824 0.933208 41.3104 1.50977C40.3681 2.28915 39.816 3.44398 39.8018 4.66718C39.8143 5.89209 40.3664 7.04863 41.3104 7.82915C41.8824 8.40115 42.1353 8.68316 42.1353 9.33436C42.1353 9.98555 41.8824 10.2676 41.3104 10.8396C40.3664 11.6195 39.8143 12.7766 39.8018 14.0015Z" fill="#EDA942"/>
<path d="M16.4658 14.0015H18.7994C18.7994 13.3469 19.0524 13.0683 19.6244 12.4952C20.5787 11.7244 21.133 10.5638 21.133 9.33721C21.133 8.11059 20.5787 6.95006 19.6244 6.17923C19.0524 5.60779 18.7994 5.32635 18.7994 4.66718C18.7994 4.00801 19.0524 3.73397 19.6244 3.15741C20.5673 2.37803 21.1188 1.2232 21.133 0H18.7994C18.7994 0.655752 18.5465 0.933208 17.9744 1.50977C17.0321 2.28915 16.4801 3.44398 16.4658 4.66718C16.4784 5.89209 17.0304 7.04863 17.9744 7.82915C18.5465 8.40115 18.7994 8.68316 18.7994 9.33436C18.7994 9.98555 18.5465 10.2676 17.9744 10.8396C17.0304 11.6195 16.4784 12.7766 16.4658 14.0015Z" fill="#EDA942"/>
<path d="M17.6324 38.5044C9.89953 38.5044 3.63086 44.7731 3.63086 52.5059C3.63086 60.2388 9.89953 66.5075 17.6324 66.5075C25.3653 66.5075 31.6339 60.2388 31.6339 52.5059C31.6254 44.7765 25.3618 38.5129 17.6324 38.5044ZM17.6324 64.1739C11.1882 64.1739 5.96445 58.9501 5.96445 52.5059C5.96445 46.0618 11.1882 40.838 17.6324 40.838C24.0765 40.838 29.3003 46.0618 29.3003 52.5059C29.2935 58.9472 24.0737 64.167 17.6324 64.1739Z" fill="#EDA942"/>
</g>
<defs>
<clipPath id="clip0">
<rect width="70" height="70" fill="white"/>
</clipPath>
</defs>
</svg>
