<svg width="30" height="29" viewBox="0 0 30 29" fill="none" xmlns="http://www.w3.org/2000/svg">
<path d="M15 0C6.729 0 0 6.45969 0 14.3997C0 22.3396 6.729 28.7993 15 28.7993C23.271 28.7993 30 22.3396 30 14.3997C30 6.45969 23.271 0 15 0ZM15 25.7353C8.48899 25.7353 3.19144 20.6504 3.19144 14.3997C3.19144 8.14894 8.48899 3.064 15 3.064C21.511 3.064 26.8086 8.14894 26.8086 14.3997C26.8086 20.6504 21.511 25.7353 15 25.7353Z" fill="#EDA942"/>
<path d="M22.8174 13.955H16.0764V6.17438C16.0764 5.51963 15.5234 4.98877 14.8413 4.98877C14.1592 4.98877 13.6062 5.51963 13.6062 6.17438V15.1406C13.6062 15.7953 14.1592 16.3262 14.8413 16.3262H22.8174C23.4995 16.3262 24.0525 15.7953 24.0525 15.1406C24.0525 14.4858 23.4995 13.955 22.8174 13.955Z" fill="#EDA942"/>
</svg>
