<?xml version="1.0" encoding="iso-8859-1"?>
<!-- Generator: Adobe Illustrator 19.0.0, SVG Export Plug-In . SVG Version: 6.00 Build 0)  -->
<svg xmlns="http://www.w3.org/2000/svg" xmlns:xlink="http://www.w3.org/1999/xlink" version="1.1" id="Capa_1" x="0px" y="0px" viewBox="0 0 512 512" style="enable-background:new 0 0 512 512;" xml:space="preserve" width="512px" height="512px">
<g>
	<path d="M431.587,164.464l-19.922-19.922c-7.667-7.667-11.89-17.862-11.89-28.706V93.928c9.308-3.139,16.032-11.946,16.032-22.3   c0-12.976-10.557-23.532-23.532-23.532H287.548V31.548C287.548,14.152,273.396,0,256,0s-31.548,14.152-31.548,31.548v16.548   H119.726c-12.976,0-23.532,10.557-23.532,23.532c0,10.354,6.724,19.16,16.032,22.3v21.907c0,10.844-4.223,21.039-11.89,28.706   l-19.922,19.922c-10.501,10.501-16.284,24.462-16.284,39.313v268.658c0,21.816,17.749,39.564,39.564,39.564h304.613   c21.816,0,39.564-17.749,39.564-39.564V203.777C447.871,188.927,442.088,174.965,431.587,164.464z M239.452,31.548   C239.452,22.423,246.875,15,256,15s16.548,7.423,16.548,16.548v16.548h-33.097V31.548z M432.871,472.436   c0,13.545-11.02,24.564-24.564,24.564H103.693c-13.545,0-24.564-11.02-24.564-24.564V203.777c0-10.844,4.223-21.039,11.891-28.707   l19.922-19.922c10.501-10.5,16.284-24.462,16.284-39.313V95.161h216.951c4.142,0,7.5-3.358,7.5-7.5s-3.358-7.5-7.5-7.5H119.726   c-4.705,0-8.532-3.828-8.532-8.532s3.828-8.532,8.532-8.532h272.549c4.705,0,8.532,3.828,8.532,8.532s-3.828,8.532-8.532,8.532   h-16.032c-4.142,0-7.5,3.358-7.5,7.5s3.358,7.5,7.5,7.5h8.532v20.675c0,14.851,5.783,28.812,16.284,39.313l19.922,19.922   c7.668,7.668,11.891,17.863,11.891,28.707V472.436z" fill="#0079C3"/>
	<path d="M366.787,300.755c0.607-4.189,0.923-8.439,0.923-12.691c0-48.336-39.325-87.661-87.661-87.661   c-36.523,0-69.094,22.608-81.968,56.55c-57.013,4.991-101.887,52.986-101.887,111.273c0,61.597,50.113,111.71,111.71,111.71   c21.413,0,41.435-6.061,58.449-16.55c15.88,10.835,34.357,16.55,53.776,16.55c52.757,0,95.678-42.92,95.678-95.677   C415.807,348.433,396.011,317.149,366.787,300.755z M111.193,368.226c0-53.326,43.384-96.709,96.71-96.709   c14.083,0,27.658,2.958,40.345,8.79c3.764,1.73,8.217,0.082,9.947-3.682c1.73-3.764,0.082-8.217-3.682-9.947   c-12.68-5.829-26.12-9.168-40.036-9.968c11.95-25.012,37.338-41.306,65.571-41.306c40.065,0,72.661,32.596,72.661,72.661   c0,2.05-0.105,4.096-0.275,6.134c-10.097-3.633-20.973-5.618-32.305-5.618c-10.088,0-19.976,1.56-29.462,4.631   c-1.988-2.198-4.066-4.324-6.237-6.366c-3.017-2.838-7.764-2.693-10.602,0.324c-2.838,3.017-2.693,7.763,0.324,10.602   c19.643,18.478,30.46,43.499,30.46,70.455c0,53.326-43.384,96.71-96.709,96.71C154.577,464.936,111.193,421.552,111.193,368.226z    M320.129,407.791c4.705,0,8.532,3.828,8.532,8.532s-3.828,8.532-8.532,8.532s-8.532-3.828-8.532-8.532   S315.424,407.791,320.129,407.791z M320.129,464.936c-14.509,0-28.397-3.772-40.685-10.984c8.271-6.914,15.53-15,21.519-24.001   c4.27,5.988,11.267,9.904,19.166,9.904c12.976,0,23.532-10.557,23.532-23.532s-10.557-23.532-23.532-23.532   c-1.119,0-2.218,0.084-3.295,0.235c1.816-7.979,2.779-16.279,2.779-24.8c0-5.565-0.427-11.096-1.251-16.548h1.768   c4.142,0,7.5-3.358,7.5-7.5s-3.358-7.5-7.5-7.5h-5.103c-3.219-10.888-8.078-21.256-14.405-30.705   c6.345-1.577,12.872-2.392,19.509-2.392c44.486,0,80.678,36.192,80.678,80.678C400.807,428.744,364.615,464.936,320.129,464.936z" fill="#0079C3"/>
	<path d="M175.839,376.758c-12.976,0-23.532,10.557-23.532,23.532s10.557,23.532,23.532,23.532s23.532-10.557,23.532-23.532   S188.814,376.758,175.839,376.758z M175.839,408.823c-4.705,0-8.532-3.828-8.532-8.532s3.828-8.532,8.532-8.532   s8.532,3.828,8.532,8.532S180.543,408.823,175.839,408.823z" fill="#0079C3"/>
	<path d="M239.968,312.629c-12.976,0-23.532,10.557-23.532,23.532s10.557,23.532,23.532,23.532s23.532-10.557,23.532-23.532   S252.943,312.629,239.968,312.629z M239.968,344.693c-4.705,0-8.532-3.828-8.532-8.532s3.828-8.532,8.532-8.532   s8.532,3.828,8.532,8.532S244.672,344.693,239.968,344.693z" fill="#0079C3"/>
	<path d="M167.823,335.645c6.345,0,11.508-5.163,11.508-11.508c0-6.346-5.163-11.508-11.508-11.508   c-6.346,0-11.508,5.163-11.508,11.508C156.314,330.482,161.477,335.645,167.823,335.645z" fill="#0079C3"/>
	<path d="M284.057,263.5c6.345,0,11.508-5.163,11.508-11.508c0-6.345-5.163-11.508-11.508-11.508   c-6.346,0-11.508,5.163-11.508,11.508C272.548,258.337,277.711,263.5,284.057,263.5z" fill="#0079C3"/>
	<path d="M356.202,356.718c-6.346,0-11.508,5.163-11.508,11.508c0,6.346,5.163,11.508,11.508,11.508   c6.345,0,11.508-5.163,11.508-11.508C367.709,361.88,362.547,356.718,356.202,356.718z" fill="#0079C3"/>
	<path d="M237.255,394.987c-2.929-2.929-7.678-2.929-10.606,0c-2.929,2.929-2.929,7.678,0,10.606l8.016,8.016   c1.464,1.464,3.384,2.197,5.303,2.197s3.839-0.732,5.303-2.197c2.929-2.929,2.929-7.678,0-10.606L237.255,394.987z" fill="#0079C3"/>
</g>















</svg>
