<?xml version="1.0" encoding="iso-8859-1"?>
<!-- Generator: Adobe Illustrator 19.0.0, SVG Export Plug-In . SVG Version: 6.00 Build 0)  -->
<svg xmlns="http://www.w3.org/2000/svg" fill="#321a1d" xmlns:xlink="http://www.w3.org/1999/xlink" version="1.1" id="Capa_1" x="0px" y="0px" viewBox="0 0 480 480" style="enable-background:new 0 0 480 480;" xml:space="preserve" width="512px" height="512px">
<g>
	<g>
		<path d="M472,220H328V60c0-4.418-3.582-8-8-8H8c-4.418,0-8,3.582-8,8v192c0,4.418,3.582,8,8,8h144v160c0,4.418,3.582,8,8,8h312    c4.418,0,8-3.582,8-8V228C480,223.582,476.418,220,472,220z M16,244V68h296v176H16z M464,412H168V260h152c4.418,0,8-3.582,8-8v-16    h136V412z" />
	</g>
</g>
<g>
	<g>
		<rect x="96" y="84" width="16" height="16" />
	</g>
</g>
<g>
	<g>
		<rect x="96" y="116" width="16" height="16" />
	</g>
</g>
<g>
	<g>
		<rect x="96" y="148" width="16" height="16" />
	</g>
</g>
<g>
	<g>
		<rect x="96" y="180" width="16" height="16" />
	</g>
</g>
<g>
	<g>
		<rect x="96" y="212" width="16" height="16" />
	</g>
</g>
<g>
	<g>
		<rect x="368" y="252" width="16" height="16" />
	</g>
</g>
<g>
	<g>
		<rect x="368" y="284" width="16" height="16" />
	</g>
</g>
<g>
	<g>
		<rect x="368" y="316" width="16" height="16" />
	</g>
</g>
<g>
	<g>
		<rect x="368" y="348" width="16" height="16" />
	</g>
</g>
<g>
	<g>
		<rect x="368" y="380" width="16" height="16" />
	</g>
</g>
<g>
	<g>
		<rect x="148.139" y="147.999" transform="matrix(0.7071 -0.7071 0.7071 0.7071 -47.0361 198.4428)" width="135.769" height="16" />
	</g>
</g>
<g>
	<g>
		<path d="M189.6,104.8c-13.697,0-24.8,11.103-24.8,24.8s11.103,24.8,24.8,24.8c13.697,0,24.8-11.103,24.8-24.8    S203.297,104.8,189.6,104.8z M189.6,138.4c-4.86,0-8.8-3.94-8.8-8.8s3.94-8.8,8.8-8.8s8.8,3.94,8.8,8.8S194.46,138.4,189.6,138.4z    " />
	</g>
</g>
<g>
	<g>
		<path d="M242.4,157.6c-13.697,0-24.8,11.103-24.8,24.8s11.103,24.8,24.8,24.8s24.8-11.103,24.8-24.8S256.097,157.6,242.4,157.6z     M251.2,182.4c0,4.86-3.94,8.8-8.8,8.8s-8.8-3.94-8.8-8.8s3.94-8.8,8.8-8.8C247.26,173.6,251.2,177.54,251.2,182.4    C251.2,182.4,251.2,182.4,251.2,182.4z" />
	</g>
</g>
<g>
	<g>
		<polygon points="215.984,302.904 215.984,294.968 183.576,294.968 183.576,352.392 192.888,352.392 192.888,328.832     214.528,328.832 214.528,320.848 192.888,320.848 192.888,302.904   " />
	</g>
</g>
<g>
	<g>
		<path d="M253.256,326.976c6.709-2.031,11.26-8.263,11.152-15.272c0.346-4.805-1.643-9.484-5.344-12.568    c-4.884-3.146-10.663-4.61-16.456-4.168H226.4v57.424h9.392v-22.936h9.248l13.752,22.936h10.68L253.256,326.976z M251.84,319.216    c-2.81,1.881-6.175,2.75-9.544,2.464h-6.52v-18.776h6.208c3.337-0.23,6.67,0.506,9.6,2.12c2.222,1.605,3.438,4.261,3.2,6.992    C254.968,314.742,253.881,317.4,251.84,319.216z" />
	</g>
</g>
<g>
	<g>
		<polygon points="310.28,302.904 310.28,294.968 277.8,294.968 277.8,352.392 310.28,352.392 310.28,344.416 287.184,344.416     287.184,326.392 308.824,326.392 308.824,318.536 287.184,318.536 287.184,302.904   " />
	</g>
</g>
<g>
	<g>
		<polygon points="355.168,302.904 355.168,294.968 322.688,294.968 322.688,352.392 355.168,352.392 355.168,344.416     332.072,344.416 332.072,326.392 353.712,326.392 353.712,318.536 332.072,318.536 332.072,302.904   " />
	</g>
</g>
<g>
</g>
<g>
</g>
<g>
</g>
<g>
</g>
<g>
</g>
<g>
</g>
<g>
</g>
<g>
</g>
<g>
</g>
<g>
</g>
<g>
</g>
<g>
</g>
<g>
</g>
<g>
</g>
<g>
</g>
</svg>
