<svg width="70" height="70" viewBox="0 0 70 70" fill="none" xmlns="http://www.w3.org/2000/svg">
<g clip-path="url(#clip0)">
<path d="M9.33294 65.3333C9.96583 65.3327 10.597 65.2667 11.2168 65.1362L10.5167 68.6037C10.4478 68.9473 10.5372 69.3039 10.7599 69.5744C10.9827 69.8456 11.3154 70.0017 11.6663 70H16.3329C16.8872 70 17.3652 69.6098 17.4762 69.0669L18.3023 64.9294C19.1761 65.1972 20.0853 65.3333 20.9996 65.3333C23.1495 65.3003 25.2322 64.5757 26.9389 63.2672C31.9593 66.022 38.0393 66.022 43.0597 63.2672C44.7664 64.5757 46.8491 65.3003 48.9996 65.3333C49.9139 65.3316 50.8225 65.1943 51.6964 64.9249L52.5224 69.0669C52.6335 69.6098 53.1114 70 53.6663 70H58.3329C58.6833 70 59.0148 69.8428 59.2364 69.571C59.458 69.2999 59.5463 68.9433 59.4762 68.5998L58.7818 65.1328C59.401 65.2644 60.0328 65.3316 60.6663 65.3333C63.138 65.2877 65.5078 64.3358 67.3239 62.6582C67.5808 62.4013 67.7033 62.0395 67.6554 61.6795L62.9888 26.6795C62.9119 26.0996 62.4174 25.6667 61.8329 25.6667H57.1663V20.3164L61.4906 15.9915C61.8244 15.6577 61.9241 15.1558 61.7435 14.72C61.5629 14.2843 61.1379 14 60.6663 14H51.3329C50.8607 14 50.4357 14.2843 50.2551 14.72C50.0745 15.1558 50.1742 15.6577 50.5081 15.9915L54.8329 20.3164V25.6667H47.8329V11.6667C47.7743 9.98844 46.9038 8.44295 45.4996 7.52295V1.16667C45.4996 0.522379 44.9772 0 44.3329 0H39.6663C39.0214 0 38.4996 0.522379 38.4996 1.16667V7.52295C37.0948 8.44295 36.2244 9.98844 36.1663 11.6667V25.6667H24.4996V20.3164L28.8239 15.9915C29.1577 15.6577 29.2574 15.1558 29.0768 14.72C28.8962 14.2843 28.4713 14 27.9996 14H18.6663C18.194 14 17.7691 14.2843 17.5885 14.72C17.4079 15.1558 17.5076 15.6577 17.8414 15.9915L22.1663 20.3164V25.6667H8.16627C7.58123 25.6667 7.08676 26.0996 7.00986 26.6795L2.34319 61.6795C2.29534 62.0395 2.41782 62.4013 2.67473 62.6582C4.49082 64.3358 6.86061 65.2877 9.33294 65.3333ZM57.8498 16.3333L55.9996 18.1836L54.1488 16.3333H57.8498ZM25.1832 16.3333L23.3329 18.1836L21.4821 16.3333H25.1832ZM15.3759 67.6666H13.0893L13.7894 64.2003C14.2691 63.9519 14.7288 63.6676 15.1663 63.3498C15.471 63.5736 15.7872 63.781 16.1148 63.9707L15.3759 67.6666ZM56.9093 67.6666H54.6227L53.8839 63.9661C54.2109 63.7776 54.5276 63.5719 54.8329 63.3498C55.271 63.6693 55.733 63.9553 56.2138 64.2054L56.9093 67.6666ZM45.4996 19.8333H43.1663V15.1667H45.4996V19.8333ZM40.8329 2.33333H43.1663V4.66667H40.8329V2.33333ZM38.4996 11.6667C38.6209 10.6208 39.2533 9.70247 40.1875 9.21655C40.5851 9.01831 40.8352 8.611 40.8329 8.16667V7H43.1663V8.16667C43.1691 8.6053 43.4146 9.00578 43.8043 9.20744C44.7437 9.69393 45.3788 10.6156 45.4996 11.6667V12.8333H41.9996C41.3547 12.8333 40.8329 13.3557 40.8329 14V21C40.8329 21.6443 41.3547 22.1667 41.9996 22.1667H45.4996V25.6667H38.4996V11.6667ZM8.56503 32.6667H15.1663V30.3333H8.87664L9.1871 28H60.8121L65.2606 61.3668C62.533 63.5976 58.5978 63.548 55.9272 61.25L53.652 44.1864L51.3398 44.4945L53.5888 61.3668C52.2786 62.3979 50.6664 62.9715 48.9996 63C47.2861 62.9612 45.634 62.3546 44.3033 61.2745L43.1663 40.7678L40.8329 40.8988L41.962 61.2078C37.6252 63.5998 32.3638 63.597 28.0298 61.201L29.1663 37.388L26.8329 37.2786L25.6891 61.2825C24.3623 62.3637 22.7109 62.9687 20.9996 63C19.3271 62.9618 17.7127 62.383 16.3979 61.3491L18.6577 42.1367L16.3409 41.8633L14.06 61.25C12.7275 62.3517 11.0613 62.9687 9.33294 63C7.6644 62.9618 6.0534 62.3853 4.73976 61.3571L8.56503 32.6667Z" fill="#EDA942"/>
<path d="M17.5 30.3333H19.8333V32.6666H17.5V30.3333Z" fill="#EDA942"/>
<path d="M59.5 56H61.8333V58.3333H59.5V56Z" fill="#EDA942"/>
</g>
<defs>
<clipPath id="clip0">
<rect width="70" height="70" fill="white"/>
</clipPath>
</defs>
</svg>
