<svg width="15" height="15" viewBox="0 0 15 15" fill="none" xmlns="http://www.w3.org/2000/svg">
<g clip-path="url(#clip0)">
<path d="M3.92176 7.92509H5.55285V14.64C5.55285 14.7726 5.66028 14.88 5.79285 14.88H8.55842C8.691 14.88 8.79842 14.7726 8.79842 14.64V7.95672H10.6735C10.7954 7.95672 10.898 7.86523 10.9119 7.74413L11.1967 5.27203C11.2045 5.20402 11.183 5.1359 11.1375 5.08488C11.0919 5.03381 11.0267 5.00458 10.9583 5.00458H8.79852V3.45494C8.79852 2.98781 9.05004 2.75093 9.54617 2.75093C9.61687 2.75093 10.9583 2.75093 10.9583 2.75093C11.0909 2.75093 11.1983 2.64346 11.1983 2.51093V0.241776C11.1983 0.1092 11.0909 0.001776 10.9583 0.001776H9.01217C8.99844 0.001104 8.96796 0 8.92303 0C8.58535 0 7.4116 0.0662879 6.48444 0.919248C5.45714 1.86446 5.59994 2.99621 5.63407 3.19243V5.00453H3.92176C3.78919 5.00453 3.68176 5.11195 3.68176 5.24453V7.68504C3.68176 7.81762 3.78919 7.92509 3.92176 7.92509Z" fill="white"/>
</g>
<defs>
<clipPath id="clip0">
<rect width="14.88" height="14.88" fill="white"/>
</clipPath>
</defs>
</svg>
