<?xml version="1.0" encoding="utf-8"?>
<!-- Generator: Adobe Illustrator 23.0.1, SVG Export Plug-In . SVG Version: 6.00 Build 0)  -->
<svg version="1.1" id="Слой_1" xmlns="http://www.w3.org/2000/svg" xmlns:xlink="http://www.w3.org/1999/xlink" x="0px" y="0px"
	 viewBox="0 0 201.5 40" style="enable-background:new 0 0 201.5 40;" xml:space="preserve">
<style type="text/css">
	.st0{fill:#FFFFFF;}
</style>
<path class="st0" d="M115.8,10.8c-0.1,0-0.2-0.1-0.3-0.1c0,0-0.1,0-0.1,0c0,0-0.1,0-0.1,0.1c0,0-0.1,0-0.1,0c0,0-0.1,0-0.1-0.1
	c0,0,0,0-0.1,0c0,0-0.1,0-0.1,0c0,0-0.1,0-0.1,0c0,0-0.1,0.1-0.1,0.1c-0.1,0.1-0.2,0.3-0.3,0.5c-0.1,0.1-0.1,0.3-0.2,0.4
	c-0.1,0.1-0.1,0.2-0.1,0.4c0,0,0,0.1-0.1,0.1c0,0-0.1,0.1-0.1,0.1c-0.1,0.1-0.1,0.2-0.2,0.3c0,0.1-0.1,0.2-0.1,0.3
	c0,0.1-0.1,0.2-0.1,0.3c0,0.1-0.1,0.2-0.1,0.2c0,0,0,0.1-0.1,0.1c0,0,0,0.1,0,0.1c0.1,0,0.2,0,0.2,0c0.1,0,0.2,0,0.3,0
	c0.1,0,0.1,0,0.2,0c0.1,0,0.1,0,0.2,0.1c0.1,0,0.2,0.1,0.3,0.1c0.1,0,0.2,0,0.4-0.1c0,0,0.1-0.1,0.2-0.1c0.1,0,0.1,0,0.2,0
	c0.1,0,0.2-0.1,0.4-0.2c0.1-0.1,0.2-0.1,0.3-0.2c0.1-0.1,0.2-0.2,0.3-0.3c0.1-0.1,0.1-0.2,0.2-0.2c0,0,0.1-0.1,0.1-0.1
	c0,0,0-0.1,0-0.1c0-0.1,0.1-0.2,0.1-0.2c0-0.1,0.1-0.1,0.1-0.2c0,0,0.1-0.1,0.1-0.1c0-0.1,0.1-0.1,0.2-0.2c-0.1-0.2-0.2-0.3-0.4-0.5
	c-0.1-0.1-0.3-0.2-0.5-0.3C116,10.9,115.9,10.9,115.8,10.8z M91.4,20.5C91.4,20.5,91.3,20.5,91.4,20.5
	C91.4,20.5,91.4,20.5,91.4,20.5L91.4,20.5z M108.3,0.8c0,0-0.1,0-0.1,0c-0.2,0-0.5,0-0.7-0.1c-0.2,0-0.5-0.1-0.7-0.1
	c-0.4,0-0.8-0.1-1.2-0.1c-0.4,0-0.9,0-1.4,0c-0.2,0-0.4,0.1-0.6,0.1c-0.2,0-0.4,0-0.6,0c-0.2,0-0.4,0-0.6,0c-0.2,0-0.4,0-0.6,0
	c-0.1,0-0.3,0-0.4,0c-0.1,0-0.2,0-0.4,0c-0.4,0.1-0.9,0.2-1.3,0.2c-0.4,0.1-0.8,0.1-1.3,0.2c-0.7,0.1-1.4,0.2-2,0.3
	c-0.7,0.1-1.3,0.2-2,0.3c-0.2,0-0.5,0.1-0.7,0.1c-0.2,0.1-0.5,0.2-0.7,0.4c0,0-0.1,0.1-0.2,0.1c-0.1,0-0.1,0.1-0.2,0.1
	c-0.6,0.1-1.2,0.2-1.8,0.4c-0.6,0.1-1.3,0.2-1.9,0.4c-0.1,0-0.2,0-0.3,0c-0.1,0-0.2,0-0.4,0c0.4-0.3,0.7-0.5,1.1-0.6
	c0.4-0.1,0.7-0.2,1.1-0.5c-0.1,0-0.3,0-0.4,0c-0.1,0-0.2,0-0.3,0c0.1-0.1,0.2-0.1,0.3-0.2c0.1,0,0.2-0.1,0.3-0.1c0.1,0,0.1,0,0.2,0
	s0.1-0.1,0.1-0.1c-0.5,0.1-0.9,0.2-1.4,0.4c-0.5,0.1-0.9,0.3-1.4,0.5c-0.2,0.1-0.5,0.2-0.7,0.2c-0.2,0-0.4,0-0.6,0
	c-0.1,0.1-0.2,0.2-0.3,0.3c0,0.1-0.1,0.2-0.1,0.3c0,0.1,0,0.2,0,0.3c0,0.1,0,0.2-0.1,0.3c-0.2,0.4-0.3,0.8-0.4,1.1
	c-0.1,0.3-0.2,0.7-0.2,1.1c-0.1,0.4-0.1,0.8-0.1,1.2c0,0.4,0.1,0.7,0.2,1.1c0.1,0.1,0.2,0.2,0.3,0.3c0.1,0,0.2,0.1,0.4,0
	c1.3-0.3,2.2-0.5,2.8-0.6c0.6,0,0.8,0.1,0.7,0.5c0,0.3-0.3,0.8-0.7,1.4c-0.4,0.7-0.8,1.5-1.4,2.5c-0.4,0.8-0.8,1.7-1.2,2.6
	c-0.4,0.8-0.8,1.7-1.2,2.6c-0.1,0.2-0.1,0.4-0.2,0.6c-0.1,0.2-0.2,0.5-0.5,0.6c0,0-0.1,0-0.1,0c0,0,0,0.1,0,0.1
	c-0.2,0.4-0.4,0.8-0.5,1.2c-0.1,0.4-0.2,0.8-0.3,1.2c-0.1,0.3-0.2,0.7-0.3,1c-0.1,0.3-0.2,0.7-0.4,1c-0.2,0.6-0.4,1.1-0.5,1.7
	c-0.2,0.6-0.4,1.1-0.6,1.7c-0.4,1.2-0.7,2.4-1.1,3.6c-0.4,1.2-0.7,2.4-1,3.6c-0.1,0.5-0.2,0.9,0,1.3c0.1,0.3,0.4,0.6,0.8,0.7l0,0
	c0,0,0.1,0,0.1,0c0,0,0.1,0,0.1,0c0,0,0.1,0,0.1,0c0.2,0,0.4-0.1,0.7-0.1c0.2,0,0.4-0.1,0.6-0.2c0.2,0,0.4-0.1,0.6-0.1
	c0.2-0.1,0.4-0.1,0.7-0.2c0.4-0.1,0.8-0.2,1.2-0.3c0.4-0.1,0.8-0.3,1.2-0.7h0c0.2,0,0.3-0.1,0.4-0.2c0.1-0.1,0.1-0.2,0.1-0.3
	s0-0.2,0-0.4s0-0.3,0-0.4c0.1-0.5,0.2-0.9,0.4-1.4c0.1-0.5,0.2-0.9,0.3-1.4c0-0.3,0.1-0.6,0.2-0.9c0.1-0.3,0.2-0.7,0.3-1
	c0.1-0.3,0.2-0.6,0.3-0.9c0.1-0.3,0.2-0.6,0.3-0.9c0.1-0.2,0.1-0.5,0.2-0.7c0-0.2,0.1-0.5,0.3-0.7c0,0,0-0.1,0-0.1c0,0,0-0.1,0-0.1
	c0-0.1,0-0.2,0.1-0.4c0.1-0.1,0.1-0.2,0.2-0.4c0-0.1,0-0.2,0.1-0.4c0-0.1,0-0.2,0.1-0.3v0v0c0.1-0.2,0.2-0.4,0.4-0.6
	c0.1-0.2,0.2-0.4,0.1-0.6l0,0c0,0,0,0,0-0.1c0.1-0.3,0.3-0.5,0.4-0.6c0.2-0.1,0.4-0.2,0.7-0.3c0,0,0.1,0,0.1-0.1
	c0,0,0.1-0.1,0.1-0.1c-0.2,0-0.4,0-0.5,0c-0.1,0-0.3,0.1-0.5,0.1c-0.2,0-0.3,0-0.2-0.3c0.2,0,0.3,0,0.5,0c0.1,0,0.3,0,0.4,0
	c0.1,0,0.2,0,0.2,0c0.1,0,0.1-0.1,0.2-0.2c-0.4,0.1-0.7,0.1-0.8,0.1s-0.2,0-0.3-0.1c0.1-0.1,0.2-0.2,0.4-0.2
	c0.1-0.1,0.3-0.2,0.4-0.3c-0.1,0-0.1,0-0.2-0.1c-0.1,0-0.1-0.1-0.2-0.1c0.3-0.1,0.5-0.1,0.7-0.2c0.2-0.1,0.5-0.1,0.7-0.2
	c0.3-0.1,0.6-0.1,0.9-0.2c0.3-0.1,0.6-0.1,0.8,0c0,0,0.1,0,0.2,0c0.1,0,0.1,0,0.2-0.1c0.1-0.1,0.2-0.2,0.3-0.1c0.1,0,0.2,0,0.3,0
	c0.1,0.1,0.3,0.1,0.4,0.1c0.1,0,0.3-0.1,0.5-0.1c0.5-0.1,0.9-0.3,1.4-0.4c0.5-0.1,1-0.3,1.5-0.4c0-0.1-0.1-0.1-0.1-0.2
	c0,0,0-0.1,0-0.1c0,0,0-0.1,0-0.1c0,0,0.1,0,0.1,0c0.5-0.1,1-0.3,1.5-0.4c0.5-0.1,1-0.3,1.5-0.4c0.4-0.1,0.9-0.2,1.3-0.4
	c0.5-0.2,0.9-0.3,1.4-0.6c-0.2,0-0.4,0.1-0.6,0.1c-0.1,0-0.3,0.1-0.5,0.1c0,0,0-0.1,0-0.1c0.2-0.1,0.4-0.2,0.6-0.3
	c0.2-0.1,0.4-0.2,0.6-0.2c0.2-0.1,0.4-0.1,0.7-0.2c0.2,0,0.4-0.1,0.6-0.1c0-0.1,0-0.1,0-0.2c0-0.1,0-0.2,0-0.2
	c0.2-0.1,0.5-0.2,0.7-0.3c0.2-0.1,0.4-0.2,0.6-0.2c0.1,0,0.3-0.1,0.4-0.1c0.1,0,0.2-0.1,0.4-0.1c0.2,0,0.4-0.1,0.5-0.1
	c0.2,0,0.4-0.1,0.5-0.3c-0.2,0-0.4,0-0.6,0c-0.2,0.1-0.4,0.1-0.6,0c0.2-0.1,0.5-0.2,0.7-0.3c0.2-0.1,0.4-0.2,0.5-0.2
	c0.2-0.1,0.4-0.2,0.5-0.3c0.2-0.1,0.4-0.2,0.5-0.2c0,0,0-0.1,0-0.1l0,0c-0.1,0-0.1,0-0.2,0.1c-0.1,0-0.2,0.1-0.3,0.1
	c0,0,0-0.1,0-0.1c0,0,0.1-0.1,0.1-0.1c0,0,0.1-0.1,0.1-0.1c0.3-0.2,0.6-0.4,0.9-0.7c0.3-0.2,0.5-0.5,0.8-0.8
	c0.1-0.1,0.3-0.2,0.4-0.4c0.1-0.1,0.1-0.3,0.2-0.4c0.2-0.3,0.4-0.6,0.6-0.8c0.2-0.3,0.4-0.6,0.6-0.8c0.4-0.7,0.7-1.3,0.8-1.9
	c0.2-0.6,0.2-1.2,0-1.8c-0.1-0.2-0.2-0.5-0.3-0.7c-0.1-0.2-0.2-0.5-0.3-0.7c-0.1-0.3-0.3-0.5-0.5-0.6c-0.2-0.1-0.5-0.3-0.6-0.5
	c0,0,0,0,0,0h0c-0.2,0.1-0.4,0-0.4,0c0-0.1-0.1-0.1-0.2-0.2c-0.1-0.1-0.1-0.1-0.2-0.2c-0.1-0.1-0.1-0.1-0.2-0.2
	c-0.4-0.1-0.7-0.3-1.1-0.4c-0.4-0.1-0.7-0.3-1.1-0.5c-0.6-0.2-1.1-0.4-1.8-0.5c-0.6-0.1-1.3-0.2-2-0.2c0,0,0.1,0,0.1,0.1
	c0,0,0.1,0.1,0.1,0.1c0.3,0.1,0.7,0.1,1,0.2c0.4,0,0.7,0.1,1,0.1c0.2,0,0.3,0.1,0.5,0.1c0.1,0,0.3,0.1,0.5,0.1
	C108.4,0.7,108.4,0.8,108.3,0.8z M107.5,5.4c-0.2,0-0.4,0-0.6,0c0.3,0.1,0.6,0.1,1,0c0.4-0.1,0.8-0.1,1.1,0c-0.1,0-0.1,0.1-0.2,0.1
	c0,0-0.1,0.1-0.2,0.1c0.1,0,0.2,0,0.3,0c0.1,0,0.2,0,0.3,0c0,0-0.1,0.1-0.1,0.1c0,0-0.1,0.1-0.1,0.1c0,0,0,0,0,0l0,0
	c0.4,0.1,0.6,0.2,0.8,0.5c0.2,0.2,0.4,0.5,0.5,0.8c0.1,0.2,0.1,0.4,0,0.6c-0.1,0.2-0.2,0.5-0.4,0.7c-0.4,0.5-0.7,0.8-1.2,1.2
	c-0.4,0.3-0.9,0.6-1.4,0.8c-0.5,0.2-1.1,0.4-1.6,0.7c-0.6,0.2-1.1,0.5-1.6,0.7c-0.5,0.2-1,0.3-1.5,0.5c-0.5,0.2-1,0.3-1.5,0.5
	c0.1,0.1,0.3,0.2,0.5,0.1c0.2,0,0.5-0.1,0.7-0.1c0.1,0,0.2,0,0.4-0.1c0.1,0,0.3,0,0.4-0.1c0,0.1-0.1,0.2-0.2,0.3
	c-0.1,0-0.2,0.1-0.3,0.1c-0.3,0.1-0.6,0.2-0.9,0.3c-0.3,0.1-0.6,0.2-0.9,0.2c-0.1,0-0.3,0.1-0.4,0.1c-0.1,0-0.3,0.1-0.5,0.2
	c0.1,0.1,0.3,0.2,0.5,0.1c0.2-0.1,0.4-0.1,0.6-0.2c-0.1,0.1-0.2,0.2-0.4,0.3c-0.1,0.1-0.2,0.1-0.3,0.1c-0.6,0.1-1.1,0.3-1.7,0.5
	c-0.1,0-0.1,0-0.2,0c-0.1,0-0.1,0-0.2,0.1c-0.3,0.3-0.6,0.5-0.9,0.5c-0.3,0.1-0.6,0.2-0.9,0.2c-1.3,0.7-2.3,1-2.9,1
	c-0.6,0-0.9-0.3-0.9-0.9c0-0.6,0.2-1.2,0.6-2c0.4-0.8,0.9-1.5,1.5-2.3c0.2-0.4,0.5-0.8,0.6-1.2c0.2-0.4,0.5-0.8,0.7-1.3
	c0.5-0.9,0.9-1.5,1.2-2c0.3-0.4,0.7-0.7,1.2-0.9c0.5-0.2,1.3-0.4,2.5-0.6c0.5-0.1,1-0.2,1.5-0.3c0.5-0.1,1.1-0.2,1.6-0.3
	c0.6-0.2,1.2-0.2,1.7-0.2c0.2,0,0.5,0,0.7,0c0.2,0,0.5,0,0.7,0c0.2,0,0.4,0,0.6,0c0.2,0,0.4,0,0.7,0C107.9,5.2,107.7,5.3,107.5,5.4z
	 M95.8,18c-0.1,0-0.2,0-0.2,0v0c0.2,0,0.4-0.1,0.6-0.1c0,0,0,0,0,0l0,0C96,17.9,95.9,17.9,95.8,18z M98.2,17.1
	c0.2-0.1,0.4-0.2,0.5-0.2c0.1,0,0.3,0,0.4,0.1c0.4-0.2,0.7-0.4,1-0.5c0.3-0.1,0.6-0.1,0.8,0c0,0,0,0,0,0c0,0,0,0,0,0
	c0.1-0.1,0.2-0.2,0.3-0.2c0.1,0,0.2,0,0.3,0c-0.1,0.1-0.2,0.1-0.3,0.1c-0.1,0-0.2,0.1-0.3,0.1c0,0,0,0.1,0,0.1c0,0,0,0,0,0
	c-0.2,0.1-0.4,0.3-0.6,0.3c-0.2,0.1-0.5,0.1-0.7,0.1c-0.1,0-0.2,0-0.2,0c-0.1,0-0.2,0-0.3,0C98.8,17,98.5,17.1,98.2,17.1z
	 M94.3,18.2c0.3-0.1,0.5-0.1,0.6-0.1c0.1,0,0.4,0.1,0.7,0.2c-0.4,0.1-0.8,0.2-1.2,0.3c-0.4,0-0.7,0.1-1.1,0.1
	c-0.4,0.1-0.7,0.1-1.1,0.2c-0.4,0.1-0.7,0.1-1,0c0,0,0,0.1,0,0.1c0,0,0,0.1,0,0.1c0.1,0,0.2,0.1,0.3,0.1c0.1,0,0.2,0,0.3,0l0,0
	c0,0,0,0,0,0.1c-0.1,0-0.3,0-0.4,0.1c-0.1,0-0.2,0-0.4,0.1C91,19.2,91,19,91.1,19c0-0.1,0.1-0.1,0.3-0.1c0.5-0.1,1-0.2,1.5-0.3
	C93.3,18.3,93.8,18.3,94.3,18.2z M23.9,19.7C23.9,19.7,23.8,19.8,23.9,19.7c-0.1,0.1-0.1,0.1-0.1,0.1c-0.2,0.3-0.5,0.6-0.7,0.9
	c-0.2,0.3-0.4,0.6-0.6,0.9c-0.2,0.3-0.3,0.7-0.4,1.1c-0.1,0.3-0.1,0.7,0,1.2c0.1,0.8,0.3,1.4,0.7,2c0.4,0.6,1,1,1.7,1.3
	c0.1,0,0.2,0.1,0.4,0.2c0.1,0,0.2,0.1,0.4,0.2c0.4,0.2,0.7,0.2,1,0.3c0.4,0,0.7,0,1.1-0.1c0.2-0.1,0.4-0.1,0.6-0.2
	c0.2-0.1,0.4-0.2,0.5-0.4l0,0c0,0,0.1,0,0.1,0c0.1-0.1,0.2-0.1,0.3-0.2c0.1,0,0.2-0.1,0.3-0.1c0.1-0.1,0.3-0.2,0.5-0.3
	c0.2-0.1,0.4-0.2,0.6-0.3c0.1,0.2,0.4,0.4,0.6,0.5c0.2,0.1,0.4,0.2,0.7,0.3c0,0,0.1,0.1,0.1,0.1c0,0,0.1,0.1,0.1,0.1
	c0.3,0.2,0.5,0.3,0.8,0.5c0.3,0.1,0.6,0.1,0.9,0.2c0.1,0,0.3,0,0.5,0c0.2,0,0.4-0.1,0.6-0.1c0.2,0,0.4-0.1,0.6-0.1
	c0.2-0.1,0.4-0.1,0.6-0.1c0.2,0,0.4-0.1,0.7-0.1c0.2,0,0.4-0.1,0.5-0.2c0.1-0.1,0.3-0.2,0.5-0.3c0.1-0.1,0.3-0.3,0.5-0.5
	c0.2-0.1,0.4-0.3,0.5-0.5c0,0,0.1-0.1,0.1-0.1c0,0,0.1,0,0.1-0.1c0.1-0.1,0.2-0.1,0.3-0.2c0.1-0.1,0.2-0.2,0.3-0.4
	c0-0.1,0.1-0.1,0.1-0.2c0.1-0.1,0.1-0.1,0.2-0.2c0.1-0.1,0.2-0.2,0.3-0.3c0.1-0.1,0.2-0.2,0.3-0.3c0,0,0.1,0,0.1-0.1c0,0,0,0,0,0.1
	c0.1,0.1,0.1,0.2,0.1,0.3c0.3,0.5,0.5,0.9,0.7,1.4c0.2,0.5,0.4,1,0.6,1.5c0.2,0.5,0.4,0.9,0.4,1.3c0.1,0.3,0,0.7-0.2,1.1
	c-0.2,0.3-0.6,0.8-1.2,1.4c-0.5,0.4-0.9,0.9-1.4,1.4c-0.4,0.5-0.8,1-1.2,1.6c-0.2,0.3-0.4,0.6-0.5,0.9c-0.1,0.3-0.2,0.6-0.3,0.9
	c0,0.1-0.1,0.2-0.1,0.4c0,0.1,0,0.3,0,0.4c0,0.3,0.1,0.5,0.1,0.8c0,0.2,0.1,0.5,0.3,0.7c0.1,0.1,0.2,0.2,0.2,0.4
	c0,0.1,0.1,0.3,0.1,0.5c0.1,0.2,0.2,0.3,0.3,0.3c0.1,0,0.3,0,0.5-0.1c0,0,0.1,0,0.1,0c0,0,0.1,0,0.1-0.1c0.1,0,0.1,0,0.2,0
	c0.1,0,0.1,0,0.2,0c0,0,0,0.1,0,0.1c0,0,0,0-0.1,0.1c0.1,0,0.2,0.1,0.2,0.1c0,0,0.1,0,0.1,0c0.1,0,0.3-0.1,0.4-0.1
	c0.1,0,0.2-0.1,0.4-0.2c0-0.1,0.1-0.1,0.1-0.1c0.1,0,0.1-0.1,0.2-0.1c0,0,0,0.1,0,0.1c0,0,0,0,0.1,0c0,0,0,0.1,0,0.1
	c0,0,0,0.1,0,0.1c0.2-0.1,0.4-0.2,0.4-0.3c0.1,0,0.1,0,0.2,0c-0.1,0.2-0.3,0.4-0.5,0.6c-0.1,0.2-0.3,0.4-0.5,0.6c0,0,0.1,0,0.1-0.1
	c0,0,0,0,0.1-0.1c0.1,0,0.3-0.1,0.5-0.1c0.2-0.1,0.3-0.2,0.5-0.4c0,0,0,0,0,0c0,0,0,0,0.1,0c0.2-0.1,0.4-0.2,0.5-0.2
	c0.2-0.1,0.3-0.2,0.4-0.4c0.1-0.1,0.1-0.2,0.2-0.2c0.1-0.1,0.1-0.1,0.2-0.2c0.1-0.1,0.4-0.3,0.6-0.7c0.3-0.3,0.6-0.6,0.8-0.9
	c0.3-0.3,0.5-0.6,0.6-0.7c0.1-0.2,0.2-0.3,0.3-0.5c0.1-0.1,0.2-0.3,0.3-0.5c0,0,0.1,0,0.1,0c0,0,0.1,0,0.1,0c0.1,0,0.1,0,0.1-0.1
	c0,0,0.1-0.1,0.1-0.1c0-0.2,0-0.3,0-0.6c0-0.2,0-0.4,0.1-0.6l0,0c0,0,0-0.1,0.1-0.1c0-0.1,0-0.1,0-0.2c0,0,0-0.1,0-0.2
	c0.1-0.4,0.2-0.7,0.2-0.8c0-0.2,0-0.3,0-0.5c0-0.1,0-0.4-0.1-0.7c0-0.5,0.1-0.8,0.4-1c0.3-0.2,0.6-0.4,1-0.6
	c0.4-0.1,0.7-0.3,1.1-0.6c0.1-0.1,0.2-0.1,0.3-0.2c0.1-0.1,0.2-0.2,0.3-0.2c0.3-0.2,0.5-0.4,0.8-0.6c0.3-0.2,0.5-0.4,0.8-0.6
	c0,0,0.1-0.1,0.1-0.1c0,0,0.1-0.1,0.1-0.1c0.4-0.3,0.7-0.6,1.1-0.9c0.1-0.1,0.2-0.2,0.3-0.3c0.1-0.1,0.2-0.2,0.3-0.3
	c0.1-0.1,0.2-0.3,0.4-0.5c0,0,0-0.1,0.1-0.1c0.1,0.6,0.3,1.2,0.7,1.6c0.4,0.6,1,1,1.7,1.3c0.1,0,0.2,0.1,0.4,0.2
	c0.1,0,0.2,0.1,0.4,0.2c0.4,0.2,0.7,0.2,1,0.3c0.4,0,0.7,0,1.1-0.1c0.2-0.1,0.4-0.1,0.6-0.2c0.2-0.1,0.4-0.2,0.5-0.4l0,0
	c0,0,0.1,0,0.1,0c0.1-0.1,0.2-0.1,0.3-0.2c0.1,0,0.2-0.1,0.3-0.1c0.1-0.1,0.3-0.2,0.5-0.3c0.2-0.1,0.4-0.2,0.6-0.3
	c0.1,0.2,0.4,0.4,0.6,0.5c0.2,0.1,0.4,0.2,0.7,0.3c0,0,0.1,0.1,0.1,0.1c0,0,0.1,0.1,0.1,0.1c0.3,0.2,0.5,0.3,0.8,0.5
	c0.3,0.1,0.6,0.1,0.9,0.2c0.1,0,0.3,0,0.5,0c0.2,0,0.4-0.1,0.6-0.1c0.2,0,0.4-0.1,0.6-0.1c0.2-0.1,0.4-0.1,0.6-0.1
	c0.2,0,0.4-0.1,0.7-0.1c0.2,0,0.4-0.1,0.5-0.2c0.1-0.1,0.3-0.2,0.5-0.3c0.1-0.1,0.3-0.3,0.5-0.5c0.2-0.1,0.4-0.3,0.5-0.5
	c0,0,0.1-0.1,0.1-0.1c0,0,0.1,0,0.1-0.1c0.1-0.1,0.2-0.1,0.3-0.2c0.1-0.1,0.2-0.2,0.3-0.4c0-0.1,0.1-0.1,0.1-0.2
	c0.1-0.1,0.1-0.1,0.2-0.2c0.1-0.1,0.2-0.2,0.3-0.3c0.1-0.1,0.2-0.2,0.3-0.3c0,0,0.1-0.1,0.1-0.1c0,0,0.1-0.1,0.2-0.1
	c0.1-0.1,0.3-0.4,0.5-0.8c0.2-0.4,0.3-0.7,0.3-0.9c-0.1-0.1-0.3-0.2-0.4-0.3c-0.1-0.1-0.3-0.2-0.5-0.2c0,0,0,0-0.1,0c0,0,0,0-0.1,0
	c-0.2,0.2-0.5,0.5-0.7,0.9c-0.3,0.4-0.6,0.8-0.8,1.2c-0.3,0.4-0.5,0.7-0.7,0.9c-0.1,0.1-0.3,0.2-0.4,0.3c-0.1,0.1-0.3,0.2-0.4,0.4
	c-0.2,0.1-0.4,0.2-0.6,0.3c-0.2,0.1-0.4,0.2-0.5,0.3c-0.1,0.1-0.3,0.2-0.5,0.3c-0.2,0.1-0.3,0.2-0.5,0.2c-0.2,0-0.4,0.1-0.5,0.1
	c-0.2,0-0.4,0.1-0.5,0.1c-0.1,0-0.2,0-0.3-0.1c-0.1,0-0.1-0.1-0.2-0.1c-0.1-0.2-0.2-0.4-0.2-0.7c-0.1-0.2-0.1-0.4-0.2-0.6
	c0-0.3,0-0.7,0.1-1c0.1-0.2,0.2-0.5,0.4-0.7c0.1-0.2,0.2-0.5,0.4-0.7c0,0,0.1-0.1,0.1-0.1c0,0,0-0.1,0-0.1c0-0.2,0-0.5-0.1-0.7
	c-0.1-0.2-0.2-0.5-0.4-0.7c-0.1-0.1-0.2-0.2-0.3-0.3c-0.1-0.2-0.3-0.3-0.5-0.3c-0.2,0-0.4-0.1-0.6,0c-0.2,0.3-0.4,0.6-0.5,0.9
	c-0.2,0.3-0.4,0.5-0.5,0.8c-0.1,0.2-0.2,0.4-0.4,0.6c-0.1,0.2-0.3,0.3-0.5,0.5c-0.1,0.1-0.1,0.2-0.2,0.2c-0.1,0.1-0.1,0.1-0.2,0.2
	c-0.1,0.2-0.2,0.3-0.4,0.5c-0.1,0.1-0.2,0.2-0.4,0.4c-0.3,0.2-0.6,0.5-0.9,0.7c-0.3,0.2-0.5,0.5-0.8,0.7c0,0-0.1,0.1-0.1,0.1
	c0,0-0.1,0.1-0.1,0.1c0,0,0-0.1,0-0.1c0,0,0-0.1,0-0.1c0.1-0.6,0.3-1.1,0.6-1.6c0,0,0.1-0.1,0.1-0.1c0,0,0-0.1,0.1-0.1
	c0.1-0.1,0.1-0.2,0.2-0.3c0.1-0.1,0.2-0.2,0.2-0.4c0.2-0.3,0.4-0.6,0.6-0.8c0.2-0.3,0.4-0.5,0.6-0.8c0.1-0.1,0.2-0.2,0.3-0.3
	c0.1-0.1,0.2-0.2,0.3-0.3c0.2-0.3,0.5-0.6,0.8-0.9c0.3-0.3,0.6-0.6,0.8-0.8v0c0.2-0.1,0.4-0.3,0.6-0.4c0.2-0.1,0.4-0.3,0.7-0.4
	c0.2-0.1,0.4-0.3,0.4-0.4c0.1-0.1,0.1-0.3,0-0.6c0-0.1-0.1-0.1-0.1-0.2c0-0.1-0.1-0.1-0.1-0.2c-0.1-0.2-0.2-0.3-0.4-0.5
	c-0.2-0.1-0.3-0.3-0.5-0.4c0,0-0.1,0-0.1,0c0,0-0.1,0-0.1,0c-0.1,0-0.2,0-0.4-0.1c-0.1-0.1-0.2-0.1-0.4-0.1h0c0,0,0,0-0.1,0
	c0-0.1-0.1-0.2-0.2-0.2c-0.1,0-0.2-0.1-0.3-0.1c0,0-0.1,0-0.1,0c0,0-0.1-0.1-0.1-0.1c-0.2,0-0.4-0.1-0.6-0.1c-0.2,0-0.4-0.1-0.5-0.1
	c0,0-0.1,0-0.1,0c-0.2,0-0.4,0-0.5,0c-0.2,0-0.3,0-0.5,0.1c-0.1,0-0.2,0-0.2,0c-0.1,0-0.1,0-0.2,0.1c-0.4,0.2-0.7,0.5-1,0.7
	c-0.3,0.2-0.6,0.5-0.9,0.8c-0.4,0.5-0.7,0.9-1.2,1.4c-0.4,0.5-0.7,1-1.1,1.5c0,0-0.1,0.1-0.1,0.1c0,0,0,0.1,0,0.1
	c-0.2,0.3-0.5,0.6-0.7,0.9c-0.1,0.2-0.3,0.5-0.4,0.7c-0.1,0.1-0.1,0.1-0.2,0.2c-0.1,0.1-0.2,0.3-0.4,0.4c-0.2,0.2-0.3,0.3-0.5,0.5
	c-0.1,0.2-0.3,0.3-0.5,0.5c-0.3,0.2-0.5,0.5-0.8,0.7c-0.3,0.2-0.6,0.4-0.8,0.6c-0.4,0.3-0.7,0.6-1.1,0.9c-0.4,0.3-0.7,0.5-1.1,0.8
	c-0.5,0.1-0.9,0.3-1.4,0.6c-0.5,0.2-0.9,0.4-1.2,0.5c-0.4,0.1-0.6-0.1-0.8-0.4c-0.1-0.1-0.2-0.3-0.2-0.5c0-0.2-0.1-0.3-0.2-0.5
	c-0.2-0.2-0.4-0.5-0.5-0.9c-0.2-0.4-0.4-0.8-0.6-1.2c-0.2-0.4-0.4-0.7-0.6-0.9c-0.1-0.1-0.2-0.2-0.3-0.3c-0.1-0.1-0.2-0.2-0.2-0.3
	c-0.1-0.2-0.1-0.5-0.1-0.8c0-0.3,0.1-0.7,0.2-0.9c0-0.1,0.1-0.2,0.2-0.4c0.1-0.1,0.1-0.3,0.2-0.4c0,0,0-0.1,0-0.1v0
	c0-0.1,0-0.2,0-0.3c0.1-0.1,0.1-0.2,0.1-0.2c0-0.1,0.1-0.2,0.2-0.3c0.1-0.1,0.1-0.1,0.2-0.2c0.1,0,0.2-0.1,0.2-0.1
	c0-0.1,0.1-0.2,0.1-0.3c0.1-0.2,0.2-0.4,0.2-0.7c0.1-0.2,0.1-0.4,0.2-0.7c0-0.1,0.1-0.3,0.1-0.5c0-0.1,0-0.3,0-0.5
	c0,0-0.1-0.1-0.1-0.2c0-0.1,0-0.2,0-0.2c0-0.2-0.1-0.6-0.3-0.9c-0.1-0.4-0.3-0.7-0.5-1.1c-0.2-0.3-0.4-0.6-0.5-0.7c0,0-0.1,0-0.1,0
	h0c-0.1-0.1-0.3-0.3-0.5-0.3c-0.1-0.1-0.3-0.2-0.5-0.2c0,0-0.1,0-0.1,0c-0.1,0-0.1,0.1-0.2,0.2c0,0.1-0.1,0.2-0.1,0.2
	c0,0-0.1,0.1-0.2,0.1c0,0-0.1,0-0.1,0c0,0-0.1,0-0.1,0.1c-0.1,0.2-0.2,0.3-0.4,0.5c-0.1,0.2-0.2,0.3-0.4,0.6
	c-0.1,0.3-0.3,0.6-0.5,0.9c-0.1,0.1-0.1,0.2-0.2,0.2c0,0.1-0.1,0.2-0.1,0.2c0,0.1-0.1,0.2-0.1,0.4c0,0.1-0.1,0.2-0.1,0.3
	c-0.1,0.1-0.1,0.3-0.2,0.4c0,0.1-0.1,0.3-0.1,0.4c0.1,0.1,0.1,0.3,0,0.4c0,0.1-0.1,0.2-0.1,0.3c-0.1,0.1-0.2,0.3-0.2,0.5
	c0,0.1,0,0.3,0,0.5c0,0.1-0.1,0.2-0.1,0.2c0,0.1,0,0.1-0.1,0.2c0,0.3,0.1,0.9,0.3,1.6c0.2,0.7,0.4,1.4,0.6,2.1c0,0,0,0,0,0.1
	c0,0,0,0.1-0.1,0.1c-0.3,0.4-0.6,0.8-0.8,1.2c-0.3,0.4-0.5,0.7-0.7,0.9c-0.1,0.1-0.3,0.2-0.4,0.3c-0.1,0.1-0.3,0.2-0.4,0.4
	c-0.2,0.1-0.4,0.2-0.6,0.3c-0.2,0.1-0.4,0.2-0.5,0.3C36,26,35.8,26,35.6,26.1c-0.2,0.1-0.3,0.2-0.5,0.2c-0.2,0-0.4,0.1-0.5,0.1
	c-0.2,0-0.4,0.1-0.5,0.1c-0.1,0-0.2,0-0.3-0.1c-0.1,0-0.1-0.1-0.2-0.1c-0.1-0.2-0.2-0.4-0.2-0.7c-0.1-0.2-0.1-0.4-0.2-0.6
	c0-0.3,0-0.7,0.1-1c0.1-0.2,0.2-0.5,0.4-0.7c0.1-0.2,0.2-0.5,0.4-0.7c0,0,0.1-0.1,0.1-0.1c0,0,0-0.1,0-0.1c0-0.2,0-0.5-0.1-0.7
	c-0.1-0.2-0.2-0.5-0.4-0.7c-0.1-0.1-0.2-0.2-0.3-0.3c-0.1-0.2-0.3-0.3-0.5-0.3c-0.2,0-0.4-0.1-0.6,0c-0.2,0.3-0.4,0.6-0.5,0.9
	c-0.2,0.3-0.4,0.5-0.5,0.8c-0.1,0.2-0.2,0.4-0.4,0.6c-0.1,0.2-0.3,0.3-0.5,0.5c-0.1,0.1-0.1,0.2-0.2,0.2c-0.1,0.1-0.1,0.1-0.2,0.2
	c-0.1,0.2-0.2,0.3-0.4,0.5c-0.1,0.1-0.2,0.2-0.4,0.4c-0.3,0.2-0.6,0.5-0.9,0.7c-0.3,0.2-0.5,0.5-0.8,0.7c0,0-0.1,0.1-0.1,0.1
	c0,0-0.1,0.1-0.1,0.1c0,0,0-0.1,0-0.1c0,0,0-0.1,0-0.1c0.1-0.6,0.3-1.1,0.6-1.6c0,0,0.1-0.1,0.1-0.1c0,0,0-0.1,0.1-0.1
	c0.1-0.1,0.1-0.2,0.2-0.3c0.1-0.1,0.2-0.2,0.2-0.4c0.2-0.3,0.4-0.6,0.6-0.8c0.2-0.3,0.4-0.5,0.6-0.8c0.1-0.1,0.2-0.2,0.3-0.3
	c0.1-0.1,0.2-0.2,0.3-0.3c0.2-0.3,0.5-0.6,0.8-0.9c0.3-0.3,0.6-0.6,0.8-0.8v0c0.2-0.1,0.4-0.3,0.6-0.4c0.2-0.1,0.4-0.3,0.7-0.4
	c0.2-0.1,0.4-0.3,0.4-0.4c0.1-0.1,0.1-0.3,0-0.6c0-0.1-0.1-0.1-0.1-0.2c0-0.1-0.1-0.1-0.1-0.2c-0.1-0.2-0.2-0.3-0.4-0.5
	c-0.2-0.1-0.3-0.3-0.5-0.4c0,0-0.1,0-0.1,0c0,0-0.1,0-0.1,0c-0.1,0-0.2,0-0.4-0.1c-0.1-0.1-0.2-0.1-0.4-0.1h0c0,0,0,0-0.1,0
	c0-0.1-0.1-0.2-0.2-0.2c-0.1,0-0.2-0.1-0.3-0.1c0,0-0.1,0-0.1,0c0,0-0.1-0.1-0.1-0.1c-0.2,0-0.4-0.1-0.6-0.1c-0.2,0-0.4-0.1-0.5-0.1
	c0,0-0.1,0-0.1,0c-0.2,0-0.4,0-0.5,0c-0.2,0-0.3,0-0.5,0.1c-0.1,0-0.2,0-0.2,0c-0.1,0-0.1,0-0.2,0.1c-0.4,0.2-0.7,0.5-1,0.7
	c-0.3,0.2-0.6,0.5-0.9,0.8c-0.4,0.5-0.7,0.9-1.2,1.4C24.6,18.7,24.3,19.2,23.9,19.7z M42.2,32.9c-0.1,0.2-0.1,0.5-0.2,0.7
	c0,0.2-0.1,0.5-0.2,0.7c-0.1,0.2-0.2,0.5-0.3,0.7c-0.1,0.2-0.2,0.5-0.3,0.7c0,0.1-0.1,0.1-0.1,0.2c0,0-0.1,0.1-0.1,0.1
	c-0.1,0.3-0.3,0.6-0.5,0.8c-0.2,0.2-0.4,0.4-0.6,0.6c-0.1,0.1-0.2,0.2-0.3,0.3c-0.1,0.1-0.2,0.2-0.3,0.3c-0.1,0.1-0.2,0.2-0.3,0.3
	c-0.1,0.1-0.2,0.2-0.3,0.2c-0.1,0.1-0.2,0.1-0.3,0.1c-0.1,0-0.2,0-0.2-0.1c-0.1-0.1-0.2-0.2-0.3-0.3c-0.1-0.1-0.2-0.2-0.3-0.3
	c-0.1-0.1-0.1-0.2-0.1-0.3c0-0.1,0-0.2,0-0.4c0-0.1,0.1-0.2,0.1-0.4c0-0.1,0-0.3,0-0.4c0-0.1,0.1-0.2,0.2-0.3
	c0.1-0.1,0.2-0.2,0.3-0.3c0.1-0.1,0.2-0.2,0.3-0.3c0.1-0.1,0.2-0.2,0.2-0.4c0.1-0.2,0.2-0.3,0.3-0.5c0.1-0.1,0.3-0.2,0.4-0.3
	c0.1,0,0.2-0.1,0.3-0.1c0.1,0,0.2-0.1,0.2-0.2c0.2-0.2,0.5-0.6,0.9-1c0.4-0.4,0.7-0.7,1-0.8c0.3-0.2,0.5,0,0.5,0.5c0,0,0,0.1,0,0.1
	C42.2,32.8,42.2,32.9,42.2,32.9z M13.4,1.3c-0.2,0-0.5,0-0.7,0.1c-0.2,0.1-0.4,0.2-0.6,0.4c-0.2,0.2-0.7,0.8-1.3,1.5
	C10.1,4.1,9.4,5,8.7,6c-0.8,1-1.5,2-2.1,3c-0.6,1-1.1,1.7-1.3,2.4c-0.5,0.9-0.9,1.8-1.3,2.7C3.5,15.1,3,16,2.7,16.9
	c0-0.1,0.1-0.1,0.2-0.2c0-0.1,0.1-0.2,0.1-0.3c0-0.1,0.1-0.2,0.1-0.2c0-0.1,0.1-0.1,0.1-0.2c0,0,0.1,0,0.1,0c0,0,0.1,0,0.1,0
	c-0.1,0.3-0.2,0.6-0.4,0.8c-0.1,0.3-0.2,0.6-0.3,0.9c-0.1,0.5-0.4,1-0.6,1.6c-0.2,0.6-0.4,1.1-0.6,1.6c-0.2,0.6-0.3,1.2-0.5,1.8
	c-0.1,0.6-0.3,1.2-0.4,1.8c-0.1,0.4-0.1,0.8-0.2,1.1c-0.1,0.3-0.1,0.7-0.1,1.1c0,0.6,0,1.2,0,1.7c0,0.6,0.2,1.2,0.4,1.8
	c0.1,0.1,0.1,0.3,0.2,0.5c0.1,0.2,0.1,0.3,0.2,0.6c0,0.3,0.1,0.5,0.2,0.7c0.1,0.2,0.3,0.4,0.5,0.6c0.4,0.4,0.7,0.8,1.2,1.1
	c0.4,0.3,0.9,0.6,1.4,0.7c0.1,0,0.2,0.1,0.4,0.1c0.1,0,0.2,0,0.4,0c0.1,0,0.3,0,0.5,0c0.1,0,0.3,0,0.5,0c0.4,0.1,0.8,0.3,1.2,0.3
	c0.4,0.1,0.8,0.1,1.2,0c0.4,0,0.7-0.1,1-0.1c0.3,0,0.6,0,1,0.1c0.3,0,0.6,0,0.8-0.1c0.2-0.1,0.5-0.3,0.6-0.7
	c0.1-0.1,0.1-0.2,0.2-0.3c0.1-0.1,0.2-0.2,0.2-0.3c0.6-0.7,1.2-1.5,1.7-2.7c0.5-1.1,1.1-2.3,1.5-3.6c0.5-1.3,0.9-2.4,1.4-3.5
	c0.1-0.2,0.2-0.5,0.2-0.7c0-0.2,0-0.5,0-0.7c0-0.5-0.2-0.8-0.5-1c-0.2-0.3-0.6-0.3-1.2-0.3c-0.5,0.1-1,0.1-1.5,0.2
	c-0.5,0.1-1,0.2-1.5,0.4c-0.5,0.2-0.8,0.5-1,0.8c-0.2,0.3-0.2,0.7,0,1.2c0.1,0.2,0.2,0.4,0.2,0.6c0,0.2,0,0.3-0.1,0.6
	c-0.1,0.4-0.2,0.9-0.3,1.3c-0.1,0.4-0.2,0.9-0.4,1.3c-0.2,0.5-0.5,1-0.7,1.5c-0.3,0.5-0.6,0.9-1,1c-0.4,0.2-0.7,0.1-1-0.4
	c-0.3-0.5-0.6-1.4-0.8-2.7c0-0.2,0-0.4-0.1-0.6c0-0.2,0-0.4-0.1-0.6c0-0.4-0.1-0.8-0.1-1.2c0-0.4,0-0.8,0-1.2c0-0.5,0.1-1,0.2-1.6
	c0.1-0.6,0.2-1.1,0.2-1.6c0-0.6,0.1-1.1,0.2-1.6c0.1-0.5,0.2-1,0.2-1.6c0.1-0.7,0.2-1.4,0.5-2.1c0.2-0.7,0.5-1.4,0.7-2.1
	c0.2-0.5,0.5-1,0.7-1.5c0.2-0.5,0.5-1,0.7-1.6c0.2-0.3,0.4-0.7,0.6-1.1c0.2-0.3,0.5-0.7,0.8-1c0.2-0.2,0.3-0.4,0.4-0.7
	c0.1-0.2,0.2-0.5,0.3-0.7c0-0.2,0.2-0.5,0.5-0.8c0.4-0.3,0.7-0.6,1.1-0.8c0.4-0.2,0.7-0.1,1,0.1c0.2,0.2,0.3,0.8,0.2,1.8
	c0,0,0,0.1,0,0.2c0,0.1,0,0.2,0,0.2c0,0.6-0.1,1.2-0.1,1.8c0,0.6-0.1,1.2-0.1,1.8c0,0.3,0,0.6-0.1,0.9c0,0.3,0,0.6-0.1,0.9
	c0,0.7,0,1.3-0.1,1.9c0,0.7-0.1,1.3-0.1,1.9c0,0.1,0,0.2,0.1,0.3c0.1,0,0.2,0.1,0.3,0.1c0.2,0,0.5,0.1,0.7,0.1
	c0.2,0,0.5,0.1,0.7,0.2c0.6,0.1,1.2,0,1.7-0.1c0.5-0.1,1-0.5,1.4-0.9c0.6-0.7,1.1-1.7,1.2-3.1c0.2-1.4,0.1-2.9-0.1-4.4
	c-0.3-1.6-0.7-3-1.4-4.3C19,2.4,18.1,1.5,17.1,1C16,0.4,14.8,0.5,13.4,1.3z M186.2,16.9c-0.4,0.5-0.7,0.9-1.2,1.4
	c-0.4,0.5-0.7,1-1.1,1.5c0,0-0.1,0.1-0.1,0.1c0,0,0,0.1,0,0.1c-0.2,0.3-0.5,0.6-0.7,0.9c-0.1,0.2-0.3,0.5-0.4,0.7
	c-0.1,0.1-0.1,0.1-0.2,0.2c-0.1,0.1-0.2,0.3-0.4,0.4c-0.2,0.2-0.3,0.3-0.5,0.5c-0.1,0.2-0.3,0.3-0.5,0.5c-0.3,0.2-0.5,0.5-0.8,0.7
	c-0.3,0.2-0.6,0.4-0.8,0.6c-0.4,0.3-0.7,0.6-1.1,0.9c-0.4,0.3-0.7,0.5-1.1,0.8c-0.5,0.1-0.9,0.3-1.4,0.6c-0.5,0.2-0.9,0.4-1.2,0.5
	c-0.4,0.1-0.6-0.1-0.8-0.4c-0.1-0.1-0.2-0.3-0.2-0.5c0-0.2-0.1-0.3-0.2-0.5c-0.2-0.2-0.4-0.5-0.5-0.9c-0.2-0.4-0.4-0.8-0.6-1.2
	c-0.2-0.4-0.4-0.7-0.6-0.9c-0.1-0.1-0.2-0.2-0.3-0.3c-0.1-0.1-0.2-0.2-0.2-0.3c-0.1-0.2-0.1-0.5-0.1-0.8c0-0.3,0.1-0.7,0.2-0.9
	c0-0.1,0.1-0.2,0.2-0.4c0.1-0.1,0.1-0.3,0.2-0.4c0,0,0-0.1,0-0.1v0c0-0.1,0-0.2,0-0.3c0.1-0.1,0.1-0.2,0.1-0.2
	c0-0.1,0.1-0.2,0.2-0.3c0.1-0.1,0.1-0.1,0.2-0.2c0.1,0,0.2-0.1,0.2-0.1c0-0.1,0.1-0.2,0.1-0.3c0.1-0.2,0.2-0.4,0.2-0.7
	c0.1-0.2,0.1-0.4,0.2-0.7c0-0.1,0.1-0.3,0.1-0.5c0-0.1,0-0.3,0-0.5c0,0-0.1-0.1-0.1-0.2c0-0.1,0-0.2,0-0.2c0-0.2-0.1-0.6-0.3-0.9
	c-0.1-0.4-0.3-0.7-0.5-1.1c-0.2-0.3-0.4-0.6-0.5-0.7c0,0-0.1,0-0.1,0h0c-0.1-0.1-0.3-0.3-0.5-0.3c-0.1-0.1-0.3-0.2-0.5-0.2
	c0,0-0.1,0-0.1,0c-0.1,0-0.1,0.1-0.2,0.2c0,0.1-0.1,0.2-0.1,0.2c0,0-0.1,0.1-0.2,0.1c0,0-0.1,0-0.1,0c0,0-0.1,0-0.1,0.1
	c-0.1,0.2-0.2,0.3-0.4,0.5c-0.1,0.2-0.2,0.3-0.4,0.6c-0.1,0.3-0.3,0.6-0.5,0.9c-0.1,0.1-0.1,0.2-0.2,0.2c0,0.1-0.1,0.2-0.1,0.2
	c0,0.1-0.1,0.2-0.1,0.4c0,0.1-0.1,0.2-0.1,0.3c-0.1,0.1-0.1,0.3-0.2,0.4c0,0.1-0.1,0.3-0.1,0.4c0.1,0.1,0.1,0.3,0,0.4
	c0,0.1-0.1,0.2-0.1,0.3c-0.1,0.1-0.2,0.3-0.2,0.5c0,0.1,0,0.3,0,0.5c0,0.1-0.1,0.2-0.1,0.2c0,0.1,0,0.1-0.1,0.2
	c0,0.3,0.1,0.9,0.3,1.6c0.2,0.7,0.4,1.4,0.6,2.1v0c-0.1,0.1-0.1,0.1-0.2,0.2c-0.1,0.2-0.3,0.3-0.5,0.5c-0.3,0.2-0.5,0.5-0.8,0.7
	c-0.3,0.2-0.6,0.4-0.8,0.6c-0.4,0.3-0.7,0.6-1.1,0.9c-0.4,0.3-0.7,0.5-1.1,0.8c-0.5,0.1-0.9,0.3-1.4,0.6c-0.5,0.2-0.9,0.4-1.2,0.5
	c-0.4,0.1-0.6-0.1-0.8-0.4c-0.1-0.1-0.2-0.3-0.2-0.5c0-0.2-0.1-0.3-0.2-0.5c-0.2-0.2-0.4-0.5-0.5-0.9c-0.2-0.4-0.4-0.8-0.6-1.2
	c-0.2-0.4-0.4-0.7-0.6-0.9c-0.1-0.1-0.2-0.2-0.3-0.3c-0.1-0.1-0.2-0.2-0.2-0.3c-0.1-0.2-0.1-0.5-0.1-0.8c0-0.3,0.1-0.7,0.2-0.9
	c0-0.1,0.1-0.2,0.2-0.4c0.1-0.1,0.1-0.3,0.2-0.4c0,0,0-0.1,0-0.1v0c0-0.1,0-0.2,0-0.3c0.1-0.1,0.1-0.2,0.1-0.2
	c0-0.1,0.1-0.2,0.2-0.3c0.1-0.1,0.1-0.1,0.2-0.2c0.1,0,0.2-0.1,0.2-0.1c0-0.1,0.1-0.2,0.1-0.3c0.1-0.2,0.2-0.4,0.2-0.7
	c0.1-0.2,0.1-0.4,0.2-0.7c0-0.1,0.1-0.3,0.1-0.5c0-0.1,0-0.3,0-0.5c0,0-0.1-0.1-0.1-0.2c0-0.1,0-0.2,0-0.2c0-0.2-0.1-0.6-0.3-0.9
	c-0.1-0.4-0.3-0.7-0.5-1.1c-0.2-0.3-0.4-0.6-0.5-0.7c0,0-0.1,0-0.1,0h0c-0.1-0.1-0.3-0.3-0.5-0.3c-0.1-0.1-0.3-0.2-0.5-0.2
	c0,0-0.1,0-0.1,0c-0.1,0-0.1,0.1-0.2,0.2c0,0.1-0.1,0.2-0.1,0.2c0,0-0.1,0.1-0.2,0.1c0,0-0.1,0-0.1,0c0,0-0.1,0-0.1,0.1
	c-0.1,0.2-0.2,0.3-0.4,0.5c-0.1,0.2-0.2,0.3-0.4,0.6c-0.1,0.3-0.3,0.6-0.5,0.9c-0.1,0.1-0.1,0.2-0.2,0.2c0,0.1-0.1,0.2-0.1,0.2
	c0,0.1-0.1,0.2-0.1,0.4c0,0.1-0.1,0.2-0.1,0.3c-0.1,0.1-0.1,0.3-0.2,0.4c0,0.1-0.1,0.3-0.1,0.4c0.1,0.1,0.1,0.3,0,0.4
	c0,0.1-0.1,0.2-0.1,0.3c-0.1,0.1-0.2,0.3-0.2,0.5c0,0.1,0,0.3,0,0.5c0,0.1-0.1,0.2-0.1,0.2c0,0.1,0,0.1-0.1,0.2
	c0,0.3,0.1,0.9,0.3,1.6c0.2,0.7,0.4,1.4,0.6,2.1c0,0,0,0,0,0.1c0,0,0,0.1-0.1,0.1c-0.3,0.4-0.6,0.8-0.8,1.2
	c-0.3,0.4-0.5,0.7-0.7,0.9c-0.1,0.1-0.3,0.2-0.4,0.3c-0.1,0.1-0.3,0.2-0.4,0.4c-0.2,0.1-0.4,0.2-0.6,0.3c-0.2,0.1-0.4,0.2-0.5,0.3
	c-0.1,0.1-0.3,0.2-0.5,0.3c-0.2,0.1-0.3,0.2-0.5,0.2c-0.2,0-0.4,0.1-0.5,0.1c-0.2,0-0.4,0.1-0.5,0.1c-0.1,0-0.2,0-0.3-0.1
	c-0.1,0-0.1-0.1-0.2-0.1c-0.1-0.2-0.2-0.4-0.2-0.7c-0.1-0.2-0.1-0.4-0.2-0.6c0-0.3,0-0.7,0.1-1c0.1-0.2,0.2-0.5,0.4-0.7
	c0.1-0.2,0.2-0.5,0.4-0.7c0,0,0.1-0.1,0.1-0.1c0,0,0-0.1,0-0.1c0-0.2,0-0.5-0.1-0.7c-0.1-0.2-0.2-0.5-0.4-0.7
	c-0.1-0.1-0.2-0.2-0.3-0.3c-0.1-0.2-0.3-0.3-0.5-0.3c-0.2,0-0.4-0.1-0.6,0c-0.2,0.3-0.4,0.6-0.5,0.9c-0.2,0.3-0.4,0.5-0.5,0.8
	c-0.1,0.2-0.2,0.4-0.4,0.6c-0.1,0.2-0.3,0.3-0.5,0.5c-0.1,0.1-0.1,0.2-0.2,0.2c-0.1,0.1-0.1,0.1-0.2,0.2c-0.1,0.2-0.2,0.3-0.4,0.5
	c-0.1,0.1-0.2,0.2-0.4,0.4c-0.3,0.2-0.6,0.5-0.9,0.7c-0.3,0.2-0.5,0.5-0.8,0.7c0,0-0.1,0.1-0.1,0.1c0,0-0.1,0.1-0.1,0.1
	c0,0,0-0.1,0-0.1c0,0,0-0.1,0-0.1c0.1-0.6,0.3-1.1,0.6-1.6c0,0,0.1-0.1,0.1-0.1c0,0,0-0.1,0.1-0.1c0.1-0.1,0.1-0.2,0.2-0.3
	c0.1-0.1,0.2-0.2,0.2-0.4c0.2-0.3,0.4-0.6,0.6-0.8c0.2-0.3,0.4-0.5,0.6-0.8c0.1-0.1,0.2-0.2,0.3-0.3c0.1-0.1,0.2-0.2,0.3-0.3
	c0.2-0.3,0.5-0.6,0.8-0.9c0.3-0.3,0.6-0.6,0.8-0.8v0c0.2-0.1,0.4-0.3,0.6-0.4c0.2-0.1,0.4-0.3,0.7-0.4c0.2-0.1,0.4-0.3,0.4-0.4
	s0.1-0.3,0-0.6c0-0.1-0.1-0.1-0.1-0.2c0-0.1-0.1-0.1-0.1-0.2c-0.1-0.2-0.2-0.3-0.4-0.5c-0.2-0.1-0.3-0.3-0.5-0.4c0,0-0.1,0-0.1,0
	c0,0-0.1,0-0.1,0c-0.1,0-0.2,0-0.4-0.1c-0.1-0.1-0.2-0.1-0.4-0.1h0c0,0,0,0-0.1,0c0-0.1-0.1-0.2-0.2-0.2c-0.1,0-0.2-0.1-0.3-0.1
	c0,0-0.1,0-0.1,0c0,0-0.1-0.1-0.1-0.1c-0.2,0-0.4-0.1-0.6-0.1c-0.2,0-0.4-0.1-0.5-0.1c0,0-0.1,0-0.1,0c-0.2,0-0.4,0-0.5,0
	c-0.2,0-0.3,0-0.5,0.1c-0.1,0-0.2,0-0.2,0c-0.1,0-0.1,0-0.2,0.1c-0.4,0.2-0.7,0.5-1,0.7c-0.3,0.2-0.6,0.5-0.9,0.8
	c-0.4,0.5-0.7,0.9-1.2,1.4c-0.4,0.5-0.7,1-1.1,1.5c0,0-0.1,0.1-0.1,0.1c0,0,0,0.1,0,0.1c-0.2,0.3-0.5,0.6-0.7,0.9
	c-0.1,0.2-0.3,0.5-0.5,0.7c-0.1,0.1-0.2,0.2-0.4,0.3c-0.3,0.3-0.7,0.7-1.2,1.2c-0.5,0.4-0.9,0.8-1.2,1.1c-0.2,0.3-0.5,0.6-0.7,0.9
	c-0.4,0.4-0.8,0.8-1.4,1.3c-0.6,0.4-1,0.8-1.4,1.2c-0.3,0.3-0.8,0.6-1.3,0.8c-0.5,0.3-1.1,0.5-1.7,0.7c-0.6,0.2-1,0.3-1.4,0.4
	c-0.2,0-0.5,0.1-0.9,0.2c-0.4,0.1-0.7,0.1-0.9,0c-0.1-0.1-0.2-0.2-0.2-0.3c-0.1-0.1-0.1-0.2-0.2-0.3c-0.1-0.2-0.1-0.3-0.2-0.5
	c-0.1-0.2-0.2-0.3-0.2-0.5c-0.1-0.3-0.2-0.7-0.1-1c0-0.1,0-0.3,0-0.4c0-0.1,0-0.2,0.1-0.3c0.1-0.5,0.2-0.9,0.4-1.3
	c0.1-0.4,0.3-0.8,0.5-1.2c0.2-0.4,0.4-0.8,0.6-1.3c0.2-0.4,0.4-0.8,0.6-1.2c0.3-0.7,0.7-1.3,1.1-1.8c0.2-0.3,0.4-0.5,0.6-0.8
	c0.2-0.3,0.4-0.6,0.6-0.9c0,0,0-0.1,0.1-0.1c0,0,0.1,0,0.1-0.1c0,0.1,0,0.1,0,0.2c0,0,0,0.1,0,0.1c-0.2,0.5-0.4,0.9-0.5,1.4
	c-0.1,0.5-0.3,1-0.4,1.5c0,0.1,0,0.2-0.1,0.3c0,0.1,0,0.2-0.1,0.3c0,0.1,0,0.2,0,0.3c0,0.1,0.1,0.1,0.2,0.2l0,0c0,0,0.1,0,0.1,0
	c0.2,0.1,0.4,0.1,0.5,0.2c0.1,0.1,0.3,0.2,0.4,0.3c0,0,0,0.1,0.1,0.1c0,0,0.1,0,0.2,0c0,0,0.1,0,0.2,0c0,0,0.1,0,0.1,0
	c0.1,0,0.3-0.1,0.4-0.2c0.1-0.1,0.2-0.2,0.2-0.4c0.2-0.4,0.4-0.8,0.5-1.3c0.1-0.4,0.3-0.9,0.4-1.3c0-0.1,0-0.2,0-0.3
	c0-0.1,0-0.2,0-0.4c0-0.2,0-0.5,0-0.7c0-0.2,0-0.5-0.1-0.7c0-0.1-0.1-0.3-0.1-0.4c0-0.1-0.1-0.3-0.1-0.5c0.1-0.1,0.2-0.3,0.3-0.4
	c0,0,0-0.1,0-0.1c0,0,0-0.1,0-0.1c0-0.1-0.1-0.2-0.1-0.3c0-0.1,0-0.2,0-0.3c0-0.1,0-0.2,0-0.3c0-0.1-0.1-0.2-0.2-0.2
	c-0.1,0-0.2-0.1-0.2-0.1c0,0-0.1,0.1-0.2,0.1c0,0,0,0-0.1,0c0,0,0,0-0.1,0c0,0,0,0-0.1,0c0,0,0,0-0.1,0c-0.2-0.2-0.5-0.3-0.8-0.4
	c-0.3-0.1-0.6-0.1-0.8-0.1c0,0,0,0,0,0l0,0c-0.2,0-0.4,0-0.6,0c-0.2,0-0.4,0.1-0.6,0.2c-0.1,0-0.2,0.1-0.2,0.1c0,0-0.1,0-0.2,0
	c-0.2,0-0.4,0-0.5,0.1c-0.2,0-0.4,0.1-0.5,0.3c-0.4,0.2-0.6,0.5-0.9,0.7c-0.3,0.3-0.6,0.5-0.9,0.7c-0.2,0.2-0.5,0.5-0.7,0.7
	c-0.2,0.3-0.4,0.6-0.6,0.9c-0.1,0.1-0.1,0.2-0.2,0.3c-0.1,0.1-0.1,0.2-0.2,0.3c-0.3,0.5-0.5,0.9-0.8,1.4c-0.3,0.5-0.5,1-0.7,1.5
	c-0.1,0.2-0.1,0.3-0.2,0.6c-0.1,0.2-0.1,0.3-0.2,0.5c-0.1,0.5-0.2,0.9-0.3,1.4c-0.5,0.6-0.9,1.1-1.1,1.5c-0.2,0.4-0.5,0.8-0.7,1.1
	c-0.2,0.3-0.5,0.6-1,0.9c-0.5,0.3-1.2,0.6-2.2,1c-0.1,0-0.3,0.1-0.4,0.1c-0.1,0-0.2,0-0.4-0.1c-0.1,0-0.3-0.1-0.4-0.2
	c-0.1-0.1-0.2-0.1-0.3-0.2c-0.1-0.1-0.2-0.2-0.2-0.3c-0.1-0.1-0.1-0.2-0.1-0.4c0-0.2,0-0.5,0-1c0-0.5,0.1-1,0.1-1.5c0-0.5,0-0.8,0-1
	c0-0.3,0-0.5,0-0.6c0-0.1,0.1-0.3,0.1-0.4c0-0.1,0.1-0.3,0.2-0.7c0,0,0.1-0.1,0.1-0.2c0-0.1,0.1-0.2,0.1-0.2c0-0.1,0-0.1-0.2,0.1
	c-0.1,0.2-0.2,0.4-0.3,0.6c-0.1,0.2-0.1,0.2-0.1,0.1c0.1-0.2,0.2-0.5,0.4-0.7c0.1-0.3,0.2-0.5,0.3-0.7c0-0.1,0-0.2,0.1-0.3
	c0-0.1,0.1-0.3,0.1-0.4c0.2-0.4,0.4-0.8,0.6-1.1c0.2-0.3,0.4-0.7,0.5-1c0.1-0.2,0.1-0.5,0.1-0.7c0-0.2-0.1-0.3-0.2-0.4
	c-0.1-0.1-0.3-0.2-0.5-0.3c-0.2-0.1-0.3-0.2-0.4-0.3c-0.2-0.1-0.4-0.1-0.7,0c-0.3,0.1-0.6,0.2-0.9,0.4c-0.3,0.1-0.5,0.2-0.7,0.3
	c-0.1,0-0.1,0.1-0.2,0.1c-0.1,0-0.1,0.1-0.2,0.2l0,0c-0.1,0-0.1,0-0.2,0c0,0-0.1,0-0.1-0.1c-0.1,0.1-0.1,0.3-0.1,0.4
	c0,0.1,0,0.2,0,0.3c0,0.1,0,0.3,0,0.4c0,0.1-0.1,0.3-0.2,0.4c0,0,0,0,0,0.1c0,0.1,0,0.1,0,0.1c-0.2,0.3-0.5,0.8-0.8,1.3
	c-0.4,0.5-0.6,1-0.8,1.5c-0.2,0.3-0.2,0.5-0.1,0.4c0.1,0,0.2-0.1,0.4-0.2c0.1-0.1,0.2-0.2,0.2-0.2c-0.1,0.2-0.2,0.3-0.2,0.5
	c-0.1,0.2-0.2,0.3-0.3,0.5c0,0-0.1,0.1-0.1,0.1c0,0.1-0.1,0.1-0.1,0.1c-0.2,0-0.2,0.1-0.3,0.2c0,0.1,0,0.1-0.1,0.2
	c0,0.1,0,0.3,0,0.4c0,0.1-0.1,0.3-0.1,0.4c-0.1,0.2-0.1,0.6-0.1,1c0,0.4,0,0.8-0.1,1.1c0,0.1,0,0.3,0,0.5c0,0.2,0,0.3,0.1,0.5
	c0,0.3,0,0.7,0.1,1c0.1,0.3,0.2,0.7,0.4,1c0.2,0.2,0.5,0.5,0.7,0.7c0.2,0.2,0.5,0.3,0.7,0.5c0.4,0.2,0.7,0.3,1.1,0.6
	c0.4,0.2,0.7,0.3,1,0.2c0.8,0.2,1.6,0.2,2.4-0.2c0.9-0.3,1.7-0.8,2.4-1.4c0.7-0.5,1.1-0.9,1.3-1.2c0.6-0.3,1-0.8,1.4-1.5
	c0.1-0.1,0.1-0.2,0.2-0.3c0.1,0.7,0.2,1.3,0.5,1.8s0.6,1,1.1,1.4c0.3,0.2,0.6,0.5,0.9,0.6s0.7,0.3,1,0.5c0.4,0.1,0.8,0.3,1.4,0.6
	c0.6,0.2,1.1,0.2,1.4,0.2c0.2,0,0.4,0,0.7,0c0.4,0,0.7,0,1,0c0.4,0,0.6,0,0.7,0s0.4-0.1,0.8-0.2c0.4-0.2,0.7-0.3,1.1-0.5
	c0.4-0.2,0.6-0.3,0.7-0.4c0.3-0.2,0.6-0.4,0.9-0.6c0.3-0.2,0.6-0.4,0.8-0.7c0.3-0.3,0.6-0.6,0.8-0.8c0.2-0.3,0.5-0.6,0.8-0.9
	c0.2-0.2,0.3-0.4,0.5-0.7c0.2-0.2,0.4-0.5,0.5-0.7c0,0,0,0,0-0.1c0,0,0-0.1,0-0.1c0.1-0.3,0.2-0.5,0.4-0.8c0.2-0.3,0.4-0.5,0.5-0.8
	c0.1-0.1,0.2-0.3,0.3-0.4c0.1,0.7,0.4,1.3,0.7,1.9c0.4,0.6,1,1,1.7,1.3c0.1,0,0.2,0.1,0.4,0.2c0.1,0,0.2,0.1,0.4,0.2
	c0.4,0.2,0.7,0.2,1,0.3c0.4,0,0.7,0,1.1-0.1c0.2-0.1,0.4-0.1,0.6-0.2c0.2-0.1,0.4-0.2,0.5-0.4l0,0c0,0,0.1,0,0.1,0
	c0.1-0.1,0.2-0.1,0.3-0.2c0.1,0,0.2-0.1,0.3-0.1c0.1-0.1,0.3-0.2,0.5-0.3c0.2-0.1,0.4-0.2,0.6-0.3c0.1,0.2,0.4,0.4,0.6,0.5
	c0.2,0.1,0.4,0.2,0.7,0.3c0,0,0.1,0.1,0.1,0.1c0,0,0.1,0.1,0.1,0.1c0.3,0.2,0.5,0.3,0.8,0.5c0.3,0.1,0.6,0.1,0.9,0.2
	c0.1,0,0.3,0,0.5,0c0.2,0,0.4-0.1,0.6-0.1c0.2,0,0.4-0.1,0.6-0.1c0.2-0.1,0.4-0.1,0.6-0.1c0.2,0,0.4-0.1,0.7-0.1
	c0.2,0,0.4-0.1,0.5-0.2c0.1-0.1,0.3-0.2,0.5-0.3c0.1-0.1,0.3-0.3,0.5-0.5c0.2-0.1,0.4-0.3,0.5-0.5c0,0,0.1-0.1,0.1-0.1
	c0,0,0.1,0,0.1-0.1c0.1-0.1,0.2-0.1,0.3-0.2c0.1-0.1,0.2-0.2,0.3-0.4c0-0.1,0.1-0.1,0.1-0.2c0.1-0.1,0.1-0.1,0.2-0.2
	c0.1-0.1,0.2-0.2,0.3-0.3c0.1-0.1,0.2-0.2,0.3-0.3c0,0,0.1,0,0.1-0.1c0,0,0,0,0,0.1c0.1,0.1,0.1,0.2,0.1,0.3
	c0.3,0.5,0.5,0.9,0.7,1.4c0.2,0.5,0.4,1,0.6,1.5c0.2,0.5,0.4,0.9,0.4,1.3c0.1,0.3,0,0.7-0.2,1.1c-0.2,0.3-0.6,0.8-1.2,1.4
	c-0.5,0.4-0.9,0.9-1.4,1.4c-0.4,0.5-0.8,1-1.2,1.6c-0.2,0.3-0.4,0.6-0.5,0.9c-0.1,0.3-0.2,0.6-0.3,0.9c0,0.1-0.1,0.2-0.1,0.4
	c0,0.1,0,0.3,0,0.4c0,0.3,0.1,0.5,0.1,0.8c0,0.2,0.1,0.5,0.3,0.7c0.1,0.1,0.2,0.2,0.2,0.4c0,0.1,0.1,0.3,0.1,0.5
	c0.1,0.2,0.2,0.3,0.3,0.3c0.1,0,0.3,0,0.5-0.1c0,0,0.1,0,0.1,0c0,0,0.1,0,0.1-0.1c0.1,0,0.1,0,0.2,0c0.1,0,0.1,0,0.2,0
	c0,0,0,0.1,0,0.1c0,0,0,0-0.1,0.1c0.1,0,0.2,0.1,0.2,0.1c0,0,0.1,0,0.1,0c0.1,0,0.3-0.1,0.4-0.1c0.1,0,0.2-0.1,0.4-0.2
	c0-0.1,0.1-0.1,0.1-0.1c0.1,0,0.1-0.1,0.2-0.1c0,0,0,0.1,0,0.1c0,0,0,0,0.1,0c0,0,0,0.1,0,0.1c0,0,0,0.1,0,0.1
	c0.2-0.1,0.4-0.2,0.4-0.3s0.1,0,0.2,0c-0.1,0.2-0.3,0.4-0.5,0.6c-0.1,0.2-0.3,0.4-0.5,0.6c0,0,0.1,0,0.1-0.1c0,0,0,0,0.1-0.1
	c0.1,0,0.3-0.1,0.5-0.1c0.2-0.1,0.3-0.2,0.5-0.4c0,0,0,0,0,0c0,0,0,0,0.1,0c0.2-0.1,0.4-0.2,0.5-0.2c0.2-0.1,0.3-0.2,0.4-0.4
	c0.1-0.1,0.1-0.2,0.2-0.2c0.1-0.1,0.1-0.1,0.2-0.2c0.1-0.1,0.4-0.3,0.6-0.7c0.3-0.3,0.6-0.6,0.8-0.9c0.3-0.3,0.5-0.6,0.6-0.7
	c0.1-0.2,0.2-0.3,0.3-0.5c0.1-0.1,0.2-0.3,0.3-0.5c0,0,0.1,0,0.1,0c0,0,0.1,0,0.1,0c0.1,0,0.1,0,0.1-0.1c0,0,0.1-0.1,0.1-0.1
	c0-0.2,0-0.3,0-0.6c0-0.2,0-0.4,0.1-0.6l0,0c0,0,0-0.1,0.1-0.1c0-0.1,0-0.1,0-0.2c0,0,0-0.1,0-0.2c0.1-0.4,0.2-0.7,0.2-0.8
	c0-0.2,0-0.3,0-0.5c0-0.1,0-0.4-0.1-0.7c0-0.5,0.1-0.8,0.4-1c0.3-0.2,0.6-0.4,1-0.6c0.4-0.2,0.7-0.3,1.1-0.6
	c0.1-0.1,0.2-0.1,0.3-0.2c0.1-0.1,0.2-0.2,0.3-0.2c0.3-0.2,0.5-0.4,0.8-0.6c0.3-0.2,0.5-0.4,0.8-0.6c0,0,0.1-0.1,0.1-0.1
	c0,0,0.1-0.1,0.1-0.1c0.4-0.3,0.7-0.6,1.1-0.9c0.1-0.1,0.2-0.2,0.3-0.3c0.1-0.1,0.2-0.2,0.3-0.3c0.1-0.1,0.2-0.3,0.4-0.5
	c0.1-0.2,0.2-0.3,0.3-0.5c0,0,0,0,0-0.1c0,0.1,0,0.1,0.1,0.1c0.1,0.1,0.1,0.2,0.1,0.3c0.3,0.5,0.5,0.9,0.7,1.4
	c0.2,0.5,0.4,1,0.6,1.5c0.2,0.5,0.4,0.9,0.4,1.3c0.1,0.3,0,0.7-0.2,1.1c-0.2,0.3-0.6,0.8-1.2,1.4c-0.5,0.4-0.9,0.9-1.4,1.4
	c-0.4,0.5-0.8,1-1.2,1.6c-0.2,0.3-0.4,0.6-0.5,0.9c-0.1,0.3-0.2,0.6-0.3,0.9c0,0.1-0.1,0.2-0.1,0.4c0,0.1,0,0.3,0,0.4
	c0,0.3,0.1,0.5,0.1,0.8c0,0.2,0.1,0.5,0.3,0.7c0.1,0.1,0.2,0.2,0.2,0.4c0,0.1,0.1,0.3,0.1,0.5c0.1,0.2,0.2,0.3,0.3,0.3
	c0.1,0,0.3,0,0.5-0.1c0,0,0.1,0,0.1,0c0,0,0.1,0,0.1-0.1c0.1,0,0.1,0,0.2,0c0.1,0,0.1,0,0.2,0c0,0,0,0.1,0,0.1c0,0,0,0-0.1,0.1
	c0.1,0,0.2,0.1,0.2,0.1c0,0,0.1,0,0.1,0c0.1,0,0.3-0.1,0.4-0.1c0.1,0,0.2-0.1,0.4-0.2c0-0.1,0.1-0.1,0.1-0.1c0.1,0,0.1-0.1,0.2-0.1
	c0,0,0,0.1,0,0.1c0,0,0,0,0.1,0c0,0,0,0.1,0,0.1c0,0,0,0.1,0,0.1c0.2-0.1,0.4-0.2,0.4-0.3c0.1,0,0.1,0,0.2,0
	c-0.1,0.2-0.3,0.4-0.5,0.6c-0.1,0.2-0.3,0.4-0.5,0.6c0,0,0.1,0,0.1-0.1c0,0,0,0,0.1-0.1c0.1,0,0.3-0.1,0.5-0.1
	c0.2-0.1,0.3-0.2,0.5-0.4c0,0,0,0,0,0c0,0,0,0,0.1,0c0.2-0.1,0.4-0.2,0.5-0.2c0.2-0.1,0.3-0.2,0.4-0.4c0.1-0.1,0.1-0.2,0.2-0.2
	c0.1-0.1,0.1-0.1,0.2-0.2c0.1-0.1,0.4-0.3,0.6-0.7c0.3-0.3,0.6-0.6,0.8-0.9c0.3-0.3,0.5-0.6,0.6-0.7c0.1-0.2,0.2-0.3,0.3-0.5
	c0.1-0.1,0.2-0.3,0.3-0.5c0,0,0.1,0,0.1,0c0,0,0.1,0,0.1,0c0.1,0,0.1,0,0.1-0.1c0,0,0.1-0.1,0.1-0.1c0-0.2,0-0.3,0-0.6
	c0-0.2,0-0.4,0.1-0.6l0,0c0,0,0-0.1,0.1-0.1c0-0.1,0-0.1,0-0.2c0,0,0-0.1,0-0.2c0.1-0.4,0.2-0.7,0.2-0.8c0-0.2,0-0.3,0-0.5
	c0-0.1,0-0.4-0.1-0.7c0-0.5,0.1-0.8,0.4-1c0.3-0.2,0.6-0.4,1-0.6c0.4-0.1,0.7-0.3,1.1-0.6c0.1-0.1,0.2-0.1,0.3-0.2
	c0.1-0.1,0.2-0.2,0.3-0.2c0.3-0.2,0.5-0.4,0.8-0.6c0.3-0.2,0.5-0.4,0.8-0.6c0,0,0.1-0.1,0.1-0.1c0,0,0.1-0.1,0.1-0.1
	c0.4-0.3,0.7-0.6,1.1-0.9c0.1-0.1,0.2-0.2,0.3-0.3c0.1-0.1,0.2-0.2,0.3-0.3c0.1-0.1,0.2-0.3,0.4-0.5c0,0,0-0.1,0.1-0.1
	c0.1,0.6,0.3,1.2,0.7,1.6c0.4,0.6,1,1,1.7,1.3c0.1,0,0.2,0.1,0.4,0.2c0.1,0,0.2,0.1,0.4,0.2c0.4,0.2,0.7,0.2,1,0.3
	c0.4,0,0.7,0,1.1-0.1c0.2-0.1,0.4-0.1,0.6-0.2c0.2-0.1,0.4-0.2,0.5-0.4l0,0c0,0,0.1,0,0.1,0c0.1-0.1,0.2-0.1,0.3-0.2
	c0.1,0,0.2-0.1,0.3-0.1c0.1-0.1,0.3-0.2,0.5-0.3c0.2-0.1,0.4-0.2,0.6-0.3c0.1,0.2,0.4,0.4,0.6,0.5c0.2,0.1,0.4,0.2,0.7,0.3
	c0,0,0.1,0.1,0.1,0.1c0,0,0.1,0.1,0.1,0.1c0.3,0.2,0.5,0.3,0.8,0.5c0.3,0.1,0.6,0.1,0.9,0.2c0.1,0,0.3,0,0.5,0
	c0.2,0,0.4-0.1,0.6-0.1c0.2,0,0.4-0.1,0.6-0.1c0.2-0.1,0.4-0.1,0.6-0.1c0.2,0,0.4-0.1,0.7-0.1c0.2,0,0.4-0.1,0.5-0.2
	c0.1-0.1,0.3-0.2,0.5-0.3c0.1-0.1,0.3-0.3,0.5-0.5c0.2-0.1,0.4-0.3,0.5-0.5c0,0,0.1-0.1,0.1-0.1c0,0,0.1,0,0.1-0.1
	c0.1-0.1,0.2-0.1,0.3-0.2c0.1-0.1,0.2-0.2,0.3-0.4c0-0.1,0.1-0.1,0.1-0.2c0.1-0.1,0.1-0.1,0.2-0.2c0.1-0.1,0.2-0.2,0.3-0.3
	c0.1-0.1,0.2-0.2,0.3-0.3c0,0,0.1-0.1,0.1-0.1c0,0,0.1-0.1,0.2-0.1c0.1-0.1,0.3-0.4,0.5-0.8c0.2-0.4,0.3-0.7,0.3-0.9
	c-0.1-0.1-0.3-0.2-0.4-0.3c-0.1-0.1-0.3-0.2-0.5-0.2c0,0,0,0-0.1,0c0,0,0,0-0.1,0c-0.2,0.2-0.5,0.5-0.7,0.9
	c-0.3,0.4-0.6,0.8-0.8,1.2c-0.3,0.4-0.5,0.7-0.7,0.9c-0.1,0.1-0.3,0.2-0.4,0.3c-0.1,0.1-0.3,0.2-0.4,0.4c-0.2,0.1-0.4,0.2-0.6,0.3
	c-0.2,0.1-0.4,0.2-0.5,0.3c-0.1,0.1-0.3,0.2-0.5,0.3c-0.2,0.1-0.3,0.2-0.5,0.2c-0.2,0-0.4,0.1-0.5,0.1c-0.2,0-0.4,0.1-0.5,0.1
	c-0.1,0-0.2,0-0.3-0.1c-0.1,0-0.1-0.1-0.2-0.1c-0.1-0.2-0.2-0.4-0.2-0.7c-0.1-0.2-0.1-0.4-0.2-0.6c0-0.3,0-0.7,0.1-1
	c0.1-0.2,0.2-0.5,0.4-0.7c0.1-0.2,0.2-0.5,0.4-0.7c0,0,0.1-0.1,0.1-0.1c0,0,0-0.1,0-0.1c0-0.2,0-0.5-0.1-0.7
	c-0.1-0.2-0.2-0.5-0.4-0.7c-0.1-0.1-0.2-0.2-0.3-0.3c-0.1-0.2-0.3-0.3-0.5-0.3c-0.2,0-0.4-0.1-0.6,0c-0.2,0.3-0.4,0.6-0.5,0.9
	c-0.2,0.3-0.4,0.5-0.5,0.8c-0.1,0.2-0.2,0.4-0.4,0.6c-0.1,0.2-0.3,0.3-0.5,0.5c-0.1,0.1-0.1,0.2-0.2,0.2c-0.1,0.1-0.1,0.1-0.2,0.2
	c-0.1,0.2-0.2,0.3-0.4,0.5c-0.1,0.1-0.2,0.2-0.4,0.4c-0.3,0.2-0.6,0.5-0.9,0.7c-0.3,0.2-0.5,0.5-0.8,0.7c0,0-0.1,0.1-0.1,0.1
	c0,0-0.1,0.1-0.1,0.1c0,0,0-0.1,0-0.1c0,0,0-0.1,0-0.1c0.1-0.6,0.3-1.1,0.6-1.6c0,0,0.1-0.1,0.1-0.1c0,0,0-0.1,0.1-0.1
	c0.1-0.1,0.1-0.2,0.2-0.3c0.1-0.1,0.2-0.2,0.2-0.4c0.2-0.3,0.4-0.6,0.6-0.8c0.2-0.3,0.4-0.5,0.6-0.8c0.1-0.1,0.2-0.2,0.3-0.3
	c0.1-0.1,0.2-0.2,0.3-0.3c0.2-0.3,0.5-0.6,0.8-0.9c0.3-0.3,0.6-0.6,0.8-0.8v0c0.2-0.1,0.4-0.3,0.6-0.4c0.2-0.1,0.4-0.3,0.7-0.4
	c0.2-0.1,0.4-0.3,0.4-0.4c0.1-0.1,0.1-0.3,0-0.6c0-0.1-0.1-0.1-0.1-0.2c0-0.1-0.1-0.1-0.1-0.2c-0.1-0.2-0.2-0.3-0.4-0.5
	c-0.2-0.1-0.3-0.3-0.5-0.4c0,0-0.1,0-0.1,0c0,0-0.1,0-0.1,0c-0.1,0-0.2,0-0.4-0.1c-0.1-0.1-0.2-0.1-0.4-0.1h0c0,0,0,0-0.1,0
	c0-0.1-0.1-0.2-0.2-0.2c-0.1,0-0.2-0.1-0.3-0.1c0,0-0.1,0-0.1,0c0,0-0.1-0.1-0.1-0.1c-0.2,0-0.4-0.1-0.6-0.1c-0.2,0-0.4-0.1-0.5-0.1
	c0,0-0.1,0-0.1,0c-0.2,0-0.4,0-0.5,0c-0.2,0-0.3,0-0.5,0.1c-0.1,0-0.2,0-0.2,0c-0.1,0-0.1,0-0.2,0.1c-0.4,0.2-0.7,0.5-1,0.7
	C186.8,16.3,186.5,16.6,186.2,16.9z M157.6,32.9c-0.1,0.2-0.1,0.5-0.2,0.7c0,0.2-0.1,0.5-0.2,0.7c-0.1,0.2-0.2,0.5-0.3,0.7
	c-0.1,0.2-0.2,0.5-0.3,0.7c0,0.1-0.1,0.1-0.1,0.2c0,0-0.1,0.1-0.1,0.1c-0.1,0.3-0.3,0.6-0.5,0.8c-0.2,0.2-0.4,0.4-0.6,0.6
	c-0.1,0.1-0.2,0.2-0.3,0.3c-0.1,0.1-0.2,0.2-0.3,0.3c-0.1,0.1-0.2,0.2-0.3,0.3c-0.1,0.1-0.2,0.2-0.3,0.2c-0.1,0.1-0.2,0.1-0.3,0.1
	c-0.1,0-0.2,0-0.2-0.1c-0.1-0.1-0.2-0.2-0.3-0.3c-0.1-0.1-0.2-0.2-0.3-0.3c-0.1-0.1-0.1-0.2-0.1-0.3c0-0.1,0-0.2,0-0.4
	c0-0.1,0.1-0.2,0.1-0.4c0-0.1,0-0.3,0-0.4c0-0.1,0.1-0.2,0.2-0.3c0.1-0.1,0.2-0.2,0.3-0.3c0.1-0.1,0.2-0.2,0.3-0.3
	c0.1-0.1,0.2-0.2,0.2-0.4c0.1-0.2,0.2-0.3,0.3-0.5c0.1-0.1,0.3-0.2,0.4-0.3c0.1,0,0.2-0.1,0.3-0.1c0.1,0,0.2-0.1,0.2-0.2
	c0.2-0.2,0.5-0.6,0.9-1c0.4-0.4,0.7-0.7,1-0.8c0.3-0.2,0.5,0,0.5,0.5c0,0,0,0.1,0,0.1C157.6,32.8,157.6,32.9,157.6,32.9z
	 M171.3,32.7c0,0,0,0.1,0,0.1c0,0,0,0.1,0,0.1c-0.1,0.2-0.1,0.5-0.2,0.7c0,0.2-0.1,0.5-0.2,0.7c-0.1,0.2-0.2,0.5-0.3,0.7
	c-0.1,0.2-0.2,0.5-0.3,0.7c0,0.1-0.1,0.1-0.1,0.2c0,0-0.1,0.1-0.1,0.1c-0.1,0.3-0.3,0.6-0.5,0.8c-0.2,0.2-0.4,0.4-0.6,0.6
	c-0.1,0.1-0.2,0.2-0.3,0.3c-0.1,0.1-0.2,0.2-0.3,0.3c-0.1,0.1-0.2,0.2-0.3,0.3c-0.1,0.1-0.2,0.2-0.3,0.2c-0.1,0.1-0.2,0.1-0.3,0.1
	c-0.1,0-0.2,0-0.2-0.1c-0.1-0.1-0.2-0.2-0.3-0.3c-0.1-0.1-0.2-0.2-0.3-0.3c-0.1-0.1-0.1-0.2-0.1-0.3c0-0.1,0-0.2,0-0.4
	c0-0.1,0.1-0.2,0.1-0.4c0-0.1,0-0.3,0-0.4c0-0.1,0.1-0.2,0.2-0.3c0.1-0.1,0.2-0.2,0.3-0.3c0.1-0.1,0.2-0.2,0.3-0.3
	c0.1-0.1,0.2-0.2,0.2-0.4c0.1-0.2,0.2-0.3,0.3-0.5c0.1-0.1,0.3-0.2,0.4-0.3c0.1,0,0.2-0.1,0.3-0.1c0.1,0,0.2-0.1,0.2-0.2
	c0.2-0.2,0.5-0.6,0.9-1c0.4-0.4,0.7-0.7,1-0.8C171.1,32.1,171.3,32.2,171.3,32.7z"/>
</svg>
