<?xml version="1.0" encoding="utf-8"?>
<!-- Generator: Adobe Illustrator 23.0.1, SVG Export Plug-In . SVG Version: 6.00 Build 0)  -->
<svg version="1.1" id="Слой_1" xmlns="http://www.w3.org/2000/svg" xmlns:xlink="http://www.w3.org/1999/xlink" x="0px" y="0px"
	 viewBox="0 0 50.3 31.4" style="enable-background:new 0 0 50.3 31.4;" xml:space="preserve">
<style type="text/css">
	.st0{fill:#331B1D;}
</style>
<path class="st0" d="M14.7,19C14.7,19,14.6,19,14.7,19L14.7,19c-0.1-0.1-0.1-0.1-0.2-0.1l0,0l0,0l0,0c0,0,0,0-0.1,0c0,0,0,0-0.1,0
	c0,0,0,0-0.1,0.1c0,0.1-0.1,0.1-0.1,0.2c0,0.1-0.1,0.1-0.1,0.2c0,0-0.1,0.1-0.1,0.2c0,0,0,0,0,0.1c0,0,0,0,0,0.1l-0.1,0.1
	c0,0,0,0.1-0.1,0.1v0.1v0.1l0,0l0,0h0.1h0.1H14h0.1h0.1c0,0,0.1,0,0.2-0.1c0,0,0,0,0.1-0.1h0.1c0,0,0.1,0,0.2-0.1
	c0.1,0,0.1-0.1,0.1-0.1c0-0.1,0.1-0.1,0.1-0.1l0.1-0.1c0,0,0,0,0-0.1l0,0c0,0,0-0.1,0.1-0.1c0,0,0-0.1,0.1-0.1c0,0,0,0,0.1-0.1
	c0,0,0-0.1,0.1-0.1c0-0.1-0.1-0.1-0.1-0.2c-0.1,0-0.1-0.1-0.2-0.1C14.8,19,14.8,19,14.7,19z M4.5,23L4.5,23L4.5,23L4.5,23z
	 M11.6,14.8C11.6,14.8,11.5,14.8,11.6,14.8c-0.2,0-0.3,0-0.3,0c-0.1,0-0.2,0-0.3,0c-0.2,0-0.3,0-0.5-0.1c-0.2,0-0.4,0-0.6,0
	c-0.1,0-0.2,0-0.3,0s-0.1,0-0.2,0c-0.1,0-0.2,0-0.2,0c-0.1,0-0.2,0-0.2,0c-0.1,0-0.1,0-0.2,0c0,0-0.1,0-0.2,0
	c-0.2,0-0.4,0.1-0.5,0.1c-0.2,0-0.4,0.1-0.5,0.1C7.3,14.9,7,15,6.7,15c-0.3,0-0.6,0.1-0.8,0.1c-0.1,0-0.2,0-0.3,0.1
	c-0.1,0-0.2,0.1-0.3,0.2c0,0,0,0-0.1,0.1H5.1c-0.3,0.1-0.5,0.1-0.8,0.2c-0.3,0-0.5,0.1-0.8,0.2H3.4H3.3c0.2-0.1,0.3-0.2,0.5-0.2
	c0.1,0,0.3-0.1,0.5-0.2c-0.1,0-0.1,0-0.2,0H4l0.1-0.1h0.1h0.1c0,0,0,0,0.1-0.1c-0.2,0-0.4,0.1-0.6,0.2c-0.2,0.1-0.4,0.1-0.6,0.2
	c-0.1,0-0.2,0.1-0.3,0.1s-0.2,0-0.3,0s-0.1,0.1-0.1,0.1V16v0.1v0.1c-0.1,0.2-0.1,0.3-0.2,0.5c0,0.1-0.1,0.3-0.1,0.5s0,0.4,0,0.5
	c0,0.2,0,0.3,0.1,0.5c0,0.1,0.1,0.1,0.1,0.1s0.1,0,0.2,0c0.6-0.1,0.9-0.2,1.2-0.2c0.2,0,0.3,0.1,0.3,0.2c0,0.1-0.1,0.3-0.3,0.6
	S3.4,19.5,3.2,20c-0.2,0.4-0.3,0.7-0.5,1.1s-0.3,0.7-0.5,1.1c0,0.1-0.1,0.2-0.1,0.3S2,22.7,1.9,22.8l0,0l0,0
	c-0.1,0.2-0.1,0.3-0.2,0.5c-0.1,0.2-0.1,0.3-0.1,0.5c0,0.1-0.1,0.3-0.1,0.4c0,0.1-0.1,0.3-0.1,0.4c-0.1,0.2-0.1,0.5-0.2,0.7
	C1.1,25.5,1,25.8,1,26c-0.1,0.5-0.3,1-0.5,1.5c-0.1,0.5-0.3,1-0.4,1.5c-0.1,0.2-0.1,0.4,0,0.5s0.2,0.2,0.4,0.3l0,0c0,0,0,0,0.1,0
	l0,0l0,0c0.1,0,0.2,0,0.3-0.1c0.1,0,0.2,0,0.3-0.1c0.1,0,0.2,0,0.3-0.1c0.1,0,0.2-0.1,0.3-0.1c0.2,0,0.3-0.1,0.5-0.1
	s0.3-0.1,0.5-0.3l0,0c0.1,0,0.1-0.1,0.1-0.1L3,28.8c0,0,0-0.1,0-0.2s0-0.1,0-0.2c0-0.2,0.1-0.4,0.1-0.6c0.1-0.2,0.1-0.4,0.1-0.6
	c0-0.1,0-0.3,0.1-0.4c0-0.1,0.1-0.3,0.1-0.4c0-0.1,0.1-0.2,0.1-0.4c0-0.1,0.1-0.3,0.1-0.4c0-0.1,0.1-0.2,0.1-0.3s0.1-0.2,0.1-0.3
	l0,0l0,0c0-0.1,0-0.1,0-0.2c0,0,0.1-0.1,0.1-0.2c0-0.1,0-0.1,0-0.2c0-0.1,0-0.1,0-0.1l0,0l0,0c0-0.1,0.1-0.2,0.1-0.2
	c0.1-0.1,0.1-0.2,0-0.2l0,0l0,0c0.1-0.1,0.1-0.2,0.2-0.3c0.1,0,0.2-0.1,0.3-0.1c0,0,0,0,0.1,0c0,0,0,0,0.1,0c-0.1,0-0.1,0-0.2,0
	c-0.1,0-0.1,0-0.2,0.1c-0.1,0-0.1,0-0.1-0.1c0.1,0,0.1,0,0.2,0c0.1,0,0.1,0,0.2,0h0.1c0,0,0.1,0,0.1-0.1c-0.2,0-0.3,0-0.4,0
	c-0.1,0-0.1,0-0.1-0.1c0,0,0.1-0.1,0.2-0.1c0.1,0,0.1-0.1,0.2-0.1H4.6H4.5c0.1,0,0.2-0.1,0.3-0.1s0.2-0.1,0.3-0.1s0.3-0.1,0.4-0.1
	c0.1,0,0.3,0,0.4,0c0,0,0,0,0.1,0h0.1l0.1-0.1h0.1c0.1,0,0.1,0,0.2,0c0.1,0,0.1,0,0.2-0.1c0.2-0.1,0.4-0.1,0.6-0.2
	c0.2-0.1,0.4-0.1,0.6-0.2v-0.1c0,0,0,0,0-0.1l0,0l0,0c0.2-0.1,0.4-0.1,0.6-0.2c0.2-0.1,0.4-0.1,0.6-0.2c0.2,0,0.4-0.1,0.5-0.2
	c0.2-0.1,0.4-0.1,0.6-0.2c-0.1,0-0.2,0-0.3,0.1c-0.1,0-0.1,0-0.2,0.1c0,0,0,0,0-0.1c0.1,0,0.2-0.1,0.3-0.1s0.2-0.1,0.3-0.1
	s0.2-0.1,0.3-0.1s0.2,0,0.3-0.1v-0.1v-0.1c0.1,0,0.2-0.1,0.3-0.1s0.2-0.1,0.3-0.1s0.1,0,0.2-0.1c0.1,0,0.1,0,0.1-0.1
	c0.1,0,0.1,0,0.2-0.1c0.1,0,0.1-0.1,0.2-0.1c-0.1,0-0.1,0-0.2,0c-0.1,0-0.2,0-0.2,0c0.1,0,0.2-0.1,0.3-0.1s0.1-0.1,0.2-0.1
	c0.1,0,0.1-0.1,0.2-0.1c0.1,0,0.1-0.1,0.2-0.1l0,0l0,0h-0.1c0,0-0.1,0-0.1,0.1c0,0,0,0,0-0.1c0,0,0,0,0.1,0c0,0,0,0,0.1,0
	c0.1-0.1,0.3-0.2,0.4-0.3c0.1-0.1,0.2-0.2,0.4-0.3c0.1,0,0.1-0.1,0.1-0.2c0-0.1,0.1-0.1,0.1-0.2c0.1-0.1,0.2-0.2,0.3-0.4
	c0.1-0.1,0.2-0.2,0.3-0.4c0.2-0.3,0.3-0.5,0.3-0.8c0.1-0.3,0.1-0.5,0-0.7c0-0.1-0.1-0.2-0.1-0.3c0-0.1-0.1-0.2-0.1-0.3
	s-0.1-0.2-0.2-0.3c-0.1-0.1-0.2-0.1-0.3-0.2l0,0l0,0c-0.1,0-0.1,0-0.2,0c0,0,0-0.1-0.1-0.1l-0.1-0.1L13.4,15
	c-0.1-0.1-0.3-0.1-0.5-0.2c-0.1-0.1-0.3-0.1-0.5-0.2c-0.2-0.1-0.5-0.2-0.7-0.2c-0.3-0.1-0.5-0.1-0.8-0.1c0,0,0,0,0.1,0
	c0,0,0,0,0.1,0s0.3,0.1,0.4,0.1c0.1,0,0.3,0,0.4,0.1C11.5,14.7,11.5,14.7,11.6,14.8c0.1-0.1,0.1,0,0.2,0
	C11.6,14.7,11.6,14.8,11.6,14.8z M11.2,16.7c-0.1,0-0.2,0-0.3,0c0.1,0,0.3,0.1,0.4,0c0.2,0,0.3,0,0.5,0c0,0-0.1,0-0.1,0.1
	c0,0,0,0-0.1,0.1c0.1,0,0.1,0,0.1,0h0.1c0,0,0,0-0.1,0.1l0,0l0,0l0,0c0.1,0,0.3,0.1,0.4,0.2c0.1,0.1,0.2,0.2,0.2,0.3s0,0.2,0,0.3
	s-0.1,0.2-0.2,0.3c-0.1,0.2-0.3,0.4-0.5,0.5S11.2,18.9,11,19c-0.2,0.1-0.4,0.2-0.7,0.3c-0.2,0.1-0.5,0.2-0.7,0.3S9.2,19.7,9,19.8
	c-0.2,0.1-0.4,0.1-0.6,0.2c0,0.1,0.1,0.1,0.2,0.1c0.1,0,0.2,0,0.3-0.1C9,20,9,20,9.1,20c0.1,0,0.1,0,0.2,0c0,0.1-0.1,0.1-0.1,0.1
	s-0.1,0-0.1,0.1c-0.1,0-0.3,0.1-0.4,0.1c-0.1,0-0.3,0.1-0.4,0.1c-0.1,0-0.1,0-0.2,0.1c-0.1,0-0.1,0-0.2,0.1C8,20.7,8,20.7,8.1,20.7
	c0.1,0,0.1-0.1,0.3-0.1c-0.1,0.1-0.1,0.1-0.2,0.1c0,0-0.1,0-0.1,0.1c-0.2,0.1-0.5,0.1-0.7,0.2H7.3H7.2c0-0.1-0.1,0-0.3,0
	c-0.1,0-0.2,0.1-0.4,0.1c-0.6,0.3-1,0.4-1.2,0.4c-0.3,0-0.4-0.1-0.4-0.4c0-0.2,0.1-0.5,0.2-0.8c0.2-0.3,0.4-0.6,0.6-1
	C5.8,19.1,5.9,19,6,18.8s0.2-0.4,0.3-0.5c0.2-0.4,0.4-0.6,0.5-0.8s0.3-0.3,0.5-0.4c0.2-0.1,0.5-0.2,1-0.2c0.2,0,0.4-0.1,0.6-0.1
	c0.2,0,0.4-0.1,0.7-0.1c0.3-0.1,0.5-0.1,0.7-0.1c0.1,0,0.2,0,0.3,0s0.2,0,0.3,0S11.1,16.6,11.2,16.7c0.1-0.1,0.2-0.1,0.3-0.1
	C11.4,16.6,11.3,16.7,11.2,16.7z M6.3,22L6.3,22L6.3,22c0,0,0.1,0,0.2-0.1l0,0l0,0C6.4,22,6.4,22,6.3,22z M7.4,21.6
	c0.1,0,0.1-0.1,0.2-0.1c0.1,0,0.1,0,0.2,0c0.1-0.1,0.3-0.2,0.4-0.2c0.1,0,0.2,0,0.4,0l0,0l0,0l0.1-0.1h0.1c0,0-0.1,0-0.1,0.1H8.6
	l0,0l0,0c-0.1,0.1-0.2,0.1-0.3,0.1s-0.2,0-0.3,0H7.9H7.8C7.6,21.6,7.5,21.6,7.4,21.6z M5.7,22.1c0.1,0,0.2,0,0.3,0s0.2,0,0.3,0.1
	c-0.2,0.1-0.4,0.1-0.5,0.1s-0.3,0-0.5,0.1c-0.1,0-0.3,0.1-0.5,0.1c-0.1,0-0.3,0-0.4,0l0,0l0,0h0.1h0.1l0,0l0,0c-0.1,0-0.1,0-0.2,0
	c0,0-0.1,0-0.2,0c0-0.1,0.1-0.2,0.1-0.2l0.1-0.1c0.2-0.1,0.4-0.1,0.6-0.1C5.3,22.1,5.5,22.1,5.7,22.1z M22.2,8L22.2,8
	C22.2,8,22.2,8.1,22.2,8c-0.1,0.2-0.2,0.3-0.3,0.4s-0.2,0.3-0.2,0.4c-0.1,0.1-0.1,0.3-0.2,0.5c0,0.1,0,0.3,0,0.5
	c0,0.3,0.1,0.6,0.3,0.8c0.2,0.2,0.4,0.4,0.7,0.5c0.1,0,0.1,0,0.2,0.1c0,0,0.1,0,0.2,0.1c0.1,0.1,0.3,0.1,0.4,0.1
	c0.1,0,0.3,0,0.4-0.1c0.1,0,0.2-0.1,0.2-0.1c0.1,0,0.2-0.1,0.2-0.2l0,0l0,0l0.1-0.1c0,0,0.1,0,0.1-0.1c0.1-0.1,0.1-0.1,0.2-0.1
	s0.1-0.1,0.2-0.1c0.1,0.1,0.1,0.2,0.2,0.2c0.1,0.1,0.2,0.1,0.3,0.1c0,0,0,0,0.1,0l0,0c0.1,0.1,0.2,0.1,0.3,0.2
	c0.1,0,0.2,0.1,0.4,0.1c0.1,0,0.1,0,0.2,0c0.1,0,0.2,0,0.2,0c0.1,0,0.2,0,0.2-0.1c0.1,0,0.2-0.1,0.3-0.1s0.2,0,0.3,0s0.1,0,0.2-0.1
	c0.1,0,0.1-0.1,0.2-0.1c0.1-0.1,0.1-0.1,0.2-0.2c0.1-0.1,0.1-0.1,0.2-0.2c0,0,0,0,0.1-0.1c0,0,0,0,0.1,0l0.1-0.1
	c0,0,0.1-0.1,0.1-0.2c0,0,0-0.1,0.1-0.1l0.1-0.1l0.1-0.1l0.1-0.1l0,0l0,0v0.1c0.1,0.2,0.2,0.4,0.3,0.6c0.1,0.2,0.2,0.4,0.2,0.6
	c0.1,0.2,0.1,0.4,0.2,0.5c0,0.1,0,0.3-0.1,0.5c-0.1,0.1-0.3,0.4-0.5,0.6c-0.2,0.2-0.4,0.4-0.6,0.6c-0.2,0.2-0.4,0.4-0.5,0.7
	c-0.1,0.1-0.2,0.2-0.2,0.4c-0.1,0.1-0.1,0.2-0.1,0.4c0,0,0,0.1,0,0.2c0,0.1,0,0.1,0,0.2c0,0.1,0,0.2,0.1,0.3c0,0.1,0.1,0.2,0.1,0.3
	c0,0,0.1,0.1,0.1,0.2c0,0.1,0,0.1,0.1,0.2c0,0.1,0.1,0.1,0.1,0.1s0.1,0,0.2-0.1c0,0,0,0,0.1,0l0,0h0.1h0.1c0,0,0,0,0,0.1l0,0h0.1
	c0,0,0,0,0.1,0s0.1,0,0.2-0.1c0.1,0,0.1-0.1,0.2-0.1c0,0,0,0,0.1-0.1c0,0,0.1,0,0.1-0.1l0,0l0,0l0,0l0,0c0.1-0.1,0.1-0.1,0.2-0.1
	h0.1c-0.1,0.1-0.1,0.2-0.2,0.2c-0.1,0.1-0.1,0.2-0.2,0.3l0,0l0,0c0.1,0,0.1,0,0.2-0.1c0.1,0,0.1-0.1,0.2-0.2l0,0l0,0
	c0.1,0,0.1-0.1,0.2-0.1s0.1-0.1,0.2-0.2l0.1-0.1l0.1-0.1c0.1-0.1,0.1-0.1,0.3-0.3c0.1-0.1,0.2-0.2,0.4-0.4c0.1-0.1,0.2-0.2,0.2-0.3
	s0.1-0.1,0.1-0.2s0.1-0.1,0.1-0.2l0,0l0,0c0,0,0,0,0.1,0c0,0,0,0,0.1-0.1c0-0.1,0-0.1,0-0.2c0-0.1,0-0.2,0.1-0.2l0,0c0,0,0,0,0-0.1
	v-0.1c0,0,0,0,0-0.1c0-0.2,0.1-0.3,0.1-0.4c0-0.1,0-0.1,0-0.2c0-0.1,0-0.2,0-0.3c0-0.2,0.1-0.3,0.2-0.4c0.1-0.1,0.3-0.2,0.4-0.2
	c0.2-0.1,0.3-0.1,0.5-0.2l0.1-0.1l0.1-0.1c0.1-0.1,0.2-0.2,0.3-0.3c0.1-0.1,0.2-0.2,0.3-0.2l0,0c0,0,0,0,0.1,0
	c0.1-0.1,0.3-0.2,0.4-0.4l0.1-0.1l0.1-0.1c0.1-0.1,0.1-0.1,0.1-0.2c0,0,0,0,0-0.1c0,0.3,0.1,0.5,0.3,0.7s0.4,0.4,0.7,0.5
	c0.1,0,0.1,0,0.2,0.1c0,0,0.1,0,0.2,0.1c0.1,0.1,0.3,0.1,0.4,0.1c0.1,0,0.3,0,0.4-0.1c0.1,0,0.2-0.1,0.2-0.1c0.1,0,0.2-0.1,0.2-0.2
	l0,0l0,0l0.1-0.1c0,0,0.1,0,0.1-0.1c0.1-0.1,0.1-0.1,0.2-0.1c0.1,0,0.1-0.1,0.2-0.1c0.1,0.1,0.1,0.2,0.2,0.2
	c0.1,0.1,0.2,0.1,0.3,0.1c0,0,0,0,0.1,0l0,0c0.1,0.1,0.2,0.1,0.3,0.2c0.1,0,0.3,0.1,0.4,0.1c0.1,0,0.1,0,0.2,0c0.1,0,0.2,0,0.2,0
	c0.1,0,0.2,0,0.2-0.1c0.1,0,0.2-0.1,0.3-0.1s0.2,0,0.3,0s0.1,0,0.2-0.1c0.1,0,0.1-0.1,0.2-0.1c0.1-0.1,0.1-0.1,0.2-0.2
	c0.1-0.1,0.1-0.1,0.2-0.2c0,0,0,0,0.1-0.1c0,0,0,0,0.1,0l0.1-0.1c0,0,0.1-0.1,0.1-0.2c0,0,0-0.1,0.1-0.1l0.1-0.1l0.1-0.1l0.1-0.1
	c0,0,0,0,0.1-0.1c0,0,0,0,0.1-0.1C42,9.2,42,9.1,42.1,9c0.1-0.2,0.1-0.3,0.1-0.4c-0.1-0.1-0.1-0.1-0.2-0.1c0,0-0.1-0.1-0.2-0.1l0,0
	l0,0c-0.1,0.1-0.2,0.2-0.3,0.4s-0.2,0.3-0.4,0.5c-0.1,0.2-0.2,0.3-0.3,0.4c-0.1,0.1-0.1,0.1-0.2,0.1c-0.1,0-0.1,0.1-0.2,0.2
	c-0.1,0-0.2,0.1-0.2,0.1c-0.1,0-0.1,0.1-0.2,0.1c-0.1,0-0.1,0.1-0.2,0.1c-0.1,0-0.1,0.1-0.2,0.1c-0.1,0-0.1,0-0.2,0.1
	c-0.1,0-0.1,0-0.2,0h-0.1c0,0-0.1,0-0.1-0.1s-0.1-0.2-0.1-0.3s-0.1-0.2-0.1-0.2c0-0.1,0-0.3,0.1-0.4c0-0.1,0.1-0.2,0.1-0.3
	c0.1-0.1,0.1-0.2,0.1-0.3c0,0,0,0,0-0.1c0,0,0,0,0-0.1s0-0.2,0-0.3S39,8.2,39,8.1L38.9,8c0.2,0.3,0.2,0.3,0.1,0.3
	c-0.1,0-0.2,0-0.3,0c-0.1,0.1-0.1,0.2-0.2,0.4c-0.1,0.2-0.1,0.2-0.2,0.4c0,0.1-0.1,0.2-0.2,0.2C38,9.4,38,9.4,37.9,9.5l-0.1,0.1
	l-0.1,0.1c0,0.1-0.1,0.1-0.1,0.2c0,0.1-0.1,0.1-0.2,0.2c-0.1,0.1-0.3,0.2-0.4,0.3c-0.1,0.1-0.2,0.2-0.3,0.3l0,0c0,0,0,0-0.1,0
	c0,0,0,0,0-0.1l0,0c0-0.2,0.1-0.5,0.3-0.7c0,0,0,0,0-0.1c0,0,0,0,0-0.1L37,9.6c0-0.1,0.1-0.1,0.1-0.2c0.1-0.1,0.2-0.2,0.2-0.4
	c0.1-0.1,0.1-0.2,0.3-0.3l0.1-0.1l0.1-0.1c0.1-0.1,0.2-0.2,0.3-0.4c0.1-0.1,0.2-0.2,0.4-0.4l0,0c0.1-0.1,0.2-0.1,0.3-0.2
	c0.1-0.1,0.2-0.1,0.3-0.2c0.1-0.1,0.1-0.1,0.2-0.2c0-0.1,0-0.1,0-0.2V6.8V6.7c0-0.1-0.1-0.1-0.2-0.2C39,6.4,39,6.4,38.9,6.3l0,0
	c0,0,0,0-0.1,0c0,0-0.1,0-0.1-0.1c0,0-0.1,0-0.1-0.1l0,0l0,0L38.5,6h-0.1c0,0,0,0-0.1,0c0,0,0,0-0.1,0c-0.1,0-0.1,0-0.2,0
	c-0.1,0-0.1,0-0.2-0.1c0,0,0,0-0.1,0c-0.1,0-0.1,0-0.2,0c-0.1,0-0.1,0-0.2,0h-0.1h-0.1C37,6,36.8,6.1,36.7,6.2
	c-0.1,0.1-0.3,0.2-0.4,0.4C36.2,6.8,36,7,35.8,7.2c-0.1,0.2-0.3,0.4-0.4,0.6l0,0l0,0c-0.2,0.4-0.3,0.5-0.3,0.7
	C35,8.6,35,8.7,34.9,8.8c0,0,0,0.1-0.1,0.1C34.7,9,34.7,9,34.6,9.1c-0.1,0.1-0.1,0.1-0.2,0.2c-0.1,0.1-0.1,0.1-0.2,0.2
	c-0.1,0.1-0.2,0.2-0.3,0.3c-0.1,0.1-0.2,0.2-0.4,0.3c-0.1,0.1-0.3,0.2-0.5,0.4c-0.1,0.1-0.3,0.2-0.5,0.4c-0.2,0.1-0.4,0.1-0.6,0.2
	c-0.2,0.1-0.4,0.2-0.5,0.2s-0.3,0-0.3-0.2c0,0-0.1-0.1-0.1-0.2c0-0.1,0-0.1-0.1-0.2c-0.1-0.1-0.1-0.2-0.2-0.4s-0.2-0.3-0.3-0.5
	c-0.1-0.2-0.2-0.3-0.3-0.4L30,9.3l-0.1-0.1c0-0.1,0-0.2,0-0.4c0-0.1,0-0.3,0.1-0.4c0,0,0-0.1,0.1-0.2c0-0.1,0.1-0.1,0.1-0.2l0,0l0,0
	V7.9c0,0,0-0.1,0.1-0.1c0,0,0-0.1,0.1-0.1l0.1-0.1c0,0,0.1,0,0.1-0.1c0,0,0-0.1,0.1-0.1c0-0.1,0.1-0.2,0.1-0.3s0.1-0.2,0.1-0.3
	s0-0.1,0-0.2c0-0.1,0-0.1,0-0.2c0,0,0,0,0-0.1s0-0.1,0-0.1c0-0.1,0-0.2-0.1-0.4s-0.1-0.3-0.2-0.5c-0.1-0.1-0.1-0.2-0.2-0.3l0,0l0,0
	c-0.1-0.1-0.1-0.1-0.2-0.1c0,0-0.1-0.1-0.2-0.1c0,0,0,0-0.1,0c0,0-0.1,0-0.1,0.1c0,0,0,0.1-0.1,0.1c0,0,0,0-0.1,0.1l0,0l0,0
	c0,0.1-0.1,0.1-0.1,0.2c-0.1,0.1-0.1,0.1-0.1,0.2c-0.1,0.1-0.1,0.2-0.2,0.4L29.1,6c0,0,0,0.1-0.1,0.1c0,0.1,0,0.1-0.1,0.2
	c0,0,0,0.1-0.1,0.1c0,0.1-0.1,0.1-0.1,0.2c0,0.1,0,0.1-0.1,0.2c0,0.1,0,0.1,0,0.2v0.1c0,0.1-0.1,0.1-0.1,0.2c0,0.1,0,0.1,0,0.2v0.1
	v0.1c0,0.1,0,0.4,0.1,0.7s0.1,0.6,0.2,0.9l0,0l0,0c-0.1,0.2-0.2,0.3-0.4,0.5c-0.1,0.2-0.2,0.3-0.3,0.4c-0.1,0.1-0.1,0.1-0.2,0.1
	c-0.1,0-0.1,0.1-0.2,0.2c-0.1,0-0.2,0.1-0.2,0.1c-0.1,0-0.1,0.1-0.2,0.1s-0.1,0.1-0.2,0.1c-0.1,0-0.1,0.1-0.2,0.1s-0.1,0-0.2,0.1
	c-0.1,0-0.1,0-0.2,0h-0.1c0,0-0.1,0-0.1-0.1s-0.1-0.2-0.1-0.3s-0.1-0.2-0.1-0.2c0-0.1,0-0.3,0.1-0.4c0-0.1,0.1-0.2,0.1-0.3
	c0.1-0.1,0.1-0.2,0.1-0.3c0,0,0,0,0-0.1c0,0,0,0,0-0.1s0-0.2,0-0.3s-0.1-0.2-0.1-0.3l-0.1-0.1C26.1,8.3,26,8.3,26,8.3
	c-0.1,0-0.2,0-0.3,0c-0.1,0.1-0.1,0.2-0.2,0.4c-0.1,0.1-0.1,0.2-0.2,0.4c0,0.1-0.1,0.2-0.2,0.2c0,0-0.1,0-0.2,0.1l-0.1,0.1l-0.1,0.1
	c0,0.1-0.1,0.1-0.1,0.2c0,0.1-0.1,0.1-0.2,0.2c-0.1,0.1-0.3,0.2-0.4,0.3c-0.1,0.1-0.2,0.2-0.3,0.3l0,0c0,0,0,0-0.1,0c0,0,0,0,0-0.1
	l0,0c0-0.2,0.1-0.5,0.2-0.7c0,0,0,0,0-0.1c0,0,0,0,0-0.1l0.1-0.1c0-0.1,0.1-0.1,0.1-0.2c0.1-0.1,0.2-0.2,0.3-0.4
	c0.1-0.1,0.1-0.2,0.2-0.3l0.1-0.1l0.1-0.1C24.8,8.3,24.9,8.2,25,8c0.1-0.1,0.2-0.2,0.4-0.4l0,0c0.1-0.1,0.2-0.1,0.3-0.2
	c0.1-0.1,0.2-0.1,0.3-0.2c0.1-0.1,0.1-0.1,0.2-0.2c0-0.1,0-0.1,0-0.2V6.7V6.6c0-0.1-0.1-0.1-0.2-0.2c-0.1-0.1-0.1-0.1-0.2-0.2l0,0
	c0,0,0,0-0.1,0c0,0-0.1,0-0.1-0.1c0,0-0.1,0-0.1-0.1l0,0l0,0l-0.1-0.1h-0.1c0,0,0,0-0.1,0c0,0,0,0-0.1,0s-0.1,0-0.2,0
	s-0.1,0-0.2-0.1c0,0,0,0-0.1,0s-0.1,0-0.2,0s-0.1,0-0.2,0h-0.1H24c-0.1,0.1-0.3,0.2-0.4,0.3c-0.1,0.1-0.3,0.2-0.4,0.4
	c-0.1,0.2-0.3,0.4-0.5,0.6C22.5,7.6,22.4,7.8,22.2,8z M29.9,13.5c0,0.1-0.1,0.2-0.1,0.3s0,0.2-0.1,0.3c0,0.1-0.1,0.2-0.1,0.3
	s-0.1,0.2-0.1,0.3v0.1c0,0,0,0-0.1,0.1s-0.1,0.2-0.2,0.3S29,15.4,29,15.4l-0.1,0.1l-0.1,0.1l-0.1,0.1l-0.1,0.1l-0.1,0.1h-0.1
	l-0.1-0.1l-0.1-0.1l-0.1-0.1c0,0,0-0.1,0-0.2c0-0.1,0-0.1,0-0.2c0-0.1,0-0.1,0-0.2c0-0.1,0.1-0.1,0.1-0.1l0.1-0.1l0.1-0.1
	c0,0,0.1-0.1,0.1-0.2c0-0.1,0.1-0.1,0.1-0.2c0.1-0.1,0.1-0.1,0.2-0.1c0,0,0.1,0,0.1-0.1c0,0,0.1,0,0.1-0.1c0.1-0.1,0.2-0.2,0.4-0.4
	c0.1-0.2,0.3-0.3,0.4-0.4c0.1-0.1,0.2,0,0.2,0.2C29.9,13.4,29.9,13.4,29.9,13.5L29.9,13.5z M17.8,0.3c-0.1,0-0.2,0-0.3,0
	s-0.2,0.1-0.2,0.2c-0.1,0.1-0.3,0.3-0.6,0.6c-0.3,0.3-0.6,0.7-0.9,1.1c-0.3,0.4-0.6,0.8-0.9,1.3c-0.3,0.4-0.5,0.7-0.6,1
	c-0.2,0.4-0.4,0.7-0.5,1.1c-0.2,0.4-0.4,0.8-0.5,1.2c0,0,0-0.1,0.1-0.1c0,0,0-0.1,0.1-0.1c0,0,0-0.1,0.1-0.1c0,0,0-0.1,0.1-0.1l0,0
	l0,0c-0.1,0.1-0.1,0.2-0.2,0.4c0,0.1-0.1,0.2-0.1,0.4c-0.1,0.2-0.1,0.4-0.2,0.7C13.1,8.1,13,8.4,13,8.6c-0.1,0.3-0.1,0.5-0.2,0.7
	c-0.1,0.2-0.1,0.5-0.2,0.7c0,0.2-0.1,0.3-0.1,0.5c0,0.1,0,0.3,0,0.5s0,0.5,0,0.7s0.1,0.5,0.1,0.7c0,0.1,0.1,0.1,0.1,0.2
	c0,0.1,0.1,0.1,0.1,0.2c0,0.1,0,0.2,0.1,0.3c-0.1,0.1,0,0.2,0.1,0.2c0.1,0.2,0.3,0.3,0.5,0.5c0.2,0.1,0.4,0.2,0.6,0.3
	c0,0,0.1,0,0.2,0h0.1c0.1,0,0.1,0,0.2,0c0.1,0,0.1,0,0.2,0c0.1,0.1,0.3,0.2,0.5,0.2s0.3,0,0.5,0s0.3,0,0.4,0c0.1,0,0.3,0,0.4,0
	s0.3,0,0.3,0c0.2-0.1,0.2-0.2,0.3-0.3l0.1-0.1l0.1-0.1c0.3-0.3,0.5-0.6,0.7-1.1c0.2-0.5,0.4-1,0.6-1.5c0.2-0.5,0.4-1,0.6-1.5
	c0-0.1,0.1-0.2,0.1-0.3s0-0.2,0-0.3c0-0.2-0.1-0.3-0.2-0.4c-0.1-0.1-0.3-0.1-0.5-0.1c-0.2,0-0.4,0.1-0.6,0.1c-0.2,0-0.4,0.1-0.6,0.2
	c-0.2-0.1-0.4,0-0.4,0.2c-0.1,0.1-0.1,0.3,0,0.5c0,0.1,0,0.1,0,0.2s0,0.1-0.1,0.2c0,0.2-0.1,0.4-0.1,0.5c0,0.2-0.1,0.4-0.2,0.6
	c-0.1,0.2-0.2,0.4-0.3,0.6c-0.1,0.2-0.3,0.4-0.4,0.4c-0.1,0.1-0.3,0-0.4-0.2c-0.1-0.2-0.2-0.6-0.3-1.1c0-0.1,0-0.2,0-0.2
	c0-0.1,0-0.2,0-0.2c0-0.2,0-0.3,0-0.5s0-0.3,0-0.5s0.1-0.4,0.1-0.7c0-0.2,0.1-0.5,0.1-0.7s0-0.5,0.1-0.7c0-0.2,0.1-0.4,0.1-0.7
	s0.1-0.6,0.2-0.9c0-0.2,0.1-0.4,0.2-0.7c0.1-0.2,0.2-0.4,0.3-0.6c0.1-0.2,0.2-0.4,0.3-0.7c0.1-0.1,0.1-0.3,0.2-0.5
	c0.1-0.1,0.2-0.3,0.4-0.4c0.1-0.1,0.1-0.2,0.2-0.3s0.1-0.2,0.1-0.3s0.1-0.2,0.2-0.4c0.1-0.1,0.3-0.2,0.5-0.3
	c0.2-0.1,0.3-0.1,0.4,0.1c0.1,0.1,0.1,0.4,0.1,0.7c0,0,0,0,0,0.1v0.1c0,0.2,0,0.5,0,0.7s0,0.5,0,0.7c0,0.1,0,0.3,0,0.4
	c0,0.1,0,0.3,0,0.4c0,0.3,0,0.5,0,0.8s0,0.5,0,0.8c0,0.1,0,0.1,0,0.1s0.1,0,0.1,0.1c0.1,0,0.2,0,0.3,0.1c0.1,0,0.2,0,0.3,0.1
	c0.3,0,0.5,0,0.7,0c0.2-0.1,0.4-0.2,0.6-0.4C21.1,6,21.2,5.6,21.3,5s0.1-1.2-0.1-1.9c-0.1-0.7-0.3-1.3-0.6-1.8
	c-0.3-0.5-0.6-0.9-1.1-1.1C18.9-0.1,18.4,0,17.8,0.3z M44.2,21.5c-0.1,0.2-0.3,0.4-0.5,0.6c-0.1,0.2-0.3,0.4-0.4,0.6l0,0l0,0
	c-0.1,0.1-0.2,0.2-0.3,0.4c-0.1,0.1-0.1,0.2-0.2,0.3c0,0,0,0.1-0.1,0.1c-0.1,0.1-0.1,0.1-0.2,0.2c-0.1,0.1-0.1,0.1-0.2,0.2
	c-0.1,0.1-0.1,0.1-0.2,0.2c-0.1,0.1-0.2,0.2-0.3,0.3c-0.1,0.1-0.2,0.2-0.4,0.3c-0.1,0.1-0.3,0.2-0.5,0.4c-0.1,0.1-0.3,0.2-0.5,0.4
	c-0.2,0.1-0.4,0.1-0.6,0.2c-0.2,0.1-0.4,0.2-0.5,0.2s-0.3,0-0.3-0.2c0,0-0.1-0.1-0.1-0.2c0-0.1,0-0.1-0.1-0.2
	c-0.1-0.1-0.1-0.2-0.2-0.4s-0.2-0.3-0.2-0.5c-0.1-0.2-0.2-0.3-0.3-0.4L38,23.9l-0.1-0.1c0-0.1,0-0.2,0-0.4c0-0.1,0-0.3,0.1-0.4
	c0,0,0-0.1,0.1-0.2c0-0.1,0.1-0.1,0.1-0.2l0,0l0,0v-0.1c0,0,0-0.1,0.1-0.1c0,0,0-0.1,0.1-0.1l0.1-0.1c0,0,0.1,0,0.1-0.1
	c0,0,0-0.1,0.1-0.1c0-0.1,0.1-0.2,0.1-0.3s0.1-0.2,0.1-0.3s0-0.1,0-0.2c0-0.1,0-0.1,0-0.2c0,0,0,0,0-0.1v-0.1c0-0.1,0-0.2-0.1-0.4
	s-0.1-0.3-0.2-0.5c-0.1-0.1-0.1-0.2-0.2-0.3l0,0l0,0c-0.1-0.1-0.1-0.1-0.2-0.1c0,0-0.1-0.1-0.2-0.1c0,0,0,0-0.1,0c0,0-0.1,0-0.1,0.1
	c0,0,0,0.1-0.1,0.1c0,0,0,0-0.1,0.1l0,0l0,0c0,0.1-0.1,0.1-0.1,0.2c-0.1,0.1-0.1,0.1-0.1,0.2c-0.1,0.1-0.1,0.2-0.2,0.4l-0.1,0.1
	c0,0,0,0.1-0.1,0.1c0,0.1,0,0.1-0.1,0.2c0,0,0,0.1-0.1,0.1c0,0.1-0.1,0.1-0.1,0.2c0,0.1,0,0.1-0.1,0.2c0,0.1,0,0.1,0,0.2v0.1
	c0,0.1-0.1,0.1-0.1,0.2c0,0.1,0,0.1,0,0.2v0.1v0.1c0,0.1,0,0.4,0.1,0.7s0.1,0.6,0.2,0.9l0,0L36.7,24c-0.1,0.1-0.1,0.1-0.2,0.2
	c-0.1,0.1-0.2,0.2-0.3,0.3c-0.1,0.1-0.2,0.2-0.4,0.3c-0.1,0.1-0.3,0.2-0.5,0.4c-0.1,0.1-0.3,0.2-0.5,0.4c-0.2,0.1-0.4,0.1-0.6,0.2
	C34,25.9,33.8,26,33.7,26s-0.3,0-0.3-0.2c0,0-0.1-0.1-0.1-0.2c0-0.1,0-0.1-0.1-0.2c-0.1-0.1-0.1-0.2-0.2-0.4s-0.2-0.3-0.3-0.5
	c-0.1-0.2-0.2-0.3-0.2-0.4L32.4,24l-0.1-0.1c0-0.1,0-0.2,0-0.4c0-0.1,0-0.3,0.1-0.4c0,0,0-0.1,0.1-0.2c0-0.1,0.1-0.1,0.1-0.2l0,0
	l0,0v-0.1c0,0,0-0.1,0.1-0.1c0,0,0-0.1,0.1-0.1l0.1-0.1c0,0,0.1,0,0.1-0.1c0,0,0-0.1,0.1-0.1c0-0.1,0.1-0.2,0.1-0.3s0.1-0.2,0.1-0.3
	s0-0.1,0-0.2c0-0.1,0-0.1,0-0.2c0,0,0,0,0-0.1v-0.1c0-0.1,0-0.2-0.1-0.4S33.1,20.2,33,20c-0.1-0.1-0.1-0.2-0.2-0.3l0,0l0,0
	c-0.1-0.1-0.1-0.1-0.2-0.1c0,0-0.1-0.1-0.2-0.1c0,0,0,0-0.1,0c0,0-0.1,0-0.1,0.1c0,0,0,0.1-0.1,0.1c0,0,0,0-0.1,0.1l0,0l0,0
	c0,0.1-0.1,0.1-0.1,0.2c-0.1,0.1-0.1,0.1-0.1,0.2c-0.1,0.1-0.1,0.2-0.2,0.4l-0.1,0.1c0,0,0,0.1-0.1,0.1c0,0.1,0,0.1-0.1,0.2
	c0,0,0,0.1-0.1,0.1c0,0.1-0.1,0.1-0.1,0.2c0,0.1,0,0.1-0.1,0.2c0,0.1,0,0.1,0,0.2v0.1c0,0.1-0.1,0.1-0.1,0.2c0,0.1,0,0.1,0,0.2v0.1
	v0.1c0,0.1,0,0.4,0.1,0.7s0.1,0.6,0.2,0.9l0,0l0,0c-0.1,0.2-0.2,0.3-0.4,0.5c-0.1,0.2-0.2,0.3-0.3,0.4C30.4,25,30.4,25,30.3,25
	s-0.1,0.1-0.2,0.2c-0.1,0-0.2,0.1-0.2,0.1c-0.1,0-0.1,0.1-0.2,0.1c-0.1,0-0.1,0.1-0.2,0.1c-0.1,0-0.1,0.1-0.2,0.1
	c-0.1,0-0.1,0-0.2,0.1c-0.1,0-0.1,0-0.2,0h-0.1c0,0-0.1,0-0.1-0.1s-0.1-0.2-0.1-0.3s-0.1-0.2-0.1-0.2c0-0.1,0-0.3,0.1-0.4
	c0-0.1,0.1-0.2,0.1-0.3c0.1-0.1,0.1-0.2,0.1-0.3c0,0,0,0,0-0.1c0,0,0,0,0-0.1s0-0.2,0-0.3s-0.1-0.2-0.1-0.3l-0.1-0.1
	c-0.1-0.1-0.1-0.1-0.2-0.1c-0.1,0-0.2,0-0.3,0c-0.1,0.1-0.1,0.2-0.2,0.4c-0.1,0.1-0.1,0.2-0.2,0.4c0,0.1-0.1,0.2-0.2,0.2
	c-0.1,0.1-0.1,0.1-0.2,0.2l-0.1,0.1l-0.1,0.1c0,0.1-0.1,0.1-0.1,0.2c0,0.1-0.1,0.1-0.2,0.2c-0.1,0.1-0.2,0.2-0.4,0.3
	c-0.1,0.1-0.2,0.2-0.3,0.3l0,0c0,0,0,0-0.1,0c0,0,0,0,0-0.1l0,0c0-0.2,0.1-0.5,0.3-0.7c0,0,0,0,0-0.1c0,0,0,0,0-0.1l0.1-0.1
	c0-0.1,0.1-0.1,0.1-0.2c0.1-0.1,0.2-0.2,0.3-0.4c0.1-0.1,0.1-0.2,0.3-0.3l0.1-0.1l0.1-0.1c0.1-0.1,0.2-0.2,0.3-0.4
	c0.1-0.1,0.2-0.2,0.4-0.4l0,0c0.1-0.1,0.2-0.1,0.3-0.2c0.1-0.1,0.2-0.1,0.3-0.2c0.1-0.1,0.1-0.1,0.2-0.2c0-0.1,0-0.1,0-0.2v-0.1
	v-0.1c0-0.1-0.1-0.1-0.2-0.2c-0.1-0.1-0.1-0.1-0.2-0.2l0,0c0,0,0,0-0.1,0c0,0-0.1,0-0.1-0.1c0,0-0.1,0-0.1-0.1l0,0l0,0L28,20.8h-0.1
	c0,0,0,0-0.1,0c0,0,0,0-0.1,0s-0.1,0-0.2,0c-0.1,0-0.1,0-0.2-0.1c0,0,0,0-0.1,0s-0.1,0-0.2,0c-0.1,0-0.1,0-0.2,0h-0.1h-0.1
	c-0.1,0.1-0.3,0.2-0.4,0.3c-0.1,0.1-0.2,0.2-0.4,0.4c-0.1,0.2-0.3,0.4-0.5,0.6c-0.1,0.2-0.3,0.4-0.4,0.6l0,0l0,0
	c-0.1,0.1-0.2,0.2-0.3,0.4c-0.1,0.1-0.1,0.2-0.2,0.3c-0.1,0-0.1,0.1-0.1,0.1c-0.1,0.1-0.3,0.3-0.5,0.5s-0.4,0.3-0.5,0.5
	c-0.1,0.1-0.2,0.2-0.3,0.4s-0.4,0.3-0.6,0.5c-0.2,0.2-0.4,0.4-0.6,0.5c-0.1,0.1-0.3,0.2-0.6,0.4c-0.2,0.1-0.5,0.2-0.7,0.3
	s-0.4,0.1-0.6,0.2c-0.1,0-0.2,0.1-0.4,0.1c-0.2,0.1-0.3,0.1-0.4,0L19,26.7l-0.1-0.1c0-0.1-0.1-0.1-0.1-0.2c0-0.1-0.1-0.1-0.1-0.2
	c-0.1-0.1-0.1-0.3-0.1-0.4c0-0.1,0-0.1,0-0.2v-0.1c0-0.2,0.1-0.4,0.2-0.5c0.1-0.2,0.1-0.3,0.2-0.5c0.1-0.2,0.2-0.4,0.2-0.5
	c0.1-0.2,0.2-0.3,0.3-0.5c0.1-0.3,0.3-0.5,0.4-0.8c0.1-0.1,0.2-0.2,0.3-0.3s0.2-0.2,0.2-0.4l0,0c0,0,0,0,0.1,0v0.1c0,0,0,0,0,0.1
	c-0.1,0.2-0.2,0.4-0.2,0.6c-0.1,0.2-0.1,0.4-0.2,0.6v0.1v0.1c0,0.1,0,0.1,0,0.1s0,0.1,0.1,0.1l0,0l0,0c0.1,0,0.1,0.1,0.2,0.1
	c0.1,0,0.1,0.1,0.2,0.1l0,0c0,0,0,0,0.1,0c0,0,0,0,0.1,0c0,0,0,0,0.1,0s0.1,0,0.2-0.1c0,0,0.1-0.1,0.1-0.2c0.1-0.2,0.1-0.4,0.2-0.5
	c0.1-0.2,0.1-0.4,0.2-0.6v-0.1c0-0.1,0-0.1,0-0.2c0-0.1,0-0.2,0-0.3s0-0.2,0-0.3s0-0.1-0.1-0.2c0-0.1,0-0.1,0-0.2
	c0-0.1,0.1-0.1,0.1-0.2l0,0l0,0V21v-0.1v-0.1c0,0,0-0.1-0.1-0.1h-0.1c0,0,0,0-0.1,0.1l0,0l0,0l0,0l0,0c-0.1-0.1-0.2-0.1-0.3-0.2
	c-0.1,0-0.2,0-0.4,0l0,0l0,0c-0.1,0-0.1,0-0.2,0c-0.1,0-0.2,0.1-0.3,0.1H20c0,0,0,0-0.1,0s-0.1,0-0.2,0c-0.1,0-0.1,0.1-0.2,0.1
	c-0.1,0.1-0.3,0.2-0.4,0.3c-0.1,0.1-0.3,0.2-0.4,0.3c-0.1,0.1-0.2,0.2-0.3,0.3s-0.2,0.2-0.2,0.4l-0.1,0.1L18,22.3
	c-0.1,0.2-0.2,0.4-0.3,0.6c-0.1,0.2-0.2,0.4-0.3,0.6c0,0.1-0.1,0.1-0.1,0.2c0,0.1-0.1,0.1-0.1,0.2c-0.1,0.2-0.1,0.4-0.1,0.6
	c-0.2,0.2-0.4,0.5-0.5,0.6c-0.1,0.2-0.2,0.3-0.3,0.5c-0.1,0.1-0.2,0.3-0.4,0.4c-0.2,0.1-0.5,0.3-0.9,0.4c-0.1,0-0.1,0-0.2,0
	c0,0-0.1,0-0.2-0.1c-0.1,0-0.1,0-0.2-0.1c-0.1,0-0.1-0.1-0.1-0.1L14.2,26c0,0,0-0.1-0.1-0.2c0-0.1,0-0.2,0-0.4s0-0.4,0-0.6
	c0-0.2,0-0.4,0-0.4c0-0.1,0-0.2,0-0.2c0-0.1,0-0.1,0.1-0.2c0-0.1,0.1-0.1,0.1-0.3c0,0,0,0,0-0.1v-0.1c0-0.1,0,0-0.1,0.1
	c0,0.1-0.1,0.2-0.1,0.2c0,0.1-0.1,0.1,0,0s0.1-0.2,0.1-0.3s0.1-0.2,0.1-0.3v-0.1c0-0.1,0-0.1,0.1-0.2c0.1-0.2,0.2-0.3,0.2-0.5
	c0.1-0.1,0.1-0.3,0.2-0.4c0-0.1,0-0.2,0-0.3s0-0.1-0.1-0.2c0,0-0.1-0.1-0.2-0.1c-0.1,0-0.1-0.1-0.2-0.1c-0.1,0-0.2,0-0.3,0
	s-0.2,0.1-0.4,0.2c-0.1,0.1-0.2,0.1-0.3,0.1h-0.1l-0.1,0.1l0,0H13c0,0,0,0-0.1,0c0,0.1-0.1,0.1-0.1,0.2V22c0,0.1,0,0.1,0,0.2
	c0,0.1,0,0.1-0.1,0.2l0,0c0,0,0,0,0,0.1c-0.1,0.1-0.2,0.3-0.3,0.5s-0.3,0.4-0.4,0.6c-0.1,0.1-0.1,0.2-0.1,0.2s0.1,0,0.1-0.1
	c0.1-0.1,0.1-0.1,0.1-0.1c0,0.1-0.1,0.1-0.1,0.2c0,0.1-0.1,0.1-0.1,0.2c0,0,0,0,0,0.1l0,0c-0.1,0-0.1,0-0.1,0.1v0.1
	c0,0.1,0,0.1,0,0.2c0,0.1,0,0.1,0,0.2c0,0.1,0,0.2-0.1,0.4c0,0.2,0,0.3,0,0.5c0,0.1,0,0.1,0,0.2c0,0.1,0,0.1,0,0.2
	c0,0.1,0,0.3,0.1,0.4c0,0.1,0.1,0.3,0.1,0.4c0.1,0.1,0.2,0.2,0.3,0.3s0.2,0.1,0.3,0.2c0.1,0.1,0.3,0.1,0.5,0.2
	c0.1,0.1,0.3,0.1,0.4,0.1c0.3,0.1,0.7,0.1,1-0.1c0.4-0.1,0.7-0.4,1-0.6c0.3-0.2,0.5-0.4,0.6-0.5c0.2-0.1,0.4-0.4,0.6-0.6
	c0,0,0-0.1,0.1-0.1c0,0.3,0.1,0.5,0.2,0.8c0.1,0.2,0.3,0.4,0.5,0.6c0.1,0.1,0.3,0.2,0.4,0.3c0.1,0.1,0.3,0.1,0.4,0.2
	c0.1,0.1,0.3,0.1,0.6,0.2c0.2,0.1,0.4,0.1,0.6,0.1c0.1,0,0.2,0,0.3,0s0.3,0,0.4,0c0.1,0,0.3,0,0.3,0s0.2,0,0.3-0.1s0.3-0.1,0.5-0.2
	c0.1-0.1,0.2-0.1,0.3-0.2c0.1-0.1,0.3-0.2,0.4-0.2c0.1-0.1,0.2-0.2,0.4-0.3c0.1-0.1,0.2-0.2,0.4-0.4c0.1-0.1,0.2-0.2,0.3-0.4
	c0.1-0.1,0.1-0.2,0.2-0.3c0.1-0.1,0.1-0.2,0.2-0.3l0,0l0,0c0-0.1,0.1-0.2,0.2-0.3c0.1-0.1,0.1-0.2,0.2-0.3c0-0.1,0.1-0.1,0.1-0.2
	c0,0.3,0.1,0.6,0.3,0.8s0.4,0.4,0.7,0.5c0.1,0,0.1,0,0.2,0.1c0,0,0.1,0,0.2,0.1c0.1,0.1,0.3,0.1,0.4,0.1c0.1,0,0.3,0,0.4-0.1
	c0-0.2,0-0.2,0.1-0.2s0.2-0.1,0.2-0.2l0,0l0,0l0.1-0.1c0,0,0.1,0,0.1-0.1c0.1-0.1,0.1-0.1,0.2-0.1c0.1,0,0.1-0.1,0.2-0.1
	c0.1,0.1,0.1,0.2,0.2,0.2c0.1,0.1,0.2,0.1,0.3,0.1c0,0,0,0,0.1,0l0,0c0.1,0.1,0.2,0.1,0.3,0.2c0.1,0,0.3,0.1,0.4,0.1
	c0.1,0,0.1,0,0.2,0c0.1,0,0.2,0,0.2,0c0.1,0,0.2,0,0.2-0.1c0.1,0,0.2-0.1,0.3-0.1s0.2,0,0.3,0s0.1,0,0.2-0.1c0.1,0,0.1-0.1,0.2-0.1
	c0.1-0.1,0.1-0.1,0.2-0.2c0.1-0.1,0.1-0.1,0.2-0.2c0,0,0,0,0.1-0.1c0,0,0,0,0.1,0l0.1-0.1c0,0,0.1-0.1,0.1-0.2c0,0,0-0.1,0.1-0.1
	l0.1-0.1l0.1-0.1l0.1-0.1l0,0l0,0v0.1c0.1,0.2,0.2,0.4,0.3,0.6c0.1,0.2,0.2,0.4,0.2,0.6c0.1,0.2,0.1,0.4,0.2,0.5
	c0,0.1,0,0.3-0.1,0.5c-0.1,0.1-0.2,0.4-0.5,0.6c-0.2,0.2-0.4,0.4-0.6,0.6c-0.2,0.2-0.4,0.4-0.5,0.7c-0.1,0.1-0.2,0.2-0.2,0.4
	c-0.1,0.1-0.1,0.2-0.1,0.4c0,0,0,0.1,0,0.2c0,0.1,0,0.1,0,0.2c0,0.1,0,0.2,0.1,0.3c0,0.1,0.1,0.2,0.1,0.3c0,0,0.1,0.1,0.1,0.2
	c0,0.1,0,0.1,0.1,0.2c0,0.1,0.1,0.1,0.1,0.1s0.1,0,0.2-0.1c0,0,0,0,0.1,0l0,0h0.1h0.1c0,0,0,0,0,0.1l0,0h0.1c0,0,0,0,0.1,0
	s0.1,0,0.2-0.1c0.1,0,0.1-0.1,0.2-0.1c0,0,0,0,0.1-0.1c0,0,0.1,0,0.1-0.1l0,0l0,0l0,0l0,0c0.1-0.1,0.1-0.1,0.2-0.1h0.1
	c-0.1,0.1-0.1,0.2-0.2,0.2c-0.1,0.1-0.1,0.2-0.2,0.3l0,0l0,0c0.1,0,0.1,0,0.2-0.1c0.1,0,0.1-0.1,0.2-0.2l0,0l0,0
	c0.1,0,0.1-0.1,0.2-0.1c0.1,0,0.1-0.1,0.2-0.2l0.1-0.1l0.1-0.1c0.1-0.1,0.1-0.1,0.3-0.3c0.1-0.1,0.2-0.2,0.4-0.4
	c0.1-0.1,0.2-0.2,0.2-0.3s0.1-0.1,0.1-0.2c0-0.1,0.1-0.1,0.1-0.2l0,0l0,0c0,0,0,0,0.1,0c0,0,0,0,0.1-0.1c0-0.1,0-0.1,0-0.2
	c0-0.1,0-0.2,0.1-0.2l0,0c0,0,0,0,0-0.1V28c0,0,0,0,0-0.1c0-0.2,0.1-0.3,0.1-0.4c0-0.1,0-0.1,0-0.2c0-0.1,0-0.2,0-0.3
	c0-0.2,0.1-0.3,0.2-0.4c0.1-0.1,0.3-0.2,0.4-0.2c0.2-0.1,0.3-0.1,0.5-0.2l0.1-0.1l0.1-0.1c0.1-0.1,0.2-0.2,0.3-0.3
	c0.1-0.1,0.2-0.2,0.3-0.2l0,0c0,0,0,0,0.1,0c0.1-0.1,0.3-0.2,0.4-0.4l0.1-0.1l0.1-0.1c0.1-0.1,0.1-0.1,0.1-0.2
	c0-0.1,0.1-0.1,0.1-0.2l0,0c0,0,0,0,0,0.1v0.1c0.1,0.2,0.2,0.4,0.3,0.6c0.1,0.2,0.2,0.4,0.2,0.6c0.1,0.2,0.1,0.4,0.2,0.5
	c0,0.1,0,0.3-0.1,0.5c-0.1,0.1-0.3,0.4-0.5,0.6c-0.2,0.2-0.4,0.4-0.6,0.6c-0.2,0.2-0.4,0.4-0.5,0.7c-0.1,0.1-0.2,0.2-0.2,0.4
	c-0.1,0.1-0.1,0.2-0.1,0.4c0,0,0,0.1,0,0.2c0,0.1,0,0.1,0,0.2c0,0.1,0,0.2,0.1,0.3c0,0.1,0.1,0.2,0.1,0.3c0,0,0.1,0.1,0.1,0.2
	c0,0.1,0,0.1,0.1,0.2c0,0.1,0.1,0.1,0.1,0.1s0.1,0,0.2-0.1c0,0,0,0,0.1,0l0,0h0.1h0.1c0,0,0,0,0,0.1l0,0h0.1c0,0,0,0,0.1,0
	s0.1,0,0.2-0.1c0.1,0,0.1-0.1,0.2-0.1c0,0,0,0,0.1-0.1c0,0,0.1,0,0.1-0.1l0,0l0,0l0,0l0,0c0.1-0.1,0.1-0.1,0.2-0.1h0.1
	c-0.1,0.1-0.1,0.2-0.2,0.2c-0.1,0.1-0.1,0.2-0.2,0.3l0,0l0,0c0.1,0,0.1,0,0.2-0.1c0.1,0,0.1-0.1,0.2-0.2l0,0l0,0
	c0.1,0,0.1-0.1,0.2-0.1s0.1-0.1,0.2-0.2l0.1-0.1l0.1-0.1c0.1-0.1,0.1-0.1,0.3-0.3c0.1-0.1,0.2-0.2,0.4-0.4c0.1-0.1,0.2-0.2,0.2-0.3
	s0.1-0.1,0.1-0.2c0-0.1,0.1-0.1,0.1-0.2l0,0l0,0c0,0,0,0,0.1,0c0,0,0,0,0.1-0.1c0-0.1,0-0.1,0-0.2c0-0.1,0-0.2,0.1-0.2l0,0
	c0,0,0,0,0-0.1v-0.1c0,0,0,0,0-0.1c0-0.2,0.1-0.3,0.1-0.4c0-0.1,0-0.1,0-0.2c0-0.1,0-0.2,0-0.3c0-0.2,0.1-0.3,0.2-0.4
	c0.1-0.1,0.3-0.2,0.4-0.2c0.2-0.1,0.3-0.1,0.5-0.2l0.1-0.1l0.1-0.1c0.1-0.1,0.2-0.2,0.3-0.3c0.1-0.1,0.2-0.2,0.3-0.2l0,0
	c0,0,0,0,0.1,0c0.1-0.1,0.3-0.2,0.4-0.4l0.1-0.1l0.1-0.1c0.1-0.1,0.1-0.1,0.1-0.2c0,0,0,0,0-0.1c0,0.3,0.1,0.5,0.3,0.7
	c0.2,0.2,0.4,0.4,0.7,0.5c0.1,0,0.1,0,0.2,0.1c0,0,0.1,0,0.2,0.1s0.3,0.1,0.4,0.1s0.3,0,0.4-0.1c0.1,0,0.2-0.1,0.2-0.1
	c0.1,0,0.2-0.1,0.2-0.2l0,0l0,0l0.1-0.1c0,0,0.1,0,0.1-0.1c0.1-0.1,0.1-0.1,0.2-0.1s0.1-0.1,0.2-0.1c0.1,0.1,0.1,0.2,0.2,0.2
	c0.1,0.1,0.2,0.1,0.3,0.1c0,0,0,0,0.1,0l0,0c0.1,0.1,0.2,0.1,0.3,0.2c0.1,0,0.3,0.1,0.4,0.1s0.1,0,0.2,0s0.2,0,0.2,0
	c0.1,0,0.2,0,0.2-0.1c0.1,0,0.2-0.1,0.2-0.1c0.1,0,0.2,0,0.3,0c0.1,0,0.1,0,0.2-0.1c0.1,0,0.1-0.1,0.2-0.1c0.1-0.1,0.1-0.1,0.2-0.2
	c0.1-0.1,0.1-0.1,0.2-0.2c0,0,0,0,0.1-0.1c0,0,0,0,0.1,0l0.1-0.1c0,0,0.1-0.1,0.1-0.2c0,0,0-0.1,0.1-0.1l0.1-0.1l0.1-0.1l0.1-0.1
	c0,0,0,0,0.1-0.1c0,0,0,0,0.1-0.1s0.1-0.2,0.2-0.3c0.1-0.2,0.1-0.3,0.1-0.4c-0.1-0.1-0.1-0.1-0.2-0.1c0,0-0.1-0.1-0.2-0.1l0,0l0,0
	c-0.1,0.1-0.2,0.2-0.3,0.4c-0.1,0.2-0.2,0.3-0.4,0.5s-0.2,0.3-0.3,0.4c0.4,0.2,0.4,0.2,0.3,0.3c-0.1,0-0.1,0.1-0.2,0.2
	c-0.1,0-0.2,0.1-0.2,0.1c-0.1,0-0.1,0.1-0.2,0.1s-0.1,0.1-0.2,0.1s-0.1,0.1-0.2,0.1s-0.1,0-0.2,0.1c-0.1,0-0.1,0-0.2,0h-0.1
	c0,0-0.1,0-0.1-0.1s-0.1-0.2-0.1-0.3s-0.1-0.2-0.1-0.2c0-0.1,0-0.3,0.1-0.4c0-0.1,0.1-0.2,0.1-0.3c0.1-0.1,0.1-0.2,0.1-0.3
	c0,0,0,0,0-0.1c0,0,0,0,0-0.1s0-0.2,0-0.3s-0.1-0.2-0.1-0.3l-0.1-0.1c-0.1-0.1-0.1-0.1-0.2-0.1s-0.2,0-0.3,0
	c-0.1,0.1-0.1,0.2-0.2,0.4c-0.1,0.1-0.1,0.2-0.2,0.4c0,0.1-0.1,0.2-0.2,0.2c-0.1,0.1-0.1,0.1-0.2,0.2l-0.1,0.1l-0.1,0.1
	c0,0.1-0.1,0.1-0.1,0.2c0,0.1-0.1,0.1-0.2,0.2c-0.1,0.1-0.3,0.2-0.4,0.3s-0.2,0.2-0.3,0.3l0,0c0,0,0,0-0.1,0c0,0,0,0,0-0.1l0,0
	c0-0.2,0.1-0.5,0.3-0.7c0,0,0,0,0-0.1c0,0,0,0,0-0.1l0.1-0.1c0-0.1,0.1-0.1,0.1-0.2c0.1-0.1,0.2-0.2,0.3-0.4
	c0.1-0.1,0.1-0.2,0.3-0.3l0.1-0.1l0.1-0.1c0.1-0.1,0.2-0.2,0.3-0.4c0.1-0.1,0.2-0.2,0.4-0.4l0,0c0.1-0.1,0.2-0.1,0.3-0.2
	c0.1-0.1,0.2-0.1,0.3-0.2c0.1-0.1,0.1-0.1,0.2-0.2c0-0.1,0-0.1,0-0.2v-0.1v-0.1c0-0.1-0.1-0.1-0.2-0.2c-0.1-0.1-0.1-0.1-0.2-0.2l0,0
	c0,0,0,0-0.1,0c0,0-0.1,0-0.1-0.1c0,0-0.1,0-0.1-0.1l0,0l0,0l-0.1-0.1h-0.1c0,0,0,0-0.1,0c0,0,0,0-0.1,0s-0.1,0-0.2,0
	s-0.1,0-0.2-0.1c0,0,0,0-0.1,0s-0.1,0-0.2,0s-0.1,0-0.2,0h-0.1h-0.1c-0.1,0.1-0.3,0.2-0.4,0.3C44.5,21.3,44.4,21.4,44.2,21.5z
	 M32.3,28.2c0,0.1-0.1,0.2-0.1,0.3s0,0.2-0.1,0.3c0,0.1-0.1,0.2-0.1,0.3s-0.1,0.2-0.1,0.3v0.1c0,0,0,0-0.1,0.1s-0.1,0.2-0.2,0.3
	s-0.2,0.2-0.2,0.2l-0.1,0.1l-0.1,0.1l-0.1,0.1L31,30.5l-0.1,0.1h-0.1l-0.1-0.1l-0.1-0.1l-0.1-0.1c0,0,0-0.1,0-0.2c0-0.1,0-0.1,0-0.2
	c0-0.1,0-0.1,0-0.2c0-0.1,0.1-0.1,0.1-0.1l0.1-0.1l0.1-0.1c0,0,0.1-0.1,0.1-0.2c0-0.1,0.1-0.1,0.1-0.2c0.1-0.1,0.1-0.1,0.2-0.1
	c0,0,0.1,0,0.1-0.1c0,0,0.1,0,0.1-0.1c0.1-0.1,0.2-0.2,0.4-0.4c0.1-0.2,0.3-0.3,0.4-0.4c0.1-0.1,0.2,0,0.2,0.2
	C32.2,28.1,32.2,28.1,32.3,28.2L32.3,28.2z M38,28.1C38,28.2,38,28.2,38,28.1C38,28.2,38,28.2,38,28.1c0,0.2-0.1,0.3-0.1,0.4
	c0,0.1,0,0.2-0.1,0.3c0,0.1-0.1,0.2-0.1,0.3s-0.1,0.2-0.1,0.3v0.1c0,0,0,0-0.1,0.1s-0.1,0.2-0.2,0.3s-0.2,0.2-0.2,0.2L37,30.2
	l-0.1,0.1l-0.1,0.1l-0.1,0.1l-0.1,0.1h-0.1l-0.1-0.1l-0.1-0.1l-0.1-0.1c0,0,0-0.1,0-0.2c0-0.1,0-0.1,0-0.2c0-0.1,0-0.1,0-0.2
	c0-0.1,0.1-0.1,0.1-0.1l0.1-0.1l0.1-0.1c0,0,0.1-0.1,0.1-0.2c0-0.1,0.1-0.1,0.1-0.2c0.1-0.1,0.1-0.1,0.2-0.1c0,0,0.1,0,0.1-0.1
	c0,0,0.1,0,0.1-0.1c0.1-0.1,0.2-0.2,0.4-0.4c0.1-0.2,0.3-0.3,0.4-0.4C37.9,27.9,38,27.9,38,28.1z"/>
</svg>
