<?xml version="1.0" encoding="utf-8"?>
<!-- Generator: Adobe Illustrator 23.0.1, SVG Export Plug-In . SVG Version: 6.00 Build 0)  -->
<svg version="1.1" id="Слой_1" xmlns="http://www.w3.org/2000/svg" xmlns:xlink="http://www.w3.org/1999/xlink" x="0px" y="0px"
	 viewBox="0 0 203.6 40" style="enable-background:new 0 0 203.6 40;" xml:space="preserve">
<style type="text/css">
	.st0{fill:#331B1D;}
	.path {
  stroke-dasharray: 700;
  stroke-dashoffset: 700;
  animation: dash 5s linear alternate infinite;
}

@keyframes dash {
  to {
    stroke-dashoffset: 0;
  }
}
</style>

<path class="st0 path" stroke="darkorange" fill="none" stroke-width="0.5" d="M115.6,10.7c-0.2,0-0.2,0-0.3-0.2c0,0,0,0-0.2,0c0,0,0,0-0.2,0c0,0,0,0-0.2,0l0,0c0,0,0,0-0.2,0h-0.2h-0.2
	l-0.2,0.2c-0.2,0.2-0.2,0.3-0.3,0.5c0,0.2-0.2,0.3-0.2,0.5c-0.2,0.2-0.2,0.3-0.2,0.3s0,0,0,0.2v0.2c0,0.2-0.2,0.2-0.2,0.3
	c0,0.2-0.2,0.2-0.2,0.3c0,0.2,0,0.2-0.2,0.3c0,0,0,0.2,0,0.3c0,0,0,0,0,0.2c0,0,0,0,0,0.2c0,0,0.2,0,0.3,0c0.2,0,0.2,0,0.3,0h0.2
	h0.2c0.2,0,0.2,0,0.3,0c0.2,0,0.3,0,0.3-0.2l0.2-0.2h0.2c0.2,0,0.3-0.2,0.5-0.2c0.2,0,0.3-0.2,0.3-0.2c0.2-0.2,0.2-0.3,0.3-0.3
	c0,0,0.2-0.2,0.2-0.3c0,0,0-0.2,0.2-0.2c0,0,0,0,0-0.2c0-0.2,0-0.2,0.2-0.3l0.2-0.2l0.2-0.2l0.2-0.2c-0.2-0.2-0.2-0.3-0.3-0.5
	c-0.2-0.2-0.3-0.2-0.5-0.3C115.7,10.7,115.7,10.7,115.6,10.7z M91.2,20.4L91.2,20.4L91.2,20.4L91.2,20.4z M108.1,0.8
	C108,0.8,108,0.8,108.1,0.8c-0.3,0-0.6,0-0.8-0.2c-0.3,0-0.5,0-0.8-0.2c-0.3,0-0.8-0.2-1.2-0.2s-0.9,0-1.4,0c-0.2,0-0.3,0-0.6,0
	c-0.2,0-0.3,0-0.6,0c-0.2,0-0.3,0-0.6,0c-0.2,0-0.3,0-0.6,0c-0.2,0-0.3,0-0.3,0c-0.2,0-0.3,0-0.3,0c-0.5,0-0.9,0.2-1.2,0.3
	c-0.5,0-0.8,0.2-1.2,0.2c-0.8,0.2-1.4,0.2-2,0.3c-0.6,0.2-1.4,0.2-2,0.3c-0.3,0-0.5,0-0.8,0.2s-0.5,0.2-0.8,0.3L92.6,2h-0.2
	c-0.6,0.2-1.2,0.3-1.9,0.3c-0.6,0.2-1.2,0.3-1.9,0.3c0,0-0.2,0-0.3,0c-0.2,0-0.3,0-0.3,0c0.3-0.3,0.8-0.5,1.1-0.6
	c0.3-0.2,0.8-0.3,1.1-0.5c-0.2,0-0.3,0-0.3,0s-0.2,0-0.3,0c0.2,0,0.2-0.2,0.3-0.2c0.2,0,0.2,0,0.3,0h0.2c0,0,0.2,0,0.2-0.2
	c-0.5,0.2-0.9,0.2-1.4,0.3c-0.5,0.2-0.9,0.3-1.4,0.5c-0.3,0.2-0.5,0.2-0.8,0.2c-0.2,0-0.5,0-0.6,0c-0.2,0.2-0.3,0.2-0.3,0.3
	c0,0.2,0,0.3-0.2,0.3c0,0.2,0,0.2,0,0.3c0,0,0,0.2,0,0.3c-0.2,0.3-0.3,0.8-0.3,1.1c-0.2,0.3-0.2,0.8-0.2,1.1c0,0.5-0.2,0.8-0.2,1.2
	c0,0.3,0,0.8,0.2,1.1c0,0.2,0.2,0.2,0.3,0.3c0.2,0,0.2,0,0.3,0c1.4-0.3,2.2-0.5,2.8-0.6c0.6,0,0.8,0.2,0.8,0.5
	c0,0.3-0.3,0.8-0.6,1.4c-0.3,0.6-0.8,1.6-1.4,2.5c-0.3,0.8-0.8,1.7-1.2,2.5s-0.8,1.7-1.2,2.5c0,0.2-0.2,0.5-0.3,0.6
	c-0.2,0.3-0.3,0.5-0.5,0.6l0,0c0,0,0,0,0,0.2c-0.2,0.3-0.3,0.8-0.5,1.2c-0.2,0.3-0.3,0.8-0.3,1.1c0,0.3-0.2,0.6-0.3,1.1
	c-0.2,0.3-0.2,0.6-0.3,1.1c-0.2,0.6-0.3,1.1-0.5,1.7s-0.3,1.1-0.6,1.7c-0.3,1.2-0.8,2.3-1.1,3.6c-0.3,1.2-0.6,2.3-1.1,3.6
	c-0.2,0.5-0.2,0.9,0,1.2c0.2,0.3,0.5,0.6,0.8,0.6l0,0c0,0,0,0,0.2,0c0,0,0,0,0.2,0c0,0,0,0,0.2,0s0.5-0.2,0.6-0.2
	c0.2,0,0.3-0.2,0.6-0.2c0.2,0,0.5-0.2,0.6-0.2c0.2,0,0.5-0.2,0.6-0.2c0.3-0.2,0.8-0.2,1.2-0.3c0.3,0,0.8-0.3,1.2-0.8l0,0
	c0.2,0,0.3-0.2,0.3-0.3c0-0.2,0.2-0.3,0.2-0.3v-0.3c0-0.2,0-0.3,0-0.5c0.2-0.5,0.3-0.9,0.3-1.4c0.2-0.5,0.3-0.9,0.3-1.4
	c0-0.3,0.2-0.6,0.2-0.9c0.2-0.3,0.2-0.6,0.3-0.9c0.2-0.3,0.2-0.6,0.3-0.9c0.2-0.3,0.2-0.6,0.3-0.9c0-0.3,0.2-0.5,0.2-0.6
	c0-0.2,0.2-0.5,0.3-0.6c0,0,0,0,0-0.2c0,0,0,0,0-0.2s0-0.3,0-0.3c0-0.2,0.2-0.3,0.2-0.3c0-0.2,0-0.3,0-0.3c0-0.2,0-0.3,0-0.3l0,0
	l0,0c0.2-0.2,0.3-0.3,0.3-0.6c0.2-0.2,0.2-0.3,0.2-0.6l0,0l0,0c0.2-0.3,0.3-0.5,0.5-0.6c0.2-0.2,0.5-0.2,0.8-0.3c0,0,0,0,0.2,0
	c0,0,0,0,0.2,0c-0.2,0-0.3,0-0.5,0c-0.2,0-0.3,0-0.5,0.2c-0.3,0-0.3,0-0.2-0.3c0.2,0,0.3,0,0.5,0s0.3,0,0.5,0s0.2,0,0.3,0
	c0,0,0.2,0,0.2-0.2c-0.5,0-0.8,0.2-0.8,0.2s-0.3,0-0.3-0.2c0.2,0,0.3-0.2,0.3-0.3c0.2-0.2,0.3-0.2,0.5-0.3h-0.2c0,0-0.2,0-0.3,0
	c0.3,0,0.5-0.2,0.8-0.2s0.5-0.2,0.6-0.2c0.3,0,0.6-0.2,0.9-0.2c0.3,0,0.6,0,0.8,0h0.2c0,0,0.2,0,0.2-0.2C93.8,19,93.8,19,94,19
	c0.2,0,0.2,0,0.3,0c0.2,0,0.3,0.2,0.5,0c0.2,0,0.3,0,0.5-0.2c0.5-0.2,0.9-0.3,1.4-0.3c0.5-0.2,0.9-0.3,1.4-0.3c0,0,0-0.2-0.2-0.2
	c0,0,0,0,0-0.2l0,0c0,0,0,0,0.2,0c0.5-0.2,1.1-0.3,1.6-0.5c0.5-0.2,0.9-0.3,1.4-0.3c0.5-0.2,0.9-0.3,1.2-0.5
	c0.5-0.2,0.9-0.3,1.4-0.6c-0.3,0-0.5,0.2-0.6,0.2c-0.2,0-0.3,0-0.5,0.2v-0.2c0.2,0,0.5-0.2,0.6-0.3c0.2-0.2,0.5-0.2,0.6-0.2
	c0.2,0,0.5-0.2,0.6-0.2c0.2,0,0.3-0.2,0.6-0.2v-0.2c0,0,0-0.2,0-0.3c0.3-0.2,0.5-0.2,0.8-0.3c0.2,0,0.5-0.2,0.6-0.3
	c0.2,0,0.3,0,0.5-0.2c0.2,0,0.3,0,0.3-0.2c0.2,0,0.3-0.2,0.5-0.2c0.2,0,0.3-0.2,0.5-0.3c-0.2,0-0.3,0-0.6,0c-0.2,0-0.3,0-0.6,0
	c0.3-0.2,0.5-0.2,0.6-0.3c0.2,0,0.3-0.2,0.5-0.3c0.2,0,0.3-0.2,0.5-0.3c0.2-0.2,0.3-0.2,0.5-0.3l0,0l0,0c0,0-0.2,0-0.2,0.2
	c0,0-0.2,0.2-0.3,0.2v-0.2c0,0,0.2,0,0.2-0.2c0,0,0.2,0,0.2-0.2c0.3-0.2,0.6-0.3,0.9-0.6c0.3-0.3,0.5-0.5,0.8-0.8
	c0.2-0.2,0.3-0.3,0.3-0.3c0-0.2,0.2-0.3,0.2-0.5c0.2-0.3,0.3-0.6,0.6-0.8c0.2-0.3,0.5-0.6,0.6-0.8c0.3-0.6,0.6-1.2,0.8-1.9
	c0.2-0.6,0.2-1.2,0-1.7c0-0.3-0.2-0.5-0.3-0.6c-0.2-0.3-0.2-0.5-0.3-0.6c-0.2-0.3-0.3-0.5-0.5-0.6c-0.3-0.2-0.5-0.3-0.6-0.5l0,0l0,0
	c-0.2,0-0.3,0-0.3,0l-0.2-0.2l-0.2-0.2c0,0-0.2-0.2-0.3-0.2c-0.3-0.2-0.8-0.3-1.1-0.5c-0.3-0.2-0.8-0.3-1.1-0.5
	c-0.6-0.2-1.1-0.3-1.7-0.5c-0.6-0.2-1.2-0.3-2-0.3h0.2h0.2c0.3,0,0.6,0.2,1.1,0.2c0.3,0,0.6,0.2,1.1,0.2c0.2,0,0.3,0.2,0.5,0.2
	c0.2,0,0.3,0.2,0.5,0.2C108.3,0.6,108.1,0.6,108.1,0.8z M107.2,5.3c-0.2,0-0.5,0-0.6,0c0.3,0.2,0.6,0.2,1.1,0c0.3,0,0.8-0.2,1.1,0
	l-0.2,0.2c0,0-0.2,0-0.2,0.2c0.2,0,0.3,0,0.3,0c0.2,0,0.2,0,0.3,0l-0.2,0.2c0,0,0,0-0.2,0l0,0l0,0c0.3,0,0.6,0.3,0.8,0.5
	c0.2,0.2,0.3,0.5,0.5,0.8c0.2,0.2,0.2,0.5,0,0.6c-0.2,0.3-0.3,0.5-0.5,0.8c-0.3,0.5-0.8,0.8-1.1,1.2c-0.5,0.3-0.9,0.6-1.4,0.8
	c-0.5,0.2-1.1,0.5-1.6,0.6c-0.6,0.3-1.1,0.5-1.6,0.6c-0.5,0.2-1.1,0.3-1.6,0.5c-0.5,0.2-1.1,0.3-1.6,0.5c0.2,0.2,0.3,0.2,0.5,0.2
	s0.5-0.2,0.6-0.2c0.2,0,0.3,0,0.3,0c0.2,0,0.3,0,0.5,0c0,0.2-0.2,0.3-0.3,0.3c-0.2,0-0.2,0.2-0.3,0.2c-0.3,0.2-0.6,0.2-0.9,0.3
	c-0.3,0-0.6,0.2-0.9,0.3c-0.2,0-0.3,0.2-0.3,0.2c-0.2,0-0.3,0.2-0.5,0.2c0.2,0.2,0.3,0.2,0.5,0.2s0.3-0.2,0.6-0.2
	c-0.2,0.2-0.3,0.3-0.3,0.3c-0.2,0-0.2,0.2-0.3,0.2c-0.6,0.2-1.1,0.3-1.7,0.5H98h-0.2c-0.3,0.3-0.6,0.5-0.9,0.5
	c-0.3,0-0.6,0.2-0.9,0.3c-1.4,0.6-2.3,1.1-3,1.1c-0.6,0-0.9-0.3-0.9-0.9c0-0.6,0.2-1.2,0.6-2c0.3-0.8,0.9-1.6,1.4-2.3
	c0.3-0.3,0.5-0.8,0.6-1.2c0.2-0.5,0.5-0.8,0.6-1.2c0.5-0.9,0.9-1.6,1.2-2c0.3-0.5,0.6-0.8,1.1-0.9c0.5-0.2,1.2-0.3,2.5-0.6
	c0.5,0,1.1-0.2,1.6-0.3c0.5-0.2,1.1-0.3,1.6-0.3c0.6-0.2,1.1-0.2,1.7-0.2c0.2,0,0.5,0,0.8,0s0.5,0,0.8,0c0.2,0,0.5,0,0.6,0
	c0.2,0,0.5,0,0.6,0C107.7,5.1,107.5,5.3,107.2,5.3z M95.5,17.9c-0.2,0-0.2,0-0.3,0l0,0c0.2,0,0.3-0.2,0.6-0.2l0,0l0,0
	C95.9,17.9,95.7,17.9,95.5,17.9z M98,16.9c0.2-0.2,0.3-0.2,0.5-0.2c0.2,0,0.3,0,0.3,0c0.3-0.3,0.6-0.3,0.9-0.5c0.3,0,0.6,0,0.8,0
	l0,0l0,0c0.2-0.2,0.2-0.2,0.3-0.2c0.2,0,0.2,0,0.3,0c-0.2,0-0.2,0.2-0.3,0.2c-0.2,0-0.2,0-0.3,0.2l0,0l0,0c-0.2,0.2-0.5,0.3-0.6,0.3
	c-0.3,0-0.5,0.2-0.6,0.2h-0.2c0,0-0.2,0-0.3,0C98.6,16.9,98.3,16.9,98,16.9z M94.1,18c0.3,0,0.5-0.2,0.6,0c0.2,0,0.3,0,0.8,0.2
	c-0.5,0.2-0.8,0.2-1.2,0.3c-0.3,0-0.8,0-1.1,0.2c-0.3,0-0.8,0.2-1.1,0.2c-0.3,0-0.8,0.2-1.1,0l0,0l0,0c0.2,0,0.2,0,0.3,0
	c0,0,0.2,0,0.3,0l0,0l0,0c-0.2,0-0.3,0-0.3,0c-0.2,0-0.3,0-0.3,0c0-0.3,0.2-0.5,0.2-0.5s0.2-0.2,0.3-0.2c0.5-0.2,1.1-0.3,1.6-0.3
	C93.1,18.2,93.7,18.2,94.1,18z M23.9,19.6C23.8,19.6,23.8,19.6,23.9,19.6C23.8,19.7,23.8,19.7,23.9,19.6c-0.3,0.5-0.6,0.6-0.8,1.1
	c-0.2,0.3-0.3,0.6-0.6,0.9c-0.2,0.3-0.3,0.6-0.3,1.1c0,0.3,0,0.8,0,1.1c0,0.8,0.3,1.4,0.8,2s0.9,0.9,1.7,1.2c0.2,0,0.3,0.2,0.3,0.2
	c0.2,0,0.3,0.2,0.3,0.2c0.3,0.2,0.6,0.3,1.1,0.3c0.3,0,0.8,0,1.1-0.2c0.2,0,0.3-0.2,0.6-0.2c0.2,0,0.3-0.2,0.5-0.3l0,0l0,0
	c0.2,0,0.2-0.2,0.3-0.2c0,0,0.2-0.2,0.3-0.2c0.2-0.2,0.3-0.3,0.5-0.3c0.2-0.2,0.3-0.2,0.6-0.3c0.2,0.2,0.3,0.3,0.6,0.5
	c0.2,0.2,0.5,0.3,0.6,0.3h0.2c0,0,0,0,0.2,0c0.3,0.2,0.5,0.3,0.8,0.5c0.3,0,0.6,0.2,0.9,0.3c0.2,0,0.3,0,0.5,0c0.2,0,0.3,0,0.6-0.2
	c0.2,0,0.3,0,0.6-0.2c0.2,0,0.3-0.2,0.6-0.2c0.2,0,0.5,0,0.6-0.2c0.2,0,0.3-0.2,0.5-0.2c0.2,0,0.3-0.2,0.5-0.3
	c0.2-0.2,0.3-0.3,0.5-0.5c0.2-0.2,0.3-0.3,0.5-0.5c0,0,0-0.2,0.2-0.2c0,0,0,0,0.2,0s0.2-0.2,0.3-0.2c0.2,0,0.2-0.2,0.3-0.3
	c0,0,0-0.2,0.2-0.2l0.2-0.2c0-0.2,0.2-0.2,0.3-0.3c0-0.2,0.2-0.3,0.3-0.3l0,0l0,0c0,0,0.2,0.2,0.2,0.3c0.3,0.5,0.5,0.9,0.8,1.4
	c0.2,0.5,0.5,0.9,0.6,1.6c0.2,0.5,0.3,0.9,0.5,1.2c0,0.3,0,0.6-0.2,1.1c-0.2,0.3-0.6,0.8-1.2,1.4c-0.5,0.5-0.9,0.9-1.4,1.4
	c-0.5,0.5-0.8,1.1-1.2,1.6c-0.2,0.3-0.3,0.6-0.5,0.9c-0.2,0.3-0.3,0.6-0.3,0.9c0,0.2,0,0.3-0.2,0.5c0,0.2,0,0.3,0,0.3
	c0,0.3,0.2,0.5,0.2,0.8c0,0.3,0.2,0.5,0.3,0.6c0.2,0.2,0.2,0.2,0.2,0.3c0,0.2,0.2,0.3,0.2,0.5c0.2,0.2,0.2,0.3,0.3,0.3
	c0.2,0,0.3,0,0.5-0.2H39c0,0,0,0,0.2,0h0.2h0.2c0,0,0,0,0,0.2c0,0,0,0,0,0.2c0.2,0,0.2,0,0.2,0s0,0,0.2,0s0.3-0.2,0.5-0.2
	c0.2,0,0.3-0.2,0.3-0.2s0-0.2,0.2-0.2c0,0,0.2,0,0.2-0.2c0,0,0,0,0,0.2c0,0,0,0,0.2,0c0,0,0,0,0,0.2l0,0c0.2-0.2,0.3-0.3,0.5-0.3
	c0.2,0,0.2,0,0.2,0c-0.2,0.2-0.3,0.3-0.5,0.6c-0.2,0.2-0.3,0.5-0.5,0.6c0,0,0,0,0.2,0c0,0,0,0,0.2,0c0.2,0,0.3,0,0.5-0.2
	c0.2-0.2,0.3-0.3,0.5-0.3l0,0l0,0c0.2,0,0.3-0.2,0.5-0.3c0.2-0.2,0.3-0.2,0.5-0.3c0,0,0.2-0.2,0.2-0.3c0,0,0.2-0.2,0.2-0.3
	c0.2-0.2,0.3-0.3,0.6-0.6c0.3-0.3,0.6-0.6,0.8-0.9c0.3-0.3,0.5-0.6,0.6-0.8c0-0.2,0.2-0.3,0.3-0.5c0.2-0.2,0.2-0.3,0.3-0.5l0,0l0,0
	c0,0,0.2,0,0.2-0.2l0.2-0.2c0-0.2,0-0.3,0-0.6c0-0.2,0-0.5,0.2-0.6l0,0c0,0,0,0,0-0.2v-0.2v-0.2c0.2-0.3,0.2-0.6,0.2-0.8
	c0-0.2,0-0.3,0-0.5c0-0.2,0-0.3-0.2-0.6c0-0.5,0.2-0.8,0.3-0.9c0.3-0.2,0.6-0.3,1.1-0.6c0.3-0.2,0.8-0.3,1.1-0.6
	c0.2,0,0.2-0.2,0.3-0.2s0.2-0.2,0.3-0.2c0.3-0.2,0.5-0.5,0.8-0.6c0.3-0.3,0.5-0.5,0.8-0.6c0,0,0,0,0.2-0.2c0,0,0.2,0,0.2-0.2
	c0.3-0.3,0.8-0.6,1.1-0.9c0.2-0.2,0.2-0.2,0.3-0.3c0.2-0.2,0.2-0.2,0.3-0.3c0.2-0.2,0.3-0.3,0.3-0.5v-0.2c0.2,0.6,0.3,1.2,0.6,1.6
	c0.5,0.6,0.9,0.9,1.7,1.2c0.2,0,0.3,0.2,0.3,0.2c0.2,0,0.3,0.2,0.3,0.2c0.3,0.2,0.6,0.3,1.1,0.3c0.3,0,0.8,0,1.1-0.2
	c0.2,0,0.3-0.2,0.6-0.2c0.2,0,0.3-0.2,0.5-0.3l0,0l0,0c0.2,0,0.2-0.2,0.3-0.2c0,0,0.2-0.2,0.3-0.2c0.2-0.2,0.3-0.3,0.5-0.3
	c0.2-0.2,0.3-0.2,0.6-0.3c0.2,0.2,0.3,0.3,0.6,0.5c0.2,0.2,0.5,0.3,0.6,0.3h0.2c0,0,0,0,0.2,0c0.3,0.2,0.5,0.3,0.8,0.5
	c0.3,0,0.6,0.2,0.9,0.3c0.2,0,0.3,0,0.5,0c0.2,0,0.3,0,0.6-0.2c0.2,0,0.3,0,0.6-0.2c0.2,0,0.3-0.2,0.6-0.2c0.2,0,0.5,0,0.6-0.2
	c0.2,0,0.3-0.2,0.5-0.2c0.2,0,0.3-0.2,0.5-0.3c0.2-0.2,0.3-0.3,0.5-0.5c0.2-0.2,0.3-0.3,0.5-0.5c0,0,0-0.2,0.2-0.2c0,0,0,0,0.2,0
	s0.2-0.2,0.3-0.2s0.2-0.2,0.3-0.3c0,0,0-0.2,0.2-0.2l0.2-0.2c0-0.2,0.2-0.2,0.3-0.3c0-0.2,0.2-0.3,0.3-0.3c0,0,0.2,0,0.2-0.2
	l0.2-0.2c0.2-0.2,0.3-0.3,0.5-0.8s0.3-0.8,0.3-0.9c-0.2-0.2-0.3-0.3-0.3-0.3c-0.2-0.2-0.3-0.2-0.5-0.2l0,0l0,0
	c-0.3,0.3-0.5,0.5-0.8,0.9c-0.3,0.3-0.6,0.8-0.8,1.1c-0.3,0.3-0.5,0.6-0.8,0.9c-0.2,0.2-0.3,0.3-0.3,0.3c-0.2,0.2-0.3,0.3-0.3,0.3
	c-0.2,0.2-0.3,0.2-0.6,0.3c-0.2,0.2-0.3,0.2-0.5,0.3c-0.2,0.2-0.3,0.2-0.5,0.3c-0.2,0-0.3,0.2-0.5,0.3c-0.2,0-0.3,0.2-0.5,0.2
	c-0.2,0-0.3,0-0.5,0.2c-0.2,0-0.2,0-0.3,0l-0.2-0.2c-0.2-0.2-0.2-0.5-0.3-0.6c0-0.2-0.2-0.5-0.2-0.6c0-0.3,0-0.6,0.2-1.1
	c0.2-0.3,0.3-0.5,0.3-0.8c0.2-0.3,0.3-0.5,0.3-0.6v-0.2c0,0,0,0,0-0.2c0-0.3,0-0.5-0.2-0.8c0-0.3-0.2-0.5-0.3-0.6s-0.2-0.2-0.3-0.3
	c-0.2-0.2-0.3-0.3-0.5-0.3c-0.2,0-0.3,0-0.6,0c-0.2,0.3-0.3,0.6-0.5,0.9c-0.2,0.3-0.3,0.5-0.5,0.8c-0.2,0.2-0.3,0.3-0.3,0.6
	c-0.2,0.2-0.3,0.3-0.5,0.5l-0.2,0.2l-0.2,0.2c-0.2,0.2-0.2,0.3-0.3,0.5c-0.2,0.2-0.3,0.3-0.3,0.3c-0.3,0.2-0.6,0.5-0.9,0.8
	c-0.3,0.3-0.5,0.5-0.8,0.8l0,0c0,0,0,0-0.2,0v-0.2l0,0c0.2-0.6,0.3-1.1,0.6-1.7c0,0,0-0.2,0.2-0.2c0,0,0-0.2,0.2-0.2
	c0-0.2,0.2-0.2,0.3-0.3c0-0.2,0.2-0.3,0.3-0.3c0.2-0.3,0.3-0.6,0.6-0.8c0.2-0.3,0.3-0.5,0.6-0.8c0.2-0.2,0.2-0.2,0.3-0.3
	c0.2,0,0.2-0.2,0.3-0.3c0.3-0.3,0.5-0.6,0.8-0.9c0.3-0.3,0.6-0.6,0.8-0.8l0,0c0.2-0.2,0.3-0.3,0.6-0.5c0.2-0.2,0.5-0.3,0.6-0.3
	c0.2-0.2,0.3-0.3,0.5-0.5c0.2-0.2,0-0.3,0-0.6v-0.2v-0.2c-0.2-0.2-0.3-0.3-0.3-0.5c-0.2-0.2-0.3-0.3-0.5-0.5c0,0,0,0-0.2,0h-0.2
	c-0.2,0-0.3,0-0.3-0.2c-0.2,0-0.2-0.2-0.3-0.2l0,0l0,0c0-0.2-0.2-0.2-0.2-0.2c-0.2,0-0.2,0-0.3,0h-0.2h-0.2c-0.2,0-0.3,0-0.6-0.2
	c-0.2,0-0.3,0-0.5-0.2H62c-0.2,0-0.3,0-0.5,0c-0.2,0-0.3,0-0.5,0c0,0-0.2,0-0.3,0h-0.2c-0.3,0.3-0.8,0.5-1.1,0.8
	c-0.3,0.3-0.6,0.5-0.9,0.8c-0.3,0.5-0.8,0.9-1.1,1.4c-0.3,0.5-0.8,0.9-1.1,1.4l0,0l0,0c-0.3,0.3-0.5,0.6-0.6,0.9
	c-0.2,0.2-0.3,0.5-0.3,0.6l-0.2,0.2c-0.2,0.2-0.3,0.3-0.3,0.3c-0.2,0.2-0.3,0.3-0.5,0.5c-0.2,0.2-0.3,0.3-0.5,0.5
	c-0.3,0.2-0.5,0.5-0.8,0.6c-0.3,0.2-0.6,0.5-0.8,0.6c-0.3,0.3-0.8,0.6-1.1,0.9c-0.3,0.3-0.8,0.5-1.1,0.8c-0.5,0.2-0.9,0.3-1.4,0.6
	c-0.5,0.3-0.9,0.3-1.2,0.5c-0.3,0-0.6,0-0.8-0.5c-0.2-0.2-0.2-0.3-0.2-0.5c0-0.2-0.2-0.3-0.3-0.5c-0.2-0.2-0.3-0.5-0.5-0.9
	c-0.2-0.3-0.3-0.8-0.6-1.2c-0.2-0.3-0.3-0.6-0.6-0.9c0,0-0.2-0.2-0.3-0.3c-0.2-0.2-0.2-0.2-0.3-0.3c0-0.2-0.2-0.5-0.2-0.8
	s0-0.6,0.2-0.9c0-0.2,0.2-0.3,0.2-0.3c0-0.2,0.2-0.3,0.2-0.3s0,0,0-0.2l0,0c0-0.2,0-0.2,0-0.3c0,0,0.2-0.2,0.2-0.3
	c0-0.2,0.2-0.2,0.2-0.3l0.2-0.2c0.2,0,0.2,0,0.2-0.2c0,0,0.2-0.2,0.2-0.3c0.2-0.2,0.2-0.5,0.2-0.6s0.2-0.5,0.2-0.6s0-0.3,0.2-0.5
	c0-0.2,0-0.3,0-0.5v-0.2v-0.2c0-0.3-0.2-0.6-0.3-0.9c-0.2-0.3-0.3-0.8-0.5-1.1c-0.2-0.3-0.3-0.6-0.5-0.6l0,0l0,0
	c-0.2-0.2-0.3-0.3-0.5-0.3c-0.2-0.2-0.3-0.2-0.5-0.3h-0.2c0,0-0.2,0-0.2,0.2S43,12.7,43,12.7l-0.2,0.2l0,0c0,0,0,0-0.2,0.2
	c-0.2,0.2-0.2,0.3-0.3,0.5c-0.2,0.2-0.3,0.3-0.3,0.6c-0.2,0.3-0.3,0.6-0.5,0.9l-0.2,0.2c0,0,0,0.2-0.2,0.2c0,0.2-0.2,0.3-0.2,0.3
	c0,0.2-0.2,0.2-0.2,0.3c0,0.2-0.2,0.3-0.2,0.5c0,0.2,0,0.3-0.2,0.5c0,0.2,0,0.3,0,0.3c0,0.2,0,0.2-0.2,0.3c-0.2,0.2-0.2,0.3-0.2,0.5
	c0,0.2,0,0.3,0,0.5c0,0.2,0,0.2,0,0.2v0.2c0,0.3,0.2,0.9,0.3,1.6c0.2,0.8,0.3,1.4,0.6,2.2l0,0c0,0,0,0,0,0.2
	c-0.3,0.3-0.6,0.8-0.8,1.1c-0.3,0.3-0.5,0.6-0.8,0.9c-0.2,0.2-0.3,0.3-0.3,0.3c-0.2,0.2-0.3,0.3-0.3,0.3c-0.2,0.2-0.3,0.2-0.6,0.3
	c-0.2,0.2-0.3,0.2-0.5,0.3c-0.2,0.2-0.3,0.2-0.5,0.3c-0.2,0-0.3,0.2-0.5,0.3c-0.2,0-0.3,0.2-0.5,0.2c-0.2,0-0.3,0-0.5,0.2
	c-0.2,0-0.2,0-0.3,0l-0.2-0.2c-0.2-0.2-0.2-0.5-0.3-0.6c0-0.2-0.2-0.5-0.2-0.6c0-0.3,0-0.6,0.2-1.1c0.2-0.3,0.3-0.5,0.3-0.8
	c0.2-0.3,0.3-0.5,0.3-0.6v-0.2c0,0,0,0,0-0.2c0-0.3,0-0.5-0.2-0.8c0-0.3-0.2-0.5-0.3-0.6c-0.2-0.2-0.2-0.2-0.3-0.3s-0.3-0.3-0.5-0.3
	c-0.2,0-0.3,0-0.6,0c-0.2,0.3-0.3,0.6-0.5,0.9c-0.2,0.3-0.3,0.5-0.5,0.8c-0.2,0.2-0.3,0.3-0.3,0.6c-0.2,0.2-0.3,0.3-0.5,0.5
	l-0.2,0.2l-0.2,0.2c-0.2,0.2-0.2,0.3-0.3,0.5s-0.3,0.3-0.3,0.3c-0.3,0.2-0.6,0.5-0.9,0.8c-0.3,0.3-0.5,0.5-0.8,0.8l0,0
	c0,0,0,0-0.2,0v-0.2l0,0c0.2-0.6,0.3-1.1,0.6-1.7c0,0,0-0.2,0.2-0.2c0,0,0-0.2,0.2-0.2c0-0.2,0.2-0.2,0.3-0.3c0-0.2,0.2-0.3,0.3-0.3
	c0.2-0.3,0.3-0.6,0.6-0.8c0.2-0.3,0.3-0.5,0.6-0.8c0.2-0.2,0.2-0.2,0.3-0.3c0.2,0,0.2-0.2,0.3-0.3c0.3-0.3,0.5-0.6,0.8-0.9
	s0.6-0.6,0.8-0.8l0,0c0.2-0.2,0.3-0.3,0.6-0.5c0.2-0.2,0.5-0.3,0.6-0.3c0.2-0.2,0.3-0.3,0.5-0.5c0-0.2,0-0.3,0-0.6v-0.2v-0.2
	c-0.2-0.2-0.3-0.3-0.3-0.5c-0.2-0.2-0.3-0.3-0.5-0.5c0,0,0,0-0.2,0h-0.2c-0.2,0-0.3,0-0.3-0.2c-0.2,0-0.2-0.2-0.3-0.2l0,0l0,0
	c0-0.2-0.2-0.2-0.2-0.2c-0.2,0-0.2,0-0.3,0H34h-0.2c-0.2,0-0.3,0-0.6-0.2c-0.2,0-0.3,0-0.5-0.2h-0.2c-0.2,0-0.3,0-0.5,0
	c-0.2,0-0.3,0-0.5,0c0,0-0.2,0-0.3,0h-0.2c-0.3,0.3-0.8,0.5-1.1,0.8c-0.3,0.3-0.6,0.5-0.9,0.8c-0.3,0.5-0.8,0.9-1.1,1.4
	C24.5,18.6,24.2,19.1,23.9,19.6z M42.1,32.8c0,0.3-0.2,0.5-0.2,0.8s-0.2,0.5-0.2,0.6c0,0.3-0.2,0.5-0.3,0.6
	c-0.2,0.3-0.2,0.5-0.3,0.6v0.2c0,0,0,0-0.2,0.2c-0.2,0.3-0.3,0.6-0.5,0.8c-0.2,0.2-0.3,0.3-0.6,0.6c-0.2,0.2-0.2,0.2-0.3,0.3
	c-0.2,0.2-0.2,0.2-0.3,0.3c-0.2,0.2-0.2,0.2-0.3,0.3c-0.2,0-0.2,0.2-0.3,0.2c-0.2,0.2-0.2,0.2-0.3,0.2c-0.2,0-0.2,0-0.3-0.2
	c-0.2-0.2-0.2-0.3-0.3-0.3c-0.2-0.2-0.2-0.2-0.3-0.3c0,0-0.2-0.2-0.2-0.3c0-0.2,0-0.2,0-0.3c0-0.2,0-0.3,0.2-0.3c0-0.2,0-0.3,0-0.5
	c0-0.2,0.2-0.3,0.2-0.3c0-0.2,0.2-0.2,0.3-0.3c0.2,0,0.2-0.2,0.3-0.3c0-0.2,0.2-0.2,0.2-0.3c0-0.2,0.2-0.3,0.3-0.5
	c0.2-0.2,0.3-0.3,0.5-0.3c0.2,0,0.2,0,0.3-0.2l0.2-0.2c0.2-0.3,0.5-0.6,0.9-0.9c0.3-0.3,0.8-0.6,1.1-0.8c0.3-0.2,0.5,0,0.5,0.5
	C42.1,32.6,42.1,32.6,42.1,32.8C42.1,32.6,42.1,32.8,42.1,32.8z M13.4,1.1c-0.3,0-0.5,0-0.8,0.2c-0.2,0.2-0.3,0.3-0.6,0.5
	c-0.3,0.3-0.6,0.8-1.4,1.6C9.9,4,9.2,5,8.4,6.1s-1.6,2-2.2,3c-0.6,0.9-1.1,1.7-1.4,2.3C4.4,12.3,3.9,13,3.6,14
	c-0.5,0.9-0.8,1.9-1.2,2.8l0.2-0.2c0,0,0.2-0.2,0.2-0.3s0.2-0.2,0.2-0.3L3,15.8c0,0,0,0,0.2,0c0,0,0,0,0.2,0C3.1,16.2,3,16.5,3,16.6
	c-0.2,0.3-0.2,0.6-0.3,0.9C2.5,18,2.3,18.6,2,19.1c-0.2,0.6-0.3,1.1-0.6,1.6c-0.2,0.6-0.3,1.2-0.5,1.7c-0.2,0.6-0.3,1.2-0.5,1.7
	c0,0.3-0.2,0.8-0.2,1.1c0,0.3-0.2,0.8-0.2,1.1c0,0.6,0,1.2,0,1.7c0,0.6,0.2,1.2,0.3,1.7c0,0.2,0.2,0.3,0.2,0.5
	c0,0.2,0.2,0.3,0.2,0.6c0,0.3,0.2,0.5,0.2,0.6c0.2,0.2,0.3,0.3,0.5,0.6c0.3,0.5,0.8,0.8,1.1,1.1c0.5,0.3,0.9,0.6,1.4,0.8
	c0.2,0,0.3,0,0.3,0.2c0.2,0,0.3,0,0.3,0c0.2,0,0.3,0,0.5,0c0.2,0,0.3,0,0.5,0c0.3,0.2,0.8,0.3,1.1,0.3c0.5,0,0.8,0.2,1.2,0
	c0.3,0,0.8,0,1.1,0s0.6,0,0.9,0c0.3,0,0.6,0,0.8-0.2c0.3-0.2,0.5-0.3,0.6-0.6c0-0.2,0.2-0.2,0.2-0.3c0-0.2,0.2-0.2,0.3-0.3
	c0.6-0.6,1.2-1.6,1.7-2.6c0.5-1.1,1.1-2.3,1.6-3.6s0.9-2.5,1.4-3.6c0.2-0.3,0.2-0.5,0.2-0.8c0-0.3,0-0.5,0-0.6
	c0-0.5-0.2-0.8-0.5-1.1c-0.3-0.3-0.6-0.3-1.2-0.3c-0.5,0-1.1,0.2-1.6,0.2c-0.5,0.2-1.1,0.3-1.6,0.5s-0.8,0.5-1.1,0.8
	c-0.2,0.3-0.2,0.8,0,1.1c0.2,0.2,0.2,0.3,0.2,0.6c0,0.2,0,0.3-0.2,0.6c-0.2,0.5-0.2,0.9-0.3,1.2c-0.2,0.5-0.3,0.9-0.3,1.4
	c-0.2,0.5-0.5,1.1-0.8,1.6c-0.3,0.5-0.6,0.9-0.9,1.1c-0.3,0.2-0.6,0-0.9-0.3c-0.3-0.5-0.6-1.4-0.8-2.8c0-0.2,0-0.5,0-0.6
	s0-0.3,0-0.6c0-0.3,0-0.8-0.2-1.2c0-0.3,0-0.8,0-1.2s0.2-1.1,0.3-1.6c0.2-0.6,0.2-1.1,0.3-1.6c0-0.6,0.2-1.1,0.2-1.7
	c0-0.5,0.2-1.1,0.3-1.6c0.2-0.6,0.3-1.4,0.5-2.2c0.2-0.6,0.5-1.4,0.8-2c0.2-0.5,0.5-1.1,0.8-1.6s0.5-1.1,0.8-1.6
	c0.2-0.3,0.3-0.8,0.6-1.1c0.2-0.3,0.5-0.6,0.8-1.1c0.2-0.2,0.3-0.5,0.5-0.6c0.2-0.3,0.2-0.5,0.3-0.6c0-0.2,0.2-0.5,0.5-0.8
	C13.2,4.3,13.7,4,14,3.9s0.8-0.2,0.9,0.2c0.3,0.3,0.3,0.8,0.2,1.7v0.2v0.2c0,0.6,0,1.2-0.2,1.7c0,0.6,0,1.2-0.2,1.7
	c0,0.3,0,0.6,0,0.9s0,0.6,0,0.9c0,0.6,0,1.2-0.2,1.9c0,0.6,0,1.2-0.2,1.9c0,0.2,0,0.2,0,0.3c0,0,0.2,0.2,0.3,0.2
	c0.3,0,0.5,0.2,0.8,0.2s0.5,0.2,0.8,0.2c0.6,0,1.1,0,1.7-0.2c0.5-0.2,1.1-0.5,1.4-0.9c0.6-0.6,1.1-1.7,1.2-3.1
	c0.2-1.4,0.2-2.8-0.2-4.5c-0.3-1.6-0.8-3-1.4-4.3c-0.8-1.2-1.6-2.2-2.6-2.8C16,0.3,14.8,0.5,13.4,1.1z M185.8,16.8
	c-0.3,0.5-0.8,0.9-1.1,1.4s-0.8,0.9-1.1,1.4l0,0l0,0c-0.3,0.3-0.5,0.6-0.6,0.9c-0.2,0.2-0.3,0.5-0.3,0.6l-0.2,0.2
	c-0.2,0.2-0.3,0.3-0.3,0.3c-0.2,0.2-0.3,0.3-0.5,0.5c-0.2,0.2-0.3,0.3-0.5,0.5c-0.3,0.2-0.5,0.5-0.8,0.6s-0.6,0.5-0.8,0.6
	c-0.3,0.3-0.8,0.6-1.1,0.9c-0.3,0.3-0.8,0.5-1.1,0.8c-0.5,0.2-0.9,0.3-1.4,0.6c-0.5,0.3-0.9,0.3-1.2,0.5c-0.3,0-0.6,0-0.8-0.5
	c-0.2-0.2-0.2-0.3-0.2-0.5s-0.2-0.3-0.3-0.5c-0.2-0.2-0.3-0.5-0.5-0.9c-0.2-0.3-0.3-0.8-0.6-1.2c-0.2-0.3-0.3-0.6-0.6-0.9
	c0,0-0.2-0.2-0.3-0.3c-0.2-0.2-0.2-0.2-0.3-0.3c0-0.2-0.2-0.5-0.2-0.8c0-0.3,0-0.6,0.2-0.9c0-0.2,0.2-0.3,0.2-0.3
	c0-0.2,0.2-0.3,0.2-0.3s0,0,0-0.2l0,0c0-0.2,0-0.2,0-0.3c0,0,0.2-0.2,0.2-0.3s0.2-0.2,0.2-0.3l0.2-0.2c0.2,0,0.2,0,0.2-0.2
	c0,0,0.2-0.2,0.2-0.3c0.2-0.2,0.2-0.5,0.2-0.6s0.2-0.5,0.2-0.6c0-0.2,0-0.3,0.2-0.5c0-0.2,0-0.3,0-0.5v-0.2v-0.2
	c0-0.3-0.2-0.6-0.3-0.9c-0.2-0.3-0.3-0.8-0.5-1.1s-0.3-0.6-0.5-0.6l0,0l0,0c-0.2-0.2-0.3-0.3-0.5-0.3c-0.2-0.2-0.3-0.2-0.5-0.3h-0.2
	c0,0-0.2,0-0.2,0.2c0,0.2-0.2,0.2-0.2,0.2l-0.2,0.2l0,0c0,0,0,0-0.2,0.2c-0.2,0.2-0.2,0.3-0.3,0.5c-0.2,0.2-0.3,0.3-0.3,0.6
	c-0.2,0.3-0.3,0.6-0.5,0.9l-0.2,0.2c0,0,0,0.2-0.2,0.2c0,0.2-0.2,0.3-0.2,0.3c0,0.2-0.2,0.2-0.2,0.3c0,0.2-0.2,0.3-0.2,0.5
	c0,0.2,0,0.3-0.2,0.5c0,0.2,0,0.3,0,0.3c0,0.2,0,0.2-0.2,0.3s-0.2,0.3-0.2,0.5c0,0.2,0,0.3,0,0.5s0,0.2,0,0.2V18
	c0,0.3,0.2,0.9,0.3,1.6c0.2,0.8,0.3,1.4,0.6,2.2l0,0l-0.2,0.2c-0.2,0.2-0.3,0.3-0.5,0.5c-0.3,0.2-0.5,0.5-0.8,0.6
	c-0.3,0.2-0.6,0.5-0.8,0.6c-0.3,0.3-0.8,0.6-1.1,0.9c-0.3,0.3-0.8,0.5-1.1,0.8c-0.5,0.2-0.9,0.3-1.4,0.6c-0.5,0.3-0.9,0.3-1.2,0.5
	c-0.3,0-0.6,0-0.8-0.5c-0.2-0.2-0.2-0.3-0.2-0.5c0-0.2-0.2-0.3-0.3-0.5c-0.2-0.2-0.3-0.5-0.5-0.9c-0.2-0.3-0.3-0.8-0.6-1.2
	c-0.2-0.3-0.3-0.6-0.6-0.9c0,0-0.2-0.2-0.3-0.3c-0.2-0.2-0.2-0.2-0.3-0.3c0-0.2-0.2-0.5-0.2-0.8s0-0.6,0.2-0.9
	c0-0.2,0.2-0.3,0.2-0.3l0.2-0.3c0,0,0,0,0-0.2l0,0c0-0.2,0-0.2,0-0.3c0,0,0.2-0.2,0.2-0.3c0-0.2,0.2-0.2,0.2-0.3l0.2-0.2
	c0.2,0,0.2,0,0.2-0.2c0,0,0.2-0.2,0.2-0.3c0.2-0.2,0.2-0.5,0.2-0.6s0.2-0.5,0.2-0.6s0-0.3,0.2-0.5c0-0.2,0-0.3,0-0.5v-0.2v-0.2
	c0-0.3-0.2-0.6-0.3-0.9c-0.2-0.3-0.3-0.8-0.5-1.1c-0.2-0.3-0.3-0.6-0.5-0.6l0,0l0,0c-0.2-0.2-0.3-0.3-0.5-0.3
	c-0.2-0.2-0.3-0.2-0.5-0.3h-0.2c0,0-0.2,0-0.2,0.2c0,0.2-0.2,0.2-0.2,0.2l-0.2,0.2l0,0c0,0,0,0-0.2,0.2c-0.2,0.2-0.2,0.3-0.3,0.5
	c-0.2,0.2-0.3,0.3-0.3,0.6c-0.2,0.3-0.3,0.6-0.5,0.9l-0.2,0.2c0,0,0,0.2-0.2,0.2c0,0.2-0.2,0.3-0.2,0.3c0,0.2-0.2,0.2-0.2,0.3
	c0,0.2-0.2,0.3-0.2,0.5c0,0.2,0,0.3-0.2,0.5c0,0.2,0,0.3,0,0.3c0,0.2,0,0.2-0.2,0.3c-0.2,0.2-0.2,0.3-0.2,0.5c0,0.2,0,0.3,0,0.5
	c0,0.2,0,0.2,0,0.2v0.2c0,0.3,0.2,0.9,0.3,1.6c0.2,0.8,0.3,1.4,0.6,2.2l0,0c0,0,0,0,0,0.2c-0.3,0.3-0.6,0.8-0.8,1.1
	c-0.3,0.3-0.5,0.6-0.8,0.9c-0.2,0.2-0.3,0.3-0.3,0.3c-0.2,0.2-0.3,0.3-0.3,0.3c-0.2,0.2-0.3,0.2-0.6,0.3c-0.2,0.2-0.3,0.2-0.5,0.3
	c-0.2,0.2-0.3,0.2-0.5,0.3c-0.2,0-0.3,0.2-0.5,0.3c-0.2,0-0.3,0.2-0.5,0.2c-0.2,0-0.3,0-0.5,0.2c-0.2,0-0.2,0-0.3,0l-0.2-0.2
	c-0.2-0.2-0.2-0.5-0.3-0.6c0-0.2-0.2-0.5-0.2-0.6c0-0.3,0-0.6,0.2-1.1c0.2-0.3,0.3-0.5,0.3-0.8c0.2-0.3,0.3-0.5,0.3-0.6v-0.2
	c0,0,0,0,0-0.2c0-0.3,0-0.5-0.2-0.8c0-0.3-0.2-0.5-0.3-0.6c-0.2-0.2-0.2-0.2-0.3-0.3c-0.2-0.2-0.3-0.3-0.5-0.3c-0.2,0-0.3,0-0.6,0
	c-0.2,0.3-0.3,0.6-0.5,0.9s-0.3,0.5-0.5,0.8c-0.2,0.2-0.3,0.3-0.3,0.6c-0.2,0.2-0.3,0.3-0.5,0.5l-0.2,0.2l-0.2,0.2
	c-0.2,0.2-0.2,0.3-0.3,0.5c-0.2,0.2-0.3,0.3-0.3,0.3c-0.3,0.2-0.6,0.5-0.9,0.8c-0.3,0.3-0.5,0.5-0.8,0.8l0,0c0,0,0,0-0.2,0V25l0,0
	c0.2-0.6,0.3-1.1,0.6-1.7c0,0,0-0.2,0.2-0.2c0,0,0-0.2,0.2-0.2c0-0.2,0.2-0.2,0.3-0.3c0-0.2,0.2-0.3,0.3-0.3
	c0.2-0.3,0.3-0.6,0.6-0.8c0.2-0.3,0.3-0.5,0.6-0.8c0.2-0.2,0.2-0.2,0.3-0.3c0.2,0,0.2-0.2,0.3-0.3c0.3-0.3,0.5-0.6,0.8-0.9
	s0.6-0.6,0.8-0.8l0,0c0.2-0.2,0.3-0.3,0.6-0.5c0.2-0.2,0.5-0.3,0.6-0.3c0.2-0.2,0.3-0.3,0.5-0.5c0.2-0.2,0-0.3,0-0.6v-0.2v-0.2
	c-0.2-0.2-0.3-0.3-0.3-0.5c-0.2-0.2-0.3-0.3-0.5-0.5c0,0,0,0-0.2,0h-0.2c-0.2,0-0.3,0-0.3-0.2c-0.2,0-0.2-0.2-0.3-0.2l0,0l0,0
	c0-0.2-0.2-0.2-0.2-0.2c-0.2,0-0.2,0-0.3,0h-0.2h-0.2c-0.2,0-0.3,0-0.6-0.2c-0.2,0-0.3,0-0.5-0.2h-0.2c-0.2,0-0.3,0-0.5,0
	c-0.2,0-0.3,0-0.5,0c0,0-0.2,0-0.3,0h-0.2c-0.3,0.3-0.8,0.5-1.1,0.8c-0.3,0.3-0.6,0.5-0.9,0.8c-0.3,0.5-0.8,0.9-1.1,1.4
	c-0.3,0.5-0.8,0.9-1.1,1.4l0,0l0,0c-0.3,0.3-0.5,0.6-0.6,0.9c-0.2,0.3-0.3,0.5-0.5,0.8c-0.2,0.2-0.3,0.3-0.3,0.3
	c-0.3,0.3-0.6,0.6-1.1,1.1c-0.5,0.5-0.9,0.8-1.1,1.1c-0.3,0.3-0.5,0.6-0.8,0.9c-0.3,0.3-0.8,0.8-1.4,1.2c-0.6,0.5-1.1,0.8-1.4,1.2
	c-0.3,0.3-0.8,0.6-1.4,0.8c-0.5,0.3-1.1,0.5-1.7,0.8c-0.6,0.2-1.1,0.3-1.4,0.5c-0.2,0-0.5,0.2-0.9,0.2c-0.5,0.2-0.8,0.2-0.9,0
	c0,0-0.2-0.2-0.2-0.3c0-0.2-0.2-0.2-0.2-0.3s-0.2-0.3-0.2-0.5c0-0.2-0.2-0.3-0.2-0.5c-0.2-0.3-0.2-0.6-0.2-1.1c0-0.2,0-0.3,0-0.5
	c0-0.2,0-0.3,0.2-0.3c0.2-0.5,0.3-0.9,0.3-1.2c0.2-0.5,0.3-0.8,0.5-1.2c0.2-0.5,0.3-0.8,0.6-1.2c0.2-0.3,0.3-0.8,0.6-1.2
	c0.3-0.6,0.6-1.2,1.1-1.9c0.2-0.3,0.5-0.5,0.6-0.8c0.2-0.3,0.5-0.6,0.6-0.9l0,0c0,0,0,0,0.2-0.2v0.2v0.2c-0.2,0.5-0.3,0.9-0.5,1.4
	s-0.3,0.9-0.5,1.4c0,0.2,0,0.3,0,0.3c0,0.2,0,0.2,0,0.3s0,0.3,0,0.3l0.2,0.2l0,0l0,0c0.2,0,0.3,0.2,0.5,0.2c0.2,0.2,0.3,0.2,0.5,0.3
	c0,0,0,0,0.2,0h0.2h0.2h0.2c0.2,0,0.3,0,0.3-0.2c0.2-0.2,0.2-0.3,0.3-0.3c0.2-0.5,0.3-0.8,0.5-1.2s0.3-0.9,0.3-1.4
	c0-0.2,0-0.3,0-0.3c0-0.2,0-0.3,0-0.3c0-0.3,0-0.5,0-0.6c0-0.3,0-0.5-0.2-0.8c0-0.2-0.2-0.3-0.2-0.5c0-0.2,0-0.3,0-0.5
	c0.2-0.2,0.2-0.3,0.3-0.5c0,0,0,0,0-0.2c0,0,0,0,0-0.2c0-0.2,0-0.2-0.2-0.3c0-0.2,0-0.2,0-0.3c0-0.2,0-0.2,0-0.3l-0.2-0.2H133
	c0,0-0.2,0-0.2,0.2l0,0l0,0l0,0l0,0c-0.3-0.2-0.5-0.3-0.8-0.5c-0.3,0-0.6-0.2-0.8-0.2l0,0l0,0c-0.2,0-0.3,0-0.6,0
	c-0.2,0-0.3,0.2-0.6,0.2c0,0-0.2,0-0.3,0h-0.2c-0.2,0-0.3,0-0.5,0.2c-0.2,0-0.3,0.2-0.5,0.3c-0.3,0.2-0.6,0.5-0.9,0.8
	c-0.3,0.3-0.6,0.5-0.9,0.8c-0.3,0.2-0.5,0.5-0.6,0.6c-0.2,0.3-0.5,0.6-0.6,0.9c0,0.2-0.2,0.2-0.2,0.3s-0.2,0.2-0.2,0.3
	c-0.3,0.5-0.5,0.9-0.8,1.4c-0.3,0.5-0.5,0.9-0.8,1.6c0,0.2-0.2,0.3-0.2,0.6c0,0.2-0.2,0.3-0.2,0.5c-0.2,0.5-0.3,0.9-0.3,1.4
	c-0.5,0.6-0.9,1.1-1.1,1.6c-0.3,0.5-0.5,0.8-0.6,1.1c-0.2,0.3-0.5,0.6-0.9,0.9c-0.5,0.3-1.2,0.6-2.2,1.1c-0.2,0-0.3,0-0.5,0
	c-0.2,0-0.3,0-0.3-0.2c-0.2,0-0.3-0.2-0.5-0.2s-0.3-0.2-0.3-0.2c0-0.2-0.2-0.2-0.3-0.3c0-0.2-0.2-0.3-0.2-0.3c0-0.2,0-0.5,0-1.1
	c0-0.5,0-1.1,0.2-1.6c0-0.5,0-0.8,0-1.1c0-0.3,0-0.5,0-0.6s0-0.3,0.2-0.5c0-0.2,0.2-0.3,0.3-0.6c0,0,0-0.2,0.2-0.2v-0.2
	c0-0.2,0-0.2-0.2,0.2c-0.2,0.2-0.2,0.5-0.3,0.6c-0.2,0.2-0.2,0.3-0.2,0c0.2-0.3,0.3-0.5,0.3-0.8c0-0.3,0.2-0.5,0.3-0.8
	c0-0.2,0-0.2,0.2-0.3c0-0.2,0.2-0.3,0.2-0.3c0.2-0.3,0.3-0.8,0.6-1.1c0.2-0.3,0.3-0.6,0.5-0.9c0-0.3,0.2-0.5,0-0.6
	c0-0.2,0-0.3-0.2-0.5c-0.2-0.2-0.3-0.3-0.5-0.3c-0.2-0.2-0.3-0.2-0.3-0.3c-0.2,0-0.5,0-0.8,0c-0.3,0.2-0.6,0.3-0.9,0.3
	c-0.3,0.2-0.5,0.3-0.8,0.3c0,0-0.2,0-0.2,0.2l-0.2,0.2l0,0h-0.2c0,0,0,0-0.2,0c0,0.2-0.2,0.3-0.2,0.3c0,0.2,0,0.2,0,0.3
	c0,0.2,0,0.3,0,0.5c0,0.2-0.2,0.3-0.2,0.5l0,0V18c-0.2,0.3-0.5,0.8-0.8,1.2c-0.3,0.5-0.6,1.1-0.8,1.6c-0.2,0.3-0.3,0.5-0.2,0.5
	c0,0,0.2-0.2,0.3-0.2c0.2-0.2,0.2-0.3,0.2-0.3c-0.2,0.2-0.2,0.3-0.3,0.5c0,0.2-0.2,0.3-0.3,0.5c0,0,0,0,0,0.2v0.2
	c-0.2,0-0.3,0.2-0.3,0.2s0,0.2-0.2,0.2c0,0.2,0,0.3,0,0.5c0,0.2,0,0.3-0.2,0.3c0,0.2-0.2,0.6-0.2,1.1c0,0.5,0,0.8-0.2,1.1
	c0,0.2,0,0.3,0,0.5c0,0.2,0,0.3,0,0.5c0,0.3,0,0.6,0.2,1.1c0.2,0.3,0.2,0.6,0.3,1.1c0.3,0.3,0.5,0.5,0.8,0.6s0.5,0.3,0.8,0.5
	c0.3,0.2,0.8,0.3,1.1,0.6c0.3,0.2,0.6,0.3,1.1,0.2c0.8,0.3,1.6,0.2,2.5-0.2c0.9-0.3,1.7-0.8,2.3-1.4c0.8-0.5,1.1-0.9,1.4-1.2
	c0.6-0.3,1.1-0.8,1.4-1.6c0-0.2,0.2-0.2,0.2-0.3c0,0.6,0.3,1.2,0.5,1.9c0.2,0.6,0.6,0.9,1.1,1.4c0.3,0.3,0.6,0.5,0.9,0.6
	s0.6,0.3,1.1,0.5c0.3,0.2,0.8,0.3,1.4,0.6c0.6,0.2,1.1,0.3,1.4,0.2c0.2,0,0.5,0,0.8,0s0.8,0,1.1,0c0.3,0,0.6,0,0.8,0
	c0.2,0,0.5,0,0.8-0.2c0.3-0.2,0.8-0.3,1.1-0.5s0.6-0.3,0.8-0.3c0.3-0.2,0.6-0.3,0.9-0.6c0.3-0.2,0.6-0.5,0.8-0.6
	c0.3-0.3,0.6-0.6,0.8-0.8c0.3-0.3,0.5-0.6,0.8-0.9c0.2-0.2,0.3-0.3,0.5-0.6c0.2-0.3,0.3-0.5,0.5-0.8l0,0c0,0,0,0,0-0.2
	c0.2-0.3,0.3-0.5,0.3-0.8c0.2-0.3,0.3-0.5,0.5-0.8c0.2-0.2,0.2-0.3,0.3-0.5c0.2,0.8,0.3,1.4,0.8,1.9c0.5,0.6,0.9,0.9,1.7,1.2
	c0.2,0,0.3,0.2,0.3,0.2c0.2,0,0.3,0.2,0.3,0.2c0.3,0.2,0.6,0.3,1.1,0.3c0.3,0,0.8,0,1.1-0.2c0.2,0,0.3-0.2,0.6-0.2
	c0.2,0,0.3-0.2,0.5-0.3l0,0l0,0c0.2,0,0.2-0.2,0.3-0.2c0,0,0.2-0.2,0.3-0.2c0.2-0.2,0.3-0.3,0.5-0.3c0.2-0.2,0.3-0.2,0.6-0.3
	c0.2,0.2,0.3,0.3,0.6,0.5c0.2,0.2,0.5,0.3,0.6,0.3h0.2c0,0,0,0,0.2,0c0.3,0.2,0.5,0.3,0.8,0.5c0.3,0,0.6,0.2,0.9,0.3
	c0.2,0,0.3,0,0.5,0c0.2,0,0.3,0,0.6-0.2c0.2,0,0.3,0,0.6-0.2c0.2,0,0.3-0.2,0.6-0.2c0.2,0,0.5,0,0.6-0.2c0.2,0,0.3-0.2,0.5-0.2
	c0.2,0,0.3-0.2,0.5-0.3s0.3-0.3,0.5-0.5c0.2-0.2,0.3-0.3,0.5-0.5c0,0,0-0.2,0.2-0.2c0,0,0,0,0.2,0c0.2,0,0.2-0.2,0.3-0.2
	c0.2,0,0.2-0.2,0.3-0.3c0,0,0-0.2,0.2-0.2l0.2-0.2c0-0.2,0.2-0.2,0.3-0.3c0-0.2,0.2-0.3,0.3-0.3l0,0l0,0c0,0,0.2,0.2,0.2,0.3
	c0.3,0.5,0.5,0.9,0.8,1.4c0.2,0.5,0.5,0.9,0.6,1.6c0.2,0.5,0.3,0.9,0.5,1.2c0,0.3,0,0.6-0.2,1.1c-0.2,0.3-0.6,0.8-1.2,1.4
	c-0.5,0.5-0.9,0.9-1.4,1.4c-0.5,0.5-0.8,1.1-1.2,1.6c-0.2,0.3-0.3,0.6-0.5,0.9c-0.2,0.3-0.3,0.6-0.3,0.9c0,0.2,0,0.3-0.2,0.5
	c0,0.2,0,0.3,0,0.3c0,0.3,0.2,0.5,0.2,0.8s0.2,0.5,0.3,0.6c0.2,0.2,0.2,0.2,0.2,0.3c0,0.2,0.2,0.3,0.2,0.5c0.2,0.2,0.2,0.3,0.3,0.3
	s0.3,0,0.5-0.2h0.2c0,0,0,0,0.2,0h0.2h0.2c0,0,0,0,0,0.2c0,0,0,0,0,0.2c0.2,0,0.2,0,0.2,0s0,0,0.2,0s0.3-0.2,0.5-0.2
	c0.2,0,0.3-0.2,0.3-0.2s0-0.2,0.2-0.2c0,0,0.2,0,0.2-0.2c0,0,0,0,0,0.2c0,0,0,0,0.2,0c0,0,0,0,0,0.2l0,0c0.2-0.2,0.3-0.3,0.5-0.3
	s0.2,0,0.2,0c-0.2,0.2-0.3,0.3-0.5,0.6c-0.2,0.2-0.3,0.5-0.5,0.6c0,0,0,0,0.2,0c0,0,0,0,0.2,0s0.3,0,0.5-0.2
	c0.2-0.2,0.3-0.3,0.5-0.3l0,0l0,0c0.2,0,0.3-0.2,0.5-0.3c0.2-0.2,0.3-0.2,0.5-0.3c0,0,0.2-0.2,0.2-0.3c0,0,0.2-0.2,0.2-0.3
	c0.2-0.2,0.3-0.3,0.6-0.6s0.6-0.6,0.8-0.9c0.3-0.3,0.5-0.6,0.6-0.8c0-0.2,0.2-0.3,0.3-0.5c0.2-0.2,0.2-0.3,0.3-0.5l0,0l0,0
	c0,0,0.2,0,0.2-0.2l0.2-0.2c0-0.2,0-0.3,0-0.6c0-0.2,0-0.5,0.2-0.6l0,0c0,0,0,0,0-0.2v-0.2v-0.2c0.2-0.3,0.2-0.6,0.2-0.8
	s0-0.3,0-0.5c0-0.2,0-0.3-0.2-0.6c0-0.5,0.2-0.8,0.3-0.9c0.3-0.2,0.6-0.3,1.1-0.6c0.3-0.2,0.8-0.3,1.1-0.6c0.2,0,0.2-0.2,0.3-0.2
	s0.2-0.2,0.3-0.2c0.3-0.2,0.5-0.5,0.8-0.6c0.3-0.3,0.5-0.5,0.8-0.6c0,0,0,0,0.2-0.2c0,0,0.2,0,0.2-0.2c0.3-0.3,0.8-0.6,1.1-0.9
	c0.2-0.2,0.2-0.2,0.3-0.3c0.2-0.2,0.2-0.2,0.3-0.3c0.2-0.2,0.3-0.3,0.3-0.5c0-0.2,0.2-0.3,0.3-0.5l0,0v0.2c0,0,0.2,0.2,0.2,0.3
	c0.3,0.5,0.5,0.9,0.8,1.4c0.2,0.5,0.5,0.9,0.6,1.6c0.2,0.5,0.3,0.9,0.5,1.2c0,0.3,0,0.6-0.2,1.1c-0.2,0.3-0.6,0.8-1.2,1.4
	c-0.5,0.5-0.9,0.9-1.4,1.4c-0.5,0.5-0.8,1.1-1.2,1.6c-0.2,0.3-0.3,0.6-0.5,0.9c-0.2,0.3-0.3,0.6-0.3,0.9c0,0.2,0,0.3-0.2,0.5
	c0,0.2,0,0.3,0,0.3c0,0.3,0.2,0.5,0.2,0.8c0,0.3,0.2,0.5,0.3,0.6c0.2,0.2,0.2,0.2,0.2,0.3c0,0.2,0.2,0.3,0.2,0.5
	c0.2,0.2,0.2,0.3,0.3,0.3c0.2,0,0.3,0,0.5-0.2h0.2c0,0,0,0,0.2,0h0.2h0.2c0,0,0,0,0,0.2c0,0,0,0,0,0.2c0.2,0,0.2,0,0.2,0s0,0,0.2,0
	s0.3-0.2,0.5-0.2c0.2,0,0.3-0.2,0.3-0.2s0-0.2,0.2-0.2c0,0,0.2,0,0.2-0.2c0,0,0,0,0,0.2c0,0,0,0,0.2,0c0,0,0,0,0,0.2l0,0
	c0.2-0.2,0.3-0.3,0.5-0.3h0.2c-0.2,0.2-0.3,0.3-0.5,0.6c-0.2,0.2-0.3,0.5-0.5,0.6c0,0,0,0,0.2,0c0,0,0,0,0.2,0s0.3,0,0.5-0.2
	c0.2-0.2,0.3-0.3,0.5-0.3l0,0l0,0c0.2,0,0.3-0.2,0.5-0.3c0.2-0.2,0.3-0.2,0.5-0.3c0,0,0.2-0.2,0.2-0.3s0.2-0.2,0.2-0.3
	c0.2-0.2,0.3-0.3,0.6-0.6c0.3-0.3,0.6-0.6,0.8-0.9c0.3-0.3,0.5-0.6,0.6-0.8c0-0.2,0.2-0.3,0.3-0.5c0.2-0.2,0.2-0.3,0.3-0.5l0,0l0,0
	c0,0,0.2,0,0.2-0.2l0.2-0.2c0-0.2,0-0.3,0-0.6c0-0.2,0-0.5,0.2-0.6l0,0c0,0,0,0,0-0.2v-0.2v-0.2c0.2-0.3,0.2-0.6,0.2-0.8
	c0-0.2,0-0.3,0-0.5c0-0.2,0-0.3-0.2-0.6c0-0.5,0.2-0.8,0.3-0.9c0.3-0.2,0.6-0.3,1.1-0.6c0.3-0.2,0.8-0.3,1.1-0.6
	c0.2,0,0.2-0.2,0.3-0.2c0.2,0,0.2-0.2,0.3-0.2c0.3-0.2,0.5-0.5,0.8-0.6c0.3-0.3,0.5-0.5,0.8-0.6c0,0,0,0,0.2-0.2
	c0.2-0.2,0.2,0,0.2-0.2c0.3-0.3,0.8-0.6,1.1-0.9c0.2-0.2,0.2-0.2,0.3-0.3c0.2-0.2,0.2-0.2,0.3-0.3c0.2-0.2,0.3-0.3,0.3-0.5v-0.2
	c0.2,0.6,0.3,1.2,0.6,1.6c0.5,0.6,0.9,0.9,1.7,1.2c0.2,0,0.3,0.2,0.3,0.2c0.2,0,0.3,0.2,0.3,0.2c0.3,0.2,0.6,0.3,1.1,0.3
	c0.3,0,0.8,0,1.1-0.2c0.2,0,0.3-0.2,0.6-0.2c0.2,0,0.3-0.2,0.5-0.3l0,0l0,0c0.2,0,0.2-0.2,0.3-0.2c0,0,0.2-0.2,0.3-0.2
	c0.2-0.2,0.3-0.3,0.5-0.3c0.2-0.2,0.3-0.2,0.6-0.3c0.2,0.2,0.3,0.3,0.6,0.5c0.2,0.2,0.5,0.3,0.6,0.3h0.2c0,0,0,0,0.2,0
	c0.3,0.2,0.5,0.3,0.8,0.5c0.3,0,0.6,0.2,0.9,0.3c0.2,0,0.3,0,0.5,0s0.3,0,0.6-0.2c0.2,0,0.3,0,0.6-0.2c0.2,0,0.3-0.2,0.6-0.2
	c0.2,0,0.5,0,0.6-0.2c0.2,0,0.3-0.2,0.5-0.2s0.3-0.2,0.5-0.3c0.2-0.2,0.3-0.3,0.5-0.5c0.2-0.2,0.3-0.3,0.5-0.5c0,0,0-0.2,0.2-0.2
	c0,0,0,0,0.2,0s0.2-0.2,0.3-0.2c0.2,0,0.2-0.2,0.3-0.3c0,0,0-0.2,0.2-0.2l0.2-0.2c0-0.2,0.2-0.2,0.3-0.3c0-0.2,0.2-0.3,0.3-0.3
	c0,0,0.2,0,0.2-0.2l0.2-0.2c0.2-0.2,0.3-0.3,0.5-0.8c0.2-0.5,0.3-0.8,0.3-0.9c-0.2-0.2-0.3-0.3-0.3-0.3c-0.2-0.2-0.3-0.2-0.5-0.2
	l0,0l0,0c-0.3,0.3-0.5,0.5-0.8,0.9c-0.3,0.3-0.6,0.8-0.8,1.1c-0.3,0.3-0.5,0.6-0.8,0.9c-0.2,0.2-0.3,0.3-0.3,0.3
	c-0.2,0.2-0.3,0.3-0.3,0.3c-0.2,0.2-0.3,0.2-0.6,0.3c-0.2,0.2-0.3,0.2-0.5,0.3c-0.2,0.2-0.3,0.2-0.5,0.3c-0.2,0-0.3,0.2-0.5,0.3
	c-0.2,0-0.3,0.2-0.5,0.2c-0.2,0-0.3,0-0.5,0.2c-0.2,0-0.2,0-0.3,0l-0.2-0.2c-0.2-0.2-0.2-0.5-0.3-0.6c0-0.2-0.2-0.5-0.2-0.6
	c0-0.3,0-0.6,0.2-1.1c0.2-0.3,0.3-0.5,0.3-0.8c0.2-0.3,0.3-0.5,0.3-0.6v-0.2c0,0,0,0,0-0.2c0-0.3,0-0.5-0.2-0.8
	c0-0.3-0.2-0.5-0.3-0.6c-0.2-0.2-0.2-0.2-0.3-0.3c-0.2-0.2-0.3-0.3-0.5-0.3c-0.2,0-0.3,0-0.6,0c-0.2,0.3-0.3,0.6-0.5,0.9
	c-0.2,0.3-0.3,0.5-0.5,0.8c-0.2,0.2-0.3,0.3-0.3,0.6c-0.2,0.2-0.3,0.3-0.5,0.5l-0.2,0.2l-0.2,0.2c-0.2,0.2-0.2,0.3-0.3,0.5
	c-0.2,0.2-0.3,0.3-0.3,0.3c-0.3,0.2-0.6,0.5-0.9,0.8c-0.3,0.3-0.5,0.5-0.8,0.8l0,0c0,0,0,0-0.2,0v-0.2l0,0c0.2-0.6,0.3-1.1,0.6-1.7
	c0,0,0-0.2,0.2-0.2c0,0,0-0.2,0.2-0.2c0-0.2,0.2-0.2,0.3-0.3c0-0.2,0.2-0.3,0.3-0.3c0.2-0.3,0.3-0.6,0.6-0.8
	c0.2-0.3,0.3-0.5,0.6-0.8c0.2-0.2,0.2-0.2,0.3-0.3c0.2,0,0.2-0.2,0.3-0.3c0.3-0.3,0.5-0.6,0.8-0.9c0.3-0.3,0.6-0.6,0.8-0.8l0,0
	c0.2-0.2,0.3-0.3,0.6-0.5c0.2-0.2,0.5-0.3,0.6-0.3c0.2-0.2,0.3-0.3,0.5-0.5c0-0.2,0-0.3,0-0.6v-0.2v-0.2c-0.2-0.2-0.3-0.3-0.3-0.5
	c-0.2-0.2-0.3-0.3-0.5-0.5c0,0,0,0-0.2,0h-0.2c-0.2,0-0.3,0-0.3-0.2c-0.2,0-0.2-0.2-0.3-0.2l0,0l0,0c0-0.2-0.2-0.2-0.2-0.2
	c-0.2,0-0.2,0-0.3,0h-0.2h-0.2c-0.2,0-0.3,0-0.6-0.2c-0.2,0-0.3,0-0.5-0.2h-0.2c-0.2,0-0.3,0-0.5,0c-0.2,0-0.3,0-0.5,0
	c0,0-0.2,0-0.3,0h-0.2c-0.3,0.3-0.8,0.5-1.1,0.8C186.4,16.2,186.1,16.5,185.8,16.8z M157.4,32.8c0,0.3-0.2,0.5-0.2,0.8
	s-0.2,0.5-0.2,0.6c0,0.3-0.2,0.5-0.3,0.6c-0.2,0.3-0.2,0.5-0.3,0.6v0.2c0,0,0,0-0.2,0.2c-0.2,0.3-0.3,0.6-0.5,0.8
	c-0.2,0.2-0.3,0.3-0.6,0.6c-0.2,0.2-0.2,0.2-0.3,0.3c-0.2,0.2-0.2,0.2-0.3,0.3c-0.2,0.2-0.2,0.2-0.3,0.3c-0.2,0-0.2,0.2-0.3,0.2
	c-0.2,0.2-0.2,0.2-0.3,0.2c-0.2,0-0.2,0-0.3-0.2c-0.2-0.2-0.2-0.3-0.3-0.3c-0.2-0.2-0.2-0.2-0.3-0.3c0,0-0.2-0.2-0.2-0.3
	c0-0.2,0-0.2,0-0.3c0-0.2,0-0.3,0.2-0.3c0-0.2,0-0.3,0-0.5c0-0.2,0.2-0.3,0.2-0.3c0-0.2,0.2-0.2,0.3-0.3c0.2,0,0.2-0.2,0.3-0.3
	c0-0.2,0.2-0.2,0.2-0.3c0-0.2,0.2-0.3,0.3-0.5c0.2-0.2,0.3-0.3,0.5-0.3c0.2,0,0.2,0,0.3-0.2l0.2-0.2c0.2-0.3,0.5-0.6,0.9-0.9
	c0.3-0.3,0.8-0.6,1.1-0.8c0.3-0.2,0.5,0,0.5,0.5C157.4,32.6,157.4,32.6,157.4,32.8C157.4,32.6,157.4,32.8,157.4,32.8z M170.9,32.5
	C170.9,32.6,170.9,32.6,170.9,32.5c0,0.2,0,0.2,0,0.2c0,0.3-0.2,0.5-0.2,0.8s-0.2,0.5-0.2,0.6c0,0.3-0.2,0.5-0.3,0.6
	c-0.2,0.3-0.2,0.5-0.3,0.6v0.2c0,0,0,0-0.2,0.2c-0.2,0.3-0.3,0.6-0.5,0.8c-0.2,0.2-0.3,0.3-0.6,0.6c-0.2,0.2-0.2,0.2-0.3,0.3
	c-0.2,0.2-0.2,0.2-0.3,0.3c-0.2,0.2-0.2,0.2-0.3,0.3c-0.2,0-0.2,0.2-0.3,0.2c-0.2,0.2-0.2,0.2-0.3,0.2c-0.2,0-0.2,0-0.3-0.2
	c-0.2-0.2-0.2-0.3-0.3-0.3c-0.2-0.2-0.2-0.2-0.3-0.3c0,0-0.2-0.2-0.2-0.3c0-0.2,0-0.2,0-0.3c0-0.2,0-0.3,0.2-0.3c0-0.2,0-0.3,0-0.5
	c0-0.2,0.2-0.3,0.2-0.3c0-0.2,0.2-0.2,0.3-0.3c0.2,0,0.2-0.2,0.3-0.3c0-0.2,0.2-0.2,0.2-0.3c0-0.2,0.2-0.3,0.3-0.5
	c0.2-0.2,0.3-0.3,0.5-0.3c0.2,0,0.2,0,0.3-0.2l0.2-0.2c0.2-0.3,0.5-0.6,0.9-0.9c0.3-0.3,0.8-0.6,1.1-0.8
	C170.7,31.8,170.9,32,170.9,32.5z"/>
</svg>
