<svg width="16" height="16" viewBox="0 0 16 16" fill="none" xmlns="http://www.w3.org/2000/svg">
<g clip-path="url(#clip0)">
<path d="M2.79695 1H13.203C14.1913 1 14.9999 1.73166 14.9999 2.79681V13.2032C14.9999 14.2683 14.1913 15 13.203 15H2.79695C1.80842 15 1 14.2683 1 13.2032V2.79681C1 1.73166 1.80842 1 2.79695 1ZM11.1984 2.55546C10.8517 2.55546 10.5684 2.83893 10.5684 3.18578V4.69438C10.5684 5.04109 10.8517 5.3247 11.1984 5.3247H12.7807C13.1274 5.3247 13.411 5.04109 13.411 4.69438V3.18578C13.411 2.83893 13.1274 2.55546 12.7807 2.55546H11.1984ZM13.4177 6.92055H12.1855C12.3021 7.30119 12.3652 7.70439 12.3652 8.12154C12.3652 10.4502 10.4166 12.3379 8.0133 12.3379C5.61018 12.3379 3.66186 10.4502 3.66186 8.12154C3.66186 7.7041 3.72482 7.30104 3.84154 6.92055H2.55575V12.8343C2.55575 13.1404 2.80615 13.3909 3.11233 13.3909H12.8614C13.1675 13.3909 13.4179 13.1405 13.4179 12.8343V6.92055H13.4177ZM8.01315 5.24521C6.46042 5.24521 5.20151 6.46488 5.20151 7.9696C5.20151 9.47432 6.46042 10.694 8.01315 10.694C9.56603 10.694 10.8251 9.47432 10.8251 7.9696C10.8251 6.46488 9.56617 5.24521 8.01315 5.24521Z" fill="white"/>
</g>
<defs>
<clipPath id="clip0">
<rect width="15.8824" height="15.8824" fill="white" transform="translate(0.0588379 0.0588245)"/>
</clipPath>
</defs>
</svg>
