<?xml version="1.0" encoding="utf-8"?>
<!-- Generator: Adobe Illustrator 23.0.1, SVG Export Plug-In . SVG Version: 6.00 Build 0)  -->
<svg version="1.1" id="Слой_1" xmlns="http://www.w3.org/2000/svg" xmlns:xlink="http://www.w3.org/1999/xlink" x="0px" y="0px"
	 viewBox="0 0 212 40" style="enable-background:new 0 0 212 40;" xml:space="preserve">
<style type="text/css">
	.st0{fill:#FFFFFF;}
	.st1{fill:#FFC90E;}
	.st2{fill:#EADCBB;}
	.st3{fill:#F49943;}
	.st4{fill:#F9E04D;}
	.st5{fill:#DB5434;}
	.st6{fill:#F24317;}
	.st7{fill:#331B1D;}
	.st8{fill:#8B0015;}
</style>
<path class="st0" d="M67.2,38.8c-5.7-1.5-14.9-2.2-24.7-2.8c-2-0.1-4-0.2-6-0.4c-1.4-0.1-2.8-0.1-4.4-0.1C20.5,35.5,6.5,38,6.3,38
	l-0.7,0.1L2.8,21.3l-0.2,0.3l-1.4-0.9L7.2,6.4l7.8,6.2v-2.5l0-0.1C15.2,9,16.4,7,19.4,7c0.2,0,0.5,0,0.7,0c1.9,0.2,3.1,0.8,3.9,1.4
	l0.2-7.6l13,0.6l0.2,6.2L57,9.5l0.2-1.1l-6-0.2l16.4-5.9l9.6,11.2l-3.7-0.8L67.9,39L67.2,38.8z"/>
<path class="st0" d="M24.9,1.6l11.6,0.5l0.2,6.2l20.9,1.9L58,7.7l-3.2-0.1l12.6-4.5l8,9.3l-2.4-0.5l-5.6,26.3
	c-6.9-1.9-18.5-2.3-30.7-3.2c-1.4-0.1-2.9-0.1-4.5-0.1c-11.8,0-25.9,2.5-25.9,2.5L3.1,19.5l-0.8,1.3l-0.4-0.2l5.5-13l8.2,6.6v-3.8
	c0,0,0.5-2.6,3.7-2.6c0.2,0,0.4,0,0.6,0C23.5,8,24.7,10,24.7,10L24.9,1.6z M23.6,0.2l0,1.4l-0.2,5.7c-0.8-0.4-1.9-0.8-3.2-0.9
	c-0.3,0-0.5,0-0.8,0c-3.4,0-4.8,2.4-5,3.6l0,0.1v0.1v1L8.3,6.4L6.9,5.3L6.2,7L0.7,20l-0.5,1.1l1,0.6l0.4,0.2l0.6,0.4l2.6,15.3
	l0.2,1.3l1.3-0.2c0.1,0,14.2-2.5,25.7-2.5c1.6,0,3.1,0,4.4,0.1c2,0.1,4,0.3,6,0.4c9.7,0.6,18.9,1.2,24.5,2.8l1.4,0.4l0.3-1.4
	l5.3-24.9l1.1,0.2l4,0.9l-2.6-3.1l-7.9-9.3l-0.6-0.7l-0.9,0.3L54.3,6.4l-4.7,1.7L38.1,7l-0.1-5l0-1.3l-1.3-0.1L25,0.2L23.6,0.2z"/>
<path class="st1" d="M56.4,18.6C56.4,18.6,56.4,18.6,56.4,18.6l-19.6-1.5l-0.1,17.8c0.4,0,0.8,0,1.2,0.1c1.3,0,3.2,0.1,5.8,0.3
	c3.7,0.3,6,0.4,7,0.4c0.9-0.1,1.5-0.1,1.7-0.1l2.2-9.5c0.4-1.7,0.7-3,1.1-4.1C55.9,20.9,56.2,19.7,56.4,18.6
	C56.4,18.6,56.4,18.6,56.4,18.6z M54.1,20.6C54.1,20.6,54.1,20.6,54.1,20.6c0,1.2,0,2.2,0,3.3c0,0.3-0.1,0.7-0.2,0.9
	c-0.1,0.1-0.2,0.2-0.3,0.1c-0.8-0.3-1.6-0.4-2.4-0.3c-0.1,0-0.1,0-0.1-0.1c-0.1-0.5-0.1-1.1,0-1.6c0.2-0.8,0.2-1.5,0.2-2.4
	c0-0.2,0.1-0.3,0.3-0.3C52.5,20.3,53.3,20.4,54.1,20.6z M50.1,28.7c0-0.1,0-0.1,0.1-0.1c0.1,0,0.1,0,0.2,0c0.7-0.1,1.2,0,1.5,0.6
	c0.3,0.4,0.3,0.9,0.1,1.5c-0.1,0.3-0.1,0.7,0,1c0.1,0.4,0,0.7-0.1,1c-0.1,0.1-0.1,0.1-0.2,0.1c-0.5-0.2-0.9-0.3-1.5-0.3
	c-0.2,0-0.4-0.1-0.5-0.3c-0.1-0.3-0.1-0.6,0-0.9c0.1-0.2,0.2-0.4,0.2-0.7C49.9,29.9,50,29.3,50.1,28.7z M39.4,19.6
	C39.5,19.6,39.5,19.6,39.4,19.6c0.9-0.1,1.7,0.1,2.3,0.5c0.1,0,0.1,0.1,0.1,0.2c0,1.3-0.2,2.6-0.3,3.8c0,0.1-0.1,0.1-0.1,0.1
	c-0.7-0.1-1.5-0.2-2.1-0.4c-0.1,0.1-0.2,0.1-0.5,0.1c-0.1,0-0.1,0-0.1-0.2c0-0.1,0-0.3,0-0.4c0.1-0.6,0.2-1.1,0.2-1.7
	c0-0.2,0-0.5,0-0.8c0-0.4,0.1-0.8,0.4-1.1c0,0,0-0.1,0-0.1C39.3,19.6,39.3,19.6,39.4,19.6z M38.1,27.6
	C38.2,27.6,38.2,27.6,38.1,27.6c0.5,0.1,0.9,0.2,1.3,0.2c0.3,0,0.5,0.2,0.6,0.4c0.1,0.3,0.1,0.6,0.1,0.9c0,0.8-0.1,1.6-0.3,2.4
	c0,0.1,0,0.1-0.1,0.1c-0.8,0.1-1.4,0-1.9-0.5c0,0-0.1-0.1-0.1-0.2c0.1-1.1,0.2-2.2,0.3-3.2C38,27.7,38.1,27.6,38.1,27.6z M48.3,20.3
	c0.1,0,0.1,0.1,0.1,0.2c0,1.3-0.2,2.6-0.3,3.8c0,0.1-0.1,0.1-0.2,0.1c-0.7-0.1-1.4-0.2-2.1-0.4c-0.1,0.1-0.2,0.1-0.5,0.1
	c-0.1,0-0.1,0-0.1-0.1c-0.2-0.1-0.3-0.3-0.2-0.6c0.1-0.6,0.2-1.2,0.2-1.8c0.1-0.5,0.2-1.1,0.4-1.6c0-0.1,0.1-0.2,0.2-0.2
	c0,0,0,0,0,0c0,0,0.1-0.1,0.2-0.1c0,0,0,0,0.1,0C47,19.8,47.7,20,48.3,20.3z M42.1,27.4c0,0,0.1,0,0.1-0.1c0,0,0.1,0,0.1,0
	c1.8,0.3,3.5,0.6,5.3,1c0.6,0.1,0.9,0.5,0.9,1.1v0c0,0,0,0,0,0.1c0,1.8-0.2,3.6-0.7,5.3c-0.1,0.4-0.2,0.6-0.3,0.4
	c-2.1,0.2-4.1,0.1-6-0.3c0,0-0.1-0.1,0-0.2c0,0,0-0.1,0-0.1c0-0.3,0.1-0.6,0.1-0.9l0.1-3.9c0-0.1,0-0.3,0-0.4c0-0.1,0-0.2,0-0.3
	C41.7,28.4,41.8,27.8,42.1,27.4C42.1,27.4,42.1,27.4,42.1,27.4z"/>
<path class="st2" d="M42.2,27.3c0,0-0.1,0-0.1,0.1l0,0c-0.3,0.4-0.5,1-0.5,1.7c0,0.1,0,0.1,0,0.2c0,0.2,0,0.3,0,0.5l-0.1,3.9
	c0,0.3-0.1,0.6-0.1,0.9c0,0,0,0.1,0,0.1c0,0,0,0.1,0,0.1c1.9,0.4,3.9,0.5,6,0.3c0.1,0.1,0.2,0,0.3-0.4c0.4-1.7,0.6-3.5,0.7-5.3
	c0,0,0,0,0,0c0-0.7-0.3-1-0.9-1.1C45.8,27.9,44.1,27.5,42.2,27.3C42.3,27.3,42.3,27.3,42.2,27.3z M48.4,20.6c0-0.1,0-0.2-0.1-0.2
	c-0.6-0.4-1.3-0.5-2.2-0.5c0,0,0,0-0.1,0c-0.1,0-0.1,0-0.2,0.1c0,0,0,0,0,0c-0.1,0-0.2,0-0.2,0.2c-0.2,0.5-0.3,1-0.4,1.6
	c-0.1,0.6-0.2,1.2-0.2,1.8c0,0.3,0,0.5,0.2,0.6c0,0.1,0.1,0.1,0.1,0.1c0.2,0,0.4,0,0.5-0.1c0.7,0.2,1.4,0.4,2.1,0.4
	c0.1,0,0.1,0,0.2-0.1C48.2,23.1,48.3,21.9,48.4,20.6z M47.2,20.7L47.2,20.7C47.2,20.8,47.2,20.8,47.2,20.7z M38.2,27.6
	C38.2,27.6,38.2,27.6,38.2,27.6c-0.2,0-0.2,0-0.2,0.1c-0.1,1.1-0.2,2.1-0.3,3.2c0,0.1,0,0.1,0.1,0.2c0.5,0.4,1.2,0.6,1.9,0.5
	c0.1,0,0.1,0,0.1-0.1C40,30.8,40,30,40,29.1c0-0.3,0-0.6-0.1-0.9c-0.1-0.3-0.2-0.4-0.6-0.4C39,27.8,38.6,27.7,38.2,27.6z M39.5,19.6
	C39.5,19.6,39.5,19.6,39.5,19.6c-0.2,0-0.2,0.1-0.3,0.1c0,0,0,0.1,0,0.1c-0.2,0.3-0.3,0.6-0.4,1.1c0,0.3,0,0.5,0,0.8
	c-0.1,0.6-0.2,1.1-0.2,1.7c0,0.1-0.1,0.2,0,0.4c0,0.1,0,0.2,0.1,0.2c0.2,0,0.4,0,0.5-0.1c0.7,0.2,1.4,0.4,2.1,0.4
	c0.1,0,0.1,0,0.1-0.1c0.2-1.2,0.3-2.5,0.3-3.8c0-0.1,0-0.2-0.1-0.2C41.1,19.7,40.4,19.5,39.5,19.6z M40.6,20.4L40.6,20.4
	C40.7,20.5,40.6,20.5,40.6,20.4z M50.3,28.6c-0.1,0-0.1,0.1-0.1,0.1c-0.1,0.6-0.2,1.2-0.3,1.8c0,0.2-0.1,0.4-0.2,0.7
	c-0.1,0.3-0.1,0.6,0,0.9c0.1,0.2,0.3,0.3,0.5,0.3c0.5,0,1,0.1,1.5,0.3c0.1,0,0.2,0,0.2-0.1c0.2-0.3,0.2-0.6,0.1-1
	c-0.1-0.3-0.1-0.7,0-1c0.2-0.5,0.2-1-0.1-1.5c-0.3-0.5-0.8-0.7-1.5-0.6C50.4,28.6,50.3,28.6,50.3,28.6z M54.1,20.7
	C54.1,20.7,54.1,20.6,54.1,20.7c-0.9-0.3-1.7-0.4-2.5-0.5c-0.2,0-0.3,0.1-0.3,0.3c0,0.8-0.1,1.6-0.2,2.4C51,23.5,51,24,51,24.5
	c0,0.1,0,0.1,0.1,0.1c0.8,0,1.6,0.1,2.4,0.3c0.1,0,0.2,0,0.3-0.1c0.2-0.3,0.2-0.6,0.2-0.9C54.1,22.8,54.1,21.8,54.1,20.7z
	 M45.5,13.4c-0.1,0-0.1,0-0.1,0.1c-0.2,0.4-0.4,0.9-0.5,1.4c0,0.1,0,0.2,0.1,0.2c1,0.5,2.1,0.8,3.3,0.9c0.1,0,0.2,0,0.3,0
	c0.4-0.3,0.5-0.8,0.4-1.5c0.4-0.6,0.2-0.9-0.6-0.9C47.4,13.5,46.5,13.4,45.5,13.4z"/>
<path class="st3" d="M47.2,20.7L47.2,20.7C47.2,20.8,47.2,20.8,47.2,20.7z M40.7,20.4L40.7,20.4C40.6,20.5,40.7,20.5,40.7,20.4z
	 M36.8,35c-0.1,0-0.1,0-0.2,0v0C36.6,35,36.6,35,36.8,35C36.7,35,36.7,35,36.8,35C36.7,35,36.8,35,36.8,35z"/>
<path class="st4" d="M53.2,17.8c0,0.1,0,0.2,0.1,0.2c0.5,0.2,1,0.2,1.6,0.3c0.1,0,0.2,0,0.3,0.1c0.3,0.2,0.6,0.2,0.9,0
	c0,0,0.1,0,0.1-0.1c0.3-0.2,0.3-0.4,0-0.6c0.8-2.4,1.2-4.9,1.4-7.4l-8.2-0.5c-3-0.2-5.1-0.4-6.4-0.5c-2.4-0.3-4.5-0.6-6.4-0.9
	c-0.1,1-0.2,1.8-0.2,2.4c0,0.6,0,1.4,0,2.3c0.1,0.9,0,2.1,0,3.4L53.2,17.8z M45.4,13.5c0,0,0.1-0.1,0.1-0.1c0.9,0,1.9,0.1,2.8,0.2
	c0.8,0.1,1,0.4,0.6,0.9c0.1,0.7,0,1.1-0.4,1.5c-0.1,0-0.2,0.1-0.3,0c-1.2-0.1-2.3-0.4-3.3-0.9c-0.1,0-0.1-0.1-0.1-0.2
	C45,14.4,45.2,13.9,45.4,13.5z"/>
<path class="st5" d="M56.4,18.5C56.4,18.5,56.4,18.5,56.4,18.5h-0.6c-0.1,0-0.3,0-0.4,0L36.7,17v1.2c2.1,0,4.2,0.1,6.2,0.4
	c2.1,0.3,4.2,0.4,6.5,0.4c2.3,0,3.9,0,5,0.2c1.1,0.2,1.6,0.2,1.8,0.3C56.3,19.1,56.4,18.8,56.4,18.5C56.4,18.5,56.4,18.5,56.4,18.5z
	"/>
<path class="st6" d="M53.2,17.8c0,0.1,0,0.2,0.1,0.2c0.5,0.2,1,0.2,1.6,0.3c0.1,0,0.2,0,0.3,0.1c0.1,0,0.2,0.1,0.2,0.1
	c0.1,0,0.3,0.1,0.4,0c0.1,0,0.2,0,0.3-0.1c0,0,0.1,0,0.1-0.1c0.3-0.2,0.3-0.4,0-0.6c0.8-2.4,1.2-4.9,1.4-7.4l-8.2-0.5
	c-3-0.2-5.1-0.4-6.4-0.5c-2.4-0.3-4.5-0.6-6.4-0.9c-0.1,1-0.2,1.8-0.2,2.4c0,0.6,0,1.4,0,2.3c0.1,0.9,0,2.1,0,3.4L53.2,17.8z
	 M45.4,13.5c0,0,0.1-0.1,0.1-0.1c0.9,0,1.9,0.1,2.8,0.2c0.8,0.1,1,0.4,0.6,0.9c0.1,0.7,0,1.1-0.4,1.5c-0.1,0-0.2,0.1-0.3,0
	c-1.2-0.1-2.3-0.4-3.3-0.9c-0.1,0-0.1-0.1-0.1-0.2C45,14.4,45.2,13.9,45.4,13.5z"/>
<path class="st2" d="M45.5,13.4c-0.1,0-0.1,0-0.1,0.1c-0.2,0.4-0.4,0.9-0.5,1.4c0,0.1,0,0.2,0.1,0.2c1,0.5,2.1,0.8,3.3,0.9
	c0.1,0,0.2,0,0.3,0c0.4-0.3,0.5-0.8,0.4-1.5c0.4-0.6,0.2-0.9-0.6-0.9C47.4,13.5,46.5,13.4,45.5,13.4z"/>
<path d="M38.6,16.7C38.6,16.7,38.7,16.7,38.6,16.7C38.6,16.6,38.6,16.6,38.6,16.7C38.6,16.7,38.6,16.7,38.6,16.7z M46.5,17
	c0.1,0.1,0.1,0.2,0.2,0.2c0.1-0.1,0.2-0.1,0.3-0.2C46.8,17.1,46.6,17.1,46.5,17z M49.5,10.1l-0.1,0.1c0.1,0,0.2,0,0.2,0
	C49.6,10.2,49.6,10.1,49.5,10.1z M49.9,17.4c0,0,0.1,0,0.1-0.1c-0.1,0-0.1,0-0.2,0C49.9,17.3,49.9,17.4,49.9,17.4z M49.9,12.1
	c0-0.1,0-0.1,0-0.1c0-0.1,0-0.2,0-0.2c-0.2,0-0.9-0.2-2-0.3c0,0,0,0,0,0c-1.6-0.2-2.4-0.3-2.4-0.3c0,0,0,0,0,0c0,0,0,0.1,0,0.2
	c0.2,0.2,0.3,0.4,0.4,0.6c-0.1-0.2-0.2-0.4-0.4-0.6c-0.1,0.5-0.2,1-0.2,1.3c-0.1,0.4-0.1,0.6-0.1,0.6c-0.1,0.5-0.2,1-0.3,1.3
	c0,0,0,0,0,0.1c0,0,0,0,0,0.1c-0.2,0.7-0.2,1-0.1,1c0.1,0,0.2,0,0.2,0c0.3,0.1,0.6,0.2,0.9,0.4h0c0.1-0.1,0.2-0.2,0.3-0.3
	C46,15.8,45.9,16,45.8,16c0.7,0.2,1.4,0.4,2.2,0.4c0.1-0.1,0.3-0.1,0.4-0.2c0.1-0.1,0.2-0.1,0.3-0.2c-1.3-0.2-2.4-0.5-3.3-0.7
	c-0.1,0-0.2,0-0.2-0.1c0,0,0,0,0-0.1c0,0,0,0,0,0c-0.1-0.2,0.1-0.6,0.4-1.4c1.2,0.2,2.4,0.3,3.5,0.4c0,0,0,0,0,0
	c0,0.2,0,0.7-0.2,1.4c0,0.2,0,0.3,0,0.5c0-0.1,0.1-0.1,0.1-0.2c0,0.1,0,0.1-0.1,0.2c0,0,0,0,0,0c0,0,0,0,0,0
	c-0.1,0.1-0.2,0.2-0.3,0.2c-0.1,0.1-0.3,0.1-0.4,0.2c0.2,0,0.5,0,0.8,0c0.2,0,0.2,0,0.3-0.1l0,0c-0.1-0.1-0.2-0.2-0.2-0.3
	c0.1,0.1,0.2,0.2,0.2,0.3c0-0.1,0.1-0.2,0.1-0.4c0-0.1,0.1-0.4,0.2-0.8c-0.1,0.1-0.2,0.2-0.4,0.2c0.1-0.1,0.2-0.2,0.4-0.2
	c0.1-0.3,0.2-0.7,0.3-1.1c0-0.1,0-0.2,0-0.4c0,0,0-0.1,0-0.2C49.8,12.8,49.9,12.4,49.9,12.1z M46,11.7C46,11.7,46,11.6,46,11.7
	c0.8,0,1.4,0.1,2,0.2c0.7,0.1,1.2,0.2,1.5,0.4c-0.2,0.4-0.2,0.8-0.3,1.3c-1.2-0.1-2.3-0.3-3.5-0.6C45.9,12.4,46,12,46,11.7z
	 M55.4,10.5L55.4,10.5c-0.1,0-0.1,0-0.1,0C55.3,10.5,55.3,10.5,55.4,10.5z M58.2,6.2c-1.4,0.5-2.3,1-2.7,1.4
	c-0.5,0.4-0.7,0.7-0.6,0.7c0,0,0.3,0.1,0.7,0.1c0.5,0,0.9,0,1.2-0.2c0.4-0.2,0.7-0.3,1.1-0.4c0,0,0,0,0,0c-0.1,0.8-0.2,1.5-0.3,2.3
	c0,0-0.5,0-1.6,0c-0.9-0.1-2.1-0.2-3.7-0.3c-0.7-0.1-1.5-0.1-2.2-0.2c-2.6-0.2-5-0.5-7.2-0.7c-2.7-0.3-4.7-0.4-5.8-0.5l-0.3,0
	c0.3,0,0.6,0.1,0.9,0.2c0,0,0.1,0,0.1,0c0.8,0.1,1.5,0.3,2.3,0.4c0.3,0,0.6,0.1,0.9,0.1C41,9,41,8.9,40.9,8.8C41,8.9,41,9,41.1,9.1
	c0.7,0.1,1.4,0.2,2.1,0.3c0.1-0.1,0.2-0.2,0.4-0.3c-0.1,0.1-0.3,0.2-0.4,0.3c0.3,0,0.5,0.1,0.8,0.1c-0.1-0.2-0.2-0.3-0.3-0.4
	c0.1,0.1,0.2,0.3,0.3,0.4c0.8,0.1,1.6,0.2,2.4,0.3c0.1-0.2,0.3-0.3,0.4-0.5c-0.1,0.2-0.2,0.3-0.4,0.5c0.3,0,0.6,0.1,0.9,0.1
	c0-0.1,0-0.1,0-0.2c0,0.1,0,0.1,0,0.2c0.7,0.1,1.4,0.2,2.2,0.2l0.1-0.1c0,0,0,0,0,0c0,0,0,0,0,0c0,0,0.1,0.1,0.1,0.2
	c0,0,0.1,0,0.1,0c0.9,0.1,1.7,0.2,2.6,0.2c0.1-0.1,0.3-0.2,0.4-0.3c-0.1,0.1-0.2,0.2-0.4,0.3c0.2,0,0.4,0,0.7,0c0,0,0-0.1,0-0.1
	c0,0,0,0.1,0,0.1c0.8,0,1.5,0,2.3,0c0,0,0,0,0.1,0l-0.3-0.3l0.3,0.3l0,0c0.7,0,1.5,0,2.2-0.1c0,0.2-0.1,0.5-0.1,0.7
	c-0.1,0.5-0.2,1.1-0.3,1.6c0,0.1,0.1,0.1,0.1,0.2c0-0.1-0.1-0.1-0.1-0.2c0,0,0,0.1,0,0.1c-0.1,0.4-0.2,0.9-0.2,1.3
	c-0.1,0.4-0.2,0.8-0.2,1.2c0.1,0.1,0.2,0.2,0.3,0.3c-0.1-0.1-0.2-0.2-0.3-0.3c-0.1,0.5-0.2,1.1-0.3,1.5l0.1-0.1l-0.1,0.1
	c0,0.2-0.1,0.4-0.1,0.6c0.1,0.1,0.2,0.3,0.4,0.4c-0.1-0.1-0.2-0.3-0.4-0.4c0,0.2-0.1,0.4-0.1,0.7c0,0.1-0.1,0.2-0.1,0.4
	c-0.5-0.2-1-0.3-1.6-0.4c-0.1,0-0.1,0.1-0.2,0.1c0.1,0,0.2-0.1,0.2-0.1c-0.5-0.1-0.9-0.2-1.4-0.3c-0.9-0.2-1.9-0.3-2.8-0.4
	c0,0-0.1,0-0.1,0.1c0,0,0,0,0,0c0,0.1,0.2,0.3,0.3,0.4c-0.2-0.2-0.3-0.3-0.3-0.4c0,0,0,0,0,0c-0.2,0.1-0.5,0.3-0.7,0.4
	c0.2-0.1,0.5-0.2,0.7-0.4c0,0,0-0.1,0-0.1c-0.1,0-0.2,0-0.4,0c-0.9-0.1-1.7-0.1-2.6-0.2c-0.1,0.1-0.2,0.1-0.3,0.2
	c0,0,0.1,0.1,0.1,0.1c0,0-0.1-0.1-0.1-0.1c0,0,0,0,0,0c0,0,0,0,0,0c0-0.1-0.1-0.2-0.2-0.2c-0.6,0-1.3-0.1-1.9-0.1
	c-0.1,0.1-0.2,0.1-0.4,0.2c0.1,0,0.3-0.1,0.4-0.2c-0.3,0-0.5,0-0.8,0c0.2,0.2,0.3,0.4,0.5,0.7c-0.2-0.2-0.3-0.4-0.5-0.7
	c-0.6,0-1.3-0.1-1.9-0.1c0,0-0.1,0.1-0.1,0.1c0,0,0.1,0,0.1-0.1c-0.5,0-0.9,0-1.4-0.1c-0.6,0-1.2,0-1.7-0.1c0,0-0.1,0-0.1,0
	c0.1,0.1,0.2,0.2,0.2,0.3c0-0.1-0.1-0.2-0.2-0.3c-0.1,0.1-0.3,0.1-0.4,0.2c0.1-0.1,0.3-0.1,0.4-0.2c0,0,0,0,0,0c-0.5,0-1,0-1.6-0.1
	c0-0.5,0-1.1,0-1.6c0-0.8,0-1.7,0-2.5c-0.1,0.1-0.1,0.2-0.2,0.2c0.1-0.1,0.1-0.2,0.2-0.2c0-0.4,0-0.8,0-1.2c0-0.7,0-1.3-0.1-2
	c0,0,0,0,0,0c0,0-0.1,0.1-0.2,0.2c-0.1,0.1-0.1,0.2-0.2,0.2c0.1,0,0.1-0.1,0.2-0.2c0.1-0.1,0.2-0.2,0.2-0.2c0,0,0,0,0,0
	c-0.1-2.3-0.2-4.6-0.3-7c0,0,0,0,0,0c0,0,0,0,0,0c0.1,0,0.2,0,0.1-0.1c0,0-0.1,0-0.1,0c0-0.1,0-0.2,0-0.2c0,0.1,0,0.2,0,0.2
	c-0.2,0-0.3-0.1-0.4-0.1C34,2,32,1.9,29.9,1.7c-1.5-0.1-3.1-0.2-4.7-0.1c-0.1,0-0.2,0.1-0.2,0.2c0,0-0.1,0.1-0.1,0.1
	c-0.1,2.7-0.2,5.3-0.2,7.9c0,0.1,0,0.2,0,0.3c0,0,0,0,0-0.1c-1.3-1.6-3-2.4-5.2-2.4c-1.4,0-2.5,0.4-3.3,1.4
	c-0.2,0.3-0.4,0.5-0.5,0.8c0,0,0,0,0-0.1c0,0,0,0.1,0,0.1c0,0.2,0,0.4,0,0.7c0,1.1,0,2.2,0,3.4c-0.3-0.3-0.9-0.8-1.7-1.5
	c-1.9-1.6-3.4-2.8-4.5-3.6C8.4,8.1,7.7,7.7,7.7,7.6C7.6,7.5,7.5,7.5,7.5,7.5l0,0c0,0-0.1,0-0.1,0c-0.1,0-0.2,0.1-0.2,0.2
	c0,0-0.1,0.1-0.1,0.2c-0.6,1.6-1.3,3.2-1.9,4.7c-1.1,2.7-2.2,5.4-3.2,8c0,0,0.1,0.1,0.1,0.1c0,0,0.1,0,0.2,0c0,0,0.1,0,0.1,0
	c0.3-0.4,0.6-0.8,0.8-1.3c0.6,3.8,1.2,7.7,1.7,11.8c0.2,1.8,0.5,3.4,1,4.9c0.1,0.2,0.1,0.5,0.2,0.7c0,0,0,0.1,0,0.1
	c0.3,0.1,0.5,0.1,0.8,0.2c0,0,0,0,0.1,0c0.5-0.1,1.6-0.3,3.3-0.5c1.9-0.2,4.2-0.6,6.9-0.9l-0.2,0c1.1-0.2,2-0.3,2.7-0.4
	c0,0,0.1,0,0.2,0c0.3,0,0.6,0,0.8-0.1c0.4,0,0.7,0,0.9,0c0.3,0,1,0,2.1-0.1h0c1.2-0.1,2.8-0.2,4.8-0.4c0.1,0,0.2,0,0.3,0
	c2.2-0.1,4-0.1,5.5,0c0.7,0,1.2,0,1.6,0.1c0.2,0,0.4,0,0.5,0c0,0,0,0,0,0h0v0c0,0,0,0,0.1,0c0.6,0,1.7,0.1,3.4,0.2
	c1.7,0.2,2.8,0.3,3.4,0.4c0.6,0.1,1.3,0.2,2.2,0.2c0.7,0,1.4,0,2.2,0.1h0c0.1,0,0.2,0,0.3,0c0,0,0,0,0,0c0.8,0,0.9,0,0.4,0
	c-0.1,0-0.1,0-0.2,0c0.8,0.1,1.7,0.1,2.5,0.2c0.9,0,1.7,0,2.3,0c0.7,0.1,1.2,0.1,1.4,0.2c0.2,0,0.4,0.1,0.5,0.1l0.2,0
	c0.1,0,0.2,0,0.2,0c1.2,0.2,2.5,0.4,3.9,0.6c1.6,0.3,3.4,0.6,5.3,0.9c0.9,0.2,1.7,0.2,2.6,0.3c0,0,0,0,0.1,0h0c0,0,0.1-0.1,0.2-0.2
	v0c0.2-0.4,0.5-1.5,0.6-3.1c0.2-1.6,0.6-3.5,1.3-5.7c0.7-2.2,1.2-4.1,1.5-5.9c0.1-0.6,0.2-1.2,0.4-1.8c0.1,0,0.1-0.1,0-0.1
	c0.6-2.9,1.1-5.9,1.7-8.8c0-0.2,0.1-0.4,0-0.6c0.5,0.2,0.9,0.3,1.2,0.4c0.1,0,0.2,0.1,0.3,0.1c0.1,0,0.2,0,0.2,0c0,0,0,0,0,0
	c0,0,0.2,0,0.4,0c0.2,0-0.1-0.4-0.9-1.4c-0.8-0.9-1.9-2.3-3.3-4.1c-1.4-1.8-2.5-3-3.2-3.5c0-0.1-0.2-0.2-0.3-0.3c0,0,0,0,0,0
	c0,0,0,0,0,0c0,0-0.4,0.1-1.2,0.2c-0.8,0.2-2,0.6-3.5,1.1C61.1,5.1,59.6,5.7,58.2,6.2z M57.6,7.2c-0.5,0.1-1.2,0.2-2.1,0.5
	c1.1-0.5,1.9-0.8,2.3-0.9c0.5-0.1,2.3-0.6,5.4-1.5l4-1.2c-0.2,0-0.2,0.1-0.1,0.1c0.1,0.2,0.3,0.3,0.6,0.5C68.2,5,69,5.7,70,6.7
	c1,1,1.8,2,2.4,2.9c0.6,0.9,1,1.5,1.2,2c-2.2-2.4-4.5-4.7-6.9-6.9c-0.1,0-0.1,0.1-0.2,0.1C63.5,5.6,60.6,6.4,57.6,7.2z M65.8,5.7
	c0.3-0.1,0.6-0.2,0.8-0.3c0.8,0.9,1.7,1.7,2.6,2.5c1.2,1,2.3,2.1,3.3,3.3c0,0.2-0.1,0.5-0.1,0.9c-0.1,1-0.4,2.8-0.9,5.6
	c-0.2,1.1-0.4,2.2-0.7,3.4c-1-0.3-2.7-0.6-5-1c-2.4-0.4-5.4-1-9-1.7c0,0-0.1,0-0.1,0c0.1-0.6,0.2-1.2,0.4-1.8c0.2-1,0.4-2,0.6-3.1
	c0.2-0.8,0.3-1.5,0.5-2.3c0.1-0.4,0.2-1.3,0.5-2.6c0.1-0.5,0.2-0.8,0.2-1.1C61.1,6.8,63.4,6.2,65.8,5.7z M56.5,19
	C56.5,19,56.5,19,56.5,19c0-0.1,0-0.2,0-0.2c0.1,0,0.1,0.1,0.2,0.1c0.7,0.2,1.5,0.4,2.3,0.5c3.7,0.5,7.3,1.2,10.8,2.1
	c0.3,0.1,0.6,0.1,0.9,0c0,0.2-0.1,0.5-0.2,0.7c-1.1-0.3-2.8-0.6-5.2-1c-2.4-0.4-5.4-1-8.9-1.9C56.5,19.3,56.5,19.1,56.5,19z
	 M53.8,18.7c0.9,0.1,1.5,0.2,2,0.2c-0.1,0.3-0.1,0.6-0.2,0.9c-0.4,1.8-0.8,3.7-1.2,5.5c0,0,0,0-0.1,0c-0.1-0.1-0.3-0.2-0.4-0.2
	c0,0,0,0,0,0c0,0,0,0,0,0c0,0,0,0,0,0c0,0,0,0,0,0c0-0.1,0-0.6,0.1-1.5c0-1,0.1-1.7,0.2-2.1c0.1-0.4,0.2-0.6,0.2-0.7l0,0
	c0,0,0,0,0,0c-0.9-0.5-1.9-0.7-3-0.5c-0.1,0-0.1,0-0.1,0.1c0,0.1-0.1,0.1,0,0.1c-0.3,1.3-0.5,2.5-0.5,3.8c0,0,0,0,0,0.1
	c0,0,0,0.1,0,0.1c0,0.1,0.1,0.2,0.2,0.2v0c0.1-0.2,0.2-0.5,0.2-1c0-0.3,0-0.7,0-1c0,0,0.1,0,0.1,0c0.4,0,0.7,0,1.1,0
	c0,0.3-0.1,0.7-0.1,1c-0.1,0.3-0.1,0.7-0.1,1c-0.6-0.1-1-0.1-1.3,0c0,0-0.1,0-0.1,0c-0.2,0-0.4,0-0.6,0.1c-0.1,0-0.1,0-0.2,0.1
	c-0.2,0.2-0.1,0.3,0.1,0.4c0.8,0.1,1.6,0.2,2.5,0.3c0.5,0,1,0,1.5,0c0,0,0.1,0,0.1,0c-0.2,1.2-0.5,2.3-0.7,3.5
	c-0.2,1.3-0.5,2.7-0.9,4c-0.2-0.1-0.4-0.2-0.7-0.2c0-0.1,0-0.3,0-0.6c0-0.4,0-0.9,0.1-1.6c0.1-0.7,0-1.2-0.2-1.4
	c-0.5-0.5-1.1-0.7-2-0.6c0,0,0,0,0,0c-0.1,0-0.1,0-0.2,0c0,0-0.1,0-0.1,0c-0.2,0.9-0.4,1.9-0.4,2.9c0,0.3,0,0.5,0.1,0.7
	c-0.1,0-0.2,0-0.3,0c0,0-0.1,0-0.2,0.1c-0.2,0.2-0.1,0.3,0.3,0.3c0.4,0,0.9,0.1,1.6,0.2c0.7,0.1,1.2,0.2,1.5,0.2c0.1,0,0.2,0,0.3,0
	c-0.1,0.8-0.3,1.5-0.5,2.3c0,0.2,0,0.3-0.1,0.4c-1.4-0.2-2.8-0.3-4.2-0.4c0.2-1,0.3-2.1,0.5-3.3c0.2-1.3,0.2-2.2,0-2.8
	c-0.1-0.6-0.8-1.3-2-2.1c-1.2-0.8-2.7-0.7-4.7,0.3c-0.2-0.1-0.4,0.7-0.6,2.4c-0.2,2-0.3,3.7-0.1,5.1c-1.5-0.1-2.9-0.2-4.4-0.2
	c0,0,0,0-0.1,0c0.1-3.5,0.2-7,0.3-10.4c0.1-2.7,0.2-4.6,0.3-5.7c0-0.2,0-0.5,0.1-0.6c0.3-0.3,1.6-0.4,3.6-0.3c0.8,0,1.8,0.1,2.8,0.2
	C47.7,18,51,18.3,53.8,18.7z M56.3,20c0-0.1,0-0.1,0-0.2c0.8,0.2,1.6,0.4,2.5,0.6c3.6,0.8,7.2,1.5,10.8,2.2c0.3,0,0.5,0,0.8,0
	c-0.3,1.4-0.7,2.8-1.2,4.3c-0.2,0.8-0.5,1.6-0.7,2.5c0,0.1,0,0.2,0,0.2c-0.1,0.5-0.2,0.9-0.4,1.3c-0.2,0.9-0.4,1.8-0.5,2.6
	c-0.2,0.9-0.4,1.8-0.7,2.6c-0.5,1-1.8,1.2-3.8,0.5c0.5-2.1,1.2-4.2,1.9-6.3c0.2-1,0.2-1.7,0.2-2c-0.4-1.8-1.6-2.7-3.6-2.6
	c-0.2,0-0.5,0.1-0.7,0.2c-0.8,0.3-1.5,0.7-2,1.4c0,0,0,0-0.1,0c-0.3,0.6-0.6,1.2-0.8,1.8c-0.7,2-1.3,4-1.6,6.2c0,0.1,0,0.1,0,0.2
	c-0.8-0.1-1.6-0.2-2.3-0.2c0.3,0,0.2,0-0.1,0c-0.4,0-0.6,0-0.6,0c-0.3,0-0.5,0-0.6,0c0.6-1.5,1-3,1.3-4.4c0.2-1.2,0.5-2.3,0.7-3.5
	C55.3,24.9,55.8,22.5,56.3,20z M52.6,20.4c-0.1,0.2-0.1,0.4-0.1,0.7c0,0.4,0.1,0.8,0.1,1.2l-1.2-0.2c0-0.1,0-0.3,0-0.4
	c0.1-0.7,0.2-1.1,0.3-1.3C52,20.4,52.3,20.4,52.6,20.4z M52.8,21.6c0-0.4,0-0.8,0-1.2c0.2,0,0.3,0,0.5,0.1c0.4,0.1,0.7,0.2,0.8,0.2
	c0,0.3-0.1,0.7-0.1,1.3c0,0.2,0,0.3,0,0.5l-0.9-0.1C52.9,22.2,52.8,22,52.8,21.6z M52.7,24.6c0,0,0.1-0.4,0.2-1.2
	c0.1-0.4,0.1-0.7,0.1-0.8c0.4,0,0.7,0.1,1,0.1c0,0.4-0.1,0.8-0.1,1.1c-0.1,0.5,0,0.9,0.1,1.1C53.8,24.8,53.4,24.7,52.7,24.6
	C52.7,24.6,52.7,24.6,52.7,24.6z M50.5,29.9c-0.3-0.1-0.5-0.2-0.5-0.1c0-0.3,0-0.6,0.1-0.9c0.7,0,1.4,0.1,1.9,0.5c0,0.3,0,0.6,0,0.8
	C51.3,30.1,50.9,30,50.5,29.9z M60.1,27.4c0.3-0.3,0.6-0.5,0.9-0.7c0.5-0.3,1-0.3,1.5-0.2c-0.6,1.1-1,2.2-1.3,3.5
	c-0.4,2.1-0.9,4.1-1.6,6.1c0,0,0,0-0.1,0c-0.1,0-0.2,0-0.2,0c-0.8-0.1-1.6-0.3-2.3-0.4c0-0.2,0.1-0.6,0.1-1c0.2-1.6,0.7-3.2,1.4-4.8
	C59.4,28.2,59.9,27.4,60.1,27.4z M62.8,28c0.2-0.5,0.2-1,0.1-1.3c0.4,0.1,0.7,0.4,1.1,0.7c0.5,0.5,0.7,1.1,0.5,1.6l0.1-0.1
	c-0.1,0.7-0.2,1.1-0.3,1.5c-0.6,2-1.1,4-1.6,6.1c0,0.1,0,0.2,0,0.2c-0.7-0.1-1.4-0.2-2-0.4c0.1-0.2,0.2-0.4,0.2-0.7
	C61.2,33,61.9,30.5,62.8,28z M49.9,30.8c0-0.1,0-0.3,0-0.4c0.3,0.1,1,0.2,2,0.2c0,0.4-0.1,0.7-0.1,0.9c-0.1,0.3-0.1,0.6,0,0.9
	c0,0.1,0,0.1,0,0.2c-0.6-0.2-1.2-0.3-1.8-0.4C50,31.9,49.9,31.4,49.9,30.8z M24,9.9c0,0,0.1,0.2,0.3,0.4c0.2,0.2,0.3,0.4,0.3,0.3
	c0,0,0,0.2,0,0.7c0,0.5,0,1.5,0.1,3.2c-0.2,0-0.4,0-0.6,0c-0.1,0-0.3,0-0.5,0c-0.2,0-0.5,0-0.7,0.1c0,0-0.1,0-0.1,0
	c-0.4,0-0.8,0.1-1.3,0.1c-0.4,0-0.9,0-1.3,0c-0.5,0-0.9,0-1.4,0c-0.4,0-0.8,0-1.2,0c-0.1,0-0.2,0-0.2,0c-0.1,0-0.2,0-0.4,0
	c-0.1,0-0.3,0-0.6,0.1c-0.1-2.4-0.3-3.9-0.4-4.5c0.2-0.3,0.3-0.5,0.5-0.7c0.3-0.3,0.6-0.6,0.9-0.8c0.4-0.2,0.8-0.3,1.2-0.4
	c0.4-0.1,0.9-0.1,1.4,0c0.1,0,0.2,0,0.4,0c0.3,0,0.6,0.1,0.9,0.2c0.4,0.1,0.8,0.2,1.2,0.4c0,0,0,0,0,0c0,0,0.1,0,0.1,0
	C23.4,9.3,23.8,9.6,24,9.9z M24.7,14.8C24.7,14.9,24.7,14.9,24.7,14.8c0,0.5,0,1.1,0,1.6h0c-0.2,0-0.4,0-0.6,0
	c-0.4,0-0.8,0.1-1.1,0.1c0,0-0.1,0-0.1,0c-0.5,0-0.9,0.1-1.3,0.1c-0.5,0-0.9,0-1.3,0.1c-0.5,0-1,0-1.3,0c-0.2,0-0.3,0-0.4,0
	c-0.3,0-0.5,0-0.7,0c0,0-0.1,0-0.1,0c-0.4,0-0.7,0.1-0.9,0.1c-0.1-0.6-0.2-1.2-0.3-1.8c0,0,0.1,0,0.1,0c0.6,0,0.9,0.1,1.1,0.1
	c0.2,0,0.4,0,0.7,0c0.2,0,0.3,0,0.5,0c0.5,0,0.9,0,1.4,0c0.4,0,0.9,0,1.3,0c0.1,0,0.3,0,0.4,0c0.3,0,0.6,0,0.8,0c0,0,0.1,0,0.1,0
	c0.5,0,0.9-0.1,1.2-0.1C24.4,14.9,24.6,14.9,24.7,14.8z M23.8,16.8c0.1,0,0.2,0,0.3,0c0.3,0,0.5-0.1,0.5-0.1c0,0,0,0,0,0
	c0,0.2,0,0.4,0,0.5c0,1.1,0,2.2-0.1,3.2l-0.4,0.1c-0.4,0-0.6,0-0.7-0.1c-0.1,0-0.2,0-0.3,0c0,0-0.1,0-0.1,0c-0.4,0-0.8,0-1.3,0
	c-0.4,0-0.9,0-1.3,0c-0.5,0-0.9,0-1.3,0c-0.1,0-0.2,0-0.3,0c0,0,0,0-0.1,0c-0.3,0-0.6,0-0.8,0c-0.3,0-0.5,0.1-0.7,0.1
	c-0.2-1.2-0.3-2.4-0.5-3.5c0.2,0,0.5,0.1,0.9,0.1c0.1,0,0.2,0,0.4,0c0.2,0,0.4,0,0.5,0c0.2,0,0.2,0,0.3,0c0.5,0,0.9-0.1,1.3-0.1
	c0.4,0,0.9-0.1,1.3-0.1c0.4,0,0.8-0.1,1.3-0.1c0,0,0.1,0,0.1,0C23.3,16.8,23.6,16.8,23.8,16.8z M15.7,14.6c0,0.4,0,0.8,0.1,1.2
	c-0.2,0-0.3,0-0.5,0c-2.2,0-4,0.2-5.6,0.7c-1.6,0.4-2.8,0.8-3.8,1.1c-1,0.3-1.6,0.4-1.8,0.3c1-2.6,1.8-4.7,2.5-6.4
	C7.3,9.7,7.8,8.8,8,8.7C8.3,9,8.7,9.4,9.4,9.9c1.9,1.3,3.7,2.7,5.5,4.1C14.9,14,15.2,14.2,15.7,14.6C15.7,14.6,15.7,14.6,15.7,14.6z
	 M14.6,16.1c0.9-0.2,1.4,0,1.5,0.5c0.1,0.5,0.4,2.4,0.7,5.6c0.3,3.2,0.7,7.4,1.1,12.5c-0.4,0-1.6,0.2-3.7,0.8c0-0.3,0-0.8-0.1-1.4
	c-0.2-1.9-0.6-3.7-1.1-5.3c0,0-0.1,0-0.1,0c0,0,0,0,0,0c-0.2,0-0.8,0.2-1.7,0.3c-0.9,0.2-1.5,0.4-1.7,0.6L9.2,30c0,0,0,0,0,0.1
	c0,0-0.1,0.1-0.1,0.2c0,0.8,0.1,1.6,0.2,2.5c0.2,0.9,0.2,2,0.3,3.3c-0.2,0-1.1,0-2.6,0c-0.2,0-0.4,0-0.6,0c0-0.1,0-0.2,0-0.3
	c-0.3-1.7-0.5-3.3-0.7-5c-0.1-0.8-0.2-1.6-0.3-2.4c0.8,0,3.2-0.3,7.3-0.9c4.1-0.6,5.2-1,3.3-1.3c-1.7,0.2-3.4,0.4-5.2,0.7
	c-1.8,0.3-3.6,0.7-5.4,1.2c-0.5-3-1.2-6-2.1-8.8v0c0,0,0,0,0,0c0,0,0,0,0,0C3.6,19.1,4,19,4.3,18.9c3.3-1.1,5.6-1.8,6.9-2.1
	C12.6,16.5,13.7,16.3,14.6,16.1z M20.9,20.9c0.3,0,0.6,0,0.9,0c0.1,0,0.3,0,0.4,0c0,0.2,0,0.5,0,1c0,0-0.1,0-0.1,0
	c-0.4,0-0.7,0-1.1,0L20.9,20.9z M20.5,20.9C20.5,20.9,20.5,20.9,20.5,20.9C20.5,20.9,20.5,20.9,20.5,20.9c-0.1,0.3-0.2,0.6-0.1,1
	c-0.3,0-0.6,0-0.9-0.1c-0.3-0.2-0.4-0.5-0.3-0.9C19.7,20.9,20.1,20.9,20.5,20.9z M18,21c0.2,0,0.5,0,0.8,0c0,0.3,0,0.5,0,0.8
	c-0.5,0-0.9,0.1-1.3,0.4c0-0.4-0.1-0.7-0.1-0.9C17.4,21.1,17.6,21,18,21z M22,28.2c-0.7,0-1.4,0.1-2.1,0.2c0-0.8,0-1.7,0-2.5
	c0-0.8-0.1-1.4-0.5-1.9c1.4,0.2,2.4,0.2,3,0.2c0.7-0.1,1-0.1,1,0c0,1.3-0.1,2.7-0.1,4C23,28.2,22.5,28.2,22,28.2z M20,28.8
	c0.7,0.2,1.4,0.3,2.2,0.2c0.5-0.1,0.9-0.2,1.3-0.3c0,0.9-0.1,1.7-0.1,2.5c0,1.2-0.1,2.2-0.1,3.1c0,0.1,0,0.2,0,0.4
	c-0.4,0-0.8,0-1.2,0v0c-0.4,0-0.8,0-1.2,0c-0.3,0-0.5,0-0.8,0.1c0-0.1,0-0.2,0-0.4c0-0.2,0-0.9,0-2.2C19.9,30.9,19.9,29.8,20,28.8z
	 M22.8,21c0.1,0,0.2,0,0.3,0c0,0,0.1,0,0.1,0c0.5,0,0.9,0.1,1.1,0.1c0.2,0,0.3,0,0.3,0c0,0.2-0.1,0.5-0.1,0.8c-0.1,0-0.2,0-0.2,0
	c-0.5,0-1,0-1.5,0.1c-0.1,0-0.2-0.2-0.2-0.5C22.7,21.1,22.8,21,22.8,21z M28.4,26.6c0,0.1,0,0.2,0,0.2c0.3,0,0.6,0,0.9,0.1
	c0.3,0.1,0.6,0.3,0.8,0.6c0,0,0-0.1-0.1-0.1c0.2,1.1,0.2,2,0.2,2.8h0.3h-0.3c-0.1,1.3-0.1,2.7,0,4c-0.5,0-1.1,0-1.7,0
	c-0.5,0-1.1,0-1.6,0c0-1.3,0.1-2.6,0.1-4h-0.4h0.4c0-0.1,0-0.6,0-1.3c0-0.5,0.1-0.9,0.2-1.2c0-0.1,0.1-0.2,0.1-0.2
	c0.1-0.1,0.2-0.2,0.2-0.2c0.1-0.1,0.2-0.2,0.3-0.2c0.2-0.1,0.4-0.2,0.7-0.2C28.4,26.7,28.4,26.7,28.4,26.6z M42.1,27.4
	c0.7,0.2,1.5,0.3,2.2,0.4c0,0.8,0,1.9,0,3.2c0,1.3-0.2,2.6-0.8,3.9c-0.7,0-1.4-0.1-2.1-0.1c0.1-0.6,0.2-1.5,0.2-2.8
	C41.8,30.7,41.9,29.2,42.1,27.4z M44.8,27.9c1,0.2,2,0.3,3,0.4c0.2,0.7,0.2,2.1,0,4.1c-0.2,2.1-0.2,3-0.2,2.7
	c-0.4-0.1-0.7-0.1-0.9-0.1c-0.8,0-1.6-0.1-2.5-0.1c0-0.1,0.1-0.3,0.1-0.5C44.7,33.5,44.8,31.3,44.8,27.9z M10.9,29.8
	c0.7-0.2,1.2-0.2,1.6,0c0,0.6,0.1,1.2,0.2,1.8c0.2,1.4,0.4,2.8,0.8,4c-1.1,0.1-2.3,0.2-3.4,0.3c0.1-0.5,0.2-1,0.1-1.6
	c-0.2-1.4-0.4-2.7-0.7-4C9.8,30.2,10.3,30,10.9,29.8z M34.1,2.4c1.1,0,1.8-0.1,2.2-0.2c-0.2,0.4-0.3,2.6-0.2,6.6
	c0.1,4.9,0.1,7.6,0.1,8.1c0,0.3,0,0.6,0,0.9c0,0,0,0,0,0c0,0.4,0,0.9,0,1.3c0.1,5.4,0.2,10.5,0.4,15.3c-0.2-0.1-1-0.1-2.4-0.1
	c-0.9,0-1.9,0-3.2,0c-0.1,0.1-0.2-0.3-0.2-1.2c0-0.9,0-1.9,0.1-3.2c0-1.1-0.1-2.1-0.5-2.8c0,0.1,0,0.1,0,0.2l0-0.3
	c-0.1-0.1-0.1-0.2-0.2-0.3c-0.3-0.4-0.8-0.6-1.4-0.5c-0.4,0-0.8,0.1-1.3,0.2c-0.5,0.1-0.9,0.4-1.1,0.9c0,0,0,0.1,0,0.2c0,0,0,0,0,0
	c0,0,0,0.1,0,0.1c0,0.1,0,0.4,0,0.9c0,0.2,0,0.4,0,0.7c0,0.9-0.1,2-0.1,3.1c0,1.1-0.1,1.8-0.1,2.1c-0.2,0-0.4,0-0.5,0
	c0-1.7,0-3.4,0-5.1c0-1.9,0-3.9,0-5.8C25.5,16.1,25.4,9,25.3,2h0l-0.2-0.1c0.1,0,0.1,0,0.2,0C29.2,2.4,32.2,2.5,34.1,2.4z
	 M19.9,23.7c-0.2,0-0.3,0-0.3,0.1c-0.1,0.1-0.1,0.2-0.1,0.2c0,0,0,1.2,0,3.5c0,2.3,0,4.1,0,5.2c0,1.1,0,1.8,0.1,2.1
	c-0.5,0.1-0.9,0.2-1.4,0.3c-0.2-1.8-0.3-4-0.3-6.6c0-2.6-0.1-4.6-0.3-6.2c0.5,0,1,0,1.6,0c0.9,0,1.7,0,2.5,0c0.8,0,1.5,0,1.9,0
	c0.4,0,0.7,0,0.9,0c0,0,0,0.1,0.1,0.2v-0.2c0.1,2.4,0.1,4.8,0.2,7.4c0,1.6,0.1,3.2,0.2,4.9c-0.4,0-0.7,0-1.1,0c0-0.1,0.1-1,0-2.5
	c0-0.5,0-1,0-1.5c0-1.1,0-2.4,0-3.7c0-2-0.1-3-0.1-3.2c0-0.1-0.1-0.2-0.1-0.2c0,0,0,0,0,0c-0.3,0-1.6,0.1-3.7,0.1
	C20,23.7,19.9,23.7,19.9,23.7z M32.7,11.3c-0.3,0-0.7,0.1-0.9,0.2c0,0.2,0,0.4,0,0.7c0,0.7,0,1.6-0.1,2.7c-0.1,1.1-0.1,1.8-0.1,2.1
	c0,0.2,0,0.3,0,0.3c0,0,0.1,0,0.1,0c0.3-0.1,0.7-0.1,1.2-0.1c0.9,0,1.3,0,1.3,0c0,0,0.1,0,0.1,0c0.1,0,0.2-0.1,0.1-0.2
	c0,0,0-0.3-0.1-0.9c-0.1-0.6-0.1-1.4,0-2.4c0.1-0.9,0.1-1.8,0-2.4c0,0-0.1-0.1-0.1-0.2c0,0,0,0,0,0c0,0-0.2,0-0.5,0
	S33.1,11.3,32.7,11.3z M32.3,13.2c0-0.5,0-1-0.2-1.4c0.6,0.1,1.3,0.1,1.9,0c-0.1,0.7-0.2,1.5-0.3,2.6c-0.1-0.2-0.3-0.3-0.8-0.4
	c-0.4-0.1-0.6,0-0.8,0.1C32.3,13.8,32.3,13.5,32.3,13.2z M33.8,14.6C33.8,14.7,33.8,14.7,33.8,14.6c0,0.4,0,0.8,0,1.1
	c0,0.4,0.1,0.7,0.2,1l-2-0.1c0.2-0.7,0.3-1.5,0.3-2.2c0.1,0.1,0.3,0.1,0.7,0.2C33.5,14.6,33.8,14.6,33.8,14.6z M28.8,11.3
	c-0.3,0-0.7,0.1-0.9,0.2c0,0.2,0,0.4,0,0.7c0,0.7,0,1.6-0.1,2.7s-0.1,1.8-0.1,2.1c0,0.2,0,0.3,0,0.3c0,0,0.1,0,0.1,0
	c0.3-0.1,0.7-0.1,1.2-0.1c0.9,0,1.3,0,1.3,0c0,0,0.1,0,0.1,0c0.1,0,0.2-0.1,0.1-0.2c0,0,0-0.3-0.1-0.9c-0.1-0.6-0.1-1.4,0-2.4
	c0.1-0.9,0.1-1.8,0-2.4h0c0,0-0.1-0.1-0.1-0.2c0,0,0,0,0,0c0,0-0.2,0-0.5,0C29.5,11.3,29.2,11.3,28.8,11.3z M28.4,13.2
	c0-0.5,0-1-0.2-1.4c0.6,0.1,1.3,0.1,1.9,0c-0.1,0.7-0.2,1.5-0.3,2.6c-0.1-0.2-0.3-0.3-0.8-0.4c-0.4-0.1-0.6,0-0.8,0.1
	C28.4,13.8,28.4,13.5,28.4,13.2z M29.9,14.6C29.9,14.7,29.9,14.7,29.9,14.6c0,0.4,0,0.8,0,1.1c0,0.4,0.1,0.7,0.2,1l-2-0.1
	c0.2-0.7,0.3-1.5,0.3-2.2c0.1,0.1,0.3,0.1,0.7,0.2C29.6,14.6,29.9,14.6,29.9,14.6z M28.8,18.5c-0.3,0-0.7,0.1-0.9,0.1
	c0,0.2,0,0.4,0,0.7c0,0.7,0,1.6-0.1,2.7c-0.1,1.1-0.1,1.8-0.1,2.1c0,0.2,0,0.3,0,0.4c0,0,0.1,0,0.1,0c0.3-0.1,0.7-0.1,1.2-0.1
	c0.9,0,1.3,0,1.3,0c0,0,0.1,0,0.1,0c0.1-3.3,0.1-5.2,0-5.8h0c0,0-0.1-0.1-0.1-0.1c0,0,0,0,0,0c0,0-0.2,0-0.5,0
	C29.5,18.5,29.2,18.5,28.8,18.5z M30.2,19.1c-0.1,0.7-0.2,1.5-0.3,2.6c-0.1-0.2-0.3-0.3-0.8-0.4c-0.4-0.1-0.6,0-0.8,0.1
	c0-0.3,0-0.6,0-0.9c0-0.5,0-1-0.2-1.4C28.9,19.2,29.5,19.2,30.2,19.1z M28.3,21.7c0.1,0.1,0.3,0.1,0.7,0.1c0.6,0,0.9,0,0.9,0
	c0,0,0,0.1,0,0.1c0,0.3,0,0.7,0,1c0,0.4,0.1,0.7,0.2,1.1l-2-0.2C28.2,23.1,28.3,22.4,28.3,21.7z M34.3,26.5c0,0-0.2,0-0.5,0
	c-0.2,0-0.6,0-1,0c-0.3,0-0.7,0.1-0.9,0.1c0,0.2,0,0.4,0,0.7c0,0.7,0,1.6-0.1,2.7c-0.1,1.1-0.1,1.8-0.1,2.1c0,0.2,0,0.3,0,0.3
	c0,0,0.1,0,0.1,0c0.3-0.1,0.7-0.1,1.2-0.1c0.9,0,1.3,0,1.3,0c0,0,0.1,0,0.1,0c0.1,0,0.2-0.1,0.1-0.2c0,0,0-0.3-0.1-0.9
	c-0.1-0.6-0.1-1.4,0-2.4c0.1-0.9,0.1-1.7,0-2.4C34.4,26.6,34.3,26.5,34.3,26.5C34.4,26.5,34.3,26.5,34.3,26.5z M33.1,29.2
	c-0.4-0.1-0.6,0-0.8,0.1c0-0.3,0-0.6,0-0.9c0-0.5,0-1-0.2-1.4c0.6,0.1,1.3,0.1,1.9,0c-0.1,0.7-0.2,1.5-0.3,2.6
	C33.9,29.4,33.6,29.3,33.1,29.2z M32.3,29.6c0.1,0.1,0.3,0.1,0.7,0.2c0.6,0,0.9,0.1,0.9,0c0,0,0,0.1,0,0.1c0,0.3,0,0.7,0,1
	c0,0.4,0.1,0.7,0.2,1l-2-0.1C32.2,31.1,32.3,30.3,32.3,29.6z M32.7,18.5c-0.3,0-0.7,0.1-0.9,0.1c0,0.2,0,0.4,0,0.7
	c0,0.7,0,1.6-0.1,2.7c0,0.5-0.1,0.9-0.1,1.2c0,0.4,0,0.7,0,0.9c0,0.2,0,0.3,0,0.4c0,0,0.1,0,0.1,0c0.3-0.1,0.7-0.1,1.2-0.1
	c0.9,0,1.3,0,1.3,0c0,0,0.1,0,0.1,0c0.1,0,0.2-0.1,0.1-0.2c0,0,0-0.3-0.1-0.9c-0.1-0.6-0.1-1.4,0-2.3c0-0.1,0-0.2,0-0.3
	c0.1-0.8,0.1-1.5,0-2.1c0,0-0.1-0.1-0.1-0.1c0,0,0,0,0,0c0,0-0.2,0-0.5,0S33.1,18.5,32.7,18.5z M34.1,19.1c-0.1,0.6-0.2,1.4-0.3,2.3
	c0,0.1,0,0.2,0,0.3c0-0.1-0.1-0.1-0.2-0.2c-0.1-0.1-0.3-0.2-0.6-0.2c-0.4-0.1-0.6,0-0.8,0.1c0-0.3,0-0.6,0-0.9c0-0.5,0-1-0.2-1.4
	C32.8,19.2,33.5,19.2,34.1,19.1z M32.3,21.7c0.1,0.1,0.3,0.1,0.7,0.1c0.1,0,0.2,0,0.4,0c0.3,0,0.5,0,0.5,0c0,0,0,0.1,0,0.1
	c0,0.3,0,0.7,0,1c0,0.4,0.1,0.7,0.2,1.1l-2-0.2c0.1-0.3,0.1-0.6,0.2-0.9C32.2,22.5,32.2,22.1,32.3,21.7z M30.3,4.6c0,0-0.2,0-0.5,0
	c-0.3,0-0.6,0-1,0c-0.3,0-0.7,0.1-0.9,0.2c0,0.2,0,0.4,0,0.7c0,0.7,0,1.6-0.1,2.7c-0.1,1.1-0.1,1.8-0.1,2.1c0,0.2,0,0.3,0,0.4
	c0,0,0.1,0,0.1,0c0.3-0.1,0.7-0.1,1.2-0.1c0.9,0,1.3,0,1.3,0c0,0,0.1,0,0.1,0c0.1,0,0.2-0.1,0.1-0.2c0,0,0-0.3-0.1-0.9
	c-0.1-0.6-0.1-1.4,0-2.3c0.1-0.9,0.1-1.8,0-2.4h0C30.3,4.7,30.3,4.6,30.3,4.6C30.3,4.6,30.3,4.6,30.3,4.6z M28.4,7.4
	c0-0.3,0-0.6,0-0.9c0-0.5,0-1-0.2-1.4c0.6,0.1,1.3,0.1,1.9,0C30,5.8,30,6.6,29.9,7.7c-0.1-0.2-0.3-0.3-0.8-0.4
	C28.8,7.2,28.5,7.2,28.4,7.4z M28.3,7.7c0.1,0.1,0.3,0.1,0.7,0.2c0.6,0,0.9,0,0.9,0c0,0,0,0.1,0,0.1c0,0.3,0,0.7,0,1
	c0,0.4,0.1,0.7,0.2,1.1l-2-0.2C28.2,9.2,28.3,8.4,28.3,7.7z M34.2,4.6c0,0-0.2,0-0.5,0s-0.6,0-1,0c-0.3,0-0.7,0.1-0.9,0.2
	c0,0.2,0,0.4,0,0.7c0,0.7,0,1.6-0.1,2.7c-0.1,1.1-0.1,1.8-0.1,2.1c0,0.2,0,0.3,0,0.4c0,0,0.1,0,0.1,0c0.3-0.1,0.7-0.1,1.2-0.1
	c0.9,0,1.3,0,1.3,0c0,0,0.1,0,0.1,0c0.1,0,0.2-0.1,0.1-0.2c0,0,0-0.3-0.1-0.9c-0.1-0.6-0.1-1.4,0-2.3c0.1-0.9,0.1-1.8,0-2.4
	C34.3,4.7,34.2,4.6,34.2,4.6C34.3,4.6,34.2,4.6,34.2,4.6z M33.1,7.3c-0.4-0.1-0.6,0-0.8,0.1c0-0.3,0-0.6,0-0.9c0-0.5,0-1-0.2-1.4
	c0.6,0.1,1.3,0.1,1.9,0c-0.1,0.7-0.2,1.5-0.3,2.6C33.8,7.5,33.5,7.4,33.1,7.3z M32.3,7.7c0.1,0.1,0.3,0.1,0.7,0.2c0.6,0,0.9,0,0.9,0
	c0,0,0,0.1,0,0.1c0,0.3,0,0.7,0,1c0,0.4,0.1,0.7,0.2,1.1l-2-0.2C32.1,9.2,32.2,8.4,32.3,7.7z M45.7,31.5
	C45.7,31.5,45.7,31.5,45.7,31.5c-0.1,0-0.1,0-0.1,0c-0.2,0-0.3,0.2-0.2,0.4c0.2,0.5,0.5,0.7,0.9,0.3c0-0.2,0-0.3-0.1-0.4
	C46,31.7,45.9,31.6,45.7,31.5C45.8,31.6,45.7,31.5,45.7,31.5z M42.9,31.3c-0.2,0-0.3,0.2-0.2,0.4c0.3,0.4,0.6,0.5,0.9,0
	c0-0.2,0-0.2-0.2-0.3C43.3,31.3,43.1,31.3,42.9,31.3z M6.9,19.1L6.9,19.1c-0.7,0.5-1.4,0.7-2.3,0.8c0,0,0,0.1,0,0.1
	c0,0.1,0,0.2,0,0.3c0,0.1,0,0.2,0,0.2c0.4,0.3,0.7,0.7,0.8,1.1c0.2,0.7,0.2,1.5,0.3,2.2c0,0,0,0,0,0c-0.2,0-0.4,0-0.5,0
	c-0.1,0-0.1,0-0.1,0.1c0,0.1,0.2,0.2,0.8,0.3c0.6,0.1,1.4,0.1,2.4,0c0.1-0.1,0.1-0.2,0.1-0.3c0-0.1,0-0.3-0.1-0.4c0,0,0-0.1-0.1-0.1
	c0,0-0.1,0-0.2,0c-0.2,0-0.4,0-0.6,0c0-0.1,0.1-0.2,0.1-0.2C7.8,21.7,7.6,20.3,6.9,19.1z M6.8,20.1C6.9,20.7,7,21.2,7,21.8
	c0,0.4,0.1,0.9,0.1,1.3c0,0-0.1,0-0.1,0c-0.5,0.2-0.7,0.2-0.8-0.1c0-0.4-0.1-0.9-0.2-1.3c-0.1-0.4-0.2-0.7-0.4-1.1
	c0.1-0.1,0.2-0.2,0.4-0.2C6.2,20.3,6.5,20.2,6.8,20.1z M10.5,18.7L10.5,18.7c-0.7,0.5-1.4,0.7-2.3,0.8c0,0,0,0.1,0,0.1
	c0,0.1,0,0.2,0,0.3c0,0.1,0,0.2,0,0.2c0.4,0.3,0.7,0.7,0.8,1.1c0.1,0.6,0.2,1.2,0.3,1.9c-0.1,0.1-0.3,0.2-0.4,0.3
	c1.3,0.5,2.4,0.4,3.3-0.2c0-0.2-0.1-0.3-0.3-0.3c-0.2,0-0.5-0.1-0.7-0.1h0c0,0,0,0,0-0.1C11.4,21.2,11.2,19.8,10.5,18.7z M10.4,19.7
	c0.1,0.5,0.2,1.1,0.2,1.6c0,0.4,0.1,0.9,0.1,1.3c0,0-0.1,0-0.1,0c-0.1,0-0.2,0.1-0.2,0.1c-0.1,0-0.2,0-0.3,0c-0.1,0-0.2-0.1-0.2-0.2
	c0-0.4-0.1-0.9-0.2-1.3c-0.1-0.4-0.2-0.7-0.4-1.1C9.3,20.1,9.5,20,9.6,20C9.9,19.9,10.1,19.8,10.4,19.7z M14.4,18L14.4,18
	c-0.7,0.5-1.4,0.7-2.3,0.8c0,0,0,0.1,0,0.1c0,0.1,0,0.2,0,0.3c0,0.1,0,0.2,0,0.2c0.4,0.3,0.7,0.7,0.8,1.1c0.2,0.7,0.2,1.4,0.3,2.2
	c-0.1,0.1-0.2,0.2-0.2,0.2c0,0.1,0.5,0.1,1.6,0c1.2-0.1,1.6-0.4,1.4-1c-0.1,0-0.2-0.1-0.3-0.1c-0.1,0-0.1,0-0.2,0
	c-0.1,0.1-0.3,0.2-0.4,0.2c0,0,0,0,0,0C15.3,20.5,15.1,19.1,14.4,18z M14.5,22.1c-0.5,0.2-0.7,0.2-0.8-0.1c0-0.4-0.1-0.9-0.2-1.3
	c-0.1-0.4-0.2-0.7-0.4-1.1c0.1-0.1,0.2-0.2,0.4-0.2c0.3-0.1,0.5-0.2,0.8-0.3c0.1,0.5,0.2,1.1,0.2,1.6c0,0.4,0.1,0.9,0.1,1.3
	C14.5,22,14.5,22,14.5,22.1z M9.7,11.8c-0.5,0-0.9,0-0.9,0c-0.1,0.1-0.3,0.2-0.5,0.2c0,0-0.1,0-0.1,0c-0.5,1-0.3,1.8,0.4,2.2
	c0.7,0.5,1.4,0.2,2.1-0.8C11.3,12.6,10.9,12,9.7,11.8z M8.9,12.5c0.1-0.1,0.5,0,1.3,0.1c0.1,1.4-0.3,1.8-1.3,1
	c-0.1-0.3-0.2-0.5-0.3-0.7C8.4,12.6,8.5,12.5,8.9,12.5z M62.3,31.2c-0.1,0-0.2,0-0.2,0.1c-0.1,0.1-0.1,0.2,0,0.2
	C62.7,31.8,62.7,31.6,62.3,31.2z M60,30.8c-0.1,0-0.2,0-0.2,0.1c-0.1,0.1-0.1,0.2,0,0.2C60.3,31.4,60.4,31.2,60,30.8z M67.9,29.2
	c-0.3-0.2-0.8-0.4-1.6-0.6c-0.5,1-0.8,1.8-0.9,2.4c-0.1,0.5,0,0.9,0.5,1c0.4,0.1,0.8,0.2,1,0.2c0.2,0.1,0.5,0,0.7-0.3
	c0.2-0.3,0.5-0.7,0.6-1.3C68.3,29.9,68.2,29.4,67.9,29.2z M66.5,29.5c0.4,0,0.8,0.1,1.2,0.1c-0.1,0.2-0.2,0.5-0.3,0.8
	c-0.2-0.3-0.5-0.4-1.1-0.3C66.3,29.9,66.4,29.7,66.5,29.5z M66.1,30.8c0,0,0-0.1,0-0.1c0.2,0.3,0.7,0.4,1.2,0.4
	c0,0.2-0.1,0.3-0.1,0.5c-0.5,0.1-0.9,0.1-1.2,0C66,31.3,66,31,66.1,30.8z M66.1,23.8c0-0.1,0-0.2-0.1-0.2c-1.9-0.2-3.8-0.5-5.6-1
	c0,0,0,0-0.1,0c-0.3,0.2-0.4,0.6-0.3,1.1c0,0.1,0,0.2,0.1,0.2c0.2,0.1,0.4,0.1,0.6,0.2c1.4,0.4,2.9,0.7,4.4,0.9c0.1,0,0.2,0,0.3,0
	C65.9,24.9,66.1,24.5,66.1,23.8z M60.7,23.5c0.5,0,0.9,0,1.3,0.1c1.2,0.2,2.3,0.4,3.3,0.5c-0.6,0.1-1.3,0-2.1-0.1
	C62.3,23.9,61.5,23.7,60.7,23.5z M54.7,28.9c-0.1,0.6,0,0.9,0.5,1c0.4,0.1,0.7,0.2,1,0.2c0.2,0.1,0.5,0,0.7-0.3
	c0.2-0.3,0.5-0.7,0.6-1.3c0.2-0.6,0.1-1.1-0.2-1.3c-0.3-0.2-0.8-0.4-1.6-0.6C55.2,27.5,54.8,28.3,54.7,28.9z M55.4,28.8
	c0,0,0-0.1,0-0.1c0.2,0.3,0.7,0.4,1.2,0.4c0,0.2-0.1,0.3-0.1,0.5c-0.5,0.1-0.9,0.1-1.2,0C55.3,29.2,55.4,29,55.4,28.8z M55.6,28.1
	c0.1-0.2,0.2-0.5,0.2-0.7c0.4,0,0.8,0.1,1.2,0.2c-0.1,0.2-0.2,0.5-0.3,0.8C56.5,28.1,56.1,28,55.6,28.1z M48.6,20.3
	C48.6,20.2,48.6,20.2,48.6,20.3c-0.9-0.5-2-0.7-3.1-0.5c-0.1,0-0.1,0-0.1,0.1c0,0.1-0.1,0.1,0,0.1c-0.3,1.3-0.5,2.5-0.5,3.8
	c0,0,0,0,0,0.1c0,0,0,0.1,0,0.1c0,0,0,0.1,0.1,0.1c-0.3,0-0.6,0-0.9,0.1c-0.2,0-0.3,0.1-0.3,0.3c0,0.2,0,0.2,0.1,0.2
	c0.9,0.1,1.8,0.2,2.7,0.3c0.7,0.1,1.4,0.1,2.1,0.1c0.1,0,0.1,0,0.1-0.1c-0.2-0.2-0.5-0.3-0.7-0.4c0-0.1,0-0.6,0.1-1.5
	c0-1,0.1-1.7,0.2-2.1C48.5,20.6,48.6,20.3,48.6,20.3C48.6,20.3,48.6,20.3,48.6,20.3z M48.2,20.4c0,0.3-0.1,0.7-0.1,1.3
	c0,0.2,0,0.3,0,0.5L47.1,22c-0.2-0.2-0.3-0.4-0.2-0.8c0-0.4,0-0.8,0-1.2c0.2,0,0.3,0,0.5,0.1C47.7,20.3,48,20.3,48.2,20.4z
	 M45.4,21.3c0.1-0.7,0.2-1.1,0.3-1.3c0.3,0,0.6,0,0.9,0c-0.1,0.2-0.1,0.4-0.1,0.7c0,0.4,0.1,0.8,0.1,1.2l-1.2-0.2
	C45.4,21.6,45.4,21.5,45.4,21.3z M47,22.9c0.1-0.3,0.1-0.5,0.1-0.7c0.4,0,0.7,0.1,1,0.1c0,0.4-0.1,0.8-0.1,1.1
	c-0.1,0.5,0,0.9,0.1,1.1c0,0-0.1,0-0.3-0.1c-0.3-0.1-0.7-0.2-1-0.3C46.7,24,46.8,23.6,47,22.9z M46.5,22.2c0,0.3-0.1,0.7-0.1,1
	c-0.1,0.3-0.1,0.6-0.1,0.9C46,24,45.6,24,45.1,24c0.1-0.2,0.1-0.5,0.1-0.9c0-0.3,0-0.7,0-1c0,0,0.1,0,0.1,0
	C45.8,22.1,46.2,22.1,46.5,22.2z M37.9,27.6c-0.1,0-0.2,0-0.2,0c-0.2,0.9-0.4,1.9-0.4,2.9c0,0.3,0,0.5,0.1,0.7c-0.1,0-0.2,0-0.3,0
	c0,0-0.1,0-0.2,0.1c-0.2,0.2-0.1,0.3,0.3,0.3c0.4,0,0.9,0.1,1.6,0.2C39.6,32,40,32,40.4,32c0.3,0,0.5,0,0.4,0
	c-0.2-0.1-0.5-0.2-0.7-0.3c0-0.1,0-0.3,0-0.7c0-0.4,0-0.9,0.1-1.6c0.1-0.7,0-1.1-0.2-1.4v0c-0.5-0.5-1.1-0.7-2-0.5
	C38,27.5,38,27.6,37.9,27.6z M37.9,29.9c0-0.1,0-0.3,0-0.4c0.3,0.1,1,0.2,2,0.2c0,0.4-0.1,0.7-0.1,0.9c-0.1,0.3-0.1,0.6,0,0.9
	c0,0.1,0,0.1,0,0.2c-0.6-0.2-1.2-0.3-1.9-0.4C37.9,31,37.9,30.5,37.9,29.9z M37.9,28.9c0-0.3,0-0.6,0.1-1c0.7,0,1.4,0.1,1.9,0.5
	c0,0.3,0,0.6,0,0.8c-0.6,0-1.1-0.1-1.4-0.2C38.2,28.9,38,28.8,37.9,28.9z M39,19.5c0,0.1-0.1,0.1,0,0.1c-0.3,1.3-0.5,2.5-0.5,3.8
	c0,0,0,0,0,0.1c0,0,0,0.1,0,0.1c0,0,0,0.1,0.1,0.1c-0.3,0-0.6,0-0.9,0.1c-0.2,0-0.3,0.1-0.3,0.3c0,0.2,0,0.2,0.1,0.2
	c0.9,0.1,1.8,0.2,2.7,0.3c0.7,0.1,1.4,0.1,2.1,0.1c0.1,0,0.1,0,0.1-0.1c-0.2-0.2-0.5-0.3-0.7-0.4c0-0.1,0-0.6,0.1-1.5
	c0-1,0.1-1.7,0.2-2.1c0.1-0.4,0.1-0.6,0.1-0.7c0,0,0,0,0,0c0,0,0,0,0,0c-0.9-0.5-1.9-0.7-3-0.5C39,19.4,39,19.5,39,19.5z M40.2,19.7
	c-0.1,0.2-0.1,0.4-0.1,0.7c0,0.4,0.1,0.8,0.1,1.2l-1.2-0.2c0-0.1,0-0.3,0-0.4c0.1-0.7,0.2-1.1,0.3-1.3
	C39.6,19.7,39.9,19.7,40.2,19.7z M38.9,21.8c0,0,0.1,0,0.1,0c0.4,0,0.7,0,1.1,0c0,0.3-0.1,0.7-0.1,1c-0.1,0.3-0.1,0.6-0.1,0.9
	c-0.4,0-0.8-0.1-1.2,0c0.1-0.2,0.2-0.5,0.2-0.9C38.9,22.5,38.9,22.2,38.9,21.8z M40.5,20.9c0-0.4,0-0.8,0-1.2c0.2,0,0.3,0,0.5,0.1
	c0.4,0.1,0.7,0.2,0.8,0.2c0,0.3-0.1,0.7-0.1,1.3c0,0.2,0,0.3,0,0.5l-0.9-0.1C40.5,21.6,40.4,21.3,40.5,20.9z M40.3,23.8
	c0-0.2,0.1-0.6,0.2-1.4c0-0.2,0.1-0.4,0.1-0.5c0.5,0,0.8,0.1,1,0.1c0,0.4-0.1,0.8-0.1,1.1c-0.1,0.5,0,0.9,0.1,1.1
	c0,0-0.1-0.1-0.3-0.1C41,24,40.6,23.9,40.3,23.8z M64.3,11.7c0.1-0.3,0.2-0.5,0.2-0.7c0,0.1,0,0.1,0,0.2c0.1-0.6,0.2-1,0.2-1.2
	c0.2-0.9-0.3-1.6-1.6-2.1c-1.1-0.1-1.9,0.2-2.4,1c-0.2,0.3-0.3,0.5-0.3,0.8c0,0,0,0.1,0,0.1v0c-0.8,2.1-1.4,4.2-1.8,6.4
	c0,0.1,0,0.2,0,0.3c0.1,0.2,0.1,0.3,0.2,0.3v0c0.3-0.3,0.5-0.9,0.6-1.7c0.1-0.5,0.2-1,0.3-1.6c0.1,0,0.1,0,0.2,0
	c0.5,0,1.1,0.1,1.6,0.2c-0.1,0.5-0.2,1.1-0.4,1.6c-0.2,0.5-0.3,1.1-0.3,1.6c-0.8-0.2-1.4-0.2-2,0c-0.2,0.1-0.2,0.2,0,0.2
	c0.2,0,0.9,0.2,2.1,0.4c1.2,0.2,1.9,0.3,2.1,0.2c0,0,0.1,0,0.1,0c0,0.1,0.1,0,0.1,0c0-0.1,0.2-0.9,0.5-2.4
	C63.8,13.6,64.1,12.5,64.3,11.7z M64,11c-0.1,0.4-0.3,1.1-0.4,2c0,0.2-0.1,0.5-0.1,0.7l-1.2-0.3c-0.2-0.2-0.3-0.7-0.2-1.2
	c0.1-0.6,0.2-1.2,0.2-1.8c0.2,0,0.5,0.1,0.7,0.2C63.5,10.8,63.8,11,64,11z M64.1,9.2c0.2,0.5,0.4,1,0.4,1.6c-1-0.7-2.3-1-3.7-1
	c0-0.6,0.5-1,1.4-1.3S63.7,8.4,64.1,9.2z M59.7,12.9c0-0.2,0.1-0.4,0.2-0.7c0.3-1.1,0.5-1.7,0.7-2c0.5,0,0.9,0,1.3,0
	c-0.2,0.3-0.3,0.6-0.3,1c0,0.7-0.1,1.3-0.2,2L59.7,12.9z M61.7,15.1c0.2-0.7,0.2-1.2,0.1-1.4c0.7,0.1,1.3,0.2,1.6,0.2
	c-0.1,0.6-0.2,1.2-0.4,1.8c-0.2,0.8-0.3,1.4-0.2,1.8c-0.1-0.1-0.7-0.3-1.7-0.5c0,0,0,0,0,0C61.2,17,61.3,16.3,61.7,15.1z M66.6,11
	c0,0,0,0.1,0,0.1c-0.8,2.1-1.4,4.2-1.8,6.4c0,0.1,0,0.2,0,0.3c0.1,0.2,0.1,0.3,0.2,0.3c0.3-0.3,0.5-0.9,0.6-1.7
	c0.1-0.5,0.2-1,0.3-1.6c0,0,0.1,0,0.2,0c0.5,0,1.1,0.1,1.6,0.2c-0.1,0.5-0.2,1.1-0.4,1.6c-0.2,0.5-0.3,1.1-0.3,1.6
	c-0.8-0.2-1.5-0.2-2,0c-0.2,0.1-0.2,0.2,0,0.2c0.2,0,0.9,0.2,2.1,0.4c1.2,0.2,1.9,0.3,2.1,0.2c0,0,0.1,0,0.1,0c0,0.1,0.1,0,0.1,0
	c0-0.1,0.2-0.9,0.5-2.4s0.5-2.6,0.7-3.2c0.1-0.2,0.1-0.4,0.2-0.8c0.1-0.6,0.2-1,0.2-1.2c0.2-0.9-0.3-1.6-1.6-2.1
	c-1.1-0.1-1.9,0.2-2.4,1C66.8,10.4,66.7,10.7,66.6,11z M66.1,14.2c0-0.2,0.1-0.4,0.2-0.7c0.2-1.1,0.5-1.8,0.8-2c0.5,0,0.9,0,1.3,0
	c-0.2,0.3-0.3,0.6-0.3,1c0,0.7-0.1,1.3-0.2,2L66.1,14.2z M67.6,18.2C67.6,18.2,67.6,18.2,67.6,18.2c0,0,0.1-0.7,0.5-1.9
	c0.2-0.7,0.2-1.2,0.1-1.4c0.7,0.1,1.3,0.2,1.7,0.2c-0.1,0.6-0.2,1.2-0.4,1.8c-0.2,0.8-0.3,1.4-0.1,1.8
	C69.2,18.7,68.7,18.5,67.6,18.2z M68.7,11.6c0.2,0,0.5,0.1,0.7,0.2c0.5,0.2,0.9,0.4,1.1,0.4c-0.1,0.4-0.3,1.1-0.4,2
	c0,0.2-0.1,0.5-0.1,0.7l-1.2-0.3c-0.2-0.2-0.3-0.7-0.2-1.2C68.7,12.9,68.7,12.3,68.7,11.6z M70.5,10.4c0.2,0.5,0.4,1,0.4,1.6
	c-1-0.7-2.3-1.1-3.7-1c0-0.6,0.4-1,1.3-1.3C69.4,9.4,70.1,9.6,70.5,10.4z"/>
<path d="M30.5,30.3h-0.3c-0.1,0-0.1,0-0.1-0.1c0-0.1,0-0.1,0.1-0.1h0.3c0.1,0,0.1,0,0.1,0.1C30.6,30.2,30.6,30.3,30.5,30.3z
	 M27,30.3h-0.4c-0.1,0-0.1,0-0.1-0.1c0-0.1,0-0.1,0.1-0.1H27c0.1,0,0.1,0,0.1,0.1C27.1,30.2,27,30.3,27,30.3z M28.4,26.9
	c-0.1,0-0.1,0-0.1-0.1c0-0.1,0-0.2,0-0.2c0-0.1,0-0.1,0.1-0.1s0.1,0,0.1,0.1c0,0.1,0,0.2,0,0.2C28.6,26.9,28.5,26.9,28.4,26.9z"/>
<path d="M54.1,18.2C54.1,18.2,54,18.2,54.1,18.2C54,18.1,54,18,54.1,18c0.1,0,0.2-0.1,0.2-0.1c0.2-0.1,0.5-0.2,0.6-0.3
	c0.1-0.1,0.2-0.1,0.3-0.2c0.1,0,0.2-0.1,0.3-0.2c0.1,0,0.2-0.1,0.2-0.1c-0.3-0.3-0.6-0.7-0.9-1c-0.6,0.5-1.3,0.9-2,1.3
	c0,0,0.1,0.1,0.2,0.2c0,0,0,0.1,0,0.2c0,0-0.1,0-0.2,0c-0.5-0.5-0.9-1-1.3-1.5c-0.5,0.4-0.9,0.8-1.4,1.1l-0.1,0
	c0,0.1,0.1,0.2,0.3,0.3c0,0,0,0.1,0,0.2c0,0-0.1,0-0.2,0c-0.2-0.1-0.3-0.2-0.3-0.4c-0.2,0.1-0.4,0.2-0.6,0.3c-0.1,0-0.1,0-0.1-0.1
	c0-0.1,0-0.1,0.1-0.1c0.2-0.1,0.4-0.2,0.6-0.3c0,0,0,0,0,0c0,0-0.1-0.1-0.1-0.1c-0.1,0-0.1-0.1-0.2-0.2c0-0.1-0.1-0.1-0.1-0.2
	c-0.1-0.2-0.2-0.3-0.4-0.5c-0.1-0.1-0.2-0.2-0.2-0.3c-0.1,0.1-0.2,0.2-0.3,0.2c-0.1,0.1-0.2,0.1-0.4,0.2c-0.4,0.2-0.7,0.4-1,0.7
	c-0.1,0-0.1,0.1-0.2,0.1c0,0,0,0,0,0c0,0,0,0.1,0,0.2c0,0-0.1,0-0.2,0c0,0,0,0,0,0c0,0-0.1,0-0.1,0c0,0,0-0.1,0-0.1
	c0,0-0.1-0.1-0.1-0.2c-0.2-0.3-0.5-0.6-0.7-0.9c0,0-0.1,0-0.1,0.1l-0.4,0.3c-0.1,0.1-0.2,0.2-0.4,0.3c-0.1,0-0.1,0.1-0.2,0.1
	c-0.1,0.1-0.2,0.1-0.4,0.2c0,0,0,0,0,0c0.1,0.1,0.1,0.2,0.2,0.3c0,0,0,0.1,0,0.2c0,0-0.1,0-0.2,0c-0.2-0.2-0.3-0.4-0.5-0.7
	c-0.2-0.3-0.5-0.6-0.7-0.9c-0.5,0.4-0.8,0.6-1,0.8l-0.1,0.1c0,0-0.1,0-0.2,0c0,0,0-0.1,0-0.2l0.1-0.1c0.2-0.2,0.6-0.5,1-0.9
	c-0.4-0.5-0.8-1.1-1.2-1.6l-0.5,0.5c-0.4,0.4-0.8,0.8-1.2,1.1c0.2,0.2,0.3,0.5,0.5,0.8c0,0,0,0.1,0,0.2c0,0-0.1,0-0.2,0
	c-0.2-0.3-0.3-0.5-0.5-0.8c-0.4,0.3-0.7,0.5-1.1,0.7c0,0.1,0.1,0.2,0.1,0.2c0,0,0,0.1,0,0.2c0,0-0.1,0-0.2,0c0-0.1-0.1-0.1-0.1-0.2
	c-0.1,0.1-0.2,0.1-0.3,0.2c-0.1,0-0.1,0-0.2-0.1c0-0.1,0-0.1,0.1-0.2c0.1,0,0.2-0.1,0.3-0.1c-0.1-0.1-0.2-0.2-0.3-0.4
	C38,16.1,37.9,16,37.9,16c-0.2-0.2-0.3-0.3-0.4-0.4c-0.2-0.2-0.3-0.4-0.4-0.5c0,0,0,0,0,0c0,0-0.1,0-0.2,0c0,0,0-0.1,0-0.2
	c0,0,0.1-0.1,0.1-0.1c0.2-0.2,0.5-0.5,0.8-0.8c0.2-0.2,0.3-0.3,0.5-0.5c-0.1-0.2-0.2-0.3-0.3-0.5c-0.2-0.3-0.5-0.6-0.6-0.9
	c-0.1,0.1-0.2,0.2-0.3,0.3l-0.2,0.2c0,0-0.1,0-0.2,0c0,0,0-0.1,0-0.2l0.2-0.2c0.1-0.1,0.2-0.3,0.3-0.4c-0.1-0.1-0.2-0.4-0.4-0.7
	c0,0,0-0.1,0-0.2c0,0,0.1,0,0.2,0c0.2,0.3,0.3,0.5,0.3,0.6c0.5-0.6,1-1.1,1.5-1.6c-0.3-0.5-0.7-1-1-1.5c0,0-0.1,0.1-0.1,0.1
	c-0.1,0.1-0.1,0.1-0.2,0.1l-0.3,0.2c-0.1,0.1-0.2,0.2-0.3,0.2l0,0c0,0-0.1,0.1-0.2,0.2c-0.1,0.2-0.2,0.2-0.3,0.3
	c-0.1,0-0.1,0-0.1-0.1c0-0.1,0-0.1,0.1-0.1c0,0,0,0,0.1-0.2l0,0c0.1-0.1,0.2-0.2,0.3-0.2l0,0C36.9,9.1,37,9,37.1,8.9l0.3-0.2
	c0,0,0.1-0.1,0.2-0.1c0,0,0.1-0.1,0.1-0.1c0-0.1,0.1-0.1,0.1-0.1c0,0,0,0,0,0c0,0,0.1,0,0.1,0c0.3,0.5,0.7,1,1,1.5
	c0.4-0.4,0.7-0.8,1.1-1.1c0,0,0.1,0,0.2,0c0,0,0,0.1,0,0.2c-0.4,0.4-0.8,0.8-1.2,1.2c0.3,0.5,0.7,1,1,1.5c0.3-0.3,0.7-0.6,1.2-1
	c0.1-0.1,0.2-0.2,0.4-0.3C41.5,10,41.3,9.6,41,9.2l-0.2-0.3c0,0,0-0.1,0-0.2c0,0,0.1,0,0.2,0l0.2,0.3c0.2,0.4,0.5,0.8,0.7,1.2
	c0.3-0.2,0.7-0.5,1.2-0.9L43.5,9c0,0,0,0,0.1,0l0,0c0,0,0.1,0,0.2,0c0.1,0.1,0.2,0.3,0.3,0.4c0.2,0.2,0.5,0.6,0.8,0.9
	c0.1,0.1,0.2,0.3,0.4,0.4c0,0,0,0,0.1,0c0.4-0.3,0.7-0.6,1-0.9c0.1-0.2,0.2-0.3,0.4-0.4c0,0,0.1-0.1,0.2,0c0,0,0.1,0.1,0,0.2
	c-0.1,0.2-0.2,0.3-0.4,0.5c-0.3,0.3-0.6,0.7-1,1c0,0,0,0-0.1,0c0.1,0.1,0.1,0.2,0.2,0.2c0.2,0.2,0.3,0.4,0.4,0.6c0,0,0,0.1,0,0.2
	c0,0-0.1,0-0.2,0c-0.1-0.2-0.2-0.4-0.4-0.6c-0.1-0.1-0.1-0.2-0.2-0.2c-0.6,0.4-1,0.8-1.3,1.1c-0.1,0.1-0.2,0.2-0.4,0.4
	c0.4,0.6,0.8,1.2,1.3,1.8c0,0,0.1,0,0.1,0c0.1,0,0.1,0.1,0.1,0.1c0,0,0,0,0,0c0,0,0,0,0,0c0,0,0,0.1,0,0.1c0,0,0,0-0.1,0
	c-0.1,0.1-0.3,0.3-0.5,0.4c-0.3,0.2-0.5,0.4-0.7,0.5c-0.1,0.1-0.2,0.2-0.3,0.2c0.2,0.3,0.5,0.6,0.7,0.9c0.1,0.1,0.1,0.2,0.2,0.3
	c0,0,0-0.1,0.1-0.1c0.1,0,0.3-0.1,0.4-0.2c0.1,0,0.1-0.1,0.2-0.1c0.2-0.1,0.3-0.2,0.4-0.3l0.4-0.3c0,0,0.1-0.1,0.1-0.1c0,0,0,0,0,0
	c0,0,0,0,0,0c0.1-0.1,0.2-0.2,0.3-0.3c0,0,0.1,0,0.2,0c0,0,0,0.1,0,0.2c-0.1,0.1-0.2,0.2-0.2,0.2c0.2,0.3,0.5,0.6,0.7,1
	c0,0,0.1,0.1,0.1,0.1c0.1,0,0.1-0.1,0.2-0.1c0.3-0.2,0.7-0.5,1-0.7c0.1-0.1,0.3-0.1,0.4-0.2c0.1,0,0.2-0.1,0.3-0.2c0,0,0,0,0,0
	c0,0,0-0.1,0.1-0.1c0-0.1,0.1-0.1,0.1-0.1c0.1,0,0.1,0.1,0.1,0.1c0,0,0,0.1,0,0.2c0,0,0,0,0,0c0.1,0.1,0.2,0.2,0.2,0.3
	c0.1,0.2,0.3,0.3,0.4,0.5c0,0,0.1,0.1,0.1,0.2c0,0.1,0.1,0.1,0.1,0.1l0,0c0,0,0.1,0.1,0.1,0.1c0,0,0.1,0.1,0.1,0.1l0,0
	c0.4-0.3,0.9-0.6,1.3-1.1c-0.4-0.4-0.7-0.9-1.1-1.3c0,0-0.1-0.1-0.1-0.1c-0.2,0.2-0.5,0.4-0.7,0.6c-0.1,0.1-0.2,0.2-0.4,0.2
	c0,0-0.1,0-0.2,0c0,0,0-0.1,0-0.2c0.1-0.1,0.2-0.2,0.4-0.2c0.2-0.2,0.5-0.4,0.7-0.6c-0.2-0.3-0.3-0.5-0.4-0.8c0-0.1,0-0.1,0.1-0.1
	c0.1,0,0.1,0,0.1,0.1c0,0.2,0.2,0.4,0.4,0.7c0.3-0.3,0.7-0.6,0.9-0.9c0.3-0.3,0.5-0.5,0.7-0.7l-1.1-1.2c-0.2,0.2-0.5,0.4-0.7,0.6
	c0,0-0.1,0-0.2,0c0,0,0-0.1,0-0.2c0.2-0.2,0.5-0.4,0.7-0.7l-1.1-1.2l0,0L48.7,11c-0.2,0.2-0.4,0.3-0.5,0.4c-0.1,0.1-0.1,0.1-0.2,0.2
	c0,0-0.1,0-0.2,0c0,0,0-0.1,0-0.2c0,0,0.1-0.1,0.1-0.1c0,0-0.1-0.1-0.2-0.2l0,0c-0.1-0.1-0.1-0.2-0.1-0.2c0,0,0,0,0,0
	c-0.1-0.1-0.2-0.2-0.2-0.3c0,0,0,0,0,0c0-0.1,0-0.1,0-0.1c-0.1-0.2-0.1-0.3-0.2-0.4c0-0.1,0-0.2,0-0.2s0.1-0.1,0.1-0.1
	c0.1,0,0.1,0.1,0.1,0.1c0,0,0,0.1,0,0.2c0,0.1,0.1,0.2,0.1,0.3c0,0,0,0.1,0.1,0.1c0,0.1,0.1,0.2,0.2,0.3c0,0,0.1,0.1,0.1,0.2
	c0.1,0.1,0.2,0.2,0.2,0.2c0.1-0.1,0.3-0.2,0.5-0.4l0.7-0.6l0.1-0.1c0,0,0.1,0,0.1,0l0,0l0.2,0.2l1,1.1c0.2-0.1,0.3-0.2,0.5-0.3
	c0.2-0.1,0.4-0.2,0.7-0.4c0.1-0.1,0.2-0.1,0.3-0.2c0.1-0.1,0.2-0.2,0.3-0.3c0,0,0.1,0,0.2,0c0,0,0,0.1,0,0.2
	c-0.1,0.1-0.2,0.2-0.4,0.3c-0.1,0.1-0.2,0.1-0.3,0.2c-0.3,0.2-0.5,0.3-0.7,0.4s-0.3,0.2-0.5,0.3l1,1.2c0.1-0.1,0.1-0.1,0.1-0.2
	c0.5-0.5,1-0.8,1.4-1.1c-0.2-0.2-0.3-0.3-0.4-0.4c-0.1-0.2-0.2-0.3-0.3-0.5c0,0,0-0.1-0.1-0.1c0-0.1,0-0.1,0.1-0.1
	c0.1,0,0.1,0,0.2,0.1c0,0,0,0.1,0,0.1c0.1,0.1,0.2,0.3,0.3,0.4c0.1,0.1,0.2,0.2,0.4,0.4c0.5-0.3,0.9-0.6,1.4-0.9l-0.2-0.2
	c0,0,0-0.1,0-0.2c0,0,0.1,0,0.2,0l0.3,0.3l0,0l0.1,0.1c0.1,0.1,0.3,0.3,0.6,0.6c0.1,0.2,0.3,0.3,0.4,0.5c0.2-0.2,0.5-0.4,0.8-0.7
	c0,0,0.1,0,0.2,0c0,0,0,0.1,0,0.2c-0.3,0.2-0.5,0.4-0.8,0.7c0.1,0.1,0.2,0.3,0.3,0.4c0,0.1,0.1,0.2,0.2,0.4l0.1,0.2c0,0,0,0.1,0,0.2
	c0,0-0.1,0-0.2,0L57,12.7c-0.1-0.2-0.2-0.3-0.2-0.4c-0.1-0.1-0.2-0.3-0.3-0.4c-0.6,0.5-1.1,0.8-1.5,1.1c0.1,0.2,0.2,0.3,0.3,0.5
	c0.3,0.4,0.5,0.8,0.8,1.1c0.1-0.1,0.4-0.3,0.6-0.5c0,0,0.1,0,0.2,0c0,0,0,0.1,0,0.2c-0.3,0.2-0.5,0.4-0.7,0.6
	c0.2,0.2,0.3,0.4,0.4,0.5c0.1,0.1,0.2,0.2,0.3,0.3c0,0,0,0.1,0,0.2c0,0-0.1,0-0.2,0c-0.1-0.1-0.2-0.2-0.3-0.3
	c-0.1-0.2-0.2-0.3-0.4-0.5c-0.4,0.4-0.8,0.7-1.2,1.1c0.3,0.3,0.6,0.7,0.9,1l0.4-0.2l0.1-0.1c0,0,0.1,0,0.2,0c0,0,0,0.1,0,0.2
	l-0.5,0.3c0.1,0.1,0.1,0.2,0.2,0.2l0.4,0.4c0,0,0,0.1,0,0.2c0,0-0.1,0-0.2,0l-0.4-0.4c-0.1-0.1-0.2-0.2-0.2-0.3
	c-0.1,0-0.1,0.1-0.2,0.1c-0.1,0.1-0.2,0.2-0.3,0.2c-0.1,0-0.2,0.1-0.3,0.2c-0.2,0.1-0.4,0.2-0.6,0.3C54.2,18.2,54.1,18.2,54.1,18.2
	C54.1,18.2,54.1,18.2,54.1,18.2z M51.6,16.1c0.3,0.4,0.7,0.8,1,1.1c0.7-0.4,1.4-0.9,2-1.3c-0.5-0.5-0.9-1-1.4-1.5
	C52.6,15.1,52.1,15.7,51.6,16.1L51.6,16.1z M37.2,14.9c0.1,0.1,0.2,0.3,0.4,0.5c0.1,0.1,0.2,0.2,0.4,0.4c0.1,0.1,0.1,0.2,0.2,0.3
	c0.1,0.2,0.3,0.3,0.4,0.4c0,0,0,0,0,0c0.3-0.2,0.7-0.4,1.1-0.7c-0.5-0.8-1-1.5-1.4-2.1c-0.1,0.1-0.3,0.3-0.5,0.5
	C37.7,14.5,37.5,14.7,37.2,14.9z M50.3,14.6c0,0,0.1,0.1,0.1,0.1c0.3,0.4,0.7,0.9,1.1,1.3l0,0c0.4-0.4,0.9-0.9,1.6-1.7L52,13
	c-0.2,0.2-0.4,0.4-0.7,0.7C51,14,50.7,14.3,50.3,14.6z M53.4,14.3c0.4,0.5,0.9,1,1.4,1.5c0.4-0.3,0.8-0.7,1.2-1.1
	c-0.2-0.3-0.5-0.7-0.8-1.1c-0.1-0.2-0.2-0.3-0.3-0.5c-0.4,0.2-0.8,0.5-1.1,0.8C53.7,14,53.5,14.1,53.4,14.3z M41.8,14.1
	c0.4,0.5,0.8,1.1,1.2,1.6c0.1-0.1,0.2-0.2,0.3-0.2c0.2-0.1,0.4-0.3,0.7-0.5c0.2-0.1,0.3-0.3,0.5-0.4c-0.4-0.6-0.9-1.2-1.3-1.9
	C42.9,13,42.4,13.5,41.8,14.1z M38.5,13.6c0.4,0.6,0.9,1.3,1.4,2.1c0.4-0.3,0.7-0.7,1.1-1l0.5-0.5c-0.5-0.7-1-1.4-1.5-2
	c-0.1,0.1-0.2,0.2-0.4,0.3C39.7,12.4,39.4,12.7,38.5,13.6z M52.1,12.8l1.2,1.3c0.1-0.1,0.2-0.2,0.3-0.3c0.4-0.3,0.7-0.6,1.1-0.8
	c-0.4-0.6-0.8-1.1-1.1-1.4c0,0,0,0,0,0c-0.4,0.2-0.9,0.6-1.4,1.1C52.2,12.7,52.2,12.7,52.1,12.8z M40.2,11.9c0.5,0.7,1,1.3,1.5,2
	c0.6-0.6,1.1-1.1,1.4-1.4c-0.4-0.6-0.8-1.3-1.2-1.9c-0.2,0.1-0.3,0.2-0.4,0.3C41,11.3,40.6,11.6,40.2,11.9z M37.5,12.1
	c0.2,0.3,0.4,0.6,0.6,0.9c0.1,0.1,0.2,0.3,0.3,0.4c0.7-0.7,1.1-1.1,1.2-1.2c0.1-0.1,0.2-0.2,0.4-0.3c-0.3-0.5-0.7-1-1-1.5
	C38.4,10.9,37.9,11.5,37.5,12.1z M53.9,11.4c0.3,0.3,0.7,0.8,1.1,1.4c0.4-0.2,0.9-0.6,1.4-1.1c-0.1-0.2-0.3-0.3-0.4-0.5
	c-0.3-0.3-0.5-0.5-0.6-0.6l-0.1-0.1c0,0,0,0,0,0C54.8,10.8,54.3,11.1,53.9,11.4z M42,10.4c0.4,0.6,0.8,1.3,1.2,1.9
	c0.2-0.2,0.3-0.3,0.4-0.4c0.3-0.2,0.7-0.6,1.3-1.1c-0.1-0.1-0.2-0.2-0.3-0.4c-0.3-0.4-0.6-0.7-0.8-0.9c-0.1-0.1-0.2-0.2-0.3-0.4
	l-0.3,0.3C42.7,9.9,42.3,10.2,42,10.4z"/>
<path d="M18,20.6c-0.1,0-0.1,0-0.1-0.1c-0.1-1.1-0.2-2.3-0.2-3.3c0-0.1,0-0.1,0.1-0.1c0.1,0,0.1,0,0.1,0.1c0,1.1,0.1,2.2,0.2,3.3
	C18.1,20.6,18.1,20.6,18,20.6z M24.2,20.6c-0.1,0-0.1,0-0.1-0.1c0-0.7,0-1.4,0-2v-0.1c0-0.1,0-0.2,0-0.4V18c0-0.1,0-0.2,0-0.3v-0.2
	c0-0.1,0-0.2,0-0.3v0c0-0.1,0-0.3,0-0.4c0-0.1,0-0.1,0.1-0.1s0.1,0,0.1,0.1c0,0.1,0,0.3,0,0.4v0.1c0,0.1,0,0.2,0,0.3v0.2
	c0,0.1,0,0.2,0,0.3V18c0,0.1,0,0.2,0,0.4v0.1c0,0.6,0,1.2,0,2C24.3,20.6,24.3,20.6,24.2,20.6z M20.5,20.6c-0.1,0-0.1,0-0.1-0.1
	l-0.2-3.4c0-0.1,0-0.1,0.1-0.1c0.1,0,0.1,0,0.1,0.1v0.1l0.1,3.2C20.6,20.6,20.6,20.6,20.5,20.6z M21.8,20.6c-0.1,0-0.1,0-0.1-0.1
	c0-1-0.1-2-0.1-2.9v-0.1c0-0.1,0-0.2,0-0.4v0c0,0,0,0,0,0c0-0.1,0.1-0.1,0.1-0.1c0.1,0,0.1,0,0.1,0.1V17c0,0.1,0,0.2,0,0.4v0.1
	c0,0.9,0.1,1.9,0.1,2.9C21.9,20.5,21.9,20.6,21.8,20.6z M19.2,20.6c-0.1,0-0.1,0-0.1-0.1c0-1.1-0.1-2.2-0.1-3.2c0-0.1,0-0.1,0.1-0.1
	c0.1,0,0.1,0,0.1,0.1c0,1,0.1,2.1,0.1,3.2C19.3,20.5,19.2,20.6,19.2,20.6z M23.2,20.6c0,0-0.1,0-0.1-0.1c0,0,0,0,0-0.1
	c0-0.9-0.1-1.8-0.1-2.5v-0.1c0-0.1,0-0.2,0-0.4v-0.1c0-0.1,0-0.2,0-0.3v-0.1c0-0.1,0-0.1,0.1-0.1c0.1,0,0.1,0,0.1,0.1V17
	c0,0.1,0,0.2,0,0.3v0.1c0,0.1,0,0.2,0,0.4v0.1c0,0.8,0.1,1.6,0.1,2.5c0,0,0,0,0,0C23.3,20.5,23.3,20.5,23.2,20.6
	C23.2,20.6,23.2,20.6,23.2,20.6z M18.9,14.9c-0.1,0-0.1,0-0.1-0.1c-0.1-2.9-0.1-5.1-0.1-6.4c0-0.1,0-0.1,0.1-0.1
	c0.1,0,0.1,0,0.1,0.1c0,1.3,0,3.4,0.1,6.4C19.1,14.9,19,14.9,18.9,14.9z M20.3,14.9c-0.1,0-0.1,0-0.1-0.1C20,11.9,20,9.7,20.1,8.4v0
	c0-0.1,0-0.1,0.1-0.1c0.1,0,0.1,0,0.1,0.1v0c0,1.3,0,3.4,0.1,6.4C20.4,14.9,20.3,14.9,20.3,14.9z M17.7,14.9c-0.1,0-0.1,0-0.1-0.1
	c-0.1-2.7-0.1-4.7-0.1-6c0-0.1,0.1-0.1,0.1-0.1c0.1,0,0.1,0,0.1,0.1c0,1.2,0,3.2,0.1,5.9C17.8,14.9,17.8,14.9,17.7,14.9z M21.6,14.9
	c-0.1,0-0.1,0-0.1-0.1c-0.1-2.7-0.1-4.8-0.1-6V8.6c0-0.1,0-0.1,0.1-0.1c0.1,0,0.1,0,0.1,0.1v0.1c0,1.2,0,3.3,0.1,6
	C21.7,14.8,21.6,14.9,21.6,14.9z M23,14.7c-0.1,0-0.1,0-0.1-0.1v0c-0.1-2.5-0.1-4.3-0.1-5.5C22.8,9,22.8,9,22.9,9C23,9,23,9,23,9.1
	c0,1.2,0,3,0.1,5.5v0.1C23.1,14.7,23,14.7,23,14.7z M24.1,14.7c-0.1,0-0.1,0-0.1-0.1c0-1.6-0.1-2.9-0.1-3.9c0-0.2,0-0.4,0-0.8
	c0-0.1,0-0.1,0.1-0.1c0.1,0,0.1,0,0.1,0.1c0,0.3,0,0.6,0,0.8c0,1,0,2.3,0.1,3.9C24.2,14.6,24.2,14.7,24.1,14.7z"/>
<path d="M28.4,34.3c-0.1,0-0.2-0.1-0.2-0.2c0-1.3,0-2.6,0-3.8h-1.4c-0.1,0-0.2-0.1-0.2-0.2s0.1-0.2,0.2-0.2h1.4c0-1.1,0-2.1-0.1-3.2
	c0-0.1,0.1-0.2,0.2-0.2c0.1,0,0.2,0.1,0.2,0.2c0,1.1,0,2.1,0.1,3.2h1.5c0.1,0,0.2,0.1,0.2,0.2c0,0.1-0.1,0.2-0.2,0.2h-1.5
	c0,1.3,0,2.6,0,3.9C28.6,34.3,28.5,34.3,28.4,34.3z"/>
<path class="st7" d="M156.9,17.6c-0.1,0-0.1,0-0.2-0.1c0,0,0,0-0.1,0c0,0,0,0-0.1,0c0,0,0,0-0.1,0c0,0,0,0,0,0c0,0,0,0-0.1,0
	c0,0-0.1,0-0.1,0c0,0-0.1,0-0.1,0c0,0-0.1,0.1-0.1,0.1c-0.1,0.1-0.1,0.2-0.2,0.3c0,0.1-0.1,0.2-0.1,0.3c-0.1,0.1-0.1,0.2-0.1,0.2
	c0,0,0,0,0,0.1c0,0,0,0.1,0,0.1c0,0.1-0.1,0.1-0.1,0.2c0,0.1-0.1,0.1-0.1,0.2c0,0.1,0,0.1-0.1,0.2c0,0,0,0.1,0,0.2c0,0,0,0,0,0.1
	c0,0,0,0,0,0.1c0,0,0.1,0,0.2,0c0.1,0,0.1,0,0.2,0c0,0,0.1,0,0.1,0c0,0,0.1,0,0.1,0c0.1,0,0.1,0,0.2,0c0.1,0,0.2,0,0.2-0.1
	c0,0,0.1-0.1,0.1-0.1c0,0,0.1,0,0.1,0c0.1,0,0.2-0.1,0.3-0.1c0.1,0,0.2-0.1,0.2-0.1c0.1-0.1,0.1-0.2,0.2-0.2c0,0,0.1-0.1,0.1-0.2
	c0,0,0-0.1,0.1-0.1c0,0,0,0,0-0.1c0-0.1,0-0.1,0.1-0.2c0,0,0.1-0.1,0.1-0.1c0,0,0.1-0.1,0.1-0.1c0,0,0.1-0.1,0.1-0.1
	c-0.1-0.1-0.1-0.2-0.2-0.3c-0.1-0.1-0.2-0.1-0.3-0.2C157,17.6,157,17.6,156.9,17.6z M141.2,23.8C141.2,23.8,141.2,23.8,141.2,23.8
	C141.2,23.8,141.2,23.8,141.2,23.8L141.2,23.8z M152.1,11.2C152,11.2,152,11.2,152.1,11.2c-0.2,0-0.4,0-0.5-0.1
	c-0.2,0-0.3,0-0.5-0.1c-0.2,0-0.5-0.1-0.8-0.1c-0.3,0-0.6,0-0.9,0c-0.1,0-0.2,0-0.4,0c-0.1,0-0.2,0-0.4,0c-0.1,0-0.2,0-0.4,0
	c-0.1,0-0.2,0-0.4,0c-0.1,0-0.2,0-0.2,0c-0.1,0-0.2,0-0.2,0c-0.3,0-0.6,0.1-0.8,0.2c-0.3,0-0.5,0.1-0.8,0.1
	c-0.5,0.1-0.9,0.1-1.3,0.2c-0.4,0.1-0.9,0.1-1.3,0.2c-0.2,0-0.3,0-0.5,0.1s-0.3,0.1-0.5,0.2c0,0-0.1,0.1-0.1,0.1c0,0-0.1,0-0.1,0
	c-0.4,0.1-0.8,0.2-1.2,0.2c-0.4,0.1-0.8,0.2-1.2,0.2c0,0-0.1,0-0.2,0c-0.1,0-0.2,0-0.2,0c0.2-0.2,0.5-0.3,0.7-0.4
	c0.2-0.1,0.5-0.2,0.7-0.3c-0.1,0-0.2,0-0.2,0c0,0-0.1,0-0.2,0c0.1,0,0.1-0.1,0.2-0.1c0.1,0,0.1,0,0.2,0c0,0,0.1,0,0.1,0
	s0.1,0,0.1-0.1c-0.3,0.1-0.6,0.1-0.9,0.2c-0.3,0.1-0.6,0.2-0.9,0.3c-0.2,0.1-0.3,0.1-0.5,0.1c-0.1,0-0.3,0-0.4,0
	c-0.1,0.1-0.2,0.1-0.2,0.2c0,0.1,0,0.2-0.1,0.2c0,0.1,0,0.1,0,0.2c0,0,0,0.1,0,0.2c-0.1,0.2-0.2,0.5-0.2,0.7
	c-0.1,0.2-0.1,0.5-0.1,0.7c0,0.3-0.1,0.5-0.1,0.8c0,0.2,0,0.5,0.1,0.7c0,0.1,0.1,0.1,0.2,0.2c0.1,0,0.1,0,0.2,0
	c0.9-0.2,1.4-0.3,1.8-0.4c0.4,0,0.5,0.1,0.5,0.3c0,0.2-0.2,0.5-0.4,0.9c-0.2,0.4-0.5,1-0.9,1.6c-0.2,0.5-0.5,1.1-0.8,1.6
	s-0.5,1.1-0.8,1.6c0,0.1-0.1,0.3-0.2,0.4c-0.1,0.2-0.2,0.3-0.3,0.4c0,0,0,0,0,0c0,0,0,0,0,0.1c-0.1,0.2-0.2,0.5-0.3,0.8
	c-0.1,0.2-0.2,0.5-0.2,0.7c0,0.2-0.1,0.4-0.2,0.7c-0.1,0.2-0.1,0.4-0.2,0.7c-0.1,0.4-0.2,0.7-0.3,1.1c-0.1,0.4-0.2,0.7-0.4,1.1
	c-0.2,0.8-0.5,1.5-0.7,2.3c-0.2,0.8-0.4,1.5-0.7,2.3c-0.1,0.3-0.1,0.6,0,0.8c0.1,0.2,0.3,0.4,0.5,0.4l0,0c0,0,0,0,0.1,0
	c0,0,0,0,0.1,0c0,0,0,0,0.1,0c0.1,0,0.3-0.1,0.4-0.1c0.1,0,0.2-0.1,0.4-0.1c0.1,0,0.3-0.1,0.4-0.1c0.1,0,0.3-0.1,0.4-0.1
	c0.2-0.1,0.5-0.1,0.8-0.2c0.2,0,0.5-0.2,0.8-0.5h0c0.1,0,0.2-0.1,0.2-0.2c0-0.1,0.1-0.2,0.1-0.2s0-0.2,0-0.2c0-0.1,0-0.2,0-0.3
	c0.1-0.3,0.2-0.6,0.2-0.9c0.1-0.3,0.2-0.6,0.2-0.9c0-0.2,0.1-0.4,0.1-0.6c0.1-0.2,0.1-0.4,0.2-0.6c0.1-0.2,0.1-0.4,0.2-0.6
	c0.1-0.2,0.1-0.4,0.2-0.6c0-0.2,0.1-0.3,0.1-0.4c0-0.1,0.1-0.3,0.2-0.4c0,0,0,0,0-0.1c0,0,0,0,0-0.1c0-0.1,0-0.2,0-0.2
	c0-0.1,0.1-0.2,0.1-0.2c0-0.1,0-0.2,0-0.2c0-0.1,0-0.2,0-0.2v0v0c0.1-0.1,0.2-0.2,0.2-0.4c0.1-0.1,0.1-0.2,0.1-0.4l0,0c0,0,0,0,0,0
	c0.1-0.2,0.2-0.3,0.3-0.4c0.1-0.1,0.3-0.1,0.5-0.2c0,0,0,0,0.1,0c0,0,0,0,0.1,0c-0.1,0-0.2,0-0.3,0c-0.1,0-0.2,0-0.3,0.1
	c-0.2,0-0.2,0-0.1-0.2c0.1,0,0.2,0,0.3,0c0.1,0,0.2,0,0.3,0c0.1,0,0.1,0,0.2,0c0,0,0.1,0,0.1-0.1c-0.3,0-0.5,0.1-0.5,0.1
	s-0.2,0-0.2-0.1c0.1,0,0.2-0.1,0.2-0.2c0.1-0.1,0.2-0.1,0.3-0.2c0,0-0.1,0-0.1,0c0,0-0.1,0-0.2,0c0.2,0,0.3-0.1,0.5-0.1
	c0.2,0,0.3-0.1,0.4-0.1c0.2,0,0.4-0.1,0.6-0.1c0.2,0,0.4,0,0.5,0c0,0,0.1,0,0.1,0c0,0,0.1,0,0.1-0.1c0.1-0.1,0.1-0.1,0.2-0.1
	c0.1,0,0.1,0,0.2,0c0.1,0,0.2,0.1,0.3,0c0.1,0,0.2,0,0.3-0.1c0.3-0.1,0.6-0.2,0.9-0.2c0.3-0.1,0.6-0.2,0.9-0.2c0,0,0-0.1-0.1-0.1
	c0,0,0,0,0-0.1c0,0,0,0,0,0c0,0,0,0,0.1,0c0.3-0.1,0.7-0.2,1-0.3c0.3-0.1,0.6-0.2,0.9-0.2c0.3-0.1,0.6-0.2,0.8-0.3
	c0.3-0.1,0.6-0.2,0.9-0.4c-0.2,0-0.3,0.1-0.4,0.1c-0.1,0-0.2,0-0.3,0.1c0,0,0-0.1,0-0.1c0.1,0,0.3-0.1,0.4-0.2
	c0.1-0.1,0.3-0.1,0.4-0.1c0.1,0,0.3-0.1,0.4-0.1c0.1,0,0.2-0.1,0.4-0.1c0,0,0-0.1,0-0.1c0,0,0-0.1,0-0.2c0.2-0.1,0.3-0.1,0.5-0.2
	c0.1,0,0.3-0.1,0.4-0.2c0.1,0,0.2,0,0.3-0.1c0.1,0,0.2,0,0.2-0.1c0.1,0,0.2-0.1,0.3-0.1c0.1,0,0.2-0.1,0.3-0.2c-0.1,0-0.2,0-0.4,0
	c-0.1,0-0.2,0-0.4,0c0.2-0.1,0.3-0.1,0.4-0.2c0.1,0,0.2-0.1,0.3-0.2c0.1,0,0.2-0.1,0.3-0.2c0.1-0.1,0.2-0.1,0.3-0.2c0,0,0,0,0,0l0,0
	c0,0-0.1,0-0.1,0.1c0,0-0.1,0.1-0.2,0.1c0,0,0-0.1,0-0.1c0,0,0.1,0,0.1-0.1c0,0,0.1,0,0.1-0.1c0.2-0.1,0.4-0.2,0.6-0.4
	c0.2-0.2,0.3-0.3,0.5-0.5c0.1-0.1,0.2-0.2,0.2-0.2c0-0.1,0.1-0.2,0.1-0.3c0.1-0.2,0.2-0.4,0.4-0.5c0.1-0.2,0.3-0.4,0.4-0.5
	c0.2-0.4,0.4-0.8,0.5-1.2c0.1-0.4,0.1-0.8,0-1.1c0-0.2-0.1-0.3-0.2-0.4c-0.1-0.2-0.1-0.3-0.2-0.4c-0.1-0.2-0.2-0.3-0.3-0.4
	c-0.2-0.1-0.3-0.2-0.4-0.3c0,0,0,0,0,0h0c-0.1,0-0.2,0-0.2,0c0,0-0.1-0.1-0.1-0.1c0,0-0.1-0.1-0.1-0.1s-0.1-0.1-0.2-0.1
	c-0.2-0.1-0.5-0.2-0.7-0.3c-0.2-0.1-0.5-0.2-0.7-0.3c-0.4-0.1-0.7-0.2-1.1-0.3c-0.4-0.1-0.8-0.2-1.3-0.2c0,0,0.1,0,0.1,0
	c0,0,0.1,0,0.1,0c0.2,0,0.4,0.1,0.7,0.1c0.2,0,0.4,0.1,0.7,0.1c0.1,0,0.2,0.1,0.3,0.1c0.1,0,0.2,0.1,0.3,0.1
	C152.2,11.1,152.1,11.1,152.1,11.2z M151.5,14.1c-0.1,0-0.3,0-0.4,0c0.2,0.1,0.4,0.1,0.7,0c0.2,0,0.5-0.1,0.7,0c0,0-0.1,0.1-0.1,0.1
	c0,0-0.1,0-0.1,0.1c0.1,0,0.2,0,0.2,0c0.1,0,0.1,0,0.2,0c0,0-0.1,0.1-0.1,0.1c0,0,0,0-0.1,0c0,0,0,0,0,0l0,0c0.2,0,0.4,0.2,0.5,0.3
	c0.1,0.1,0.2,0.3,0.3,0.5c0.1,0.1,0.1,0.3,0,0.4c-0.1,0.2-0.2,0.3-0.3,0.5c-0.2,0.3-0.5,0.5-0.7,0.8c-0.3,0.2-0.6,0.4-0.9,0.5
	c-0.3,0.1-0.7,0.3-1,0.4c-0.4,0.2-0.7,0.3-1,0.4c-0.3,0.1-0.7,0.2-1,0.3c-0.3,0.1-0.7,0.2-1,0.3c0.1,0.1,0.2,0.1,0.3,0.1
	c0.1,0,0.3-0.1,0.4-0.1c0.1,0,0.2,0,0.2,0c0.1,0,0.2,0,0.3,0c0,0.1-0.1,0.2-0.2,0.2c-0.1,0-0.1,0.1-0.2,0.1
	c-0.2,0.1-0.4,0.1-0.6,0.2c-0.2,0-0.4,0.1-0.6,0.2c-0.1,0-0.2,0.1-0.2,0.1c-0.1,0-0.2,0.1-0.3,0.1c0.1,0.1,0.2,0.1,0.3,0.1
	c0.1,0,0.2-0.1,0.4-0.1c-0.1,0.1-0.2,0.2-0.2,0.2c-0.1,0-0.1,0.1-0.2,0.1c-0.4,0.1-0.7,0.2-1.1,0.3c0,0-0.1,0-0.1,0c0,0-0.1,0-0.1,0
	c-0.2,0.2-0.4,0.3-0.6,0.3c-0.2,0-0.4,0.1-0.6,0.2c-0.9,0.4-1.5,0.7-1.9,0.7c-0.4,0-0.6-0.2-0.6-0.6c0-0.4,0.1-0.8,0.4-1.3
	c0.2-0.5,0.6-1,0.9-1.5c0.2-0.2,0.3-0.5,0.4-0.8c0.1-0.3,0.3-0.5,0.4-0.8c0.3-0.6,0.6-1,0.8-1.3c0.2-0.3,0.4-0.5,0.7-0.6
	c0.3-0.1,0.8-0.2,1.6-0.4c0.3,0,0.7-0.1,1-0.2c0.3-0.1,0.7-0.2,1-0.2c0.4-0.1,0.7-0.1,1.1-0.1c0.1,0,0.3,0,0.5,0c0.2,0,0.3,0,0.5,0
	c0.1,0,0.3,0,0.4,0c0.1,0,0.3,0,0.4,0C151.8,14,151.7,14.1,151.5,14.1z M144,22.2c-0.1,0-0.1,0-0.2,0v0c0.1,0,0.2-0.1,0.4-0.1
	c0,0,0,0,0,0l0,0C144.2,22.2,144.1,22.2,144,22.2z M145.6,21.6c0.1-0.1,0.2-0.1,0.3-0.1c0.1,0,0.2,0,0.2,0c0.2-0.2,0.4-0.2,0.6-0.3
	c0.2,0,0.4,0,0.5,0c0,0,0,0,0,0c0,0,0,0,0,0c0.1-0.1,0.1-0.1,0.2-0.1c0.1,0,0.1,0,0.2,0c-0.1,0-0.1,0.1-0.2,0.1
	c-0.1,0-0.1,0-0.2,0.1c0,0,0,0,0,0c0,0,0,0,0,0c-0.1,0.1-0.3,0.2-0.4,0.2c-0.2,0-0.3,0.1-0.4,0.1c0,0-0.1,0-0.1,0c0,0-0.1,0-0.2,0
	C146,21.6,145.8,21.6,145.6,21.6z M143.1,22.3c0.2,0,0.3-0.1,0.4,0c0.1,0,0.2,0,0.5,0.1c-0.3,0.1-0.5,0.1-0.8,0.2
	c-0.2,0-0.5,0-0.7,0.1c-0.2,0-0.5,0.1-0.7,0.1c-0.2,0-0.5,0.1-0.7,0c0,0,0,0,0,0c0,0,0,0,0,0c0.1,0,0.1,0,0.2,0c0,0,0.1,0,0.2,0l0,0
	c0,0,0,0,0,0c-0.1,0-0.2,0-0.2,0c-0.1,0-0.2,0-0.2,0c0-0.2,0.1-0.3,0.1-0.3c0,0,0.1-0.1,0.2-0.1c0.3-0.1,0.7-0.2,1-0.2
	C142.4,22.4,142.8,22.4,143.1,22.3z M97.9,23.3C97.8,23.3,97.8,23.3,97.9,23.3C97.8,23.4,97.8,23.4,97.9,23.3
	c-0.2,0.3-0.4,0.4-0.5,0.7c-0.1,0.2-0.2,0.4-0.4,0.6c-0.1,0.2-0.2,0.4-0.2,0.7c0,0.2,0,0.5,0,0.7c0,0.5,0.2,0.9,0.5,1.3
	c0.3,0.4,0.6,0.6,1.1,0.8c0.1,0,0.2,0.1,0.2,0.1c0.1,0,0.2,0.1,0.2,0.1c0.2,0.1,0.4,0.2,0.7,0.2c0.2,0,0.5,0,0.7-0.1
	c0.1,0,0.2-0.1,0.4-0.1c0.1,0,0.2-0.1,0.3-0.2l0,0c0,0,0,0,0,0c0.1,0,0.1-0.1,0.2-0.1c0,0,0.1-0.1,0.2-0.1c0.1-0.1,0.2-0.2,0.3-0.2
	c0.1-0.1,0.2-0.1,0.4-0.2c0.1,0.1,0.2,0.2,0.4,0.3c0.1,0.1,0.3,0.2,0.4,0.2c0,0,0.1,0,0.1,0c0,0,0,0,0.1,0c0.2,0.1,0.3,0.2,0.5,0.3
	c0.2,0,0.4,0.1,0.6,0.2c0.1,0,0.2,0,0.3,0c0.1,0,0.2,0,0.4-0.1c0.1,0,0.2,0,0.4-0.1c0.1,0,0.2-0.1,0.4-0.1c0.1,0,0.3,0,0.4-0.1
	c0.1,0,0.2-0.1,0.3-0.1c0.1,0,0.2-0.1,0.3-0.2c0.1-0.1,0.2-0.2,0.3-0.3c0.1-0.1,0.2-0.2,0.3-0.3c0,0,0-0.1,0.1-0.1c0,0,0,0,0.1,0
	c0.1,0,0.1-0.1,0.2-0.1c0.1,0,0.1-0.1,0.2-0.2c0,0,0-0.1,0.1-0.1c0,0,0.1-0.1,0.1-0.1c0-0.1,0.1-0.1,0.2-0.2c0-0.1,0.1-0.2,0.2-0.2
	c0,0,0,0,0,0c0,0,0,0,0,0c0,0,0.1,0.1,0.1,0.2c0.2,0.3,0.3,0.6,0.5,0.9c0.1,0.3,0.3,0.6,0.4,1c0.1,0.3,0.2,0.6,0.3,0.8
	c0,0.2,0,0.4-0.1,0.7c-0.1,0.2-0.4,0.5-0.8,0.9c-0.3,0.3-0.6,0.6-0.9,0.9c-0.3,0.3-0.5,0.7-0.8,1c-0.1,0.2-0.2,0.4-0.3,0.6
	c-0.1,0.2-0.2,0.4-0.2,0.6c0,0.1,0,0.2-0.1,0.3c0,0.1,0,0.2,0,0.2c0,0.2,0.1,0.3,0.1,0.5c0,0.2,0.1,0.3,0.2,0.4
	c0.1,0.1,0.1,0.1,0.1,0.2c0,0.1,0.1,0.2,0.1,0.3c0.1,0.1,0.1,0.2,0.2,0.2c0.1,0,0.2,0,0.3-0.1c0,0,0.1,0,0.1,0c0,0,0,0,0.1,0
	c0,0,0.1,0,0.1,0c0,0,0.1,0,0.1,0c0,0,0,0,0,0.1c0,0,0,0,0,0.1c0.1,0,0.1,0,0.1,0c0,0,0,0,0.1,0c0.1,0,0.2-0.1,0.3-0.1
	c0.1,0,0.2-0.1,0.2-0.1c0,0,0-0.1,0.1-0.1c0,0,0.1,0,0.1-0.1c0,0,0,0,0,0.1c0,0,0,0,0.1,0c0,0,0,0,0,0.1c0,0,0,0,0,0
	c0.1-0.1,0.2-0.2,0.3-0.2s0.1,0,0.1,0c-0.1,0.1-0.2,0.2-0.3,0.4c-0.1,0.1-0.2,0.3-0.3,0.4c0,0,0,0,0.1,0c0,0,0,0,0.1,0
	c0.1,0,0.2,0,0.3-0.1c0.1-0.1,0.2-0.2,0.3-0.2c0,0,0,0,0,0c0,0,0,0,0,0c0.1,0,0.2-0.1,0.3-0.2c0.1-0.1,0.2-0.1,0.3-0.2
	c0,0,0.1-0.1,0.1-0.2c0,0,0.1-0.1,0.1-0.2c0.1-0.1,0.2-0.2,0.4-0.4c0.2-0.2,0.4-0.4,0.5-0.6c0.2-0.2,0.3-0.4,0.4-0.5
	c0-0.1,0.1-0.2,0.2-0.3c0.1-0.1,0.1-0.2,0.2-0.3c0,0,0,0,0,0c0,0,0,0,0,0c0,0,0.1,0,0.1-0.1c0,0,0.1-0.1,0.1-0.1c0-0.1,0-0.2,0-0.4
	c0-0.1,0-0.3,0.1-0.4l0,0c0,0,0,0,0-0.1c0,0,0-0.1,0-0.1c0,0,0-0.1,0-0.1c0.1-0.2,0.1-0.4,0.1-0.5c0-0.1,0-0.2,0-0.3
	c0-0.1,0-0.2-0.1-0.4c0-0.3,0.1-0.5,0.2-0.6c0.2-0.1,0.4-0.2,0.7-0.4c0.2-0.1,0.5-0.2,0.7-0.4c0.1,0,0.1-0.1,0.2-0.1
	c0.1,0,0.1-0.1,0.2-0.1c0.2-0.1,0.3-0.3,0.5-0.4c0.2-0.2,0.3-0.3,0.5-0.4c0,0,0,0,0.1-0.1c0,0,0.1,0,0.1-0.1
	c0.2-0.2,0.5-0.4,0.7-0.6c0.1-0.1,0.1-0.1,0.2-0.2c0.1-0.1,0.1-0.1,0.2-0.2c0.1-0.1,0.2-0.2,0.2-0.3c0,0,0-0.1,0-0.1
	c0.1,0.4,0.2,0.8,0.4,1c0.3,0.4,0.6,0.6,1.1,0.8c0.1,0,0.2,0.1,0.2,0.1c0.1,0,0.2,0.1,0.2,0.1c0.2,0.1,0.4,0.2,0.7,0.2
	c0.2,0,0.5,0,0.7-0.1c0.1,0,0.2-0.1,0.4-0.1c0.1,0,0.2-0.1,0.3-0.2l0,0c0,0,0,0,0,0c0.1,0,0.1-0.1,0.2-0.1c0,0,0.1-0.1,0.2-0.1
	c0.1-0.1,0.2-0.2,0.3-0.2c0.1-0.1,0.2-0.1,0.4-0.2c0.1,0.1,0.2,0.2,0.4,0.3c0.1,0.1,0.3,0.2,0.4,0.2c0,0,0.1,0,0.1,0c0,0,0,0,0.1,0
	c0.2,0.1,0.3,0.2,0.5,0.3c0.2,0,0.4,0.1,0.6,0.2c0.1,0,0.2,0,0.3,0c0.1,0,0.2,0,0.4-0.1c0.1,0,0.2,0,0.4-0.1c0.1,0,0.2-0.1,0.4-0.1
	c0.1,0,0.3,0,0.4-0.1c0.1,0,0.2-0.1,0.3-0.1c0.1,0,0.2-0.1,0.3-0.2c0.1-0.1,0.2-0.2,0.3-0.3c0.1-0.1,0.2-0.2,0.3-0.3
	c0,0,0-0.1,0.1-0.1c0,0,0,0,0.1,0c0.1,0,0.1-0.1,0.2-0.1c0.1,0,0.1-0.1,0.2-0.2c0,0,0-0.1,0.1-0.1c0,0,0.1-0.1,0.1-0.1
	c0-0.1,0.1-0.1,0.2-0.2c0-0.1,0.1-0.2,0.2-0.2c0,0,0.1,0,0.1-0.1c0,0,0.1-0.1,0.1-0.1c0.1-0.1,0.2-0.2,0.3-0.5
	c0.1-0.3,0.2-0.5,0.2-0.6c-0.1-0.1-0.2-0.2-0.2-0.2c-0.1-0.1-0.2-0.1-0.3-0.1c0,0,0,0,0,0c0,0,0,0,0,0c-0.2,0.2-0.3,0.3-0.5,0.6
	c-0.2,0.2-0.4,0.5-0.5,0.7c-0.2,0.2-0.3,0.4-0.5,0.6c-0.1,0.1-0.2,0.2-0.2,0.2c-0.1,0.1-0.2,0.2-0.2,0.2c-0.1,0.1-0.2,0.1-0.4,0.2
	c-0.1,0.1-0.2,0.1-0.3,0.2c-0.1,0.1-0.2,0.1-0.3,0.2c-0.1,0-0.2,0.1-0.3,0.2c-0.1,0-0.2,0.1-0.3,0.1c-0.1,0-0.2,0-0.3,0.1
	c-0.1,0-0.1,0-0.2,0c0,0-0.1-0.1-0.1-0.1c-0.1-0.1-0.1-0.3-0.2-0.4c0-0.1-0.1-0.3-0.1-0.4c0-0.2,0-0.4,0.1-0.7
	c0.1-0.2,0.2-0.3,0.2-0.5c0.1-0.2,0.2-0.3,0.2-0.4c0,0,0-0.1,0-0.1c0,0,0,0,0-0.1c0-0.2,0-0.3-0.1-0.5c0-0.2-0.1-0.3-0.2-0.4
	c-0.1-0.1-0.1-0.1-0.2-0.2c-0.1-0.1-0.2-0.2-0.3-0.2c-0.1,0-0.2,0-0.4,0c-0.1,0.2-0.2,0.4-0.3,0.6s-0.2,0.3-0.3,0.5
	c-0.1,0.1-0.2,0.2-0.2,0.4c-0.1,0.1-0.2,0.2-0.3,0.3c0,0-0.1,0.1-0.1,0.1c0,0-0.1,0.1-0.1,0.1c-0.1,0.1-0.1,0.2-0.2,0.3
	c-0.1,0.1-0.2,0.2-0.2,0.2c-0.2,0.1-0.4,0.3-0.6,0.5c-0.2,0.2-0.3,0.3-0.5,0.5c0,0,0,0,0,0c0,0,0,0-0.1,0c0,0,0-0.1,0-0.1
	c0,0,0,0,0,0c0.1-0.4,0.2-0.7,0.4-1.1c0,0,0-0.1,0.1-0.1c0,0,0-0.1,0.1-0.1c0-0.1,0.1-0.1,0.2-0.2c0-0.1,0.1-0.2,0.2-0.2
	c0.1-0.2,0.2-0.4,0.4-0.5c0.1-0.2,0.2-0.3,0.4-0.5c0.1-0.1,0.1-0.1,0.2-0.2c0.1,0,0.1-0.1,0.2-0.2c0.2-0.2,0.3-0.4,0.5-0.6
	c0.2-0.2,0.4-0.4,0.5-0.5v0c0.1-0.1,0.2-0.2,0.4-0.3c0.1-0.1,0.3-0.2,0.4-0.2c0.1-0.1,0.2-0.2,0.3-0.3s0-0.2,0-0.4c0,0,0-0.1,0-0.1
	c0,0,0-0.1,0-0.1c-0.1-0.1-0.2-0.2-0.2-0.3c-0.1-0.1-0.2-0.2-0.3-0.3c0,0,0,0-0.1,0c0,0-0.1,0-0.1,0c-0.1,0-0.2,0-0.2-0.1
	c-0.1,0-0.1-0.1-0.2-0.1h0c0,0,0,0,0,0c0-0.1-0.1-0.1-0.1-0.1c-0.1,0-0.1,0-0.2,0c0,0-0.1,0-0.1,0c0,0-0.1,0-0.1,0
	c-0.1,0-0.2,0-0.4-0.1c-0.1,0-0.2,0-0.3-0.1c0,0-0.1,0-0.1,0c-0.1,0-0.2,0-0.3,0c-0.1,0-0.2,0-0.3,0c0,0-0.1,0-0.2,0
	c0,0-0.1,0-0.1,0c-0.2,0.2-0.5,0.3-0.7,0.5c-0.2,0.2-0.4,0.3-0.6,0.5c-0.2,0.3-0.5,0.6-0.7,0.9c-0.2,0.3-0.5,0.6-0.7,0.9
	c0,0,0,0,0,0c0,0,0,0,0,0c-0.2,0.2-0.3,0.4-0.4,0.6c-0.1,0.1-0.2,0.3-0.2,0.4c0,0-0.1,0.1-0.1,0.1c-0.1,0.1-0.2,0.2-0.2,0.2
	c-0.1,0.1-0.2,0.2-0.3,0.3c-0.1,0.1-0.2,0.2-0.3,0.3c-0.2,0.1-0.3,0.3-0.5,0.4c-0.2,0.1-0.4,0.3-0.5,0.4c-0.2,0.2-0.5,0.4-0.7,0.6
	c-0.2,0.2-0.5,0.3-0.7,0.5c-0.3,0.1-0.6,0.2-0.9,0.4c-0.3,0.2-0.6,0.2-0.8,0.3c-0.2,0-0.4,0-0.5-0.3c-0.1-0.1-0.1-0.2-0.1-0.3
	c0-0.1-0.1-0.2-0.2-0.3c-0.1-0.1-0.2-0.3-0.3-0.6c-0.1-0.2-0.2-0.5-0.4-0.8c-0.1-0.2-0.2-0.4-0.4-0.6c0,0-0.1-0.1-0.2-0.2
	c-0.1-0.1-0.1-0.1-0.2-0.2c0-0.1-0.1-0.3-0.1-0.5s0-0.4,0.1-0.6c0-0.1,0.1-0.2,0.1-0.2c0-0.1,0.1-0.2,0.1-0.2c0,0,0,0,0-0.1v0
	c0-0.1,0-0.1,0-0.2c0,0,0.1-0.1,0.1-0.2c0-0.1,0.1-0.1,0.1-0.2c0,0,0.1-0.1,0.1-0.1c0.1,0,0.1,0,0.1-0.1c0,0,0.1-0.1,0.1-0.2
	c0.1-0.1,0.1-0.3,0.1-0.4c0-0.1,0.1-0.3,0.1-0.4c0-0.1,0-0.2,0.1-0.3c0-0.1,0-0.2,0-0.3c0,0,0-0.1,0-0.1c0,0,0-0.1,0-0.1
	c0-0.2-0.1-0.4-0.2-0.6c-0.1-0.2-0.2-0.5-0.3-0.7c-0.1-0.2-0.2-0.4-0.3-0.4c0,0,0,0,0,0h0c-0.1-0.1-0.2-0.2-0.3-0.2
	c-0.1-0.1-0.2-0.1-0.3-0.2c0,0-0.1,0-0.1,0c0,0-0.1,0-0.1,0.1c0,0.1-0.1,0.1-0.1,0.1c0,0-0.1,0.1-0.1,0.1c0,0,0,0,0,0
	c0,0,0,0-0.1,0.1c-0.1,0.1-0.1,0.2-0.2,0.3c-0.1,0.1-0.2,0.2-0.2,0.4c-0.1,0.2-0.2,0.4-0.3,0.6c0,0-0.1,0.1-0.1,0.1
	c0,0,0,0.1-0.1,0.1c0,0.1-0.1,0.2-0.1,0.2c0,0.1-0.1,0.1-0.1,0.2c0,0.1-0.1,0.2-0.1,0.3c0,0.1,0,0.2-0.1,0.3c0,0.1,0,0.2,0,0.2
	c0,0.1,0,0.1-0.1,0.2c-0.1,0.1-0.1,0.2-0.1,0.3c0,0.1,0,0.2,0,0.3c0,0.1,0,0.1,0,0.1c0,0,0,0.1,0,0.1c0,0.2,0.1,0.6,0.2,1
	c0.1,0.5,0.2,0.9,0.4,1.4c0,0,0,0,0,0c0,0,0,0,0,0.1c-0.2,0.2-0.4,0.5-0.5,0.7c-0.2,0.2-0.3,0.4-0.5,0.6c-0.1,0.1-0.2,0.2-0.2,0.2
	c-0.1,0.1-0.2,0.2-0.2,0.2c-0.1,0.1-0.2,0.1-0.4,0.2c-0.1,0.1-0.2,0.1-0.3,0.2c-0.1,0.1-0.2,0.1-0.3,0.2c-0.1,0-0.2,0.1-0.3,0.2
	c-0.1,0-0.2,0.1-0.3,0.1c-0.1,0-0.2,0-0.3,0.1c-0.1,0-0.1,0-0.2,0c0,0-0.1-0.1-0.1-0.1c-0.1-0.1-0.1-0.3-0.2-0.4
	c0-0.1-0.1-0.3-0.1-0.4c0-0.2,0-0.4,0.1-0.7c0.1-0.2,0.2-0.3,0.2-0.5c0.1-0.2,0.2-0.3,0.2-0.4c0,0,0-0.1,0-0.1c0,0,0,0,0-0.1
	c0-0.2,0-0.3-0.1-0.5c0-0.2-0.1-0.3-0.2-0.4c-0.1-0.1-0.1-0.1-0.2-0.2c-0.1-0.1-0.2-0.2-0.3-0.2c-0.1,0-0.2,0-0.4,0
	c-0.1,0.2-0.2,0.4-0.3,0.6c-0.1,0.2-0.2,0.3-0.3,0.5c-0.1,0.1-0.2,0.2-0.2,0.4c-0.1,0.1-0.2,0.2-0.3,0.3c0,0-0.1,0.1-0.1,0.1
	c0,0-0.1,0.1-0.1,0.1c-0.1,0.1-0.1,0.2-0.2,0.3c-0.1,0.1-0.2,0.2-0.2,0.2c-0.2,0.1-0.4,0.3-0.6,0.5c-0.2,0.2-0.3,0.3-0.5,0.5
	c0,0,0,0,0,0c0,0,0,0-0.1,0c0,0,0-0.1,0-0.1c0,0,0,0,0,0c0.1-0.4,0.2-0.7,0.4-1.1c0,0,0-0.1,0.1-0.1c0,0,0-0.1,0.1-0.1
	c0-0.1,0.1-0.1,0.2-0.2c0-0.1,0.1-0.2,0.2-0.2c0.1-0.2,0.2-0.4,0.4-0.5c0.1-0.2,0.2-0.3,0.4-0.5c0.1-0.1,0.1-0.1,0.2-0.2
	c0.1,0,0.1-0.1,0.2-0.2c0.2-0.2,0.3-0.4,0.5-0.6c0.2-0.2,0.4-0.4,0.5-0.5v0c0.1-0.1,0.2-0.2,0.4-0.3c0.1-0.1,0.3-0.2,0.4-0.2
	c0.1-0.1,0.2-0.2,0.3-0.3c0-0.1,0-0.2,0-0.4c0,0,0-0.1,0-0.1c0,0,0-0.1,0-0.1c-0.1-0.1-0.2-0.2-0.2-0.3c-0.1-0.1-0.2-0.2-0.3-0.3
	c0,0,0,0-0.1,0c0,0-0.1,0-0.1,0c-0.1,0-0.2,0-0.2-0.1c-0.1,0-0.1-0.1-0.2-0.1h0c0,0,0,0,0,0c0-0.1-0.1-0.1-0.1-0.1
	c-0.1,0-0.1,0-0.2,0c0,0-0.1,0-0.1,0c0,0-0.1,0-0.1,0c-0.1,0-0.2,0-0.4-0.1c-0.1,0-0.2,0-0.3-0.1c0,0-0.1,0-0.1,0
	c-0.1,0-0.2,0-0.3,0c-0.1,0-0.2,0-0.3,0c0,0-0.1,0-0.2,0c0,0-0.1,0-0.1,0c-0.2,0.2-0.5,0.3-0.7,0.5c-0.2,0.2-0.4,0.3-0.6,0.5
	c-0.2,0.3-0.5,0.6-0.7,0.9C98.3,22.7,98.1,23,97.9,23.3z M109.6,31.8c0,0.2-0.1,0.3-0.1,0.5c0,0.2-0.1,0.3-0.1,0.4
	c0,0.2-0.1,0.3-0.2,0.4c-0.1,0.2-0.1,0.3-0.2,0.4c0,0,0,0.1,0,0.1c0,0,0,0-0.1,0.1c-0.1,0.2-0.2,0.4-0.3,0.5
	c-0.1,0.1-0.2,0.2-0.4,0.4c-0.1,0.1-0.1,0.1-0.2,0.2c-0.1,0.1-0.1,0.1-0.2,0.2c-0.1,0.1-0.1,0.1-0.2,0.2c-0.1,0-0.1,0.1-0.2,0.1
	c-0.1,0.1-0.1,0.1-0.2,0.1c-0.1,0-0.1,0-0.2-0.1c-0.1-0.1-0.1-0.2-0.2-0.2c-0.1-0.1-0.1-0.1-0.2-0.2c0,0-0.1-0.1-0.1-0.2
	c0-0.1,0-0.1,0-0.2c0-0.1,0-0.2,0.1-0.2c0-0.1,0-0.2,0-0.3c0-0.1,0.1-0.2,0.1-0.2c0-0.1,0.1-0.1,0.2-0.2c0.1,0,0.1-0.1,0.2-0.2
	c0-0.1,0.1-0.1,0.1-0.2c0-0.1,0.1-0.2,0.2-0.3c0.1-0.1,0.2-0.2,0.3-0.2c0.1,0,0.1,0,0.2-0.1c0,0,0.1-0.1,0.1-0.1
	c0.1-0.2,0.3-0.4,0.6-0.6c0.2-0.2,0.5-0.4,0.7-0.5c0.2-0.1,0.3,0,0.3,0.3c0,0,0,0,0,0.1C109.6,31.7,109.6,31.8,109.6,31.8z
	 M91.1,11.4c-0.2,0-0.3,0-0.5,0.1c-0.1,0.1-0.2,0.2-0.4,0.3c-0.2,0.2-0.4,0.5-0.9,1c-0.4,0.5-0.9,1.1-1.4,1.8
	c-0.5,0.7-1,1.3-1.4,1.9c-0.4,0.6-0.7,1.1-0.9,1.5c-0.3,0.6-0.6,1.1-0.8,1.7c-0.3,0.6-0.5,1.2-0.8,1.8c0,0,0.1-0.1,0.1-0.1
	c0,0,0.1-0.1,0.1-0.2c0-0.1,0.1-0.1,0.1-0.2c0,0,0.1-0.1,0.1-0.1c0,0,0,0,0.1,0c0,0,0,0,0.1,0c-0.1,0.2-0.2,0.4-0.2,0.5
	c-0.1,0.2-0.1,0.4-0.2,0.6c-0.1,0.3-0.2,0.7-0.4,1c-0.1,0.4-0.2,0.7-0.4,1c-0.1,0.4-0.2,0.8-0.3,1.1c-0.1,0.4-0.2,0.8-0.3,1.1
	c0,0.2-0.1,0.5-0.1,0.7c0,0.2-0.1,0.5-0.1,0.7c0,0.4,0,0.8,0,1.1c0,0.4,0.1,0.8,0.2,1.1c0,0.1,0.1,0.2,0.1,0.3
	c0,0.1,0.1,0.2,0.1,0.4c0,0.2,0.1,0.3,0.1,0.4c0.1,0.1,0.2,0.2,0.3,0.4c0.2,0.3,0.5,0.5,0.7,0.7c0.3,0.2,0.6,0.4,0.9,0.5
	c0.1,0,0.2,0,0.2,0.1c0.1,0,0.2,0,0.2,0c0.1,0,0.2,0,0.3,0c0.1,0,0.2,0,0.3,0c0.2,0.1,0.5,0.2,0.7,0.2c0.3,0,0.5,0.1,0.8,0
	c0.2,0,0.5,0,0.7,0c0.2,0,0.4,0,0.6,0c0.2,0,0.4,0,0.5-0.1c0.2-0.1,0.3-0.2,0.4-0.4c0-0.1,0.1-0.1,0.1-0.2c0-0.1,0.1-0.1,0.2-0.2
	c0.4-0.4,0.8-1,1.1-1.7c0.3-0.7,0.7-1.5,1-2.3c0.3-0.8,0.6-1.6,0.9-2.3c0.1-0.2,0.1-0.3,0.1-0.5c0-0.2,0-0.3,0-0.4
	c0-0.3-0.1-0.5-0.3-0.7c-0.2-0.2-0.4-0.2-0.8-0.2c-0.3,0-0.7,0.1-1,0.1c-0.3,0.1-0.7,0.2-1,0.3c-0.3,0.1-0.5,0.3-0.7,0.5
	c-0.1,0.2-0.1,0.5,0,0.7c0.1,0.1,0.1,0.2,0.1,0.4c0,0.1,0,0.2-0.1,0.4c-0.1,0.3-0.1,0.6-0.2,0.8c-0.1,0.3-0.2,0.6-0.2,0.9
	c-0.1,0.3-0.3,0.7-0.5,1c-0.2,0.3-0.4,0.6-0.6,0.7c-0.2,0.1-0.4,0-0.6-0.2c-0.2-0.3-0.4-0.9-0.5-1.8c0-0.1,0-0.3,0-0.4
	c0-0.1,0-0.2,0-0.4c0-0.2,0-0.5-0.1-0.8c0-0.2,0-0.5,0-0.8c0-0.3,0.1-0.7,0.2-1c0.1-0.4,0.1-0.7,0.2-1c0-0.4,0.1-0.7,0.1-1.1
	c0-0.3,0.1-0.7,0.2-1c0.1-0.4,0.2-0.9,0.3-1.4c0.1-0.4,0.3-0.9,0.5-1.3c0.1-0.3,0.3-0.7,0.5-1c0.2-0.3,0.3-0.7,0.5-1
	c0.1-0.2,0.2-0.5,0.4-0.7c0.1-0.2,0.3-0.4,0.5-0.7c0.1-0.1,0.2-0.3,0.3-0.4c0.1-0.2,0.1-0.3,0.2-0.4c0-0.1,0.1-0.3,0.3-0.5
	c0.2-0.2,0.5-0.4,0.7-0.5c0.2-0.1,0.5-0.1,0.6,0.1c0.2,0.2,0.2,0.5,0.1,1.1c0,0,0,0.1,0,0.1c0,0,0,0.1,0,0.1c0,0.4,0,0.8-0.1,1.1
	c0,0.4,0,0.8-0.1,1.1c0,0.2,0,0.4,0,0.6c0,0.2,0,0.4,0,0.6c0,0.4,0,0.8-0.1,1.2c0,0.4,0,0.8-0.1,1.2c0,0.1,0,0.1,0,0.2
	c0,0,0.1,0.1,0.2,0.1c0.2,0,0.3,0.1,0.5,0.1c0.2,0,0.3,0.1,0.5,0.1c0.4,0,0.7,0,1.1-0.1c0.3-0.1,0.7-0.3,0.9-0.6
	c0.4-0.4,0.7-1.1,0.8-2c0.1-0.9,0.1-1.8-0.1-2.9c-0.2-1-0.5-1.9-0.9-2.8c-0.5-0.8-1-1.4-1.7-1.8C92.8,10.9,92,11,91.1,11.4z
	 M202.1,21.5c-0.2,0.3-0.5,0.6-0.7,0.9c-0.2,0.3-0.5,0.6-0.7,0.9c0,0,0,0,0,0c0,0,0,0,0,0c-0.2,0.2-0.3,0.4-0.4,0.6
	c-0.1,0.1-0.2,0.3-0.2,0.4c0,0-0.1,0.1-0.1,0.1c-0.1,0.1-0.2,0.2-0.2,0.2c-0.1,0.1-0.2,0.2-0.3,0.3c-0.1,0.1-0.2,0.2-0.3,0.3
	c-0.2,0.1-0.3,0.3-0.5,0.4c-0.2,0.1-0.4,0.3-0.5,0.4c-0.2,0.2-0.5,0.4-0.7,0.6c-0.2,0.2-0.5,0.3-0.7,0.5c-0.3,0.1-0.6,0.2-0.9,0.4
	c-0.3,0.2-0.6,0.2-0.8,0.3c-0.2,0-0.4,0-0.5-0.3c-0.1-0.1-0.1-0.2-0.1-0.3c0-0.1-0.1-0.2-0.2-0.3c-0.1-0.1-0.2-0.3-0.3-0.6
	c-0.1-0.2-0.2-0.5-0.4-0.8c-0.1-0.2-0.2-0.4-0.4-0.6c0,0-0.1-0.1-0.2-0.2c-0.1-0.1-0.1-0.1-0.2-0.2c0-0.1-0.1-0.3-0.1-0.5
	c0-0.2,0-0.4,0.1-0.6c0-0.1,0.1-0.2,0.1-0.2c0-0.1,0.1-0.2,0.1-0.2c0,0,0,0,0-0.1v0c0-0.1,0-0.1,0-0.2c0,0,0.1-0.1,0.1-0.2
	c0-0.1,0.1-0.1,0.1-0.2c0,0,0.1-0.1,0.1-0.1c0.1,0,0.1,0,0.1-0.1c0,0,0.1-0.1,0.1-0.2c0.1-0.1,0.1-0.3,0.1-0.4
	c0-0.1,0.1-0.3,0.1-0.4c0-0.1,0-0.2,0.1-0.3c0-0.1,0-0.2,0-0.3c0,0,0-0.1,0-0.1c0,0,0-0.1,0-0.1c0-0.2-0.1-0.4-0.2-0.6
	c-0.1-0.2-0.2-0.5-0.3-0.7c-0.1-0.2-0.2-0.4-0.3-0.4c0,0,0,0,0,0h0c-0.1-0.1-0.2-0.2-0.3-0.2c-0.1-0.1-0.2-0.1-0.3-0.2
	c0,0-0.1,0-0.1,0c0,0-0.1,0-0.1,0.1c0,0.1-0.1,0.1-0.1,0.1c0,0-0.1,0.1-0.1,0.1c0,0,0,0,0,0c0,0,0,0-0.1,0.1
	c-0.1,0.1-0.1,0.2-0.2,0.3c-0.1,0.1-0.2,0.2-0.2,0.4c-0.1,0.2-0.2,0.4-0.3,0.6c0,0-0.1,0.1-0.1,0.1c0,0,0,0.1-0.1,0.1
	c0,0.1-0.1,0.2-0.1,0.2c0,0.1-0.1,0.1-0.1,0.2c0,0.1-0.1,0.2-0.1,0.3c0,0.1,0,0.2-0.1,0.3c0,0.1,0,0.2,0,0.2c0,0.1,0,0.1-0.1,0.2
	c-0.1,0.1-0.1,0.2-0.1,0.3c0,0.1,0,0.2,0,0.3c0,0.1,0,0.1,0,0.1c0,0,0,0.1,0,0.1c0,0.2,0.1,0.6,0.2,1c0.1,0.5,0.2,0.9,0.4,1.4v0
	c0,0-0.1,0.1-0.1,0.1c-0.1,0.1-0.2,0.2-0.3,0.3c-0.2,0.1-0.3,0.3-0.5,0.4c-0.2,0.1-0.4,0.3-0.5,0.4c-0.2,0.2-0.5,0.4-0.7,0.6
	c-0.2,0.2-0.5,0.3-0.7,0.5c-0.3,0.1-0.6,0.2-0.9,0.4c-0.3,0.2-0.6,0.2-0.8,0.3c-0.2,0-0.4,0-0.5-0.3c-0.1-0.1-0.1-0.2-0.1-0.3
	c0-0.1-0.1-0.2-0.2-0.3c-0.1-0.1-0.2-0.3-0.3-0.6c-0.1-0.2-0.2-0.5-0.4-0.8c-0.1-0.2-0.2-0.4-0.4-0.6c0,0-0.1-0.1-0.2-0.2
	c-0.1-0.1-0.1-0.1-0.2-0.2c0-0.1-0.1-0.3-0.1-0.5c0-0.2,0-0.4,0.1-0.6c0-0.1,0.1-0.2,0.1-0.2s0.1-0.2,0.1-0.2c0,0,0,0,0-0.1v0
	c0-0.1,0-0.1,0-0.2c0,0,0.1-0.1,0.1-0.2c0-0.1,0.1-0.1,0.1-0.2c0,0,0.1-0.1,0.1-0.1c0.1,0,0.1,0,0.1-0.1c0,0,0.1-0.1,0.1-0.2
	c0.1-0.1,0.1-0.3,0.1-0.4c0-0.1,0.1-0.3,0.1-0.4c0-0.1,0-0.2,0.1-0.3c0-0.1,0-0.2,0-0.3c0,0,0-0.1,0-0.1c0,0,0-0.1,0-0.1
	c0-0.2-0.1-0.4-0.2-0.6c-0.1-0.2-0.2-0.5-0.3-0.7c-0.1-0.2-0.2-0.4-0.3-0.4c0,0,0,0,0,0h0c-0.1-0.1-0.2-0.2-0.3-0.2
	c-0.1-0.1-0.2-0.1-0.3-0.2c0,0-0.1,0-0.1,0c0,0-0.1,0-0.1,0.1c0,0.1-0.1,0.1-0.1,0.1c0,0-0.1,0.1-0.1,0.1c0,0,0,0,0,0
	c0,0,0,0-0.1,0.1c-0.1,0.1-0.1,0.2-0.2,0.3c-0.1,0.1-0.2,0.2-0.2,0.4c-0.1,0.2-0.2,0.4-0.3,0.6c0,0-0.1,0.1-0.1,0.1
	c0,0,0,0.1-0.1,0.1c0,0.1-0.1,0.2-0.1,0.2c0,0.1-0.1,0.1-0.1,0.2c0,0.1-0.1,0.2-0.1,0.3c0,0.1,0,0.2-0.1,0.3c0,0.1,0,0.2,0,0.2
	c0,0.1,0,0.1-0.1,0.2c-0.1,0.1-0.1,0.2-0.1,0.3c0,0.1,0,0.2,0,0.3c0,0.1,0,0.1,0,0.1c0,0,0,0.1,0,0.1c0,0.2,0.1,0.6,0.2,1
	c0.1,0.5,0.2,0.9,0.4,1.4c0,0,0,0,0,0c0,0,0,0,0,0.1c-0.2,0.2-0.4,0.5-0.5,0.7c-0.2,0.2-0.3,0.4-0.5,0.6c-0.1,0.1-0.2,0.2-0.2,0.2
	c-0.1,0.1-0.2,0.2-0.2,0.2c-0.1,0.1-0.2,0.1-0.4,0.2c-0.1,0.1-0.2,0.1-0.3,0.2c-0.1,0.1-0.2,0.1-0.3,0.2c-0.1,0-0.2,0.1-0.3,0.2
	c-0.1,0-0.2,0.1-0.3,0.1c-0.1,0-0.2,0-0.3,0.1c-0.1,0-0.1,0-0.2,0c0,0-0.1-0.1-0.1-0.1c-0.1-0.1-0.1-0.3-0.2-0.4
	c0-0.1-0.1-0.3-0.1-0.4c0-0.2,0-0.4,0.1-0.7c0.1-0.2,0.2-0.3,0.2-0.5c0.1-0.2,0.2-0.3,0.2-0.4c0,0,0-0.1,0-0.1c0,0,0,0,0-0.1
	c0-0.2,0-0.3-0.1-0.5c0-0.2-0.1-0.3-0.2-0.4c-0.1-0.1-0.1-0.1-0.2-0.2c-0.1-0.1-0.2-0.2-0.3-0.2c-0.1,0-0.2,0-0.4,0
	c-0.1,0.2-0.2,0.4-0.3,0.6c-0.1,0.2-0.2,0.3-0.3,0.5c-0.1,0.1-0.2,0.2-0.2,0.4c-0.1,0.1-0.2,0.2-0.3,0.3c0,0-0.1,0.1-0.1,0.1
	c0,0-0.1,0.1-0.1,0.1c-0.1,0.1-0.1,0.2-0.2,0.3c-0.1,0.1-0.2,0.2-0.2,0.2c-0.2,0.1-0.4,0.3-0.6,0.5c-0.2,0.2-0.3,0.3-0.5,0.5
	c0,0,0,0,0,0c0,0,0,0-0.1,0c0,0,0-0.1,0-0.1c0,0,0,0,0,0c0.1-0.4,0.2-0.7,0.4-1.1c0,0,0-0.1,0.1-0.1c0,0,0-0.1,0.1-0.1
	c0-0.1,0.1-0.1,0.2-0.2c0-0.1,0.1-0.2,0.2-0.2c0.1-0.2,0.2-0.4,0.4-0.5c0.1-0.2,0.2-0.3,0.4-0.5c0.1-0.1,0.1-0.1,0.2-0.2
	c0.1,0,0.1-0.1,0.2-0.2c0.2-0.2,0.3-0.4,0.5-0.6c0.2-0.2,0.4-0.4,0.5-0.5v0c0.1-0.1,0.2-0.2,0.4-0.3c0.1-0.1,0.3-0.2,0.4-0.2
	c0.1-0.1,0.2-0.2,0.3-0.3s0-0.2,0-0.4c0,0,0-0.1,0-0.1c0,0,0-0.1,0-0.1c-0.1-0.1-0.2-0.2-0.2-0.3c-0.1-0.1-0.2-0.2-0.3-0.3
	c0,0,0,0-0.1,0c0,0-0.1,0-0.1,0c-0.1,0-0.2,0-0.2-0.1c-0.1,0-0.1-0.1-0.2-0.1h0c0,0,0,0,0,0c0-0.1-0.1-0.1-0.1-0.1
	c-0.1,0-0.1,0-0.2,0c0,0-0.1,0-0.1,0c0,0-0.1,0-0.1,0c-0.1,0-0.2,0-0.4-0.1c-0.1,0-0.2,0-0.3-0.1c0,0-0.1,0-0.1,0
	c-0.1,0-0.2,0-0.3,0c-0.1,0-0.2,0-0.3,0c0,0-0.1,0-0.2,0c0,0-0.1,0-0.1,0c-0.2,0.2-0.5,0.3-0.7,0.5c-0.2,0.2-0.4,0.3-0.6,0.5
	c-0.2,0.3-0.5,0.6-0.7,0.9c-0.2,0.3-0.5,0.6-0.7,0.9c0,0,0,0,0,0c0,0,0,0,0,0c-0.2,0.2-0.3,0.4-0.4,0.6c-0.1,0.2-0.2,0.3-0.3,0.5
	c-0.1,0.1-0.2,0.2-0.2,0.2c-0.2,0.2-0.4,0.4-0.7,0.7c-0.3,0.3-0.6,0.5-0.7,0.7c-0.2,0.2-0.3,0.4-0.5,0.6c-0.2,0.2-0.5,0.5-0.9,0.8
	c-0.4,0.3-0.7,0.5-0.9,0.8c-0.2,0.2-0.5,0.4-0.9,0.5c-0.3,0.2-0.7,0.3-1.1,0.5c-0.4,0.1-0.7,0.2-0.9,0.3c-0.1,0-0.3,0.1-0.6,0.1
	c-0.3,0.1-0.5,0.1-0.6,0c0,0-0.1-0.1-0.1-0.2c0-0.1-0.1-0.1-0.1-0.2c0-0.1-0.1-0.2-0.1-0.3c0-0.1-0.1-0.2-0.1-0.3
	c-0.1-0.2-0.1-0.4-0.1-0.7c0-0.1,0-0.2,0-0.3c0-0.1,0-0.2,0.1-0.2c0.1-0.3,0.2-0.6,0.2-0.8c0.1-0.3,0.2-0.5,0.3-0.8
	c0.1-0.3,0.2-0.5,0.4-0.8c0.1-0.2,0.2-0.5,0.4-0.8c0.2-0.4,0.4-0.8,0.7-1.2c0.1-0.2,0.3-0.3,0.4-0.5c0.1-0.2,0.3-0.4,0.4-0.6
	c0,0,0,0,0,0c0,0,0,0,0.1-0.1c0,0,0,0.1,0,0.1c0,0,0,0.1,0,0.1c-0.1,0.3-0.2,0.6-0.3,0.9c-0.1,0.3-0.2,0.6-0.3,0.9
	c0,0.1,0,0.2,0,0.2c0,0.1,0,0.1,0,0.2c0,0.1,0,0.2,0,0.2c0,0,0.1,0.1,0.1,0.1l0,0c0,0,0,0,0,0c0.1,0,0.2,0.1,0.3,0.1
	c0.1,0.1,0.2,0.1,0.3,0.2c0,0,0,0,0.1,0c0,0,0.1,0,0.1,0c0,0,0.1,0,0.1,0c0,0,0.1,0,0.1,0c0.1,0,0.2,0,0.2-0.1
	c0.1-0.1,0.1-0.2,0.2-0.2c0.1-0.3,0.2-0.5,0.3-0.8c0.1-0.3,0.2-0.6,0.2-0.9c0-0.1,0-0.2,0-0.2c0-0.1,0-0.2,0-0.2c0-0.2,0-0.3,0-0.4
	c0-0.2,0-0.3-0.1-0.5c0-0.1-0.1-0.2-0.1-0.3c0-0.1,0-0.2,0-0.3c0.1-0.1,0.1-0.2,0.2-0.3c0,0,0,0,0-0.1c0,0,0,0,0-0.1
	c0-0.1,0-0.1-0.1-0.2c0-0.1,0-0.1,0-0.2c0-0.1,0-0.1,0-0.2c0,0-0.1-0.1-0.1-0.1c0,0-0.1,0-0.1,0c0,0-0.1,0-0.1,0.1c0,0,0,0,0,0
	c0,0,0,0,0,0c0,0,0,0,0,0c0,0,0,0,0,0c-0.2-0.1-0.3-0.2-0.5-0.3c-0.2,0-0.4-0.1-0.5-0.1c0,0,0,0,0,0l0,0c-0.1,0-0.2,0-0.4,0
	c-0.1,0-0.2,0.1-0.4,0.1c0,0-0.1,0-0.2,0c0,0-0.1,0-0.1,0c-0.1,0-0.2,0-0.3,0.1c-0.1,0-0.2,0.1-0.3,0.2c-0.2,0.1-0.4,0.3-0.6,0.5
	c-0.2,0.2-0.4,0.3-0.6,0.5c-0.2,0.1-0.3,0.3-0.4,0.4c-0.1,0.2-0.3,0.4-0.4,0.6c0,0.1-0.1,0.1-0.1,0.2c0,0.1-0.1,0.1-0.1,0.2
	c-0.2,0.3-0.3,0.6-0.5,0.9c-0.2,0.3-0.3,0.6-0.5,1c0,0.1-0.1,0.2-0.1,0.4c0,0.1-0.1,0.2-0.1,0.3c-0.1,0.3-0.2,0.6-0.2,0.9
	c-0.3,0.4-0.6,0.7-0.7,1c-0.2,0.3-0.3,0.5-0.4,0.7c-0.1,0.2-0.3,0.4-0.6,0.6c-0.3,0.2-0.8,0.4-1.4,0.7c-0.1,0-0.2,0-0.3,0
	c-0.1,0-0.2,0-0.2-0.1c-0.1,0-0.2-0.1-0.3-0.1c-0.1,0-0.2-0.1-0.2-0.1c0-0.1-0.1-0.1-0.2-0.2c0-0.1-0.1-0.2-0.1-0.2
	c0-0.1,0-0.3,0-0.7c0-0.3,0-0.7,0.1-1c0-0.3,0-0.5,0-0.7c0-0.2,0-0.3,0-0.4c0-0.1,0-0.2,0.1-0.3c0-0.1,0.1-0.2,0.2-0.4
	c0,0,0-0.1,0.1-0.1c0,0,0-0.1,0-0.1c0-0.1,0-0.1-0.1,0.1c-0.1,0.1-0.1,0.3-0.2,0.4c-0.1,0.1-0.1,0.2-0.1,0c0.1-0.2,0.2-0.3,0.2-0.5
	c0-0.2,0.1-0.3,0.2-0.5c0-0.1,0-0.1,0.1-0.2c0-0.1,0.1-0.2,0.1-0.2c0.1-0.2,0.2-0.5,0.4-0.7c0.1-0.2,0.2-0.4,0.3-0.6
	c0-0.2,0.1-0.3,0-0.4c0-0.1,0-0.2-0.1-0.3c-0.1-0.1-0.2-0.2-0.3-0.2c-0.1-0.1-0.2-0.1-0.2-0.2c-0.1,0-0.3,0-0.5,0
	c-0.2,0.1-0.4,0.2-0.6,0.2c-0.2,0.1-0.3,0.2-0.5,0.2c0,0-0.1,0-0.1,0.1c0,0-0.1,0.1-0.1,0.1l0,0c0,0-0.1,0-0.1,0c0,0,0,0-0.1,0
	c0,0.1-0.1,0.2-0.1,0.2c0,0.1,0,0.1,0,0.2c0,0.1,0,0.2,0,0.3c0,0.1-0.1,0.2-0.1,0.3c0,0,0,0,0,0c0,0,0,0.1,0,0.1
	c-0.1,0.2-0.3,0.5-0.5,0.8c-0.2,0.3-0.4,0.7-0.5,1c-0.1,0.2-0.2,0.3-0.1,0.3c0,0,0.1-0.1,0.2-0.1c0.1-0.1,0.1-0.2,0.1-0.2
	c-0.1,0.1-0.1,0.2-0.2,0.3c0,0.1-0.1,0.2-0.2,0.3c0,0,0,0,0,0.1c0,0,0,0.1,0,0.1c-0.1,0-0.2,0.1-0.2,0.1c0,0,0,0.1-0.1,0.1
	c0,0.1,0,0.2,0,0.3c0,0.1,0,0.2-0.1,0.2c0,0.1-0.1,0.4-0.1,0.7c0,0.3,0,0.5-0.1,0.7c0,0.1,0,0.2,0,0.3c0,0.1,0,0.2,0,0.3
	c0,0.2,0,0.4,0.1,0.7c0.1,0.2,0.1,0.4,0.2,0.7c0.2,0.2,0.3,0.3,0.5,0.4c0.2,0.1,0.3,0.2,0.5,0.3c0.2,0.1,0.5,0.2,0.7,0.4
	c0.2,0.1,0.4,0.2,0.7,0.1c0.5,0.2,1,0.1,1.6-0.1c0.6-0.2,1.1-0.5,1.5-0.9c0.5-0.3,0.7-0.6,0.9-0.8c0.4-0.2,0.7-0.5,0.9-1
	c0-0.1,0.1-0.1,0.1-0.2c0,0.4,0.2,0.8,0.3,1.2s0.4,0.6,0.7,0.9c0.2,0.2,0.4,0.3,0.6,0.4s0.4,0.2,0.7,0.3c0.2,0.1,0.5,0.2,0.9,0.4
	c0.4,0.1,0.7,0.2,0.9,0.1c0.1,0,0.3,0,0.5,0c0.2,0,0.5,0,0.7,0c0.2,0,0.4,0,0.5,0s0.3,0,0.5-0.1c0.2-0.1,0.5-0.2,0.7-0.3
	c0.2-0.1,0.4-0.2,0.5-0.2c0.2-0.1,0.4-0.2,0.6-0.4c0.2-0.1,0.4-0.3,0.5-0.4c0.2-0.2,0.4-0.4,0.5-0.5c0.2-0.2,0.3-0.4,0.5-0.6
	c0.1-0.1,0.2-0.2,0.3-0.4c0.1-0.2,0.2-0.3,0.3-0.5c0,0,0,0,0,0c0,0,0,0,0-0.1c0.1-0.2,0.2-0.3,0.2-0.5c0.1-0.2,0.2-0.3,0.3-0.5
	c0.1-0.1,0.1-0.2,0.2-0.3c0.1,0.5,0.2,0.9,0.5,1.2c0.3,0.4,0.6,0.6,1.1,0.8c0.1,0,0.2,0.1,0.2,0.1c0.1,0,0.2,0.1,0.2,0.1
	c0.2,0.1,0.4,0.2,0.7,0.2c0.2,0,0.5,0,0.7-0.1c0.1,0,0.2-0.1,0.4-0.1c0.1,0,0.2-0.1,0.3-0.2l0,0c0,0,0,0,0,0c0.1,0,0.1-0.1,0.2-0.1
	c0,0,0.1-0.1,0.2-0.1c0.1-0.1,0.2-0.2,0.3-0.2c0.1-0.1,0.2-0.1,0.4-0.2c0.1,0.1,0.2,0.2,0.4,0.3c0.1,0.1,0.3,0.2,0.4,0.2
	c0,0,0.1,0,0.1,0c0,0,0,0,0.1,0c0.2,0.1,0.3,0.2,0.5,0.3c0.2,0,0.4,0.1,0.6,0.2c0.1,0,0.2,0,0.3,0c0.1,0,0.2,0,0.4-0.1
	c0.1,0,0.2,0,0.4-0.1c0.1,0,0.2-0.1,0.4-0.1c0.1,0,0.3,0,0.4-0.1c0.1,0,0.2-0.1,0.3-0.1c0.1,0,0.2-0.1,0.3-0.2
	c0.1-0.1,0.2-0.2,0.3-0.3c0.1-0.1,0.2-0.2,0.3-0.3c0,0,0-0.1,0.1-0.1c0,0,0,0,0.1,0c0.1,0,0.1-0.1,0.2-0.1c0.1,0,0.1-0.1,0.2-0.2
	c0,0,0-0.1,0.1-0.1c0,0,0.1-0.1,0.1-0.1c0-0.1,0.1-0.1,0.2-0.2c0-0.1,0.1-0.2,0.2-0.2c0,0,0,0,0,0c0,0,0,0,0,0c0,0,0.1,0.1,0.1,0.2
	c0.2,0.3,0.3,0.6,0.5,0.9c0.1,0.3,0.3,0.6,0.4,1c0.1,0.3,0.2,0.6,0.3,0.8c0,0.2,0,0.4-0.1,0.7c-0.1,0.2-0.4,0.5-0.8,0.9
	c-0.3,0.3-0.6,0.6-0.9,0.9c-0.3,0.3-0.5,0.7-0.8,1c-0.1,0.2-0.2,0.4-0.3,0.6c-0.1,0.2-0.2,0.4-0.2,0.6c0,0.1,0,0.2-0.1,0.3
	c0,0.1,0,0.2,0,0.2c0,0.2,0.1,0.3,0.1,0.5c0,0.2,0.1,0.3,0.2,0.4c0.1,0.1,0.1,0.1,0.1,0.2c0,0.1,0.1,0.2,0.1,0.3
	c0.1,0.1,0.1,0.2,0.2,0.2c0.1,0,0.2,0,0.3-0.1c0,0,0.1,0,0.1,0c0,0,0,0,0.1,0c0,0,0.1,0,0.1,0c0,0,0.1,0,0.1,0c0,0,0,0,0,0.1
	c0,0,0,0,0,0.1c0.1,0,0.1,0,0.1,0c0,0,0,0,0.1,0c0.1,0,0.2-0.1,0.3-0.1c0.1,0,0.2-0.1,0.2-0.1c0,0,0-0.1,0.1-0.1c0,0,0.1,0,0.1-0.1
	c0,0,0,0,0,0.1c0,0,0,0,0.1,0c0,0,0,0,0,0.1c0,0,0,0,0,0c0.1-0.1,0.2-0.2,0.3-0.2s0.1,0,0.1,0c-0.1,0.1-0.2,0.2-0.3,0.4
	c-0.1,0.1-0.2,0.3-0.3,0.4c0,0,0,0,0.1,0c0,0,0,0,0.1,0c0.1,0,0.2,0,0.3-0.1c0.1-0.1,0.2-0.2,0.3-0.2c0,0,0,0,0,0c0,0,0,0,0,0
	c0.1,0,0.2-0.1,0.3-0.2c0.1-0.1,0.2-0.1,0.3-0.2c0,0,0.1-0.1,0.1-0.2c0,0,0.1-0.1,0.1-0.2c0.1-0.1,0.2-0.2,0.4-0.4
	c0.2-0.2,0.4-0.4,0.5-0.6c0.2-0.2,0.3-0.4,0.4-0.5c0-0.1,0.1-0.2,0.2-0.3c0.1-0.1,0.1-0.2,0.2-0.3c0,0,0,0,0,0c0,0,0,0,0,0
	c0,0,0.1,0,0.1-0.1c0,0,0.1-0.1,0.1-0.1c0-0.1,0-0.2,0-0.4c0-0.1,0-0.3,0.1-0.4l0,0c0,0,0,0,0-0.1c0,0,0-0.1,0-0.1c0,0,0-0.1,0-0.1
	c0.1-0.2,0.1-0.4,0.1-0.5c0-0.1,0-0.2,0-0.3c0-0.1,0-0.2-0.1-0.4c0-0.3,0.1-0.5,0.2-0.6c0.2-0.1,0.4-0.2,0.7-0.4
	c0.2-0.1,0.5-0.2,0.7-0.4c0.1,0,0.1-0.1,0.2-0.1c0.1,0,0.1-0.1,0.2-0.1c0.2-0.1,0.3-0.3,0.5-0.4c0.2-0.2,0.3-0.3,0.5-0.4
	c0,0,0,0,0.1-0.1c0,0,0.1,0,0.1-0.1c0.2-0.2,0.5-0.4,0.7-0.6c0.1-0.1,0.1-0.1,0.2-0.2c0.1-0.1,0.1-0.1,0.2-0.2
	c0.1-0.1,0.2-0.2,0.2-0.3c0-0.1,0.1-0.2,0.2-0.3c0,0,0,0,0,0c0,0,0,0.1,0,0.1c0,0,0.1,0.1,0.1,0.2c0.2,0.3,0.3,0.6,0.5,0.9
	c0.1,0.3,0.3,0.6,0.4,1c0.1,0.3,0.2,0.6,0.3,0.8c0,0.2,0,0.4-0.1,0.7c-0.1,0.2-0.4,0.5-0.8,0.9c-0.3,0.3-0.6,0.6-0.9,0.9
	c-0.3,0.3-0.5,0.7-0.8,1c-0.1,0.2-0.2,0.4-0.3,0.6c-0.1,0.2-0.2,0.4-0.2,0.6c0,0.1,0,0.2-0.1,0.3c0,0.1,0,0.2,0,0.2
	c0,0.2,0.1,0.3,0.1,0.5c0,0.2,0.1,0.3,0.2,0.4c0.1,0.1,0.1,0.1,0.1,0.2c0,0.1,0.1,0.2,0.1,0.3c0.1,0.1,0.1,0.2,0.2,0.2
	c0.1,0,0.2,0,0.3-0.1c0,0,0.1,0,0.1,0c0,0,0,0,0.1,0c0,0,0.1,0,0.1,0c0,0,0.1,0,0.1,0c0,0,0,0,0,0.1c0,0,0,0,0,0.1
	c0.1,0,0.1,0,0.1,0c0,0,0,0,0.1,0c0.1,0,0.2-0.1,0.3-0.1c0.1,0,0.2-0.1,0.2-0.1c0,0,0-0.1,0.1-0.1c0,0,0.1,0,0.1-0.1c0,0,0,0,0,0.1
	c0,0,0,0,0.1,0c0,0,0,0,0,0.1c0,0,0,0,0,0c0.1-0.1,0.2-0.2,0.3-0.2c0,0,0.1,0,0.1,0c-0.1,0.1-0.2,0.2-0.3,0.4
	c-0.1,0.1-0.2,0.3-0.3,0.4c0,0,0,0,0.1,0c0,0,0,0,0.1,0c0.1,0,0.2,0,0.3-0.1c0.1-0.1,0.2-0.2,0.3-0.2c0,0,0,0,0,0c0,0,0,0,0,0
	c0.1,0,0.2-0.1,0.3-0.2c0.1-0.1,0.2-0.1,0.3-0.2c0,0,0.1-0.1,0.1-0.2s0.1-0.1,0.1-0.2c0.1-0.1,0.2-0.2,0.4-0.4
	c0.2-0.2,0.4-0.4,0.5-0.6c0.2-0.2,0.3-0.4,0.4-0.5c0-0.1,0.1-0.2,0.2-0.3c0.1-0.1,0.1-0.2,0.2-0.3c0,0,0,0,0,0c0,0,0,0,0,0
	c0,0,0.1,0,0.1-0.1c0,0,0.1-0.1,0.1-0.1c0-0.1,0-0.2,0-0.4c0-0.1,0-0.3,0.1-0.4l0,0c0,0,0,0,0-0.1c0,0,0-0.1,0-0.1c0,0,0-0.1,0-0.1
	c0.1-0.2,0.1-0.4,0.1-0.5c0-0.1,0-0.2,0-0.3c0-0.1,0-0.2-0.1-0.4c0-0.3,0.1-0.5,0.2-0.6c0.2-0.1,0.4-0.2,0.7-0.4
	c0.2-0.1,0.5-0.2,0.7-0.4c0.1,0,0.1-0.1,0.2-0.1c0.1,0,0.1-0.1,0.2-0.1c0.2-0.1,0.3-0.3,0.5-0.4c0.2-0.2,0.3-0.3,0.5-0.4
	c0,0,0,0,0.1-0.1s0.1,0,0.1-0.1c0.2-0.2,0.5-0.4,0.7-0.6c0.1-0.1,0.1-0.1,0.2-0.2c0.1-0.1,0.1-0.1,0.2-0.2c0.1-0.1,0.2-0.2,0.2-0.3
	c0,0,0-0.1,0-0.1c0.1,0.4,0.2,0.8,0.4,1c0.3,0.4,0.6,0.6,1.1,0.8c0.1,0,0.2,0.1,0.2,0.1c0.1,0,0.2,0.1,0.2,0.1
	c0.2,0.1,0.4,0.2,0.7,0.2c0.2,0,0.5,0,0.7-0.1c0.1,0,0.2-0.1,0.4-0.1c0.1,0,0.2-0.1,0.3-0.2l0,0c0,0,0,0,0,0c0.1,0,0.1-0.1,0.2-0.1
	c0,0,0.1-0.1,0.2-0.1c0.1-0.1,0.2-0.2,0.3-0.2c0.1-0.1,0.2-0.1,0.4-0.2c0.1,0.1,0.2,0.2,0.4,0.3c0.1,0.1,0.3,0.2,0.4,0.2
	c0,0,0.1,0,0.1,0c0,0,0,0,0.1,0c0.2,0.1,0.3,0.2,0.5,0.3c0.2,0,0.4,0.1,0.6,0.2c0.1,0,0.2,0,0.3,0c0.1,0,0.2,0,0.4-0.1
	c0.1,0,0.2,0,0.4-0.1c0.1,0,0.2-0.1,0.4-0.1c0.1,0,0.3,0,0.4-0.1c0.1,0,0.2-0.1,0.3-0.1c0.1,0,0.2-0.1,0.3-0.2
	c0.1-0.1,0.2-0.2,0.3-0.3c0.1-0.1,0.2-0.2,0.3-0.3c0,0,0-0.1,0.1-0.1c0,0,0,0,0.1,0c0.1,0,0.1-0.1,0.2-0.1c0.1,0,0.1-0.1,0.2-0.2
	c0,0,0-0.1,0.1-0.1c0,0,0.1-0.1,0.1-0.1c0-0.1,0.1-0.1,0.2-0.2c0-0.1,0.1-0.2,0.2-0.2c0,0,0.1,0,0.1-0.1c0,0,0.1-0.1,0.1-0.1
	c0.1-0.1,0.2-0.2,0.3-0.5c0.1-0.3,0.2-0.5,0.2-0.6c-0.1-0.1-0.2-0.2-0.2-0.2c-0.1-0.1-0.2-0.1-0.3-0.1c0,0,0,0,0,0c0,0,0,0,0,0
	c-0.2,0.2-0.3,0.3-0.5,0.6c-0.2,0.2-0.4,0.5-0.5,0.7c-0.2,0.2-0.3,0.4-0.5,0.6c-0.1,0.1-0.2,0.2-0.2,0.2c-0.1,0.1-0.2,0.2-0.2,0.2
	c-0.1,0.1-0.2,0.1-0.4,0.2c-0.1,0.1-0.2,0.1-0.3,0.2c-0.1,0.1-0.2,0.1-0.3,0.2c-0.1,0-0.2,0.1-0.3,0.2c-0.1,0-0.2,0.1-0.3,0.1
	c-0.1,0-0.2,0-0.3,0.1c-0.1,0-0.1,0-0.2,0c0,0-0.1-0.1-0.1-0.1c-0.1-0.1-0.1-0.3-0.2-0.4c0-0.1-0.1-0.3-0.1-0.4c0-0.2,0-0.4,0.1-0.7
	c0.1-0.2,0.2-0.3,0.2-0.5c0.1-0.2,0.2-0.3,0.2-0.4c0,0,0-0.1,0-0.1c0,0,0,0,0-0.1c0-0.2,0-0.3-0.1-0.5c0-0.2-0.1-0.3-0.2-0.4
	c-0.1-0.1-0.1-0.1-0.2-0.2c-0.1-0.1-0.2-0.2-0.3-0.2c-0.1,0-0.2,0-0.4,0c-0.1,0.2-0.2,0.4-0.3,0.6c-0.1,0.2-0.2,0.3-0.3,0.5
	c-0.1,0.1-0.2,0.2-0.2,0.4c-0.1,0.1-0.2,0.2-0.3,0.3c0,0-0.1,0.1-0.1,0.1c0,0-0.1,0.1-0.1,0.1c-0.1,0.1-0.1,0.2-0.2,0.3
	c-0.1,0.1-0.2,0.2-0.2,0.2c-0.2,0.1-0.4,0.3-0.6,0.5c-0.2,0.2-0.3,0.3-0.5,0.5c0,0,0,0,0,0c0,0,0,0-0.1,0c0,0,0-0.1,0-0.1
	c0,0,0,0,0,0c0.1-0.4,0.2-0.7,0.4-1.1c0,0,0-0.1,0.1-0.1c0,0,0-0.1,0.1-0.1c0-0.1,0.1-0.1,0.2-0.2c0-0.1,0.1-0.2,0.2-0.2
	c0.1-0.2,0.2-0.4,0.4-0.5c0.1-0.2,0.2-0.3,0.4-0.5c0.1-0.1,0.1-0.1,0.2-0.2c0.1,0,0.1-0.1,0.2-0.2c0.2-0.2,0.3-0.4,0.5-0.6
	c0.2-0.2,0.4-0.4,0.5-0.5v0c0.1-0.1,0.2-0.2,0.4-0.3c0.1-0.1,0.3-0.2,0.4-0.2c0.1-0.1,0.2-0.2,0.3-0.3c0-0.1,0-0.2,0-0.4
	c0,0,0-0.1,0-0.1c0,0,0-0.1,0-0.1c-0.1-0.1-0.2-0.2-0.2-0.3c-0.1-0.1-0.2-0.2-0.3-0.3c0,0,0,0-0.1,0c0,0-0.1,0-0.1,0
	c-0.1,0-0.2,0-0.2-0.1c-0.1,0-0.1-0.1-0.2-0.1h0c0,0,0,0,0,0c0-0.1-0.1-0.1-0.1-0.1c-0.1,0-0.1,0-0.2,0c0,0-0.1,0-0.1,0
	c0,0-0.1,0-0.1,0c-0.1,0-0.2,0-0.4-0.1c-0.1,0-0.2,0-0.3-0.1c0,0-0.1,0-0.1,0c-0.1,0-0.2,0-0.3,0c-0.1,0-0.2,0-0.3,0
	c0,0-0.1,0-0.2,0c0,0-0.1,0-0.1,0c-0.2,0.2-0.5,0.3-0.7,0.5C202.5,21.1,202.3,21.3,202.1,21.5z M183.8,31.8c0,0.2-0.1,0.3-0.1,0.5
	c0,0.2-0.1,0.3-0.1,0.4c0,0.2-0.1,0.3-0.2,0.4c-0.1,0.2-0.1,0.3-0.2,0.4c0,0,0,0.1,0,0.1c0,0,0,0-0.1,0.1c-0.1,0.2-0.2,0.4-0.3,0.5
	c-0.1,0.1-0.2,0.2-0.4,0.4c-0.1,0.1-0.1,0.1-0.2,0.2c-0.1,0.1-0.1,0.1-0.2,0.2c-0.1,0.1-0.1,0.1-0.2,0.2c-0.1,0-0.1,0.1-0.2,0.1
	c-0.1,0.1-0.1,0.1-0.2,0.1c-0.1,0-0.1,0-0.2-0.1c-0.1-0.1-0.1-0.2-0.2-0.2c-0.1-0.1-0.1-0.1-0.2-0.2c0,0-0.1-0.1-0.1-0.2
	c0-0.1,0-0.1,0-0.2c0-0.1,0-0.2,0.1-0.2c0-0.1,0-0.2,0-0.3c0-0.1,0.1-0.2,0.1-0.2c0-0.1,0.1-0.1,0.2-0.2c0.1,0,0.1-0.1,0.2-0.2
	c0-0.1,0.1-0.1,0.1-0.2c0-0.1,0.1-0.2,0.2-0.3c0.1-0.1,0.2-0.2,0.3-0.2c0.1,0,0.1,0,0.2-0.1c0,0,0.1-0.1,0.1-0.1
	c0.1-0.2,0.3-0.4,0.6-0.6c0.2-0.2,0.5-0.4,0.7-0.5c0.2-0.1,0.3,0,0.3,0.3c0,0,0,0,0,0.1C183.8,31.7,183.8,31.8,183.8,31.8z
	 M192.5,31.6C192.5,31.7,192.5,31.7,192.5,31.6c0,0.1,0,0.1,0,0.1c0,0.2-0.1,0.3-0.1,0.5c0,0.2-0.1,0.3-0.1,0.4
	c0,0.2-0.1,0.3-0.2,0.4c-0.1,0.2-0.1,0.3-0.2,0.4c0,0,0,0.1,0,0.1c0,0,0,0-0.1,0.1c-0.1,0.2-0.2,0.4-0.3,0.5
	c-0.1,0.1-0.2,0.2-0.4,0.4c-0.1,0.1-0.1,0.1-0.2,0.2c-0.1,0.1-0.1,0.1-0.2,0.2c-0.1,0.1-0.1,0.1-0.2,0.2c-0.1,0-0.1,0.1-0.2,0.1
	c-0.1,0.1-0.1,0.1-0.2,0.1c-0.1,0-0.1,0-0.2-0.1c-0.1-0.1-0.1-0.2-0.2-0.2c-0.1-0.1-0.1-0.1-0.2-0.2c0,0-0.1-0.1-0.1-0.2
	c0-0.1,0-0.1,0-0.2c0-0.1,0-0.2,0.1-0.2c0-0.1,0-0.2,0-0.3c0-0.1,0.1-0.2,0.1-0.2c0-0.1,0.1-0.1,0.2-0.2c0.1,0,0.1-0.1,0.2-0.2
	c0-0.1,0.1-0.1,0.1-0.2c0-0.1,0.1-0.2,0.2-0.3c0.1-0.1,0.2-0.2,0.3-0.2c0.1,0,0.1,0,0.2-0.1c0,0,0.1-0.1,0.1-0.1
	c0.1-0.2,0.3-0.4,0.6-0.6c0.2-0.2,0.5-0.4,0.7-0.5C192.4,31.2,192.5,31.3,192.5,31.6z"/>
<path class="st8" d="M51.8,32.7c0,0,0.1,0,0.1,0c-0.7-0.3-1.4-0.4-2.3-0.4c-0.1,0,0,0.1,0.2,0.2C50.1,32.7,50.7,32.7,51.8,32.7z
	 M39.8,31.8c0,0,0.1,0,0.1,0c-0.7-0.3-1.4-0.4-2.3-0.4c-0.1,0,0,0.1,0.2,0.2C38.1,31.7,38.7,31.8,39.8,31.8z M51.6,25.2
	c0.7,0.1,1.3,0.2,1.8,0.2c0.5,0,0.8,0,0.7,0c-1.2-0.6-2.2-0.8-3-0.7c-0.8,0.1-1,0.2-0.9,0.2C50.5,25,50.9,25.1,51.6,25.2z
	 M43.9,24.3c-0.1,0-0.1,0-0.1,0.1c0,0.1,0.6,0.2,1.7,0.2c1.1,0.1,1.8,0.2,2.2,0.2c0.3,0.1,0.5,0.1,0.4,0
	C46.8,24.4,45.5,24.2,43.9,24.3z M37.6,24.1c0.1,0,0.6,0.1,1.4,0.3c0.9,0.2,1.6,0.2,2.1,0.3c0.5,0,0.7,0,0.7,0
	C40.6,24,39.2,23.8,37.6,24.1C37.5,24,37.5,24,37.6,24.1z M43,27.1c-0.1,0.1,0.1,0.2,0.6,0.3c0.5,0.1,1.1,0.2,1.8,0.4
	c0.7,0.1,1.2,0.2,1.5,0.1c0.3-0.1,0.1-0.2-0.4-0.5c-0.5-0.3-1-0.4-1.6-0.5C43.9,26.8,43.2,26.9,43,27.1z"/>
</svg>
