<?xml version="1.0" encoding="utf-8"?>
<!-- Generator: Adobe Illustrator 23.0.1, SVG Export Plug-In . SVG Version: 6.00 Build 0)  -->
<svg version="1.1" id="Слой_1" xmlns="http://www.w3.org/2000/svg" xmlns:xlink="http://www.w3.org/1999/xlink" x="0px" y="0px"
	 viewBox="0 0 84.7 58.5" style="enable-background:new 0 0 84.7 58.5;" xml:space="preserve">
<style type="text/css">
	.st0{fill:#FFFFFF;}
	.st1{fill:#FFC90E;}
	.st2{fill:#EADCBB;}
	.st3{fill:#F49943;}
	.st4{fill:#F9E04D;}
	.st5{fill:#DB5434;}
	.st6{fill:#F24317;}
	.st7{fill:#331B1D;}
	.st8{fill:#8B0015;}
</style>
<path class="st0" d="M70.9,38.8c-5.7-1.5-14.9-2.2-24.7-2.8c-2-0.1-4-0.2-6-0.4c-1.4-0.1-2.8-0.1-4.4-0.1C24.2,35.5,10.2,38,10,38
	l-0.7,0.1L6.5,21.3l-0.2,0.3l-1.4-0.9l6.1-14.4l7.8,6.2v-2.5l0-0.1C18.9,9,20.1,7,23.1,7c0.2,0,0.5,0,0.7,0c1.9,0.2,3.1,0.8,3.9,1.4
	L28,0.9l13,0.6l0.2,6.2l19.6,1.8l0.2-1.1l-6-0.2l16.4-5.9l9.6,11.2l-3.7-0.8L71.6,39L70.9,38.8z"/>
<path class="st0" d="M28.6,1.6l11.6,0.5l0.2,6.2l20.9,1.9l0.4-2.4l-3.2-0.1l12.6-4.5l8,9.3l-2.4-0.5L71,38.2
	c-6.9-1.9-18.5-2.3-30.7-3.2c-1.4-0.1-2.9-0.1-4.5-0.1c-11.8,0-25.9,2.5-25.9,2.5L6.8,19.5L6,20.7l-0.4-0.2l5.5-13l8.2,6.6v-3.8
	c0,0,0.5-2.6,3.7-2.6c0.2,0,0.4,0,0.6,0C27.2,8,28.3,10,28.3,10L28.6,1.6z M27.3,0.2l0,1.4l-0.2,5.7c-0.8-0.4-1.9-0.8-3.2-0.9
	c-0.3,0-0.5,0-0.8,0c-3.4,0-4.8,2.4-5,3.6l0,0.1v0.1v1L12,6.4l-1.4-1.1L9.9,7L4.4,20l-0.5,1.1l1,0.6l0.4,0.2l0.6,0.4l2.6,15.3
	l0.2,1.3l1.3-0.2c0.1,0,14.2-2.5,25.7-2.5c1.6,0,3.1,0,4.4,0.1c2,0.1,4,0.3,6,0.4c9.7,0.6,18.9,1.2,24.5,2.8l1.4,0.4l0.3-1.4
	l5.3-24.9l1.1,0.2l4,0.9L80,11.6l-7.9-9.3l-0.6-0.7l-0.9,0.3L58,6.4l-4.7,1.7L41.8,7l-0.1-5l0-1.3l-1.3-0.1L28.7,0.2L27.3,0.2z"/>
<path class="st1" d="M60.1,18.6C60.1,18.6,60.1,18.6,60.1,18.6l-19.6-1.5l-0.1,17.8c0.4,0,0.8,0,1.2,0.1c1.3,0,3.2,0.1,5.8,0.3
	c3.7,0.3,6,0.4,7,0.4c0.9-0.1,1.5-0.1,1.7-0.1l2.2-9.5c0.4-1.7,0.7-3,1.1-4.1C59.6,20.9,59.9,19.7,60.1,18.6
	C60.1,18.6,60.1,18.6,60.1,18.6z M57.8,20.6C57.8,20.6,57.8,20.6,57.8,20.6c0,1.2,0,2.2,0,3.3c0,0.3-0.1,0.7-0.2,0.9
	c-0.1,0.1-0.2,0.2-0.3,0.1c-0.8-0.3-1.6-0.4-2.4-0.3c-0.1,0-0.1,0-0.1-0.1c-0.1-0.5-0.1-1.1,0-1.6c0.2-0.8,0.2-1.5,0.2-2.4
	c0-0.2,0.1-0.3,0.3-0.3C56.2,20.3,57,20.4,57.8,20.6z M53.8,28.7c0-0.1,0-0.1,0.1-0.1c0.1,0,0.1,0,0.2,0c0.7-0.1,1.2,0,1.5,0.6
	c0.3,0.4,0.3,0.9,0.1,1.5c-0.1,0.3-0.1,0.7,0,1c0.1,0.4,0,0.7-0.1,1c-0.1,0.1-0.1,0.1-0.2,0.1c-0.5-0.2-0.9-0.3-1.5-0.3
	c-0.2,0-0.4-0.1-0.5-0.3c-0.1-0.3-0.1-0.6,0-0.9c0.1-0.2,0.2-0.4,0.2-0.7C53.6,29.9,53.7,29.3,53.8,28.7z M43.1,19.6
	C43.2,19.6,43.2,19.6,43.1,19.6c0.9-0.1,1.7,0.1,2.3,0.5c0.1,0,0.1,0.1,0.1,0.2c0,1.3-0.2,2.6-0.3,3.8c0,0.1-0.1,0.1-0.1,0.1
	c-0.7-0.1-1.5-0.2-2.1-0.4c-0.1,0.1-0.2,0.1-0.5,0.1c-0.1,0-0.1,0-0.1-0.2c0-0.1,0-0.3,0-0.4c0.1-0.6,0.2-1.1,0.2-1.7
	c0-0.2,0-0.5,0-0.8c0-0.4,0.1-0.8,0.4-1.1c0,0,0-0.1,0-0.1C43,19.6,43,19.6,43.1,19.6z M41.8,27.6C41.8,27.6,41.9,27.6,41.8,27.6
	c0.5,0.1,0.9,0.2,1.3,0.2c0.3,0,0.5,0.2,0.6,0.4c0.1,0.3,0.1,0.6,0.1,0.9c0,0.8-0.1,1.6-0.3,2.4c0,0.1,0,0.1-0.1,0.1
	c-0.8,0.1-1.4,0-1.9-0.5c0,0-0.1-0.1-0.1-0.2c0.1-1.1,0.2-2.2,0.3-3.2C41.7,27.7,41.8,27.6,41.8,27.6z M52,20.3
	c0.1,0,0.1,0.1,0.1,0.2c0,1.3-0.2,2.6-0.3,3.8c0,0.1-0.1,0.1-0.2,0.1c-0.7-0.1-1.4-0.2-2.1-0.4c-0.1,0.1-0.2,0.1-0.5,0.1
	c-0.1,0-0.1,0-0.1-0.1c-0.2-0.1-0.3-0.3-0.2-0.6c0.1-0.6,0.2-1.2,0.2-1.8c0.1-0.5,0.2-1.1,0.4-1.6c0-0.1,0.1-0.2,0.2-0.2
	c0,0,0,0,0,0c0,0,0.1-0.1,0.2-0.1c0,0,0,0,0.1,0C50.7,19.8,51.4,20,52,20.3z M45.8,27.4c0,0,0.1,0,0.1-0.1c0,0,0.1,0,0.1,0
	c1.8,0.3,3.5,0.6,5.3,1c0.6,0.1,0.9,0.5,0.9,1.1v0c0,0,0,0,0,0.1c0,1.8-0.2,3.6-0.7,5.3c-0.1,0.4-0.2,0.6-0.3,0.4
	c-2.1,0.2-4.1,0.1-6-0.3c0,0-0.1-0.1,0-0.2c0,0,0-0.1,0-0.1c0-0.3,0.1-0.6,0.1-0.9l0.1-3.9c0-0.1,0-0.3,0-0.4c0-0.1,0-0.2,0-0.3
	C45.3,28.4,45.5,27.8,45.8,27.4C45.8,27.4,45.8,27.4,45.8,27.4z"/>
<path class="st2" d="M45.9,27.3c0,0-0.1,0-0.1,0.1l0,0c-0.3,0.4-0.5,1-0.5,1.7c0,0.1,0,0.1,0,0.2c0,0.2,0,0.3,0,0.5l-0.1,3.9
	c0,0.3-0.1,0.6-0.1,0.9c0,0,0,0.1,0,0.1c0,0,0,0.1,0,0.1c1.9,0.4,3.9,0.5,6,0.3c0.1,0.1,0.2,0,0.3-0.4c0.4-1.7,0.6-3.5,0.7-5.3
	c0,0,0,0,0,0c0-0.7-0.3-1-0.9-1.1C49.5,27.9,47.8,27.5,45.9,27.3C46,27.3,46,27.3,45.9,27.3z M52.1,20.6c0-0.1,0-0.2-0.1-0.2
	c-0.6-0.4-1.3-0.5-2.2-0.5c0,0,0,0-0.1,0c-0.1,0-0.1,0-0.2,0.1c0,0,0,0,0,0c-0.1,0-0.2,0-0.2,0.2c-0.2,0.5-0.3,1-0.4,1.6
	c-0.1,0.6-0.2,1.2-0.2,1.8c0,0.3,0,0.5,0.2,0.6c0,0.1,0.1,0.1,0.1,0.1c0.2,0,0.4,0,0.5-0.1c0.7,0.2,1.4,0.4,2.1,0.4
	c0.1,0,0.1,0,0.2-0.1C51.9,23.1,52,21.9,52.1,20.6z M50.9,20.7L50.9,20.7C50.9,20.8,50.9,20.8,50.9,20.7z M41.9,27.6
	C41.9,27.6,41.9,27.6,41.9,27.6c-0.2,0-0.2,0-0.2,0.1c-0.1,1.1-0.2,2.1-0.3,3.2c0,0.1,0,0.1,0.1,0.2c0.5,0.4,1.2,0.6,1.9,0.5
	c0.1,0,0.1,0,0.1-0.1c0.2-0.8,0.3-1.5,0.3-2.4c0-0.3,0-0.6-0.1-0.9c-0.1-0.3-0.2-0.4-0.6-0.4C42.7,27.8,42.3,27.7,41.9,27.6z
	 M43.2,19.6C43.2,19.6,43.2,19.6,43.2,19.6c-0.2,0-0.2,0.1-0.3,0.1c0,0,0,0.1,0,0.1c-0.2,0.3-0.3,0.6-0.4,1.1c0,0.3,0,0.5,0,0.8
	c-0.1,0.6-0.2,1.1-0.2,1.7c0,0.1-0.1,0.2,0,0.4c0,0.1,0,0.2,0.1,0.2c0.2,0,0.4,0,0.5-0.1c0.7,0.2,1.4,0.4,2.1,0.4
	c0.1,0,0.1,0,0.1-0.1c0.2-1.2,0.3-2.5,0.3-3.8c0-0.1,0-0.2-0.1-0.2C44.8,19.7,44.1,19.5,43.2,19.6z M44.3,20.4L44.3,20.4
	C44.4,20.5,44.3,20.5,44.3,20.4z M53.9,28.6c-0.1,0-0.1,0.1-0.1,0.1c-0.1,0.6-0.2,1.2-0.3,1.8c0,0.2-0.1,0.4-0.2,0.7
	c-0.1,0.3-0.1,0.6,0,0.9c0.1,0.2,0.3,0.3,0.5,0.3c0.5,0,1,0.1,1.5,0.3c0.1,0,0.2,0,0.2-0.1c0.2-0.3,0.2-0.6,0.1-1
	c-0.1-0.3-0.1-0.7,0-1c0.2-0.5,0.2-1-0.1-1.5c-0.3-0.5-0.8-0.7-1.5-0.6C54.1,28.6,54,28.6,53.9,28.6z M57.8,20.7
	C57.8,20.7,57.8,20.6,57.8,20.7c-0.9-0.3-1.7-0.4-2.5-0.5c-0.2,0-0.3,0.1-0.3,0.3c0,0.8-0.1,1.6-0.2,2.4c-0.1,0.5-0.1,1.1,0,1.6
	c0,0.1,0,0.1,0.1,0.1c0.8,0,1.6,0.1,2.4,0.3c0.1,0,0.2,0,0.3-0.1c0.2-0.3,0.2-0.6,0.2-0.9C57.8,22.8,57.8,21.8,57.8,20.7z
	 M49.2,13.4c-0.1,0-0.1,0-0.1,0.1c-0.2,0.4-0.4,0.9-0.5,1.4c0,0.1,0,0.2,0.1,0.2c1,0.5,2.1,0.8,3.3,0.9c0.1,0,0.2,0,0.3,0
	c0.4-0.3,0.5-0.8,0.4-1.5c0.4-0.6,0.2-0.9-0.6-0.9C51.1,13.5,50.2,13.4,49.2,13.4z"/>
<path class="st3" d="M50.9,20.7L50.9,20.7C50.9,20.8,50.9,20.8,50.9,20.7z M44.4,20.4L44.4,20.4C44.3,20.5,44.4,20.5,44.4,20.4z
	 M40.4,35c-0.1,0-0.1,0-0.2,0v0C40.3,35,40.3,35,40.4,35C40.4,35,40.4,35,40.4,35C40.4,35,40.4,35,40.4,35z"/>
<path class="st4" d="M56.9,17.8c0,0.1,0,0.2,0.1,0.2c0.5,0.2,1,0.2,1.6,0.3c0.1,0,0.2,0,0.3,0.1c0.3,0.2,0.6,0.2,0.9,0
	c0,0,0.1,0,0.1-0.1c0.3-0.2,0.3-0.4,0-0.6c0.8-2.4,1.2-4.9,1.4-7.4l-8.2-0.5c-3-0.2-5.1-0.4-6.4-0.5c-2.4-0.3-4.5-0.6-6.4-0.9
	c-0.1,1-0.2,1.8-0.2,2.4c0,0.6,0,1.4,0,2.3c0.1,0.9,0,2.1,0,3.4L56.9,17.8z M49.1,13.5c0,0,0.1-0.1,0.1-0.1c0.9,0,1.9,0.1,2.8,0.2
	c0.8,0.1,1,0.4,0.6,0.9c0.1,0.7,0,1.1-0.4,1.5c-0.1,0-0.2,0.1-0.3,0c-1.2-0.1-2.3-0.4-3.3-0.9c-0.1,0-0.1-0.1-0.1-0.2
	C48.7,14.4,48.9,13.9,49.1,13.5z"/>
<path class="st5" d="M60.1,18.5C60.1,18.5,60.1,18.5,60.1,18.5h-0.6c-0.1,0-0.3,0-0.4,0L40.4,17v1.2c2.1,0,4.2,0.1,6.2,0.4
	c2.1,0.3,4.2,0.4,6.5,0.4c2.3,0,3.9,0,5,0.2c1.1,0.2,1.6,0.2,1.8,0.3C60,19.1,60.1,18.8,60.1,18.5C60.1,18.5,60.1,18.5,60.1,18.5z"
	/>
<path class="st6" d="M56.9,17.8c0,0.1,0,0.2,0.1,0.2c0.5,0.2,1,0.2,1.6,0.3c0.1,0,0.2,0,0.3,0.1c0.1,0,0.2,0.1,0.2,0.1
	c0.1,0,0.3,0.1,0.4,0c0.1,0,0.2,0,0.3-0.1c0,0,0.1,0,0.1-0.1c0.3-0.2,0.3-0.4,0-0.6c0.8-2.4,1.2-4.9,1.4-7.4l-8.2-0.5
	c-3-0.2-5.1-0.4-6.4-0.5c-2.4-0.3-4.5-0.6-6.4-0.9c-0.1,1-0.2,1.8-0.2,2.4c0,0.6,0,1.4,0,2.3c0.1,0.9,0,2.1,0,3.4L56.9,17.8z
	 M49.1,13.5c0,0,0.1-0.1,0.1-0.1c0.9,0,1.9,0.1,2.8,0.2c0.8,0.1,1,0.4,0.6,0.9c0.1,0.7,0,1.1-0.4,1.5c-0.1,0-0.2,0.1-0.3,0
	c-1.2-0.1-2.3-0.4-3.3-0.9c-0.1,0-0.1-0.1-0.1-0.2C48.7,14.4,48.9,13.9,49.1,13.5z"/>
<path class="st2" d="M49.2,13.4c-0.1,0-0.1,0-0.1,0.1c-0.2,0.4-0.4,0.9-0.5,1.4c0,0.1,0,0.2,0.1,0.2c1,0.5,2.1,0.8,3.3,0.9
	c0.1,0,0.2,0,0.3,0c0.4-0.3,0.5-0.8,0.4-1.5c0.4-0.6,0.2-0.9-0.6-0.9C51.1,13.5,50.2,13.4,49.2,13.4z"/>
<path d="M42.3,16.7C42.3,16.7,42.4,16.7,42.3,16.7C42.3,16.6,42.3,16.6,42.3,16.7C42.3,16.7,42.3,16.7,42.3,16.7z M50.2,17
	c0.1,0.1,0.1,0.2,0.2,0.2c0.1-0.1,0.2-0.1,0.3-0.2C50.5,17.1,50.3,17.1,50.2,17z M53.2,10.1l-0.1,0.1c0.1,0,0.2,0,0.2,0
	C53.3,10.2,53.3,10.1,53.2,10.1z M53.6,17.4c0,0,0.1,0,0.1-0.1c-0.1,0-0.1,0-0.2,0C53.6,17.3,53.6,17.4,53.6,17.4z M53.6,12.1
	c0-0.1,0-0.1,0-0.1c0-0.1,0-0.2,0-0.2c-0.2,0-0.9-0.2-2-0.3c0,0,0,0,0,0c-1.6-0.2-2.4-0.3-2.4-0.3c0,0,0,0,0,0c0,0,0,0.1,0,0.2
	c0.2,0.2,0.3,0.4,0.4,0.6c-0.1-0.2-0.2-0.4-0.4-0.6c-0.1,0.5-0.2,1-0.2,1.3c-0.1,0.4-0.1,0.6-0.1,0.6c-0.1,0.5-0.2,1-0.3,1.3
	c0,0,0,0,0,0.1c0,0,0,0,0,0.1c-0.2,0.7-0.2,1-0.1,1c0.1,0,0.2,0,0.2,0c0.3,0.1,0.6,0.2,0.9,0.4h0c0.1-0.1,0.2-0.2,0.3-0.3
	c-0.1,0.1-0.2,0.2-0.3,0.3c0.7,0.2,1.4,0.4,2.2,0.4c0.1-0.1,0.3-0.1,0.4-0.2c0.1-0.1,0.2-0.1,0.3-0.2c-1.3-0.2-2.4-0.5-3.3-0.7
	c-0.1,0-0.2,0-0.2-0.1c0,0,0,0,0-0.1c0,0,0,0,0,0c-0.1-0.2,0.1-0.6,0.4-1.4c1.2,0.2,2.4,0.3,3.5,0.4c0,0,0,0,0,0
	c0,0.2,0,0.7-0.2,1.4c0,0.2,0,0.3,0,0.5c0-0.1,0.1-0.1,0.1-0.2c0,0.1,0,0.1-0.1,0.2c0,0,0,0,0,0c0,0,0,0,0,0
	c-0.1,0.1-0.2,0.2-0.3,0.2c-0.1,0.1-0.3,0.1-0.4,0.2c0.2,0,0.5,0,0.8,0c0.2,0,0.2,0,0.3-0.1l0,0c-0.1-0.1-0.2-0.2-0.2-0.3
	c0.1,0.1,0.2,0.2,0.2,0.3c0-0.1,0.1-0.2,0.1-0.4c0-0.1,0.1-0.4,0.2-0.8c-0.1,0.1-0.2,0.2-0.4,0.2c0.1-0.1,0.2-0.2,0.4-0.2
	c0.1-0.3,0.2-0.7,0.3-1.1c0-0.1,0-0.2,0-0.4c0,0,0-0.1,0-0.2C53.5,12.8,53.6,12.4,53.6,12.1z M49.7,11.7
	C49.7,11.7,49.7,11.6,49.7,11.7c0.8,0,1.4,0.1,2,0.2c0.7,0.1,1.2,0.2,1.5,0.4c-0.2,0.4-0.2,0.8-0.3,1.3c-1.2-0.1-2.3-0.3-3.5-0.6
	C49.6,12.4,49.7,12,49.7,11.7z M59.1,10.5L59.1,10.5c-0.1,0-0.1,0-0.1,0C59,10.5,59,10.5,59.1,10.5z M61.9,6.2
	c-1.4,0.5-2.3,1-2.7,1.4c-0.5,0.4-0.7,0.7-0.6,0.7c0,0,0.3,0.1,0.7,0.1c0.5,0,0.9,0,1.2-0.2c0.4-0.2,0.7-0.3,1.1-0.4c0,0,0,0,0,0
	c-0.1,0.8-0.2,1.5-0.3,2.3c0,0-0.5,0-1.6,0C58.8,10,57.6,9.9,56,9.8c-0.7-0.1-1.5-0.1-2.2-0.2c-2.6-0.2-5-0.5-7.2-0.7
	c-2.7-0.3-4.7-0.4-5.8-0.5l-0.3,0c0.3,0,0.6,0.1,0.9,0.2c0,0,0.1,0,0.1,0c0.8,0.1,1.5,0.3,2.3,0.4c0.3,0,0.6,0.1,0.9,0.1
	c-0.1-0.1-0.1-0.2-0.2-0.3c0.1,0.1,0.1,0.2,0.2,0.3c0.7,0.1,1.4,0.2,2.1,0.3c0.1-0.1,0.2-0.2,0.4-0.3c-0.1,0.1-0.3,0.2-0.4,0.3
	c0.3,0,0.5,0.1,0.8,0.1c-0.1-0.2-0.2-0.3-0.3-0.4c0.1,0.1,0.2,0.3,0.3,0.4c0.8,0.1,1.6,0.2,2.4,0.3c0.1-0.2,0.3-0.3,0.4-0.5
	c-0.1,0.2-0.2,0.3-0.4,0.5c0.3,0,0.6,0.1,0.9,0.1c0-0.1,0-0.1,0-0.2c0,0.1,0,0.1,0,0.2c0.7,0.1,1.4,0.2,2.2,0.2l0.1-0.1c0,0,0,0,0,0
	c0,0,0,0,0,0c0,0,0.1,0.1,0.1,0.2c0,0,0.1,0,0.1,0c0.9,0.1,1.7,0.2,2.6,0.2c0.1-0.1,0.3-0.2,0.4-0.3c-0.1,0.1-0.2,0.2-0.4,0.3
	c0.2,0,0.4,0,0.7,0c0,0,0-0.1,0-0.1c0,0,0,0.1,0,0.1c0.8,0,1.5,0,2.3,0c0,0,0,0,0.1,0l-0.3-0.3l0.3,0.3l0,0c0.7,0,1.5,0,2.2-0.1
	c0,0.2-0.1,0.5-0.1,0.7c-0.1,0.5-0.2,1.1-0.3,1.6c0,0.1,0.1,0.1,0.1,0.2c0-0.1-0.1-0.1-0.1-0.2c0,0,0,0.1,0,0.1
	c-0.1,0.4-0.2,0.9-0.2,1.3c-0.1,0.4-0.2,0.8-0.2,1.2c0.1,0.1,0.2,0.2,0.3,0.3c-0.1-0.1-0.2-0.2-0.3-0.3c-0.1,0.5-0.2,1.1-0.3,1.5
	l0.1-0.1L60,16.9c0,0.2-0.1,0.4-0.1,0.6c0.1,0.1,0.2,0.3,0.4,0.4c-0.1-0.1-0.2-0.3-0.4-0.4c0,0.2-0.1,0.4-0.1,0.7
	c0,0.1-0.1,0.2-0.1,0.4c-0.5-0.2-1-0.3-1.6-0.4c-0.1,0-0.1,0.1-0.2,0.1c0.1,0,0.2-0.1,0.2-0.1c-0.5-0.1-0.9-0.2-1.4-0.3
	c-0.9-0.2-1.9-0.3-2.8-0.4c0,0-0.1,0-0.1,0.1c0,0,0,0,0,0c0,0.1,0.2,0.3,0.3,0.4c-0.2-0.2-0.3-0.3-0.3-0.4c0,0,0,0,0,0
	c-0.2,0.1-0.5,0.3-0.7,0.4c0.2-0.1,0.5-0.2,0.7-0.4c0,0,0-0.1,0-0.1c-0.1,0-0.2,0-0.4,0c-0.9-0.1-1.7-0.1-2.6-0.2
	c-0.1,0.1-0.2,0.1-0.3,0.2c0,0,0.1,0.1,0.1,0.1c0,0-0.1-0.1-0.1-0.1c0,0,0,0,0,0c0,0,0,0,0,0c0-0.1-0.1-0.2-0.2-0.2
	C49.6,17,49,17,48.3,17c-0.1,0.1-0.2,0.1-0.4,0.2c0.1,0,0.3-0.1,0.4-0.2c-0.3,0-0.5,0-0.8,0c0.2,0.2,0.3,0.4,0.5,0.7
	c-0.2-0.2-0.3-0.4-0.5-0.7c-0.6,0-1.3-0.1-1.9-0.1c0,0-0.1,0.1-0.1,0.1c0,0,0.1,0,0.1-0.1c-0.5,0-0.9,0-1.4-0.1
	c-0.6,0-1.2,0-1.7-0.1c0,0-0.1,0-0.1,0c0.1,0.1,0.2,0.2,0.2,0.3c0-0.1-0.1-0.2-0.2-0.3c-0.1,0.1-0.3,0.1-0.4,0.2
	c0.1-0.1,0.3-0.1,0.4-0.2c0,0,0,0,0,0c-0.5,0-1,0-1.6-0.1c0-0.5,0-1.1,0-1.6c0-0.8,0-1.7,0-2.5c-0.1,0.1-0.1,0.2-0.2,0.2
	c0.1-0.1,0.1-0.2,0.2-0.2c0-0.4,0-0.8,0-1.2c0-0.7,0-1.3-0.1-2c0,0,0,0,0,0c0,0-0.1,0.1-0.2,0.2c-0.1,0.1-0.1,0.2-0.2,0.2
	c0.1,0,0.1-0.1,0.2-0.2c0.1-0.1,0.2-0.2,0.2-0.2c0,0,0,0,0,0c-0.1-2.3-0.2-4.6-0.3-7c0,0,0,0,0,0c0,0,0,0,0,0c0.1,0,0.2,0,0.1-0.1
	c0,0-0.1,0-0.1,0c0-0.1,0-0.2,0-0.2c0,0.1,0,0.2,0,0.2c-0.2,0-0.3-0.1-0.4-0.1c-2.1-0.1-4.1-0.2-6.2-0.4c-1.5-0.1-3.1-0.2-4.7-0.1
	c-0.1,0-0.2,0.1-0.2,0.2c0,0-0.1,0.1-0.1,0.1c-0.1,2.7-0.2,5.3-0.2,7.9c0,0.1,0,0.2,0,0.3c0,0,0,0,0-0.1c-1.3-1.6-3-2.4-5.2-2.4
	c-1.4,0-2.5,0.4-3.3,1.4c-0.2,0.3-0.4,0.5-0.5,0.8c0,0,0,0,0-0.1c0,0,0,0.1,0,0.1c0,0.2,0,0.4,0,0.7c0,1.1,0,2.2,0,3.4
	c-0.3-0.3-0.9-0.8-1.7-1.5c-1.9-1.6-3.4-2.8-4.5-3.6c-1.1-0.8-1.7-1.2-1.8-1.3c-0.1-0.1-0.1-0.1-0.2-0.1l0,0c0,0-0.1,0-0.1,0
	c-0.1,0-0.2,0.1-0.2,0.2c0,0-0.1,0.1-0.1,0.2c-0.6,1.6-1.3,3.2-1.9,4.7c-1.1,2.7-2.2,5.4-3.2,8c0,0,0.1,0.1,0.1,0.1c0,0,0.1,0,0.2,0
	c0,0,0.1,0,0.1,0c0.3-0.4,0.6-0.8,0.8-1.3c0.6,3.8,1.2,7.7,1.7,11.8c0.2,1.8,0.5,3.4,1,4.9c0.1,0.2,0.1,0.5,0.2,0.7c0,0,0,0.1,0,0.1
	c0.3,0.1,0.5,0.1,0.8,0.2c0,0,0,0,0.1,0c0.5-0.1,1.6-0.3,3.3-0.5c1.9-0.2,4.2-0.6,6.9-0.9l-0.2,0c1.1-0.2,2-0.3,2.7-0.4
	c0,0,0.1,0,0.2,0c0.3,0,0.6,0,0.8-0.1c0.4,0,0.7,0,0.9,0c0.3,0,1,0,2.1-0.1h0c1.2-0.1,2.8-0.2,4.8-0.4c0.1,0,0.2,0,0.3,0
	c2.2-0.1,4-0.1,5.5,0c0.7,0,1.2,0,1.6,0.1c0.2,0,0.4,0,0.5,0c0,0,0,0,0,0h0v0c0,0,0,0,0.1,0c0.6,0,1.7,0.1,3.4,0.2
	c1.7,0.2,2.8,0.3,3.4,0.4c0.6,0.1,1.3,0.2,2.2,0.2c0.7,0,1.4,0,2.2,0.1h0c0.1,0,0.2,0,0.3,0c0,0,0,0,0,0c0.8,0,0.9,0,0.4,0
	c-0.1,0-0.1,0-0.2,0c0.8,0.1,1.7,0.1,2.5,0.2c0.9,0,1.7,0,2.3,0c0.7,0.1,1.2,0.1,1.4,0.2c0.2,0,0.4,0.1,0.5,0.1l0.2,0
	c0.1,0,0.2,0,0.2,0c1.2,0.2,2.5,0.4,3.9,0.6c1.6,0.3,3.4,0.6,5.3,0.9c0.9,0.2,1.7,0.2,2.6,0.3c0,0,0,0,0.1,0h0c0,0,0.1-0.1,0.2-0.2
	v0c0.2-0.4,0.5-1.5,0.6-3.1c0.2-1.6,0.6-3.5,1.3-5.7c0.7-2.2,1.2-4.1,1.5-5.9c0.1-0.6,0.2-1.2,0.4-1.8c0.1,0,0.1-0.1,0-0.1
	c0.6-2.9,1.1-5.9,1.7-8.8c0-0.2,0.1-0.4,0-0.6c0.5,0.2,0.9,0.3,1.2,0.4c0.1,0,0.2,0.1,0.3,0.1c0.1,0,0.2,0,0.2,0c0,0,0,0,0,0
	c0,0,0.2,0,0.4,0c0.2,0-0.1-0.4-0.9-1.4C77.1,10,76,8.7,74.5,6.8c-1.4-1.8-2.5-3-3.2-3.5c0-0.1-0.2-0.2-0.3-0.3c0,0,0,0,0,0
	c0,0,0,0,0,0c0,0-0.4,0.1-1.2,0.2c-0.8,0.2-2,0.6-3.5,1.1C64.8,5.1,63.3,5.7,61.9,6.2z M61.3,7.2c-0.5,0.1-1.2,0.2-2.1,0.5
	c1.1-0.5,1.9-0.8,2.3-0.9c0.5-0.1,2.3-0.6,5.4-1.5L71,4c-0.2,0-0.2,0.1-0.1,0.1c0.1,0.2,0.3,0.3,0.6,0.5c0.5,0.4,1.2,1.1,2.2,2
	c1,1,1.8,2,2.4,2.9c0.6,0.9,1,1.5,1.2,2c-2.2-2.4-4.5-4.7-6.9-6.9c-0.1,0-0.1,0.1-0.2,0.1C67.2,5.6,64.3,6.4,61.3,7.2z M69.5,5.7
	c0.3-0.1,0.6-0.2,0.8-0.3C71.1,6.3,72,7.2,72.9,8c1.2,1,2.3,2.1,3.3,3.3c0,0.2-0.1,0.5-0.1,0.9c-0.1,1-0.4,2.8-0.9,5.6
	c-0.2,1.1-0.4,2.2-0.7,3.4c-1-0.3-2.7-0.6-5-1c-2.4-0.4-5.4-1-9-1.7c0,0-0.1,0-0.1,0c0.1-0.6,0.2-1.2,0.4-1.8c0.2-1,0.4-2,0.6-3.1
	c0.2-0.8,0.3-1.5,0.5-2.3c0.1-0.4,0.2-1.3,0.5-2.6c0.1-0.5,0.2-0.8,0.2-1.1C64.8,6.8,67.1,6.2,69.5,5.7z M60.2,19
	C60.2,19,60.2,19,60.2,19c0-0.1,0-0.2,0-0.2c0.1,0,0.1,0.1,0.2,0.1c0.7,0.2,1.5,0.4,2.3,0.5c3.7,0.5,7.3,1.2,10.8,2.1
	c0.3,0.1,0.6,0.1,0.9,0c0,0.2-0.1,0.5-0.2,0.7c-1.1-0.3-2.8-0.6-5.2-1c-2.4-0.4-5.4-1-8.9-1.9C60.2,19.3,60.2,19.1,60.2,19z
	 M57.5,18.7c0.9,0.1,1.5,0.2,2,0.2c-0.1,0.3-0.1,0.6-0.2,0.9c-0.4,1.8-0.8,3.7-1.2,5.5c0,0,0,0-0.1,0c-0.1-0.1-0.3-0.2-0.4-0.2
	c0,0,0,0,0,0c0,0,0,0,0,0c0,0,0,0,0,0c0,0,0,0,0,0c0-0.1,0-0.6,0.1-1.5c0-1,0.1-1.7,0.2-2.1c0.1-0.4,0.2-0.6,0.2-0.7l0,0
	c0,0,0,0,0,0c-0.9-0.5-1.9-0.7-3-0.5c-0.1,0-0.1,0-0.1,0.1c0,0.1-0.1,0.1,0,0.1c-0.3,1.3-0.5,2.5-0.5,3.8c0,0,0,0,0,0.1
	c0,0,0,0.1,0,0.1c0,0.1,0.1,0.2,0.2,0.2v0c0.1-0.2,0.2-0.5,0.2-1c0-0.3,0-0.7,0-1c0,0,0.1,0,0.1,0c0.4,0,0.7,0,1.1,0
	c0,0.3-0.1,0.7-0.1,1c-0.1,0.3-0.1,0.7-0.1,1c-0.6-0.1-1-0.1-1.3,0c0,0-0.1,0-0.1,0c-0.2,0-0.4,0-0.6,0.1c-0.1,0-0.1,0-0.2,0.1
	c-0.2,0.2-0.1,0.3,0.1,0.4c0.8,0.1,1.6,0.2,2.5,0.3c0.5,0,1,0,1.5,0c0,0,0.1,0,0.1,0c-0.2,1.2-0.5,2.3-0.7,3.5
	c-0.2,1.3-0.5,2.7-0.9,4c-0.2-0.1-0.4-0.2-0.7-0.2c0-0.1,0-0.3,0-0.6c0-0.4,0-0.9,0.1-1.6c0.1-0.7,0-1.2-0.2-1.4
	c-0.5-0.5-1.1-0.7-2-0.6c0,0,0,0,0,0c-0.1,0-0.1,0-0.2,0c0,0-0.1,0-0.1,0c-0.2,0.9-0.4,1.9-0.4,2.9c0,0.3,0,0.5,0.1,0.7
	c-0.1,0-0.2,0-0.3,0c0,0-0.1,0-0.2,0.1c-0.2,0.2-0.1,0.3,0.3,0.3c0.4,0,0.9,0.1,1.6,0.2c0.7,0.1,1.2,0.2,1.5,0.2c0.1,0,0.2,0,0.3,0
	c-0.1,0.8-0.3,1.5-0.5,2.3c0,0.2,0,0.3-0.1,0.4c-1.4-0.2-2.8-0.3-4.2-0.4c0.2-1,0.3-2.1,0.5-3.3c0.2-1.3,0.2-2.2,0-2.8
	c-0.1-0.6-0.8-1.3-2-2.1c-1.2-0.8-2.7-0.7-4.7,0.3c-0.2-0.1-0.4,0.7-0.6,2.4c-0.2,2-0.3,3.7-0.1,5.1c-1.5-0.1-2.9-0.2-4.4-0.2
	c0,0,0,0-0.1,0c0.1-3.5,0.2-7,0.3-10.4c0.1-2.7,0.2-4.6,0.3-5.7c0-0.2,0-0.5,0.1-0.6c0.3-0.3,1.6-0.4,3.6-0.3c0.8,0,1.8,0.1,2.8,0.2
	C51.4,18,54.7,18.3,57.5,18.7z M60,20c0-0.1,0-0.1,0-0.2c0.8,0.2,1.6,0.4,2.5,0.6c3.6,0.8,7.2,1.5,10.8,2.2c0.3,0,0.5,0,0.8,0
	c-0.3,1.4-0.7,2.8-1.2,4.3c-0.2,0.8-0.5,1.6-0.7,2.5c0,0.1,0,0.2,0,0.2c-0.1,0.5-0.2,0.9-0.4,1.3c-0.2,0.9-0.4,1.8-0.5,2.6
	c-0.2,0.9-0.4,1.8-0.7,2.6c-0.5,1-1.8,1.2-3.8,0.5c0.5-2.1,1.2-4.2,1.9-6.3c0.2-1,0.2-1.7,0.2-2c-0.4-1.8-1.6-2.7-3.6-2.6
	c-0.2,0-0.5,0.1-0.7,0.2c-0.8,0.3-1.5,0.7-2,1.4c0,0,0,0-0.1,0c-0.3,0.6-0.6,1.2-0.8,1.8c-0.7,2-1.3,4-1.6,6.2c0,0.1,0,0.1,0,0.2
	c-0.8-0.1-1.6-0.2-2.3-0.2c0.3,0,0.2,0-0.1,0c-0.4,0-0.6,0-0.6,0c-0.3,0-0.5,0-0.6,0c0.6-1.5,1-3,1.3-4.4c0.2-1.2,0.5-2.3,0.7-3.5
	C59,24.9,59.5,22.5,60,20z M56.3,20.4c-0.1,0.2-0.1,0.4-0.1,0.7c0,0.4,0.1,0.8,0.1,1.2L55,22.1c0-0.1,0-0.3,0-0.4
	c0.1-0.7,0.2-1.1,0.3-1.3C55.7,20.4,56,20.4,56.3,20.4z M56.5,21.6c0-0.4,0-0.8,0-1.2c0.2,0,0.3,0,0.5,0.1c0.4,0.1,0.7,0.2,0.8,0.2
	c0,0.3-0.1,0.7-0.1,1.3c0,0.2,0,0.3,0,0.5l-0.9-0.1C56.6,22.2,56.5,22,56.5,21.6z M56.4,24.6c0,0,0.1-0.4,0.2-1.2
	c0.1-0.4,0.1-0.7,0.1-0.8c0.4,0,0.7,0.1,1,0.1c0,0.4-0.1,0.8-0.1,1.1c-0.1,0.5,0,0.9,0.1,1.1C57.5,24.8,57.1,24.7,56.4,24.6
	C56.4,24.6,56.4,24.6,56.4,24.6z M54.2,29.9c-0.3-0.1-0.5-0.2-0.5-0.1c0-0.3,0-0.6,0.1-0.9c0.7,0,1.4,0.1,1.9,0.5c0,0.3,0,0.6,0,0.8
	C55,30.1,54.6,30,54.2,29.9z M63.8,27.4c0.3-0.3,0.6-0.5,0.9-0.7c0.5-0.3,1-0.3,1.5-0.2c-0.6,1.1-1,2.2-1.3,3.5
	c-0.4,2.1-0.9,4.1-1.6,6.1c0,0,0,0-0.1,0c-0.1,0-0.2,0-0.2,0c-0.8-0.1-1.6-0.3-2.3-0.4c0-0.2,0.1-0.6,0.1-1c0.2-1.6,0.7-3.2,1.4-4.8
	C63.1,28.2,63.6,27.4,63.8,27.4z M66.5,28c0.2-0.5,0.2-1,0.1-1.3c0.4,0.1,0.7,0.4,1.1,0.7c0.5,0.5,0.7,1.1,0.5,1.6l0.1-0.1
	c-0.1,0.7-0.2,1.1-0.3,1.5c-0.6,2-1.1,4-1.6,6.1c0,0.1,0,0.2,0,0.2c-0.7-0.1-1.4-0.2-2-0.4c0.1-0.2,0.2-0.4,0.2-0.7
	C64.9,33,65.6,30.5,66.5,28z M53.6,30.8c0-0.1,0-0.3,0-0.4c0.3,0.1,1,0.2,2,0.2c0,0.4-0.1,0.7-0.1,0.9c-0.1,0.3-0.1,0.6,0,0.9
	c0,0.1,0,0.1,0,0.2c-0.6-0.2-1.2-0.3-1.8-0.4C53.7,31.9,53.6,31.4,53.6,30.8z M27.7,9.9c0,0,0.1,0.2,0.3,0.4
	c0.2,0.2,0.3,0.4,0.3,0.3c0,0,0,0.2,0,0.7c0,0.5,0,1.5,0.1,3.2c-0.2,0-0.4,0-0.6,0c-0.1,0-0.3,0-0.5,0c-0.2,0-0.5,0-0.7,0.1
	c0,0-0.1,0-0.1,0c-0.4,0-0.8,0.1-1.3,0.1c-0.4,0-0.9,0-1.3,0c-0.5,0-0.9,0-1.4,0c-0.4,0-0.8,0-1.2,0c-0.1,0-0.2,0-0.2,0
	c-0.1,0-0.2,0-0.4,0c-0.1,0-0.3,0-0.6,0.1c-0.1-2.4-0.3-3.9-0.4-4.5c0.2-0.3,0.3-0.5,0.5-0.7c0.3-0.3,0.6-0.6,0.9-0.8
	c0.4-0.2,0.8-0.3,1.2-0.4c0.4-0.1,0.9-0.1,1.4,0c0.1,0,0.2,0,0.4,0c0.3,0,0.6,0.1,0.9,0.2C25.5,8.7,26,8.8,26.4,9c0,0,0,0,0,0
	c0,0,0.1,0,0.1,0C27.1,9.3,27.5,9.6,27.7,9.9z M28.4,14.8C28.4,14.9,28.4,14.9,28.4,14.8c0,0.5,0,1.1,0,1.6h0c-0.2,0-0.4,0-0.6,0
	c-0.4,0-0.8,0.1-1.1,0.1c0,0-0.1,0-0.1,0c-0.5,0-0.9,0.1-1.3,0.1c-0.5,0-0.9,0-1.3,0.1c-0.5,0-1,0-1.3,0c-0.2,0-0.3,0-0.4,0
	c-0.3,0-0.5,0-0.7,0c0,0-0.1,0-0.1,0c-0.4,0-0.7,0.1-0.9,0.1c-0.1-0.6-0.2-1.2-0.3-1.8c0,0,0.1,0,0.1,0c0.6,0,0.9,0.1,1.1,0.1
	c0.2,0,0.4,0,0.7,0c0.2,0,0.3,0,0.5,0c0.5,0,0.9,0,1.4,0c0.4,0,0.9,0,1.3,0c0.1,0,0.3,0,0.4,0c0.3,0,0.6,0,0.8,0c0,0,0.1,0,0.1,0
	c0.5,0,0.9-0.1,1.2-0.1C28.1,14.9,28.3,14.9,28.4,14.8z M27.5,16.8c0.1,0,0.2,0,0.3,0c0.3,0,0.5-0.1,0.5-0.1c0,0,0,0,0,0
	c0,0.2,0,0.4,0,0.5c0,1.1,0,2.2-0.1,3.2l-0.4,0.1c-0.4,0-0.6,0-0.7-0.1c-0.1,0-0.2,0-0.3,0c0,0-0.1,0-0.1,0c-0.4,0-0.8,0-1.3,0
	c-0.4,0-0.9,0-1.3,0c-0.5,0-0.9,0-1.3,0c-0.1,0-0.2,0-0.3,0c0,0,0,0-0.1,0c-0.3,0-0.6,0-0.8,0c-0.3,0-0.5,0.1-0.7,0.1
	c-0.2-1.2-0.3-2.4-0.5-3.5c0.2,0,0.5,0.1,0.9,0.1c0.1,0,0.2,0,0.4,0c0.2,0,0.4,0,0.5,0c0.2,0,0.2,0,0.3,0c0.5,0,0.9-0.1,1.3-0.1
	c0.4,0,0.9-0.1,1.3-0.1c0.4,0,0.8-0.1,1.3-0.1c0,0,0.1,0,0.1,0C27,16.8,27.3,16.8,27.5,16.8z M19.4,14.6c0,0.4,0,0.8,0.1,1.2
	c-0.2,0-0.3,0-0.5,0c-2.2,0-4,0.2-5.6,0.7c-1.6,0.4-2.8,0.8-3.8,1.1c-1,0.3-1.6,0.4-1.8,0.3c1-2.6,1.8-4.7,2.5-6.4
	c0.7-1.7,1.1-2.6,1.3-2.7C12,9,12.4,9.4,13.1,9.9c1.9,1.3,3.7,2.7,5.5,4.1C18.6,14,18.9,14.2,19.4,14.6
	C19.4,14.6,19.4,14.6,19.4,14.6z M18.3,16.1c0.9-0.2,1.4,0,1.5,0.5c0.1,0.5,0.4,2.4,0.7,5.6c0.3,3.2,0.7,7.4,1.1,12.5
	c-0.4,0-1.6,0.2-3.7,0.8c0-0.3,0-0.8-0.1-1.4c-0.2-1.9-0.6-3.7-1.1-5.3c0,0-0.1,0-0.1,0c0,0,0,0,0,0c-0.2,0-0.8,0.2-1.7,0.3
	c-0.9,0.2-1.5,0.4-1.7,0.6L12.9,30c0,0,0,0,0,0.1c0,0-0.1,0.1-0.1,0.2c0,0.8,0.1,1.6,0.2,2.5c0.2,0.9,0.2,2,0.3,3.3
	c-0.2,0-1.1,0-2.6,0c-0.2,0-0.4,0-0.6,0c0-0.1,0-0.2,0-0.3c-0.3-1.7-0.5-3.3-0.7-5c-0.1-0.8-0.2-1.6-0.3-2.4c0.8,0,3.2-0.3,7.3-0.9
	c4.1-0.6,5.2-1,3.3-1.3c-1.7,0.2-3.4,0.4-5.2,0.7c-1.8,0.3-3.6,0.7-5.4,1.2c-0.5-3-1.2-6-2.1-8.8v0c0,0,0,0,0,0c0,0,0,0,0,0
	C7.3,19.1,7.7,19,8,18.9c3.3-1.1,5.6-1.8,6.9-2.1C16.3,16.5,17.4,16.3,18.3,16.1z M24.6,20.9c0.3,0,0.6,0,0.9,0c0.1,0,0.3,0,0.4,0
	c0,0.2,0,0.5,0,1c0,0-0.1,0-0.1,0c-0.4,0-0.7,0-1.1,0L24.6,20.9z M24.2,20.9C24.2,20.9,24.2,20.9,24.2,20.9
	C24.2,20.9,24.2,20.9,24.2,20.9c-0.1,0.3-0.2,0.6-0.1,1c-0.3,0-0.6,0-0.9-0.1c-0.3-0.2-0.4-0.5-0.3-0.9
	C23.4,20.9,23.8,20.9,24.2,20.9z M21.7,21c0.2,0,0.5,0,0.8,0c0,0.3,0,0.5,0,0.8c-0.5,0-0.9,0.1-1.3,0.4c0-0.4-0.1-0.7-0.1-0.9
	C21.1,21.1,21.3,21,21.7,21z M25.7,28.2c-0.7,0-1.4,0.1-2.1,0.2c0-0.8,0-1.7,0-2.5c0-0.8-0.1-1.4-0.5-1.9c1.4,0.2,2.4,0.2,3,0.2
	c0.7-0.1,1-0.1,1,0c0,1.3-0.1,2.7-0.1,4C26.7,28.2,26.2,28.2,25.7,28.2z M23.7,28.8c0.7,0.2,1.4,0.3,2.2,0.2
	c0.5-0.1,0.9-0.2,1.3-0.3c0,0.9-0.1,1.7-0.1,2.5c0,1.2-0.1,2.2-0.1,3.1c0,0.1,0,0.2,0,0.4c-0.4,0-0.8,0-1.2,0v0c-0.4,0-0.8,0-1.2,0
	c-0.3,0-0.5,0-0.8,0.1c0-0.1,0-0.2,0-0.4c0-0.2,0-0.9,0-2.2C23.6,30.9,23.6,29.8,23.7,28.8z M26.5,21c0.1,0,0.2,0,0.3,0
	c0,0,0.1,0,0.1,0c0.5,0,0.9,0.1,1.1,0.1c0.2,0,0.3,0,0.3,0c0,0.2-0.1,0.5-0.1,0.8c-0.1,0-0.2,0-0.2,0c-0.5,0-1,0-1.5,0.1
	c-0.1,0-0.2-0.2-0.2-0.5C26.4,21.1,26.5,21,26.5,21z M32.1,26.6c0,0.1,0,0.2,0,0.2c0.3,0,0.6,0,0.9,0.1c0.3,0.1,0.6,0.3,0.8,0.6
	c0,0,0-0.1-0.1-0.1c0.2,1.1,0.2,2,0.2,2.8h0.3h-0.3c-0.1,1.3-0.1,2.7,0,4c-0.5,0-1.1,0-1.7,0c-0.5,0-1.1,0-1.6,0
	c0-1.3,0.1-2.6,0.1-4h-0.4h0.4c0-0.1,0-0.6,0-1.3c0-0.5,0.1-0.9,0.2-1.2c0-0.1,0.1-0.2,0.1-0.2c0.1-0.1,0.2-0.2,0.2-0.2
	c0.1-0.1,0.2-0.2,0.3-0.2c0.2-0.1,0.4-0.2,0.7-0.2C32.1,26.7,32.1,26.7,32.1,26.6z M45.8,27.4c0.7,0.2,1.5,0.3,2.2,0.4
	c0,0.8,0,1.9,0,3.2c0,1.3-0.2,2.6-0.8,3.9c-0.7,0-1.4-0.1-2.1-0.1c0.1-0.6,0.2-1.5,0.2-2.8C45.5,30.7,45.6,29.2,45.8,27.4z
	 M48.5,27.9c1,0.2,2,0.3,3,0.4c0.2,0.7,0.2,2.1,0,4.1c-0.2,2.1-0.2,3-0.2,2.7c-0.4-0.1-0.7-0.1-0.9-0.1c-0.8,0-1.6-0.1-2.5-0.1
	c0-0.1,0.1-0.3,0.1-0.5C48.4,33.5,48.5,31.3,48.5,27.9z M14.6,29.8c0.7-0.2,1.2-0.2,1.6,0c0,0.6,0.1,1.2,0.2,1.8
	c0.2,1.4,0.4,2.8,0.8,4c-1.1,0.1-2.3,0.2-3.4,0.3c0.1-0.5,0.2-1,0.1-1.6c-0.2-1.4-0.4-2.7-0.7-4C13.5,30.2,14,30,14.6,29.8z
	 M37.8,2.4c1.1,0,1.8-0.1,2.2-0.2c-0.2,0.4-0.3,2.6-0.2,6.6c0.1,4.9,0.1,7.6,0.1,8.1c0,0.3,0,0.6,0,0.9c0,0,0,0,0,0
	c0,0.4,0,0.9,0,1.3c0.1,5.4,0.2,10.5,0.4,15.3c-0.2-0.1-1-0.1-2.4-0.1c-0.9,0-1.9,0-3.2,0c-0.1,0.1-0.2-0.3-0.2-1.2
	c0-0.9,0-1.9,0.1-3.2c0-1.1-0.1-2.1-0.5-2.8c0,0.1,0,0.1,0,0.2l0-0.3c-0.1-0.1-0.1-0.2-0.2-0.3c-0.3-0.4-0.8-0.6-1.4-0.5
	c-0.4,0-0.8,0.1-1.3,0.2c-0.5,0.1-0.9,0.4-1.1,0.9c0,0,0,0.1,0,0.2c0,0,0,0,0,0c0,0,0,0.1,0,0.1c0,0.1,0,0.4,0,0.9
	c0,0.2,0,0.4,0,0.7c0,0.9-0.1,2-0.1,3.1c0,1.1-0.1,1.8-0.1,2.1c-0.2,0-0.4,0-0.5,0c0-1.7,0-3.4,0-5.1c0-1.9,0-3.9,0-5.8
	C29.2,16.1,29.1,9,29,2h0l-0.2-0.1c0.1,0,0.1,0,0.2,0C32.9,2.4,35.9,2.5,37.8,2.4z M23.6,23.7c-0.2,0-0.3,0-0.3,0.1
	c-0.1,0.1-0.1,0.2-0.1,0.2c0,0,0,1.2,0,3.5c0,2.3,0,4.1,0,5.2c0,1.1,0,1.8,0.1,2.1c-0.5,0.1-0.9,0.2-1.4,0.3c-0.2-1.8-0.3-4-0.3-6.6
	c0-2.6-0.1-4.6-0.3-6.2c0.5,0,1,0,1.6,0c0.9,0,1.7,0,2.5,0c0.8,0,1.5,0,1.9,0c0.4,0,0.7,0,0.9,0c0,0,0,0.1,0.1,0.2v-0.2
	c0.1,2.4,0.1,4.8,0.2,7.4c0,1.6,0.1,3.2,0.2,4.9c-0.4,0-0.7,0-1.1,0c0-0.1,0.1-1,0-2.5c0-0.5,0-1,0-1.5c0-1.1,0-2.4,0-3.7
	c0-2-0.1-3-0.1-3.2c0-0.1-0.1-0.2-0.1-0.2c0,0,0,0,0,0c-0.3,0-1.6,0.1-3.7,0.1C23.7,23.7,23.6,23.7,23.6,23.7z M36.4,11.3
	c-0.3,0-0.7,0.1-0.9,0.2c0,0.2,0,0.4,0,0.7c0,0.7,0,1.6-0.1,2.7c-0.1,1.1-0.1,1.8-0.1,2.1c0,0.2,0,0.3,0,0.3c0,0,0.1,0,0.1,0
	c0.3-0.1,0.7-0.1,1.2-0.1c0.9,0,1.3,0,1.3,0c0,0,0.1,0,0.1,0c0.1,0,0.2-0.1,0.1-0.2c0,0,0-0.3-0.1-0.9c-0.1-0.6-0.1-1.4,0-2.4
	c0.1-0.9,0.1-1.8,0-2.4c0,0-0.1-0.1-0.1-0.2c0,0,0,0,0,0c0,0-0.2,0-0.5,0S36.8,11.3,36.4,11.3z M36,13.2c0-0.5,0-1-0.2-1.4
	c0.6,0.1,1.3,0.1,1.9,0c-0.1,0.7-0.2,1.5-0.3,2.6c-0.1-0.2-0.3-0.3-0.8-0.4c-0.4-0.1-0.6,0-0.8,0.1C36,13.8,36,13.5,36,13.2z
	 M37.5,14.6C37.5,14.7,37.5,14.7,37.5,14.6c0,0.4,0,0.8,0,1.1c0,0.4,0.1,0.7,0.2,1l-2-0.1c0.2-0.7,0.3-1.5,0.3-2.2
	c0.1,0.1,0.3,0.1,0.7,0.2C37.2,14.6,37.5,14.6,37.5,14.6z M32.5,11.3c-0.3,0-0.7,0.1-0.9,0.2c0,0.2,0,0.4,0,0.7c0,0.7,0,1.6-0.1,2.7
	s-0.1,1.8-0.1,2.1c0,0.2,0,0.3,0,0.3c0,0,0.1,0,0.1,0c0.3-0.1,0.7-0.1,1.2-0.1c0.9,0,1.3,0,1.3,0c0,0,0.1,0,0.1,0
	c0.1,0,0.2-0.1,0.1-0.2c0,0,0-0.3-0.1-0.9c-0.1-0.6-0.1-1.4,0-2.4c0.1-0.9,0.1-1.8,0-2.4h0c0,0-0.1-0.1-0.1-0.2c0,0,0,0,0,0
	c0,0-0.2,0-0.5,0S32.9,11.3,32.5,11.3z M32.1,13.2c0-0.5,0-1-0.2-1.4c0.6,0.1,1.3,0.1,1.9,0c-0.1,0.7-0.2,1.5-0.3,2.6
	c-0.1-0.2-0.3-0.3-0.8-0.4c-0.4-0.1-0.6,0-0.8,0.1C32.1,13.8,32.1,13.5,32.1,13.2z M33.6,14.6C33.6,14.7,33.6,14.7,33.6,14.6
	c0,0.4,0,0.8,0,1.1c0,0.4,0.1,0.7,0.2,1l-2-0.1c0.2-0.7,0.3-1.5,0.3-2.2c0.1,0.1,0.3,0.1,0.7,0.2C33.3,14.6,33.6,14.6,33.6,14.6z
	 M32.5,18.5c-0.3,0-0.7,0.1-0.9,0.1c0,0.2,0,0.4,0,0.7c0,0.7,0,1.6-0.1,2.7c-0.1,1.1-0.1,1.8-0.1,2.1c0,0.2,0,0.3,0,0.4
	c0,0,0.1,0,0.1,0c0.3-0.1,0.7-0.1,1.2-0.1c0.9,0,1.3,0,1.3,0c0,0,0.1,0,0.1,0c0.1-3.3,0.1-5.2,0-5.8h0c0,0-0.1-0.1-0.1-0.1
	c0,0,0,0,0,0c0,0-0.2,0-0.5,0C33.2,18.5,32.9,18.5,32.5,18.5z M33.9,19.1c-0.1,0.7-0.2,1.5-0.3,2.6c-0.1-0.2-0.3-0.3-0.8-0.4
	c-0.4-0.1-0.6,0-0.8,0.1c0-0.3,0-0.6,0-0.9c0-0.5,0-1-0.2-1.4C32.6,19.2,33.2,19.2,33.9,19.1z M32,21.7c0.1,0.1,0.3,0.1,0.7,0.1
	c0.6,0,0.9,0,0.9,0c0,0,0,0.1,0,0.1c0,0.3,0,0.7,0,1c0,0.4,0.1,0.7,0.2,1.1l-2-0.2C31.8,23.1,32,22.4,32,21.7z M38,26.5
	c0,0-0.2,0-0.5,0c-0.2,0-0.6,0-1,0c-0.3,0-0.7,0.1-0.9,0.1c0,0.2,0,0.4,0,0.7c0,0.7,0,1.6-0.1,2.7c-0.1,1.1-0.1,1.8-0.1,2.1
	c0,0.2,0,0.3,0,0.3c0,0,0.1,0,0.1,0c0.3-0.1,0.7-0.1,1.2-0.1c0.9,0,1.3,0,1.3,0c0,0,0.1,0,0.1,0c0.1,0,0.2-0.1,0.1-0.2
	c0,0,0-0.3-0.1-0.9c-0.1-0.6-0.1-1.4,0-2.4c0.1-0.9,0.1-1.7,0-2.4C38.1,26.6,38,26.5,38,26.5C38.1,26.5,38,26.5,38,26.5z M36.8,29.2
	c-0.4-0.1-0.6,0-0.8,0.1c0-0.3,0-0.6,0-0.9c0-0.5,0-1-0.2-1.4c0.6,0.1,1.3,0.1,1.9,0c-0.1,0.7-0.2,1.5-0.3,2.6
	C37.6,29.4,37.3,29.3,36.8,29.2z M36,29.6c0.1,0.1,0.3,0.1,0.7,0.2c0.6,0,0.9,0.1,0.9,0c0,0,0,0.1,0,0.1c0,0.3,0,0.7,0,1
	c0,0.4,0.1,0.7,0.2,1l-2-0.1C35.9,31.1,36,30.3,36,29.6z M36.4,18.5c-0.3,0-0.7,0.1-0.9,0.1c0,0.2,0,0.4,0,0.7c0,0.7,0,1.6-0.1,2.7
	c0,0.5-0.1,0.9-0.1,1.2c0,0.4,0,0.7,0,0.9c0,0.2,0,0.3,0,0.4c0,0,0.1,0,0.1,0c0.3-0.1,0.7-0.1,1.2-0.1c0.9,0,1.3,0,1.3,0
	c0,0,0.1,0,0.1,0c0.1,0,0.2-0.1,0.1-0.2c0,0,0-0.3-0.1-0.9c-0.1-0.6-0.1-1.4,0-2.3c0-0.1,0-0.2,0-0.3c0.1-0.8,0.1-1.5,0-2.1
	c0,0-0.1-0.1-0.1-0.1c0,0,0,0,0,0c0,0-0.2,0-0.5,0S36.8,18.5,36.4,18.5z M37.8,19.1c-0.1,0.6-0.2,1.4-0.3,2.3c0,0.1,0,0.2,0,0.3
	c0-0.1-0.1-0.1-0.2-0.2c-0.1-0.1-0.3-0.2-0.6-0.2c-0.4-0.1-0.6,0-0.8,0.1c0-0.3,0-0.6,0-0.9c0-0.5,0-1-0.2-1.4
	C36.5,19.2,37.2,19.2,37.8,19.1z M36,21.7c0.1,0.1,0.3,0.1,0.7,0.1c0.1,0,0.2,0,0.4,0c0.3,0,0.5,0,0.5,0c0,0,0,0.1,0,0.1
	c0,0.3,0,0.7,0,1c0,0.4,0.1,0.7,0.2,1.1l-2-0.2c0.1-0.3,0.1-0.6,0.2-0.9C35.9,22.5,35.9,22.1,36,21.7z M34,4.6c0,0-0.2,0-0.5,0
	c-0.3,0-0.6,0-1,0c-0.3,0-0.7,0.1-0.9,0.2c0,0.2,0,0.4,0,0.7c0,0.7,0,1.6-0.1,2.7c-0.1,1.1-0.1,1.8-0.1,2.1c0,0.2,0,0.3,0,0.4
	c0,0,0.1,0,0.1,0c0.3-0.1,0.7-0.1,1.2-0.1c0.9,0,1.3,0,1.3,0c0,0,0.1,0,0.1,0c0.1,0,0.2-0.1,0.1-0.2c0,0,0-0.3-0.1-0.9
	c-0.1-0.6-0.1-1.4,0-2.3c0.1-0.9,0.1-1.8,0-2.4h0C34,4.7,34,4.6,34,4.6C34,4.6,34,4.6,34,4.6z M32.1,7.4c0-0.3,0-0.6,0-0.9
	c0-0.5,0-1-0.2-1.4c0.6,0.1,1.3,0.1,1.9,0c-0.1,0.7-0.2,1.5-0.3,2.6c-0.1-0.2-0.3-0.3-0.8-0.4C32.5,7.2,32.2,7.2,32.1,7.4z M32,7.7
	c0.1,0.1,0.3,0.1,0.7,0.2c0.6,0,0.9,0,0.9,0c0,0,0,0.1,0,0.1c0,0.3,0,0.7,0,1c0,0.4,0.1,0.7,0.2,1.1l-2-0.2C31.8,9.2,32,8.4,32,7.7z
	 M37.9,4.6c0,0-0.2,0-0.5,0s-0.6,0-1,0c-0.3,0-0.7,0.1-0.9,0.2c0,0.2,0,0.4,0,0.7c0,0.7,0,1.6-0.1,2.7c-0.1,1.1-0.1,1.8-0.1,2.1
	c0,0.2,0,0.3,0,0.4c0,0,0.1,0,0.1,0c0.3-0.1,0.7-0.1,1.2-0.1c0.9,0,1.3,0,1.3,0c0,0,0.1,0,0.1,0c0.1,0,0.2-0.1,0.1-0.2
	c0,0,0-0.3-0.1-0.9c-0.1-0.6-0.1-1.4,0-2.3c0.1-0.9,0.1-1.8,0-2.4C38,4.7,37.9,4.6,37.9,4.6C38,4.6,37.9,4.6,37.9,4.6z M36.8,7.3
	c-0.4-0.1-0.6,0-0.8,0.1c0-0.3,0-0.6,0-0.9c0-0.5,0-1-0.2-1.4c0.6,0.1,1.3,0.1,1.9,0c-0.1,0.7-0.2,1.5-0.3,2.6
	C37.5,7.5,37.2,7.4,36.8,7.3z M36,7.7c0.1,0.1,0.3,0.1,0.7,0.2c0.6,0,0.9,0,0.9,0c0,0,0,0.1,0,0.1c0,0.3,0,0.7,0,1
	c0,0.4,0.1,0.7,0.2,1.1l-2-0.2C35.8,9.2,35.9,8.4,36,7.7z M49.4,31.5C49.4,31.5,49.4,31.5,49.4,31.5c-0.1,0-0.1,0-0.1,0
	c-0.2,0-0.3,0.2-0.2,0.4c0.2,0.5,0.5,0.7,0.9,0.3c0-0.2,0-0.3-0.1-0.4C49.7,31.7,49.6,31.6,49.4,31.5C49.5,31.6,49.4,31.5,49.4,31.5
	z M46.6,31.3c-0.2,0-0.3,0.2-0.2,0.4c0.3,0.4,0.6,0.5,0.9,0c0-0.2,0-0.2-0.2-0.3C47,31.3,46.8,31.3,46.6,31.3z M10.6,19.1L10.6,19.1
	c-0.7,0.5-1.4,0.7-2.3,0.8c0,0,0,0.1,0,0.1c0,0.1,0,0.2,0,0.3c0,0.1,0,0.2,0,0.2c0.4,0.3,0.7,0.7,0.8,1.1c0.2,0.7,0.2,1.5,0.3,2.2
	c0,0,0,0,0,0c-0.2,0-0.4,0-0.5,0c-0.1,0-0.1,0-0.1,0.1c0,0.1,0.2,0.2,0.8,0.3c0.6,0.1,1.4,0.1,2.4,0c0.1-0.1,0.1-0.2,0.1-0.3
	c0-0.1,0-0.3-0.1-0.4c0,0,0-0.1-0.1-0.1c0,0-0.1,0-0.2,0c-0.2,0-0.4,0-0.6,0c0-0.1,0.1-0.2,0.1-0.2C11.5,21.7,11.3,20.3,10.6,19.1z
	 M10.5,20.1c0.1,0.5,0.2,1.1,0.2,1.6c0,0.4,0.1,0.9,0.1,1.3c0,0-0.1,0-0.1,0c-0.5,0.2-0.7,0.2-0.8-0.1c0-0.4-0.1-0.9-0.2-1.3
	c-0.1-0.4-0.2-0.7-0.4-1.1c0.1-0.1,0.2-0.2,0.4-0.2C9.9,20.3,10.2,20.2,10.5,20.1z M14.2,18.7L14.2,18.7c-0.7,0.5-1.4,0.7-2.3,0.8
	c0,0,0,0.1,0,0.1c0,0.1,0,0.2,0,0.3c0,0.1,0,0.2,0,0.2c0.4,0.3,0.7,0.7,0.8,1.1c0.1,0.6,0.2,1.2,0.3,1.9c-0.1,0.1-0.3,0.2-0.4,0.3
	c1.3,0.5,2.4,0.4,3.3-0.2c0-0.2-0.1-0.3-0.3-0.3c-0.2,0-0.5-0.1-0.7-0.1h0c0,0,0,0,0-0.1C15.1,21.2,14.9,19.8,14.2,18.7z M14.1,19.7
	c0.1,0.5,0.2,1.1,0.2,1.6c0,0.4,0.1,0.9,0.1,1.3c0,0-0.1,0-0.1,0c-0.1,0-0.2,0.1-0.2,0.1c-0.1,0-0.2,0-0.3,0c-0.1,0-0.2-0.1-0.2-0.2
	c0-0.4-0.1-0.9-0.2-1.3c-0.1-0.4-0.2-0.7-0.4-1.1c0.1-0.1,0.2-0.2,0.4-0.2C13.6,19.9,13.8,19.8,14.1,19.7z M18.1,18L18.1,18
	c-0.7,0.5-1.4,0.7-2.3,0.8c0,0,0,0.1,0,0.1c0,0.1,0,0.2,0,0.3c0,0.1,0,0.2,0,0.2c0.4,0.3,0.7,0.7,0.8,1.1c0.2,0.7,0.2,1.4,0.3,2.2
	c-0.1,0.1-0.2,0.2-0.2,0.2c0,0.1,0.5,0.1,1.6,0c1.2-0.1,1.6-0.4,1.4-1c-0.1,0-0.2-0.1-0.3-0.1c-0.1,0-0.1,0-0.2,0
	c-0.1,0.1-0.3,0.2-0.4,0.2c0,0,0,0,0,0C19,20.5,18.8,19.1,18.1,18z M18.2,22.1c-0.5,0.2-0.7,0.2-0.8-0.1c0-0.4-0.1-0.9-0.2-1.3
	c-0.1-0.4-0.2-0.7-0.4-1.1c0.1-0.1,0.2-0.2,0.4-0.2c0.3-0.1,0.5-0.2,0.8-0.3c0.1,0.5,0.2,1.1,0.2,1.6c0,0.4,0.1,0.9,0.1,1.3
	C18.2,22,18.2,22,18.2,22.1z M13.4,11.8c-0.5,0-0.9,0-0.9,0c-0.1,0.1-0.3,0.2-0.5,0.2c0,0-0.1,0-0.1,0c-0.5,1-0.3,1.8,0.4,2.2
	c0.7,0.5,1.4,0.2,2.1-0.8C15,12.6,14.6,12,13.4,11.8z M12.6,12.5c0.1-0.1,0.5,0,1.3,0.1c0.1,1.4-0.3,1.8-1.3,1
	c-0.1-0.3-0.2-0.5-0.3-0.7C12.1,12.6,12.2,12.5,12.6,12.5z M66,31.2c-0.1,0-0.2,0-0.2,0.1c-0.1,0.1-0.1,0.2,0,0.2
	C66.4,31.8,66.4,31.6,66,31.2z M63.7,30.8c-0.1,0-0.2,0-0.2,0.1c-0.1,0.1-0.1,0.2,0,0.2C64,31.4,64.1,31.2,63.7,30.8z M71.6,29.2
	c-0.3-0.2-0.8-0.4-1.6-0.6c-0.5,1-0.8,1.8-0.9,2.4c-0.1,0.5,0,0.9,0.5,1c0.4,0.1,0.8,0.2,1,0.2c0.2,0.1,0.5,0,0.7-0.3
	c0.2-0.3,0.5-0.7,0.6-1.3C72,29.9,71.9,29.4,71.6,29.2z M70.2,29.5c0.4,0,0.8,0.1,1.2,0.1c-0.1,0.2-0.2,0.5-0.3,0.8
	c-0.2-0.3-0.5-0.4-1.1-0.3C70,29.9,70.1,29.7,70.2,29.5z M69.8,30.8c0,0,0-0.1,0-0.1c0.2,0.3,0.7,0.4,1.2,0.4c0,0.2-0.1,0.3-0.1,0.5
	c-0.5,0.1-0.9,0.1-1.2,0C69.7,31.3,69.7,31,69.8,30.8z M69.8,23.8c0-0.1,0-0.2-0.1-0.2c-1.9-0.2-3.8-0.5-5.6-1c0,0,0,0-0.1,0
	c-0.3,0.2-0.4,0.6-0.3,1.1c0,0.1,0,0.2,0.1,0.2c0.2,0.1,0.4,0.1,0.6,0.2c1.4,0.4,2.9,0.7,4.4,0.9c0.1,0,0.2,0,0.3,0
	C69.6,24.9,69.8,24.5,69.8,23.8z M64.4,23.5c0.5,0,0.9,0,1.3,0.1c1.2,0.2,2.3,0.4,3.3,0.5c-0.6,0.1-1.3,0-2.1-0.1
	C66,23.9,65.2,23.7,64.4,23.5z M58.4,28.9c-0.1,0.6,0,0.9,0.5,1c0.4,0.1,0.7,0.2,1,0.2c0.2,0.1,0.5,0,0.7-0.3
	c0.2-0.3,0.5-0.7,0.6-1.3c0.2-0.6,0.1-1.1-0.2-1.3c-0.3-0.2-0.8-0.4-1.6-0.6C58.8,27.5,58.5,28.3,58.4,28.9z M59.1,28.8
	c0,0,0-0.1,0-0.1c0.2,0.3,0.7,0.4,1.2,0.4c0,0.2-0.1,0.3-0.1,0.5c-0.5,0.1-0.9,0.1-1.2,0C59,29.2,59.1,29,59.1,28.8z M59.3,28.1
	c0.1-0.2,0.2-0.5,0.2-0.7c0.4,0,0.8,0.1,1.2,0.2c-0.1,0.2-0.2,0.5-0.3,0.8C60.2,28.1,59.8,28,59.3,28.1z M52.3,20.3
	C52.3,20.2,52.3,20.2,52.3,20.3c-0.9-0.5-2-0.7-3.1-0.5c-0.1,0-0.1,0-0.1,0.1c0,0.1-0.1,0.1,0,0.1c-0.3,1.3-0.5,2.5-0.5,3.8
	c0,0,0,0,0,0.1c0,0,0,0.1,0,0.1c0,0,0,0.1,0.1,0.1c-0.3,0-0.6,0-0.9,0.1c-0.2,0-0.3,0.1-0.3,0.3c0,0.2,0,0.2,0.1,0.2
	c0.9,0.1,1.8,0.2,2.7,0.3c0.7,0.1,1.4,0.1,2.1,0.1c0.1,0,0.1,0,0.1-0.1c-0.2-0.2-0.5-0.3-0.7-0.4c0-0.1,0-0.6,0.1-1.5
	c0-1,0.1-1.7,0.2-2.1C52.2,20.6,52.3,20.3,52.3,20.3C52.3,20.3,52.3,20.3,52.3,20.3z M51.8,20.4c0,0.3-0.1,0.7-0.1,1.3
	c0,0.2,0,0.3,0,0.5L50.8,22c-0.2-0.2-0.3-0.4-0.2-0.8c0-0.4,0-0.8,0-1.2c0.2,0,0.3,0,0.5,0.1C51.4,20.3,51.7,20.3,51.8,20.4z
	 M49.1,21.3c0.1-0.7,0.2-1.1,0.3-1.3c0.3,0,0.6,0,0.9,0c-0.1,0.2-0.1,0.4-0.1,0.7c0,0.4,0.1,0.8,0.1,1.2L49,21.7
	C49.1,21.6,49.1,21.5,49.1,21.3z M50.7,22.9c0.1-0.3,0.1-0.5,0.1-0.7c0.4,0,0.7,0.1,1,0.1c0,0.4-0.1,0.8-0.1,1.1
	c-0.1,0.5,0,0.9,0.1,1.1c0,0-0.1,0-0.3-0.1c-0.3-0.1-0.7-0.2-1-0.3C50.4,24,50.5,23.6,50.7,22.9z M50.2,22.2c0,0.3-0.1,0.7-0.1,1
	c-0.1,0.3-0.1,0.6-0.1,0.9c-0.4-0.1-0.8-0.1-1.2,0c0.1-0.2,0.1-0.5,0.1-0.9c0-0.3,0-0.7,0-1c0,0,0.1,0,0.1,0
	C49.5,22.1,49.9,22.1,50.2,22.2z M41.6,27.6c-0.1,0-0.2,0-0.2,0c-0.2,0.9-0.4,1.9-0.4,2.9c0,0.3,0,0.5,0.1,0.7c-0.1,0-0.2,0-0.3,0
	c0,0-0.1,0-0.2,0.1c-0.2,0.2-0.1,0.3,0.3,0.3c0.4,0,0.9,0.1,1.6,0.2c0.7,0.1,1.2,0.2,1.5,0.2c0.3,0,0.5,0,0.4,0
	c-0.2-0.1-0.5-0.2-0.7-0.3c0-0.1,0-0.3,0-0.7c0-0.4,0-0.9,0.1-1.6c0.1-0.7,0-1.1-0.2-1.4v0c-0.5-0.5-1.1-0.7-2-0.5
	C41.7,27.5,41.7,27.6,41.6,27.6z M41.6,29.9c0-0.1,0-0.3,0-0.4c0.3,0.1,1,0.2,2,0.2c0,0.4-0.1,0.7-0.1,0.9c-0.1,0.3-0.1,0.6,0,0.9
	c0,0.1,0,0.1,0,0.2c-0.6-0.2-1.2-0.3-1.9-0.4C41.6,31,41.6,30.5,41.6,29.9z M41.6,28.9c0-0.3,0-0.6,0.1-1c0.7,0,1.4,0.1,1.9,0.5
	c0,0.3,0,0.6,0,0.8c-0.6,0-1.1-0.1-1.4-0.2C41.9,28.9,41.7,28.8,41.6,28.9z M42.7,19.5c0,0.1-0.1,0.1,0,0.1
	c-0.3,1.3-0.5,2.5-0.5,3.8c0,0,0,0,0,0.1c0,0,0,0.1,0,0.1c0,0,0,0.1,0.1,0.1c-0.3,0-0.6,0-0.9,0.1c-0.2,0-0.3,0.1-0.3,0.3
	c0,0.2,0,0.2,0.1,0.2c0.9,0.1,1.8,0.2,2.7,0.3c0.7,0.1,1.4,0.1,2.1,0.1c0.1,0,0.1,0,0.1-0.1c-0.2-0.2-0.5-0.3-0.7-0.4
	c0-0.1,0-0.6,0.1-1.5c0-1,0.1-1.7,0.2-2.1c0.1-0.4,0.1-0.6,0.1-0.7c0,0,0,0,0,0c0,0,0,0,0,0c-0.9-0.5-1.9-0.7-3-0.5
	C42.7,19.4,42.7,19.5,42.7,19.5z M43.9,19.7c-0.1,0.2-0.1,0.4-0.1,0.7c0,0.4,0.1,0.8,0.1,1.2l-1.2-0.2c0-0.1,0-0.3,0-0.4
	c0.1-0.7,0.2-1.1,0.3-1.3C43.3,19.7,43.6,19.7,43.9,19.7z M42.6,21.8c0,0,0.1,0,0.1,0c0.4,0,0.7,0,1.1,0c0,0.3-0.1,0.7-0.1,1
	c-0.1,0.3-0.1,0.6-0.1,0.9c-0.4,0-0.8-0.1-1.2,0c0.1-0.2,0.2-0.5,0.2-0.9C42.5,22.5,42.6,22.2,42.6,21.8z M44.2,20.9
	c0-0.4,0-0.8,0-1.2c0.2,0,0.3,0,0.5,0.1C45,20,45.3,20,45.4,20c0,0.3-0.1,0.7-0.1,1.3c0,0.2,0,0.3,0,0.5l-0.9-0.1
	C44.2,21.6,44.1,21.3,44.2,20.9z M44,23.8c0-0.2,0.1-0.6,0.2-1.4c0-0.2,0.1-0.4,0.1-0.5c0.5,0,0.8,0.1,1,0.1c0,0.4-0.1,0.8-0.1,1.1
	c-0.1,0.5,0,0.9,0.1,1.1c0,0-0.1-0.1-0.3-0.1C44.6,24,44.3,23.9,44,23.8z M68,11.7c0.1-0.3,0.2-0.5,0.2-0.7c0,0.1,0,0.1,0,0.2
	c0.1-0.6,0.2-1,0.2-1.2c0.2-0.9-0.3-1.6-1.6-2.1c-1.1-0.1-1.9,0.2-2.4,1c-0.2,0.3-0.3,0.5-0.3,0.8c0,0,0,0.1,0,0.1v0
	c-0.8,2.1-1.4,4.2-1.8,6.4c0,0.1,0,0.2,0,0.3c0.1,0.2,0.1,0.3,0.2,0.3v0c0.3-0.3,0.5-0.9,0.6-1.7c0.1-0.5,0.2-1,0.3-1.6
	c0.1,0,0.1,0,0.2,0c0.5,0,1.1,0.1,1.6,0.2c-0.1,0.5-0.2,1.1-0.4,1.6c-0.2,0.5-0.3,1.1-0.3,1.6c-0.8-0.2-1.4-0.2-2,0
	c-0.2,0.1-0.2,0.2,0,0.2c0.2,0,0.9,0.2,2.1,0.4c1.2,0.2,1.9,0.3,2.1,0.2c0,0,0.1,0,0.1,0c0,0.1,0.1,0,0.1,0c0-0.1,0.2-0.9,0.5-2.4
	C67.5,13.6,67.8,12.5,68,11.7z M67.7,11c-0.1,0.4-0.3,1.1-0.4,2c0,0.2-0.1,0.5-0.1,0.7l-1.2-0.3c-0.2-0.2-0.3-0.7-0.2-1.2
	c0.1-0.6,0.2-1.2,0.2-1.8c0.2,0,0.5,0.1,0.7,0.2C67.2,10.8,67.5,11,67.7,11z M67.8,9.2c0.2,0.5,0.4,1,0.4,1.6c-1-0.7-2.3-1-3.7-1
	c0-0.6,0.5-1,1.4-1.3S67.4,8.4,67.8,9.2z M63.4,12.9c0-0.2,0.1-0.4,0.2-0.7c0.3-1.1,0.5-1.7,0.7-2c0.5,0,0.9,0,1.3,0
	c-0.2,0.3-0.3,0.6-0.3,1c0,0.7-0.1,1.3-0.2,2L63.4,12.9z M65.4,15.1c0.2-0.7,0.2-1.2,0.1-1.4c0.7,0.1,1.3,0.2,1.6,0.2
	c-0.1,0.6-0.2,1.2-0.4,1.8c-0.2,0.8-0.3,1.4-0.2,1.8c-0.1-0.1-0.7-0.3-1.7-0.5c0,0,0,0,0,0C64.9,17,65,16.3,65.4,15.1z M70.3,11
	c0,0,0,0.1,0,0.1c-0.8,2.1-1.4,4.2-1.8,6.4c0,0.1,0,0.2,0,0.3c0.1,0.2,0.1,0.3,0.2,0.3c0.3-0.3,0.5-0.9,0.6-1.7
	c0.1-0.5,0.2-1,0.3-1.6c0,0,0.1,0,0.2,0c0.5,0,1.1,0.1,1.6,0.2c-0.1,0.5-0.2,1.1-0.4,1.6c-0.2,0.5-0.3,1.1-0.3,1.6
	c-0.8-0.2-1.5-0.2-2,0c-0.2,0.1-0.2,0.2,0,0.2c0.2,0,0.9,0.2,2.1,0.4c1.2,0.2,1.9,0.3,2.1,0.2c0,0,0.1,0,0.1,0c0,0.1,0.1,0,0.1,0
	c0-0.1,0.2-0.9,0.5-2.4s0.5-2.6,0.7-3.2c0.1-0.2,0.1-0.4,0.2-0.8c0.1-0.6,0.2-1,0.2-1.2c0.2-0.9-0.3-1.6-1.6-2.1
	c-1.1-0.1-1.9,0.2-2.4,1C70.5,10.4,70.4,10.7,70.3,11z M69.8,14.2c0-0.2,0.1-0.4,0.2-0.7c0.2-1.1,0.5-1.8,0.8-2c0.5,0,0.9,0,1.3,0
	c-0.2,0.3-0.3,0.6-0.3,1c0,0.7-0.1,1.3-0.2,2L69.8,14.2z M71.3,18.2C71.3,18.2,71.3,18.2,71.3,18.2c0,0,0.1-0.7,0.5-1.9
	c0.2-0.7,0.2-1.2,0.1-1.4c0.7,0.1,1.3,0.2,1.7,0.2c-0.1,0.6-0.2,1.2-0.4,1.8c-0.2,0.8-0.3,1.4-0.1,1.8
	C72.9,18.7,72.3,18.5,71.3,18.2z M72.4,11.6c0.2,0,0.5,0.1,0.7,0.2c0.5,0.2,0.9,0.4,1.1,0.4c-0.1,0.4-0.3,1.1-0.4,2
	c0,0.2-0.1,0.5-0.1,0.7l-1.2-0.3c-0.2-0.2-0.3-0.7-0.2-1.2C72.3,12.9,72.4,12.3,72.4,11.6z M74.2,10.4c0.2,0.5,0.4,1,0.4,1.6
	c-1-0.7-2.3-1.1-3.7-1c0-0.6,0.4-1,1.3-1.3C73.1,9.4,73.8,9.6,74.2,10.4z"/>
<path d="M34.2,30.3h-0.3c-0.1,0-0.1,0-0.1-0.1c0-0.1,0-0.1,0.1-0.1h0.3c0.1,0,0.1,0,0.1,0.1C34.3,30.2,34.3,30.3,34.2,30.3z
	 M30.7,30.3h-0.4c-0.1,0-0.1,0-0.1-0.1c0-0.1,0-0.1,0.1-0.1h0.4c0.1,0,0.1,0,0.1,0.1C30.8,30.2,30.7,30.3,30.7,30.3z M32.1,26.9
	c-0.1,0-0.1,0-0.1-0.1c0-0.1,0-0.2,0-0.2c0-0.1,0-0.1,0.1-0.1s0.1,0,0.1,0.1c0,0.1,0,0.2,0,0.2C32.3,26.9,32.2,26.9,32.1,26.9z"/>
<path d="M57.8,18.2C57.8,18.2,57.7,18.2,57.8,18.2c-0.1-0.1-0.1-0.2,0-0.2c0.1,0,0.2-0.1,0.2-0.1c0.2-0.1,0.5-0.2,0.6-0.3
	c0.1-0.1,0.2-0.1,0.3-0.2c0.1,0,0.2-0.1,0.3-0.2c0.1,0,0.2-0.1,0.2-0.1c-0.3-0.3-0.6-0.7-0.9-1c-0.6,0.5-1.3,0.9-2,1.3
	c0,0,0.1,0.1,0.2,0.2c0,0,0,0.1,0,0.2c0,0-0.1,0-0.2,0c-0.5-0.5-0.9-1-1.3-1.5c-0.5,0.4-0.9,0.8-1.4,1.1l-0.1,0
	c0,0.1,0.1,0.2,0.3,0.3c0,0,0,0.1,0,0.2c0,0-0.1,0-0.2,0c-0.2-0.1-0.3-0.2-0.3-0.4c-0.2,0.1-0.4,0.2-0.6,0.3c-0.1,0-0.1,0-0.1-0.1
	c0-0.1,0-0.1,0.1-0.1c0.2-0.1,0.4-0.2,0.6-0.3c0,0,0,0,0,0c0,0-0.1-0.1-0.1-0.1c-0.1,0-0.1-0.1-0.2-0.2c0-0.1-0.1-0.1-0.1-0.2
	c-0.1-0.2-0.2-0.3-0.4-0.5c-0.1-0.1-0.2-0.2-0.2-0.3c-0.1,0.1-0.2,0.2-0.3,0.2c-0.1,0.1-0.2,0.1-0.4,0.2c-0.4,0.2-0.7,0.4-1,0.7
	c-0.1,0-0.1,0.1-0.2,0.1c0,0,0,0,0,0c0,0,0,0.1,0,0.2c0,0-0.1,0-0.2,0c0,0,0,0,0,0c0,0-0.1,0-0.1,0c0,0,0-0.1,0-0.1
	c0,0-0.1-0.1-0.1-0.2c-0.2-0.3-0.5-0.6-0.7-0.9c0,0-0.1,0-0.1,0.1L49,16.6c-0.1,0.1-0.2,0.2-0.4,0.3c-0.1,0-0.1,0.1-0.2,0.1
	c-0.1,0.1-0.2,0.1-0.4,0.2c0,0,0,0,0,0c0.1,0.1,0.1,0.2,0.2,0.3c0,0,0,0.1,0,0.2c0,0-0.1,0-0.2,0c-0.2-0.2-0.3-0.4-0.5-0.7
	c-0.2-0.3-0.5-0.6-0.7-0.9c-0.5,0.4-0.8,0.6-1,0.8l-0.1,0.1c0,0-0.1,0-0.2,0c0,0,0-0.1,0-0.2l0.1-0.1c0.2-0.2,0.6-0.5,1-0.9
	c-0.4-0.5-0.8-1.1-1.2-1.6l-0.5,0.5c-0.4,0.4-0.8,0.8-1.2,1.1c0.2,0.2,0.3,0.5,0.5,0.8c0,0,0,0.1,0,0.2c0,0-0.1,0-0.2,0
	c-0.2-0.3-0.3-0.5-0.5-0.8c-0.4,0.3-0.7,0.5-1.1,0.7c0,0.1,0.1,0.2,0.1,0.2c0,0,0,0.1,0,0.2c0,0-0.1,0-0.2,0c0-0.1-0.1-0.1-0.1-0.2
	c-0.1,0.1-0.2,0.1-0.3,0.2c-0.1,0-0.1,0-0.2-0.1c0-0.1,0-0.1,0.1-0.2c0.1,0,0.2-0.1,0.3-0.1c-0.1-0.1-0.2-0.2-0.3-0.4
	c-0.1-0.1-0.2-0.2-0.2-0.3c-0.2-0.2-0.3-0.3-0.4-0.4c-0.2-0.2-0.3-0.4-0.4-0.5c0,0,0,0,0,0c0,0-0.1,0-0.2,0c0,0,0-0.1,0-0.2
	c0,0,0.1-0.1,0.1-0.1c0.2-0.2,0.5-0.5,0.8-0.8c0.2-0.2,0.3-0.3,0.5-0.5c-0.1-0.2-0.2-0.3-0.3-0.5c-0.2-0.3-0.5-0.6-0.6-0.9
	c-0.1,0.1-0.2,0.2-0.3,0.3l-0.2,0.2c0,0-0.1,0-0.2,0c0,0,0-0.1,0-0.2l0.2-0.2c0.1-0.1,0.2-0.3,0.3-0.4c-0.1-0.1-0.2-0.4-0.4-0.7
	c0,0,0-0.1,0-0.2c0,0,0.1,0,0.2,0c0.2,0.3,0.3,0.5,0.3,0.6c0.5-0.6,1-1.1,1.5-1.6c-0.3-0.5-0.7-1-1-1.5c0,0-0.1,0.1-0.1,0.1
	c-0.1,0.1-0.1,0.1-0.2,0.1l-0.3,0.2c-0.1,0.1-0.2,0.2-0.3,0.2l0,0c0,0-0.1,0.1-0.2,0.2c-0.1,0.2-0.2,0.2-0.3,0.3
	c-0.1,0-0.1,0-0.1-0.1c0-0.1,0-0.1,0.1-0.1c0,0,0,0,0.1-0.2l0,0c0.1-0.1,0.2-0.2,0.3-0.2l0,0c0.1-0.1,0.2-0.2,0.3-0.2l0.3-0.2
	c0,0,0.1-0.1,0.2-0.1c0,0,0.1-0.1,0.1-0.1c0-0.1,0.1-0.1,0.1-0.1c0,0,0,0,0,0c0,0,0.1,0,0.1,0c0.3,0.5,0.7,1,1,1.5
	c0.4-0.4,0.7-0.8,1.1-1.1c0,0,0.1,0,0.2,0c0,0,0,0.1,0,0.2c-0.4,0.4-0.8,0.8-1.2,1.2c0.3,0.5,0.7,1,1,1.5c0.3-0.3,0.7-0.6,1.2-1
	c0.1-0.1,0.2-0.2,0.4-0.3C45.2,10,45,9.6,44.7,9.2l-0.2-0.3c0,0,0-0.1,0-0.2c0,0,0.1,0,0.2,0l0.2,0.3c0.2,0.4,0.5,0.8,0.7,1.2
	c0.3-0.2,0.7-0.5,1.2-0.9L47.2,9c0,0,0,0,0.1,0l0,0c0,0,0.1,0,0.2,0c0.1,0.1,0.2,0.3,0.3,0.4c0.2,0.2,0.5,0.6,0.8,0.9
	c0.1,0.1,0.2,0.3,0.4,0.4c0,0,0,0,0.1,0c0.4-0.3,0.7-0.6,1-0.9c0.1-0.2,0.2-0.3,0.4-0.4c0,0,0.1-0.1,0.2,0c0,0,0.1,0.1,0,0.2
	c-0.1,0.2-0.2,0.3-0.4,0.5c-0.3,0.3-0.6,0.7-1,1c0,0,0,0-0.1,0c0.1,0.1,0.1,0.2,0.2,0.2c0.2,0.2,0.3,0.4,0.4,0.6c0,0,0,0.1,0,0.2
	c0,0-0.1,0-0.2,0c-0.1-0.2-0.2-0.4-0.4-0.6c-0.1-0.1-0.1-0.2-0.2-0.2c-0.6,0.4-1,0.8-1.3,1.1c-0.1,0.1-0.2,0.2-0.4,0.4
	c0.4,0.6,0.8,1.2,1.3,1.8c0,0,0.1,0,0.1,0c0.1,0,0.1,0.1,0.1,0.1c0,0,0,0,0,0c0,0,0,0,0,0c0,0,0,0.1,0,0.1c0,0,0,0-0.1,0
	c-0.1,0.1-0.3,0.3-0.5,0.4c-0.3,0.2-0.5,0.4-0.7,0.5c-0.1,0.1-0.2,0.2-0.3,0.2c0.2,0.3,0.5,0.6,0.7,0.9c0.1,0.1,0.1,0.2,0.2,0.3
	c0,0,0-0.1,0.1-0.1c0.1,0,0.3-0.1,0.4-0.2c0.1,0,0.1-0.1,0.2-0.1c0.2-0.1,0.3-0.2,0.4-0.3l0.4-0.3c0,0,0.1-0.1,0.1-0.1c0,0,0,0,0,0
	c0,0,0,0,0,0c0.1-0.1,0.2-0.2,0.3-0.3c0,0,0.1,0,0.2,0c0,0,0,0.1,0,0.2c-0.1,0.1-0.2,0.2-0.2,0.2c0.2,0.3,0.5,0.6,0.7,1
	c0,0,0.1,0.1,0.1,0.1c0.1,0,0.1-0.1,0.2-0.1c0.3-0.2,0.7-0.5,1-0.7c0.1-0.1,0.3-0.1,0.4-0.2c0.1,0,0.2-0.1,0.3-0.2c0,0,0,0,0,0
	c0,0,0-0.1,0.1-0.1c0-0.1,0.1-0.1,0.1-0.1c0.1,0,0.1,0.1,0.1,0.1c0,0,0,0.1,0,0.2c0,0,0,0,0,0c0.1,0.1,0.2,0.2,0.2,0.3
	c0.1,0.2,0.3,0.3,0.4,0.5c0,0,0.1,0.1,0.1,0.2c0,0.1,0.1,0.1,0.1,0.1l0,0c0,0,0.1,0.1,0.1,0.1c0,0,0.1,0.1,0.1,0.1l0,0
	c0.4-0.3,0.9-0.6,1.3-1.1c-0.4-0.4-0.7-0.9-1.1-1.3c0,0-0.1-0.1-0.1-0.1c-0.2,0.2-0.5,0.4-0.7,0.6c-0.1,0.1-0.2,0.2-0.4,0.2
	c0,0-0.1,0-0.2,0c0,0,0-0.1,0-0.2c0.1-0.1,0.2-0.2,0.4-0.2c0.2-0.2,0.5-0.4,0.7-0.6c-0.2-0.3-0.3-0.5-0.4-0.8c0-0.1,0-0.1,0.1-0.1
	c0.1,0,0.1,0,0.1,0.1c0,0.2,0.2,0.4,0.4,0.7c0.3-0.3,0.7-0.6,0.9-0.9c0.3-0.3,0.5-0.5,0.7-0.7l-1.1-1.2c-0.2,0.2-0.5,0.4-0.7,0.6
	c0,0-0.1,0-0.2,0c0,0,0-0.1,0-0.2c0.2-0.2,0.5-0.4,0.7-0.7l-1.1-1.2l0,0L52.4,11c-0.2,0.2-0.4,0.3-0.5,0.4c-0.1,0.1-0.1,0.1-0.2,0.2
	c0,0-0.1,0-0.2,0c0,0,0-0.1,0-0.2c0,0,0.1-0.1,0.1-0.1c0,0-0.1-0.1-0.2-0.2l0,0c-0.1-0.1-0.1-0.2-0.1-0.2c0,0,0,0,0,0
	c-0.1-0.1-0.2-0.2-0.2-0.3c0,0,0,0,0,0c0-0.1,0-0.1,0-0.1c-0.1-0.2-0.1-0.3-0.2-0.4c0-0.1,0-0.2,0-0.2s0.1-0.1,0.1-0.1
	C51,9.7,51,9.8,51,9.9c0,0,0,0.1,0,0.2c0,0.1,0.1,0.2,0.1,0.3c0,0,0,0.1,0.1,0.1c0,0.1,0.1,0.2,0.2,0.3c0,0,0.1,0.1,0.1,0.2
	c0.1,0.1,0.2,0.2,0.2,0.2c0.1-0.1,0.3-0.2,0.5-0.4l0.7-0.6l0.1-0.1c0,0,0.1,0,0.1,0l0,0l0.2,0.2l1,1.1c0.2-0.1,0.3-0.2,0.5-0.3
	c0.2-0.1,0.4-0.2,0.7-0.4c0.1-0.1,0.2-0.1,0.3-0.2c0.1-0.1,0.2-0.2,0.3-0.3c0,0,0.1,0,0.2,0c0,0,0,0.1,0,0.2
	c-0.1,0.1-0.2,0.2-0.4,0.3c-0.1,0.1-0.2,0.1-0.3,0.2c-0.3,0.2-0.5,0.3-0.7,0.4s-0.3,0.2-0.5,0.3l1,1.2c0.1-0.1,0.1-0.1,0.1-0.2
	c0.5-0.5,1-0.8,1.4-1.1c-0.2-0.2-0.3-0.3-0.4-0.4c-0.1-0.2-0.2-0.3-0.3-0.5c0,0,0-0.1-0.1-0.1c0-0.1,0-0.1,0.1-0.1
	c0.1,0,0.1,0,0.2,0.1c0,0,0,0.1,0,0.1c0.1,0.1,0.2,0.3,0.3,0.4c0.1,0.1,0.2,0.2,0.4,0.4c0.5-0.3,0.9-0.6,1.4-0.9l-0.2-0.2
	c0,0,0-0.1,0-0.2c0,0,0.1,0,0.2,0l0.3,0.3l0,0l0.1,0.1c0.1,0.1,0.3,0.3,0.6,0.6c0.1,0.2,0.3,0.3,0.4,0.5c0.2-0.2,0.5-0.4,0.8-0.7
	c0,0,0.1,0,0.2,0c0,0,0,0.1,0,0.2c-0.3,0.2-0.5,0.4-0.8,0.7c0.1,0.1,0.2,0.3,0.3,0.4c0,0.1,0.1,0.2,0.2,0.4l0.1,0.2c0,0,0,0.1,0,0.2
	c0,0-0.1,0-0.2,0l-0.1-0.2c-0.1-0.2-0.2-0.3-0.2-0.4c-0.1-0.1-0.2-0.3-0.3-0.4c-0.6,0.5-1.1,0.8-1.5,1.1c0.1,0.2,0.2,0.3,0.3,0.5
	c0.3,0.4,0.5,0.8,0.8,1.1c0.1-0.1,0.4-0.3,0.6-0.5c0,0,0.1,0,0.2,0c0,0,0,0.1,0,0.2c-0.3,0.2-0.5,0.4-0.7,0.6
	c0.2,0.2,0.3,0.4,0.4,0.5c0.1,0.1,0.2,0.2,0.3,0.3c0,0,0,0.1,0,0.2c0,0-0.1,0-0.2,0c-0.1-0.1-0.2-0.2-0.3-0.3
	c-0.1-0.2-0.2-0.3-0.4-0.5c-0.4,0.4-0.8,0.7-1.2,1.1c0.3,0.3,0.6,0.7,0.9,1l0.4-0.2l0.1-0.1c0,0,0.1,0,0.2,0c0,0,0,0.1,0,0.2
	l-0.5,0.3c0.1,0.1,0.1,0.2,0.2,0.2l0.4,0.4c0,0,0,0.1,0,0.2c0,0-0.1,0-0.2,0l-0.4-0.4c-0.1-0.1-0.2-0.2-0.2-0.3
	c-0.1,0-0.1,0.1-0.2,0.1c-0.1,0.1-0.2,0.2-0.3,0.2c-0.1,0-0.2,0.1-0.3,0.2c-0.2,0.1-0.4,0.2-0.6,0.3C57.9,18.2,57.8,18.2,57.8,18.2
	C57.8,18.2,57.8,18.2,57.8,18.2z M55.3,16.1c0.3,0.4,0.7,0.8,1,1.1c0.7-0.4,1.4-0.9,2-1.3c-0.5-0.5-0.9-1-1.4-1.5
	C56.3,15.1,55.8,15.7,55.3,16.1L55.3,16.1z M40.9,14.9c0.1,0.1,0.2,0.3,0.4,0.5c0.1,0.1,0.2,0.2,0.4,0.4c0.1,0.1,0.1,0.2,0.2,0.3
	c0.1,0.2,0.3,0.3,0.4,0.4c0,0,0,0,0,0c0.3-0.2,0.7-0.4,1.1-0.7c-0.5-0.8-1-1.5-1.4-2.1c-0.1,0.1-0.3,0.3-0.5,0.5
	C41.4,14.5,41.1,14.7,40.9,14.9z M54,14.6c0,0,0.1,0.1,0.1,0.1c0.3,0.4,0.7,0.9,1.1,1.3l0,0c0.4-0.4,0.9-0.9,1.6-1.7L55.7,13
	c-0.2,0.2-0.4,0.4-0.7,0.7C54.7,14,54.4,14.3,54,14.6z M57.1,14.3c0.4,0.5,0.9,1,1.4,1.5c0.4-0.3,0.8-0.7,1.2-1.1
	c-0.2-0.3-0.5-0.7-0.8-1.1c-0.1-0.2-0.2-0.3-0.3-0.5c-0.4,0.2-0.8,0.5-1.1,0.8C57.4,14,57.2,14.1,57.1,14.3z M45.5,14.1
	c0.4,0.5,0.8,1.1,1.2,1.6c0.1-0.1,0.2-0.2,0.3-0.2c0.2-0.1,0.4-0.3,0.7-0.5c0.2-0.1,0.3-0.3,0.5-0.4c-0.4-0.6-0.9-1.2-1.3-1.9
	C46.6,13,46.1,13.5,45.5,14.1z M42.2,13.6c0.4,0.6,0.9,1.3,1.4,2.1c0.4-0.3,0.7-0.7,1.1-1l0.5-0.5c-0.5-0.7-1-1.4-1.5-2
	c-0.1,0.1-0.2,0.2-0.4,0.3C43.4,12.4,43.1,12.7,42.2,13.6z M55.8,12.8l1.2,1.3c0.1-0.1,0.2-0.2,0.3-0.3c0.4-0.3,0.7-0.6,1.1-0.8
	c-0.4-0.6-0.8-1.1-1.1-1.4c0,0,0,0,0,0c-0.4,0.2-0.9,0.6-1.4,1.1C55.9,12.7,55.9,12.7,55.8,12.8z M43.9,11.9c0.5,0.7,1,1.3,1.5,2
	c0.6-0.6,1.1-1.1,1.4-1.4c-0.4-0.6-0.8-1.3-1.2-1.9c-0.2,0.1-0.3,0.2-0.4,0.3C44.7,11.3,44.3,11.6,43.9,11.9z M41.1,12.1
	c0.2,0.3,0.4,0.6,0.6,0.9c0.1,0.1,0.2,0.3,0.3,0.4c0.7-0.7,1.1-1.1,1.2-1.2c0.1-0.1,0.2-0.2,0.4-0.3c-0.3-0.5-0.7-1-1-1.5
	C42.1,10.9,41.6,11.5,41.1,12.1z M57.6,11.4c0.3,0.3,0.7,0.8,1.1,1.4c0.4-0.2,0.9-0.6,1.4-1.1c-0.1-0.2-0.3-0.3-0.4-0.5
	c-0.3-0.3-0.5-0.5-0.6-0.6L59,10.5c0,0,0,0,0,0C58.5,10.8,58,11.1,57.6,11.4z M45.7,10.4c0.4,0.6,0.8,1.3,1.2,1.9
	c0.2-0.2,0.3-0.3,0.4-0.4c0.3-0.2,0.7-0.6,1.3-1.1c-0.1-0.1-0.2-0.2-0.3-0.4c-0.3-0.4-0.6-0.7-0.8-0.9c-0.1-0.1-0.2-0.2-0.3-0.4
	l-0.3,0.3C46.4,9.9,46,10.2,45.7,10.4z"/>
<path d="M21.7,20.6c-0.1,0-0.1,0-0.1-0.1c-0.1-1.1-0.2-2.3-0.2-3.3c0-0.1,0-0.1,0.1-0.1c0.1,0,0.1,0,0.1,0.1c0,1.1,0.1,2.2,0.2,3.3
	C21.8,20.6,21.8,20.6,21.7,20.6z M27.9,20.6c-0.1,0-0.1,0-0.1-0.1c0-0.7,0-1.4,0-2v-0.1c0-0.1,0-0.2,0-0.4V18c0-0.1,0-0.2,0-0.3
	v-0.2c0-0.1,0-0.2,0-0.3v0c0-0.1,0-0.3,0-0.4c0-0.1,0-0.1,0.1-0.1s0.1,0,0.1,0.1c0,0.1,0,0.3,0,0.4v0.1c0,0.1,0,0.2,0,0.3v0.2
	c0,0.1,0,0.2,0,0.3V18c0,0.1,0,0.2,0,0.4v0.1c0,0.6,0,1.2,0,2C28,20.6,28,20.6,27.9,20.6z M24.2,20.6c-0.1,0-0.1,0-0.1-0.1l-0.2-3.4
	c0-0.1,0-0.1,0.1-0.1c0.1,0,0.1,0,0.1,0.1v0.1l0.1,3.2C24.3,20.6,24.3,20.6,24.2,20.6z M25.5,20.6c-0.1,0-0.1,0-0.1-0.1
	c0-1-0.1-2-0.1-2.9v-0.1c0-0.1,0-0.2,0-0.4v0c0,0,0,0,0,0c0-0.1,0.1-0.1,0.1-0.1c0.1,0,0.1,0,0.1,0.1V17c0,0.1,0,0.2,0,0.4v0.1
	c0,0.9,0.1,1.9,0.1,2.9C25.6,20.5,25.6,20.6,25.5,20.6z M22.9,20.6c-0.1,0-0.1,0-0.1-0.1c0-1.1-0.1-2.2-0.1-3.2c0-0.1,0-0.1,0.1-0.1
	c0.1,0,0.1,0,0.1,0.1c0,1,0.1,2.1,0.1,3.2C23,20.5,22.9,20.6,22.9,20.6z M26.9,20.6c0,0-0.1,0-0.1-0.1c0,0,0,0,0-0.1
	c0-0.9-0.1-1.8-0.1-2.5v-0.1c0-0.1,0-0.2,0-0.4v-0.1c0-0.1,0-0.2,0-0.3v-0.1c0-0.1,0-0.1,0.1-0.1c0.1,0,0.1,0,0.1,0.1V17
	c0,0.1,0,0.2,0,0.3v0.1c0,0.1,0,0.2,0,0.4v0.1c0,0.8,0.1,1.6,0.1,2.5c0,0,0,0,0,0C27,20.5,27,20.5,26.9,20.6
	C26.9,20.6,26.9,20.6,26.9,20.6z M22.6,14.9c-0.1,0-0.1,0-0.1-0.1c-0.1-2.9-0.1-5.1-0.1-6.4c0-0.1,0-0.1,0.1-0.1
	c0.1,0,0.1,0,0.1,0.1c0,1.3,0,3.4,0.1,6.4C22.8,14.9,22.7,14.9,22.6,14.9z M24,14.9c-0.1,0-0.1,0-0.1-0.1c-0.1-2.9-0.1-5.1-0.1-6.4
	v0c0-0.1,0-0.1,0.1-0.1c0.1,0,0.1,0,0.1,0.1v0c0,1.3,0,3.4,0.1,6.4C24.1,14.9,24,14.9,24,14.9z M21.4,14.9c-0.1,0-0.1,0-0.1-0.1
	c-0.1-2.7-0.1-4.7-0.1-6c0-0.1,0.1-0.1,0.1-0.1c0.1,0,0.1,0,0.1,0.1c0,1.2,0,3.2,0.1,5.9C21.5,14.9,21.5,14.9,21.4,14.9z M25.3,14.9
	c-0.1,0-0.1,0-0.1-0.1c-0.1-2.7-0.1-4.8-0.1-6V8.6c0-0.1,0-0.1,0.1-0.1c0.1,0,0.1,0,0.1,0.1v0.1c0,1.2,0,3.3,0.1,6
	C25.4,14.8,25.3,14.9,25.3,14.9z M26.7,14.7c-0.1,0-0.1,0-0.1-0.1v0c-0.1-2.5-0.1-4.3-0.1-5.5C26.5,9,26.5,9,26.6,9
	c0.1,0,0.1,0,0.1,0.1c0,1.2,0,3,0.1,5.5v0.1C26.8,14.7,26.7,14.7,26.7,14.7z M27.8,14.7c-0.1,0-0.1,0-0.1-0.1c0-1.6-0.1-2.9-0.1-3.9
	c0-0.2,0-0.4,0-0.8c0-0.1,0-0.1,0.1-0.1c0.1,0,0.1,0,0.1,0.1c0,0.3,0,0.6,0,0.8c0,1,0,2.3,0.1,3.9C27.9,14.6,27.9,14.7,27.8,14.7z"
	/>
<path d="M32.1,34.3c-0.1,0-0.2-0.1-0.2-0.2c0-1.3,0-2.6,0-3.8h-1.4c-0.1,0-0.2-0.1-0.2-0.2s0.1-0.2,0.2-0.2H32c0-1.1,0-2.1-0.1-3.2
	c0-0.1,0.1-0.2,0.2-0.2c0.1,0,0.2,0.1,0.2,0.2c0,1.1,0,2.1,0.1,3.2h1.5c0.1,0,0.2,0.1,0.2,0.2c0,0.1-0.1,0.2-0.2,0.2h-1.5
	c0,1.3,0,2.6,0,3.9C32.3,34.3,32.2,34.3,32.1,34.3z"/>
<path class="st7" d="M48.6,46c0,0-0.1,0-0.1-0.1c0,0,0,0,0,0c0,0,0,0-0.1,0c0,0,0,0,0,0c0,0,0,0,0,0c0,0,0,0,0,0c0,0,0,0-0.1,0
	c0,0,0,0-0.1,0c0,0,0,0-0.1,0.1c0,0.1-0.1,0.1-0.1,0.2c0,0.1-0.1,0.1-0.1,0.2c0,0-0.1,0.1-0.1,0.2c0,0,0,0,0,0.1c0,0,0,0,0,0.1
	c0,0-0.1,0.1-0.1,0.1c0,0,0,0.1-0.1,0.1c0,0,0,0.1,0,0.1c0,0,0,0.1,0,0.1c0,0,0,0,0,0c0,0,0,0,0,0c0,0,0.1,0,0.1,0c0,0,0.1,0,0.1,0
	c0,0,0.1,0,0.1,0c0,0,0.1,0,0.1,0c0,0,0.1,0,0.1,0c0,0,0.1,0,0.2-0.1c0,0,0,0,0.1-0.1c0,0,0.1,0,0.1,0c0,0,0.1,0,0.2-0.1
	c0.1,0,0.1-0.1,0.1-0.1c0-0.1,0.1-0.1,0.1-0.1c0,0,0.1-0.1,0.1-0.1c0,0,0,0,0-0.1c0,0,0,0,0,0c0,0,0-0.1,0.1-0.1c0,0,0-0.1,0.1-0.1
	c0,0,0,0,0.1-0.1c0,0,0-0.1,0.1-0.1c0-0.1-0.1-0.1-0.1-0.2c-0.1,0-0.1-0.1-0.2-0.1C48.7,46,48.7,46,48.6,46z M38.4,50
	C38.4,50,38.4,50,38.4,50C38.4,50,38.4,50,38.4,50L38.4,50z M45.5,41.8C45.5,41.8,45.4,41.8,45.5,41.8c-0.2,0-0.3,0-0.3,0
	c-0.1,0-0.2,0-0.3,0c-0.2,0-0.3,0-0.5-0.1c-0.2,0-0.4,0-0.6,0c-0.1,0-0.2,0-0.3,0c-0.1,0-0.1,0-0.2,0c-0.1,0-0.2,0-0.2,0
	c-0.1,0-0.2,0-0.2,0c-0.1,0-0.1,0-0.2,0c0,0-0.1,0-0.2,0c-0.2,0-0.4,0.1-0.5,0.1c-0.2,0-0.4,0.1-0.5,0.1c-0.3,0-0.6,0.1-0.9,0.1
	c-0.3,0-0.6,0.1-0.8,0.1c-0.1,0-0.2,0-0.3,0.1c-0.1,0-0.2,0.1-0.3,0.2c0,0,0,0-0.1,0.1c0,0-0.1,0-0.1,0c-0.3,0.1-0.5,0.1-0.8,0.2
	c-0.3,0-0.5,0.1-0.8,0.2c0,0-0.1,0-0.1,0c0,0-0.1,0-0.1,0c0.2-0.1,0.3-0.2,0.5-0.2c0.1,0,0.3-0.1,0.5-0.2c-0.1,0-0.1,0-0.2,0
	c0,0-0.1,0-0.1,0c0,0,0.1-0.1,0.1-0.1c0,0,0.1,0,0.1,0c0,0,0.1,0,0.1,0c0,0,0,0,0.1-0.1c-0.2,0-0.4,0.1-0.6,0.2
	c-0.2,0.1-0.4,0.1-0.6,0.2c-0.1,0-0.2,0.1-0.3,0.1c-0.1,0-0.2,0-0.3,0c-0.1,0-0.1,0.1-0.1,0.1c0,0,0,0.1,0,0.1c0,0,0,0.1,0,0.1
	c0,0,0,0.1,0,0.1c-0.1,0.2-0.1,0.3-0.2,0.5c0,0.1-0.1,0.3-0.1,0.5c0,0.2,0,0.4,0,0.5c0,0.2,0,0.3,0.1,0.5c0,0.1,0.1,0.1,0.1,0.1
	c0,0,0.1,0,0.2,0c0.6-0.1,0.9-0.2,1.2-0.2c0.2,0,0.3,0.1,0.3,0.2c0,0.1-0.1,0.3-0.3,0.6c-0.2,0.3-0.4,0.6-0.6,1.1
	c-0.2,0.4-0.3,0.7-0.5,1.1s-0.3,0.7-0.5,1.1c0,0.1-0.1,0.2-0.1,0.3c0,0.1-0.1,0.2-0.2,0.3c0,0,0,0,0,0c0,0,0,0,0,0
	c-0.1,0.2-0.1,0.3-0.2,0.5c-0.1,0.2-0.1,0.3-0.1,0.5c0,0.1-0.1,0.3-0.1,0.4c0,0.1-0.1,0.3-0.1,0.4c-0.1,0.2-0.1,0.5-0.2,0.7
	c-0.1,0.2-0.2,0.5-0.2,0.7c-0.1,0.5-0.3,1-0.5,1.5c-0.1,0.5-0.3,1-0.4,1.5c-0.1,0.2-0.1,0.4,0,0.5c0.1,0.1,0.2,0.2,0.4,0.3l0,0
	c0,0,0,0,0.1,0c0,0,0,0,0,0c0,0,0,0,0,0c0.1,0,0.2,0,0.3-0.1c0.1,0,0.2,0,0.3-0.1c0.1,0,0.2,0,0.3-0.1c0.1,0,0.2-0.1,0.3-0.1
	c0.2,0,0.3-0.1,0.5-0.1c0.2,0,0.3-0.1,0.5-0.3h0c0.1,0,0.1-0.1,0.1-0.1c0,0,0.1-0.1,0.1-0.1c0,0,0-0.1,0-0.2s0-0.1,0-0.2
	c0-0.2,0.1-0.4,0.1-0.6c0.1-0.2,0.1-0.4,0.1-0.6c0-0.1,0-0.3,0.1-0.4c0-0.1,0.1-0.3,0.1-0.4c0-0.1,0.1-0.2,0.1-0.4
	c0-0.1,0.1-0.3,0.1-0.4c0-0.1,0.1-0.2,0.1-0.3c0-0.1,0.1-0.2,0.1-0.3c0,0,0,0,0,0c0,0,0,0,0,0c0-0.1,0-0.1,0-0.2
	c0,0,0.1-0.1,0.1-0.2c0-0.1,0-0.1,0-0.2c0-0.1,0-0.1,0-0.1v0v0c0-0.1,0.1-0.2,0.1-0.2c0.1-0.1,0.1-0.2,0-0.2l0,0c0,0,0,0,0,0
	c0.1-0.1,0.1-0.2,0.2-0.3c0.1,0,0.2-0.1,0.3-0.1c0,0,0,0,0.1,0c0,0,0,0,0.1,0c-0.1,0-0.1,0-0.2,0c-0.1,0-0.1,0-0.2,0.1
	c-0.1,0-0.1,0-0.1-0.1c0.1,0,0.1,0,0.2,0c0.1,0,0.1,0,0.2,0c0,0,0.1,0,0.1,0c0,0,0.1,0,0.1-0.1c-0.2,0-0.3,0-0.4,0
	c-0.1,0-0.1,0-0.1-0.1c0,0,0.1-0.1,0.2-0.1c0.1,0,0.1-0.1,0.2-0.1c0,0-0.1,0-0.1,0c0,0-0.1,0-0.1,0c0.1,0,0.2-0.1,0.3-0.1
	c0.1,0,0.2-0.1,0.3-0.1c0.1,0,0.3-0.1,0.4-0.1c0.1,0,0.3,0,0.4,0c0,0,0,0,0.1,0c0,0,0.1,0,0.1,0c0,0,0.1-0.1,0.1-0.1
	c0,0,0.1,0,0.1,0c0.1,0,0.1,0,0.2,0c0.1,0,0.1,0,0.2-0.1c0.2-0.1,0.4-0.1,0.6-0.2c0.2-0.1,0.4-0.1,0.6-0.2c0,0,0-0.1,0-0.1
	c0,0,0,0,0-0.1c0,0,0,0,0,0c0,0,0,0,0,0c0.2-0.1,0.4-0.1,0.6-0.2c0.2-0.1,0.4-0.1,0.6-0.2c0.2,0,0.4-0.1,0.5-0.2
	c0.2-0.1,0.4-0.1,0.6-0.2c-0.1,0-0.2,0-0.3,0.1c-0.1,0-0.1,0-0.2,0.1c0,0,0,0,0-0.1c0.1,0,0.2-0.1,0.3-0.1c0.1,0,0.2-0.1,0.3-0.1
	c0.1,0,0.2-0.1,0.3-0.1c0.1,0,0.2,0,0.3-0.1c0,0,0-0.1,0-0.1c0,0,0-0.1,0-0.1c0.1,0,0.2-0.1,0.3-0.1c0.1,0,0.2-0.1,0.3-0.1
	c0.1,0,0.1,0,0.2-0.1c0.1,0,0.1,0,0.1-0.1c0.1,0,0.1,0,0.2-0.1c0.1,0,0.1-0.1,0.2-0.1c-0.1,0-0.1,0-0.2,0c-0.1,0-0.2,0-0.2,0
	c0.1,0,0.2-0.1,0.3-0.1c0.1,0,0.1-0.1,0.2-0.1c0.1,0,0.1-0.1,0.2-0.1c0.1,0,0.1-0.1,0.2-0.1c0,0,0,0,0,0l0,0c0,0-0.1,0-0.1,0
	c0,0-0.1,0-0.1,0.1c0,0,0,0,0-0.1c0,0,0,0,0.1,0c0,0,0,0,0.1,0c0.1-0.1,0.3-0.2,0.4-0.3c0.1-0.1,0.2-0.2,0.4-0.3
	c0.1,0,0.1-0.1,0.1-0.2c0-0.1,0.1-0.1,0.1-0.2c0.1-0.1,0.2-0.2,0.3-0.4c0.1-0.1,0.2-0.2,0.3-0.4c0.2-0.3,0.3-0.5,0.3-0.8
	c0.1-0.3,0.1-0.5,0-0.7c0-0.1-0.1-0.2-0.1-0.3c0-0.1-0.1-0.2-0.1-0.3c0-0.1-0.1-0.2-0.2-0.3c-0.1-0.1-0.2-0.1-0.3-0.2c0,0,0,0,0,0h0
	c-0.1,0-0.1,0-0.2,0c0,0,0-0.1-0.1-0.1c0,0-0.1-0.1-0.1-0.1s-0.1-0.1-0.1-0.1c-0.1-0.1-0.3-0.1-0.5-0.2c-0.1-0.1-0.3-0.1-0.5-0.2
	c-0.2-0.1-0.5-0.2-0.7-0.2c-0.3-0.1-0.5-0.1-0.8-0.1c0,0,0,0,0.1,0c0,0,0,0,0.1,0c0.1,0,0.3,0.1,0.4,0.1c0.1,0,0.3,0,0.4,0.1
	C45.4,41.7,45.4,41.7,45.5,41.8c0.1-0.1,0.1,0,0.2,0C45.5,41.7,45.5,41.8,45.5,41.8z M45.1,43.7c-0.1,0-0.2,0-0.3,0
	c0.1,0,0.3,0.1,0.4,0c0.2,0,0.3,0,0.5,0c0,0-0.1,0-0.1,0.1c0,0,0,0-0.1,0.1c0.1,0,0.1,0,0.1,0c0,0,0.1,0,0.1,0c0,0,0,0-0.1,0.1
	c0,0,0,0,0,0c0,0,0,0,0,0l0,0c0.1,0,0.3,0.1,0.4,0.2c0.1,0.1,0.2,0.2,0.2,0.3c0,0.1,0,0.2,0,0.3c0,0.1-0.1,0.2-0.2,0.3
	c-0.1,0.2-0.3,0.4-0.5,0.5c-0.2,0.1-0.4,0.3-0.6,0.4c-0.2,0.1-0.4,0.2-0.7,0.3c-0.2,0.1-0.5,0.2-0.7,0.3c-0.2,0.1-0.4,0.1-0.6,0.2
	c-0.2,0.1-0.4,0.1-0.6,0.2c0,0.1,0.1,0.1,0.2,0.1c0.1,0,0.2,0,0.3-0.1c0.1,0,0.1,0,0.2,0c0.1,0,0.1,0,0.2,0c0,0.1-0.1,0.1-0.1,0.1
	c0,0-0.1,0-0.1,0.1c-0.1,0-0.3,0.1-0.4,0.1c-0.1,0-0.3,0.1-0.4,0.1c-0.1,0-0.1,0-0.2,0.1c-0.1,0-0.1,0-0.2,0.1
	c0.1,0.1,0.1,0.1,0.2,0.1c0.1,0,0.1-0.1,0.3-0.1c-0.1,0.1-0.1,0.1-0.2,0.1c0,0-0.1,0-0.1,0.1c-0.2,0.1-0.5,0.1-0.7,0.2
	c0,0-0.1,0-0.1,0c0,0-0.1,0-0.1,0C41.1,47.9,41,48,40.8,48c-0.1,0-0.2,0.1-0.4,0.1c-0.6,0.3-1,0.4-1.2,0.4c-0.3,0-0.4-0.1-0.4-0.4
	c0-0.2,0.1-0.5,0.2-0.8c0.2-0.3,0.4-0.6,0.6-1c0.1-0.2,0.2-0.3,0.3-0.5c0.1-0.2,0.2-0.4,0.3-0.5c0.2-0.4,0.4-0.6,0.5-0.8
	c0.1-0.2,0.3-0.3,0.5-0.4c0.2-0.1,0.5-0.2,1-0.2c0.2,0,0.4-0.1,0.6-0.1c0.2,0,0.4-0.1,0.7-0.1c0.3-0.1,0.5-0.1,0.7-0.1
	c0.1,0,0.2,0,0.3,0c0.1,0,0.2,0,0.3,0c0.1,0,0.2,0,0.3,0c0.1,0,0.2,0,0.3,0C45.3,43.6,45.2,43.7,45.1,43.7z M40.2,49
	c0,0-0.1,0-0.1,0v0c0.1,0,0.2,0,0.3-0.1c0,0,0,0,0,0l0,0C40.3,49,40.3,49,40.2,49z M41.3,48.6c0.1,0,0.1-0.1,0.2-0.1
	c0.1,0,0.1,0,0.2,0c0.1-0.1,0.3-0.2,0.4-0.2c0.1,0,0.2,0,0.4,0c0,0,0,0,0,0c0,0,0,0,0,0c0,0,0.1-0.1,0.1-0.1c0,0,0.1,0,0.1,0
	c0,0-0.1,0-0.1,0.1c0,0-0.1,0-0.1,0c0,0,0,0,0,0c0,0,0,0,0,0c-0.1,0.1-0.2,0.1-0.3,0.1c-0.1,0-0.2,0-0.3,0c0,0-0.1,0-0.1,0
	c0,0-0.1,0-0.1,0C41.5,48.6,41.4,48.6,41.3,48.6z M39.6,49.1c0.1,0,0.2,0,0.3,0c0.1,0,0.2,0,0.3,0.1c-0.2,0.1-0.4,0.1-0.5,0.1
	c-0.1,0-0.3,0-0.5,0.1c-0.1,0-0.3,0.1-0.5,0.1c-0.1,0-0.3,0-0.4,0c0,0,0,0,0,0c0,0,0,0,0,0c0,0,0.1,0,0.1,0c0,0,0.1,0,0.1,0l0,0
	c0,0,0,0,0,0c-0.1,0-0.1,0-0.2,0c0,0-0.1,0-0.2,0c0-0.1,0.1-0.2,0.1-0.2c0,0,0.1-0.1,0.1-0.1c0.2-0.1,0.4-0.1,0.6-0.1
	C39.2,49.1,39.4,49.1,39.6,49.1z M10.1,49.7C10.1,49.7,10.1,49.7,10.1,49.7C10.1,49.7,10.1,49.8,10.1,49.7C10,49.9,9.9,50,9.8,50.1
	c-0.1,0.1-0.2,0.3-0.2,0.4c-0.1,0.1-0.1,0.3-0.2,0.5c0,0.1,0,0.3,0,0.5c0,0.3,0.1,0.6,0.3,0.8c0.2,0.2,0.4,0.4,0.7,0.5
	c0.1,0,0.1,0,0.2,0.1c0,0,0.1,0,0.2,0.1c0.1,0.1,0.3,0.1,0.4,0.1c0.1,0,0.3,0,0.4-0.1c0.1,0,0.2-0.1,0.2-0.1c0.1,0,0.2-0.1,0.2-0.2
	l0,0c0,0,0,0,0,0c0,0,0.1-0.1,0.1-0.1c0,0,0.1,0,0.1-0.1c0.1-0.1,0.1-0.1,0.2-0.1c0.1,0,0.1-0.1,0.2-0.1c0.1,0.1,0.1,0.2,0.2,0.2
	c0.1,0.1,0.2,0.1,0.3,0.1c0,0,0,0,0.1,0c0,0,0,0,0,0c0.1,0.1,0.2,0.1,0.3,0.2c0.1,0,0.2,0.1,0.4,0.1c0.1,0,0.1,0,0.2,0
	c0.1,0,0.2,0,0.2,0c0.1,0,0.2,0,0.2-0.1c0.1,0,0.2-0.1,0.3-0.1c0.1,0,0.2,0,0.3,0c0.1,0,0.1,0,0.2-0.1c0.1,0,0.1-0.1,0.2-0.1
	c0.1-0.1,0.1-0.1,0.2-0.2c0.1-0.1,0.1-0.1,0.2-0.2c0,0,0,0,0.1-0.1c0,0,0,0,0.1,0c0,0,0.1-0.1,0.1-0.1c0,0,0.1-0.1,0.1-0.2
	c0,0,0-0.1,0.1-0.1c0,0,0.1-0.1,0.1-0.1c0,0,0.1-0.1,0.1-0.1c0,0,0.1-0.1,0.1-0.1c0,0,0,0,0,0c0,0,0,0,0,0c0,0,0,0.1,0,0.1
	c0.1,0.2,0.2,0.4,0.3,0.6c0.1,0.2,0.2,0.4,0.2,0.6c0.1,0.2,0.1,0.4,0.2,0.5c0,0.1,0,0.3-0.1,0.5c-0.1,0.1-0.3,0.4-0.5,0.6
	c-0.2,0.2-0.4,0.4-0.6,0.6c-0.2,0.2-0.4,0.4-0.5,0.7c-0.1,0.1-0.2,0.2-0.2,0.4c-0.1,0.1-0.1,0.2-0.1,0.4c0,0,0,0.1,0,0.2
	c0,0.1,0,0.1,0,0.2c0,0.1,0,0.2,0.1,0.3c0,0.1,0.1,0.2,0.1,0.3c0,0,0.1,0.1,0.1,0.2c0,0.1,0,0.1,0.1,0.2c0,0.1,0.1,0.1,0.1,0.1
	c0,0,0.1,0,0.2-0.1c0,0,0,0,0.1,0c0,0,0,0,0,0c0,0,0.1,0,0.1,0c0,0,0.1,0,0.1,0c0,0,0,0,0,0.1c0,0,0,0,0,0c0,0,0.1,0,0.1,0
	c0,0,0,0,0.1,0c0.1,0,0.1,0,0.2-0.1c0.1,0,0.1-0.1,0.2-0.1c0,0,0,0,0.1-0.1c0,0,0.1,0,0.1-0.1c0,0,0,0,0,0c0,0,0,0,0,0c0,0,0,0,0,0
	c0,0,0,0,0,0c0.1-0.1,0.1-0.1,0.2-0.1c0,0,0.1,0,0.1,0c-0.1,0.1-0.1,0.2-0.2,0.2c-0.1,0.1-0.1,0.2-0.2,0.3c0,0,0,0,0,0c0,0,0,0,0,0
	c0.1,0,0.1,0,0.2-0.1c0.1,0,0.1-0.1,0.2-0.2c0,0,0,0,0,0c0,0,0,0,0,0c0.1,0,0.1-0.1,0.2-0.1c0.1,0,0.1-0.1,0.2-0.2
	c0,0,0.1-0.1,0.1-0.1c0,0,0.1-0.1,0.1-0.1c0.1-0.1,0.1-0.1,0.3-0.3c0.1-0.1,0.2-0.2,0.4-0.4c0.1-0.1,0.2-0.2,0.2-0.3
	c0-0.1,0.1-0.1,0.1-0.2s0.1-0.1,0.1-0.2c0,0,0,0,0,0c0,0,0,0,0,0c0,0,0,0,0.1,0c0,0,0,0,0.1-0.1c0-0.1,0-0.1,0-0.2
	c0-0.1,0-0.2,0.1-0.2l0,0c0,0,0,0,0-0.1c0,0,0-0.1,0-0.1c0,0,0,0,0-0.1c0-0.2,0.1-0.3,0.1-0.4c0-0.1,0-0.1,0-0.2c0-0.1,0-0.2,0-0.3
	c0-0.2,0.1-0.3,0.2-0.4c0.1-0.1,0.3-0.2,0.4-0.2c0.2-0.1,0.3-0.1,0.5-0.2c0,0,0.1-0.1,0.1-0.1c0,0,0.1-0.1,0.1-0.1
	c0.1-0.1,0.2-0.2,0.3-0.3c0.1-0.1,0.2-0.2,0.3-0.2c0,0,0,0,0,0c0,0,0,0,0.1,0c0.1-0.1,0.3-0.2,0.4-0.4c0,0,0.1-0.1,0.1-0.1
	c0,0,0.1-0.1,0.1-0.1c0.1-0.1,0.1-0.1,0.1-0.2c0,0,0,0,0-0.1c0,0.3,0.1,0.5,0.3,0.7c0.2,0.2,0.4,0.4,0.7,0.5c0.1,0,0.1,0,0.2,0.1
	c0,0,0.1,0,0.2,0.1c0.1,0.1,0.3,0.1,0.4,0.1c0.1,0,0.3,0,0.4-0.1c0.1,0,0.2-0.1,0.2-0.1c0.1,0,0.2-0.1,0.2-0.2l0,0c0,0,0,0,0,0
	c0,0,0.1-0.1,0.1-0.1c0,0,0.1,0,0.1-0.1c0.1-0.1,0.1-0.1,0.2-0.1c0.1,0,0.1-0.1,0.2-0.1c0.1,0.1,0.1,0.2,0.2,0.2
	c0.1,0.1,0.2,0.1,0.3,0.1c0,0,0,0,0.1,0c0,0,0,0,0,0c0.1,0.1,0.2,0.1,0.3,0.2c0.1,0,0.3,0.1,0.4,0.1c0.1,0,0.1,0,0.2,0
	c0.1,0,0.2,0,0.2,0c0.1,0,0.2,0,0.2-0.1c0.1,0,0.2-0.1,0.3-0.1c0.1,0,0.2,0,0.3,0c0.1,0,0.1,0,0.2-0.1c0.1,0,0.1-0.1,0.2-0.1
	c0.1-0.1,0.1-0.1,0.2-0.2c0.1-0.1,0.1-0.1,0.2-0.2c0,0,0,0,0.1-0.1c0,0,0,0,0.1,0c0,0,0.1-0.1,0.1-0.1s0.1-0.1,0.1-0.2
	c0,0,0-0.1,0.1-0.1c0,0,0.1-0.1,0.1-0.1c0,0,0.1-0.1,0.1-0.1c0,0,0.1-0.1,0.1-0.1c0,0,0,0,0.1-0.1c0,0,0,0,0.1-0.1
	c0.1-0.1,0.1-0.2,0.2-0.3c0.1-0.2,0.1-0.3,0.1-0.4c-0.1-0.1-0.1-0.1-0.2-0.1c0,0-0.1-0.1-0.2-0.1c0,0,0,0,0,0c0,0,0,0,0,0
	c-0.1,0.1-0.2,0.2-0.3,0.4c-0.1,0.2-0.2,0.3-0.4,0.5c-0.1,0.2-0.2,0.3-0.3,0.4c-0.1,0.1-0.1,0.1-0.2,0.1c-0.1,0-0.1,0.1-0.2,0.2
	c-0.1,0-0.2,0.1-0.2,0.1c-0.1,0-0.1,0.1-0.2,0.1c-0.1,0-0.1,0.1-0.2,0.1c-0.1,0-0.1,0.1-0.2,0.1c-0.1,0-0.1,0-0.2,0.1
	c-0.1,0-0.1,0-0.2,0c0,0-0.1,0-0.1,0c0,0-0.1,0-0.1-0.1c0-0.1-0.1-0.2-0.1-0.3c0-0.1-0.1-0.2-0.1-0.2c0-0.1,0-0.3,0.1-0.4
	c0-0.1,0.1-0.2,0.1-0.3c0.1-0.1,0.1-0.2,0.1-0.3c0,0,0,0,0-0.1c0,0,0,0,0-0.1c0-0.1,0-0.2,0-0.3c0-0.1-0.1-0.2-0.1-0.3
	c0,0-0.1-0.1-0.1-0.1C27,50,27,50,26.9,50c-0.1,0-0.2,0-0.3,0c-0.1,0.1-0.1,0.2-0.2,0.4s-0.1,0.2-0.2,0.4c0,0.1-0.1,0.2-0.2,0.2
	c-0.1,0.1-0.1,0.1-0.2,0.2c0,0-0.1,0.1-0.1,0.1c0,0-0.1,0.1-0.1,0.1c0,0.1-0.1,0.1-0.1,0.2c0,0.1-0.1,0.1-0.2,0.2
	c-0.1,0.1-0.3,0.2-0.4,0.3c-0.1,0.1-0.2,0.2-0.3,0.3c0,0,0,0,0,0c0,0,0,0-0.1,0c0,0,0,0,0-0.1c0,0,0,0,0,0c0-0.2,0.1-0.5,0.3-0.7
	c0,0,0,0,0-0.1c0,0,0,0,0-0.1c0,0,0.1-0.1,0.1-0.1c0-0.1,0.1-0.1,0.1-0.2c0.1-0.1,0.2-0.2,0.2-0.4c0.1-0.1,0.1-0.2,0.3-0.3
	c0,0,0.1-0.1,0.1-0.1c0,0,0.1-0.1,0.1-0.1c0.1-0.1,0.2-0.2,0.3-0.4c0.1-0.1,0.2-0.2,0.4-0.4v0c0.1-0.1,0.2-0.1,0.3-0.2
	c0.1-0.1,0.2-0.1,0.3-0.2c0.1-0.1,0.1-0.1,0.2-0.2c0-0.1,0-0.1,0-0.2c0,0,0-0.1,0-0.1c0,0,0-0.1,0-0.1c0-0.1-0.1-0.1-0.2-0.2
	c-0.1-0.1-0.1-0.1-0.2-0.2c0,0,0,0,0,0c0,0,0,0-0.1,0c0,0-0.1,0-0.1-0.1c0,0-0.1,0-0.1-0.1h0c0,0,0,0,0,0c0,0-0.1-0.1-0.1-0.1
	c0,0-0.1,0-0.1,0c0,0,0,0-0.1,0c0,0,0,0-0.1,0c-0.1,0-0.1,0-0.2,0c-0.1,0-0.1,0-0.2-0.1c0,0,0,0-0.1,0c-0.1,0-0.1,0-0.2,0
	c-0.1,0-0.1,0-0.2,0c0,0-0.1,0-0.1,0c0,0-0.1,0-0.1,0c-0.1,0.1-0.3,0.2-0.4,0.3c-0.1,0.1-0.3,0.2-0.4,0.4c-0.1,0.2-0.3,0.4-0.5,0.6
	c-0.1,0.2-0.3,0.4-0.4,0.6c0,0,0,0,0,0c0,0,0,0,0,0C23.1,49.9,23,50,23,50.2c-0.1,0.1-0.1,0.2-0.2,0.3c0,0,0,0.1-0.1,0.1
	c-0.1,0.1-0.1,0.1-0.2,0.2c-0.1,0.1-0.1,0.1-0.2,0.2c-0.1,0.1-0.1,0.1-0.2,0.2c-0.1,0.1-0.2,0.2-0.3,0.3c-0.1,0.1-0.2,0.2-0.4,0.3
	c-0.1,0.1-0.3,0.2-0.5,0.4c-0.1,0.1-0.3,0.2-0.5,0.4c-0.2,0.1-0.4,0.1-0.6,0.2c-0.2,0.1-0.4,0.2-0.5,0.2c-0.1,0-0.3,0-0.3-0.2
	c0,0-0.1-0.1-0.1-0.2c0-0.1,0-0.1-0.1-0.2c-0.1-0.1-0.1-0.2-0.2-0.4c-0.1-0.2-0.2-0.3-0.3-0.5c-0.1-0.2-0.2-0.3-0.3-0.4
	c0,0-0.1-0.1-0.1-0.1c0,0-0.1-0.1-0.1-0.1c0-0.1,0-0.2,0-0.4c0-0.1,0-0.3,0.1-0.4c0,0,0-0.1,0.1-0.2c0-0.1,0.1-0.1,0.1-0.2
	c0,0,0,0,0,0v0c0,0,0-0.1,0-0.1c0,0,0-0.1,0.1-0.1c0,0,0-0.1,0.1-0.1c0,0,0.1-0.1,0.1-0.1c0,0,0.1,0,0.1-0.1c0,0,0-0.1,0.1-0.1
	c0-0.1,0.1-0.2,0.1-0.3c0-0.1,0.1-0.2,0.1-0.3c0-0.1,0-0.1,0-0.2c0-0.1,0-0.1,0-0.2c0,0,0,0,0-0.1s0-0.1,0-0.1c0-0.1,0-0.2-0.1-0.4
	c-0.1-0.2-0.1-0.3-0.2-0.5c-0.1-0.1-0.1-0.2-0.2-0.3c0,0,0,0,0,0h0c-0.1-0.1-0.1-0.1-0.2-0.1c0,0-0.1-0.1-0.2-0.1c0,0,0,0-0.1,0
	c0,0-0.1,0-0.1,0.1c0,0,0,0.1-0.1,0.1c0,0,0,0-0.1,0.1c0,0,0,0,0,0c0,0,0,0,0,0c0,0.1-0.1,0.1-0.1,0.2c-0.1,0.1-0.1,0.1-0.1,0.2
	c-0.1,0.1-0.1,0.2-0.2,0.4c0,0-0.1,0.1-0.1,0.1c0,0,0,0.1-0.1,0.1c0,0.1,0,0.1-0.1,0.2c0,0,0,0.1-0.1,0.1c0,0.1-0.1,0.1-0.1,0.2
	c0,0.1,0,0.1-0.1,0.2c0,0.1,0,0.1,0,0.2c0,0,0,0.1,0,0.1c0,0.1-0.1,0.1-0.1,0.2c0,0.1,0,0.1,0,0.2c0,0,0,0.1,0,0.1c0,0,0,0.1,0,0.1
	c0,0.1,0,0.4,0.1,0.7c0.1,0.3,0.1,0.6,0.2,0.9c0,0,0,0,0,0c0,0,0,0,0,0c-0.1,0.2-0.2,0.3-0.4,0.5c-0.1,0.2-0.2,0.3-0.3,0.4
	c-0.1,0.1-0.1,0.1-0.2,0.1c-0.1,0-0.1,0.1-0.2,0.2c-0.1,0-0.2,0.1-0.2,0.1c-0.1,0-0.1,0.1-0.2,0.1c-0.1,0-0.1,0.1-0.2,0.1
	c-0.1,0-0.1,0.1-0.2,0.1c-0.1,0-0.1,0-0.2,0.1c-0.1,0-0.1,0-0.2,0c0,0-0.1,0-0.1,0c0,0-0.1,0-0.1-0.1c0-0.1-0.1-0.2-0.1-0.3
	c0-0.1-0.1-0.2-0.1-0.2c0-0.1,0-0.3,0.1-0.4c0-0.1,0.1-0.2,0.1-0.3c0.1-0.1,0.1-0.2,0.1-0.3c0,0,0,0,0-0.1c0,0,0,0,0-0.1
	c0-0.1,0-0.2,0-0.3c0-0.1-0.1-0.2-0.1-0.3c0,0-0.1-0.1-0.1-0.1C14,50,13.9,50,13.9,50c-0.1,0-0.2,0-0.3,0c-0.1,0.1-0.1,0.2-0.2,0.4
	c-0.1,0.1-0.1,0.2-0.2,0.4c0,0.1-0.1,0.2-0.2,0.2C13,51,12.9,51,12.8,51.1c0,0-0.1,0.1-0.1,0.1c0,0-0.1,0.1-0.1,0.1
	c0,0.1-0.1,0.1-0.1,0.2c0,0.1-0.1,0.1-0.2,0.2c-0.1,0.1-0.3,0.2-0.4,0.3c-0.1,0.1-0.2,0.2-0.3,0.3c0,0,0,0,0,0c0,0,0,0-0.1,0
	c0,0,0,0,0-0.1c0,0,0,0,0,0c0-0.2,0.1-0.5,0.2-0.7c0,0,0,0,0-0.1c0,0,0,0,0-0.1c0,0,0.1-0.1,0.1-0.1c0-0.1,0.1-0.1,0.1-0.2
	c0.1-0.1,0.2-0.2,0.3-0.4c0.1-0.1,0.1-0.2,0.2-0.3c0,0,0.1-0.1,0.1-0.1c0,0,0.1-0.1,0.1-0.1c0.1-0.1,0.2-0.2,0.3-0.4
	c0.1-0.1,0.2-0.2,0.4-0.4v0c0.1-0.1,0.2-0.1,0.3-0.2c0.1-0.1,0.2-0.1,0.3-0.2c0.1-0.1,0.1-0.1,0.2-0.2c0-0.1,0-0.1,0-0.2
	c0,0,0-0.1,0-0.1c0,0,0-0.1,0-0.1c0-0.1-0.1-0.1-0.2-0.2c-0.1-0.1-0.1-0.1-0.2-0.2c0,0,0,0,0,0c0,0,0,0-0.1,0c0,0-0.1,0-0.1-0.1
	c0,0-0.1,0-0.1-0.1h0c0,0,0,0,0,0c0,0-0.1-0.1-0.1-0.1c0,0-0.1,0-0.1,0c0,0,0,0-0.1,0c0,0,0,0-0.1,0c-0.1,0-0.1,0-0.2,0
	c-0.1,0-0.1,0-0.2-0.1c0,0,0,0-0.1,0c-0.1,0-0.1,0-0.2,0c-0.1,0-0.1,0-0.2,0c0,0-0.1,0-0.1,0c0,0-0.1,0-0.1,0
	c-0.1,0.1-0.3,0.2-0.4,0.3c-0.1,0.1-0.3,0.2-0.4,0.4c-0.1,0.2-0.3,0.4-0.5,0.6C10.4,49.3,10.3,49.5,10.1,49.7z M17.8,55.2
	c0,0.1-0.1,0.2-0.1,0.3c0,0.1,0,0.2-0.1,0.3c0,0.1-0.1,0.2-0.1,0.3c0,0.1-0.1,0.2-0.1,0.3c0,0,0,0.1,0,0.1c0,0,0,0-0.1,0.1
	c-0.1,0.1-0.1,0.2-0.2,0.3c-0.1,0.1-0.2,0.2-0.2,0.2c0,0-0.1,0.1-0.1,0.1c0,0-0.1,0.1-0.1,0.1c0,0-0.1,0.1-0.1,0.1
	c0,0-0.1,0.1-0.1,0.1c0,0-0.1,0.1-0.1,0.1c0,0-0.1,0-0.1,0c0,0-0.1-0.1-0.1-0.1c0,0-0.1-0.1-0.1-0.1c0,0-0.1-0.1-0.1-0.1
	c0,0,0-0.1,0-0.2c0-0.1,0-0.1,0-0.2c0-0.1,0-0.1,0-0.2c0-0.1,0.1-0.1,0.1-0.1c0,0,0.1-0.1,0.1-0.1c0,0,0.1-0.1,0.1-0.1
	c0,0,0.1-0.1,0.1-0.2c0-0.1,0.1-0.1,0.1-0.2c0.1-0.1,0.1-0.1,0.2-0.1c0,0,0.1,0,0.1-0.1c0,0,0.1,0,0.1-0.1c0.1-0.1,0.2-0.2,0.4-0.4
	c0.1-0.2,0.3-0.3,0.4-0.4c0.1-0.1,0.2,0,0.2,0.2C17.8,55.1,17.8,55.1,17.8,55.2C17.8,55.2,17.8,55.2,17.8,55.2z M5.7,42
	c-0.1,0-0.2,0-0.3,0c-0.1,0-0.2,0.1-0.2,0.2c-0.1,0.1-0.3,0.3-0.6,0.6c-0.3,0.3-0.6,0.7-0.9,1.1c-0.3,0.4-0.6,0.8-0.9,1.3
	c-0.3,0.4-0.5,0.7-0.6,1c-0.2,0.4-0.4,0.7-0.5,1.1c-0.2,0.4-0.4,0.8-0.5,1.2c0,0,0-0.1,0.1-0.1c0,0,0-0.1,0.1-0.1c0,0,0-0.1,0.1-0.1
	c0,0,0-0.1,0.1-0.1c0,0,0,0,0,0c0,0,0,0,0,0c-0.1,0.1-0.1,0.2-0.2,0.4c0,0.1-0.1,0.2-0.1,0.4c-0.1,0.2-0.1,0.4-0.2,0.7
	c-0.1,0.2-0.2,0.5-0.2,0.7c-0.1,0.3-0.1,0.5-0.2,0.7c-0.1,0.2-0.1,0.5-0.2,0.7c0,0.2-0.1,0.3-0.1,0.5c0,0.1,0,0.3,0,0.5
	c0,0.2,0,0.5,0,0.7c0,0.2,0.1,0.5,0.1,0.7c0,0.1,0.1,0.1,0.1,0.2c0,0.1,0.1,0.1,0.1,0.2c0,0.1,0,0.2,0.1,0.3C0.7,54.9,0.8,55,0.9,55
	c0.1,0.2,0.3,0.3,0.5,0.5c0.2,0.1,0.4,0.2,0.6,0.3c0,0,0.1,0,0.2,0c0,0,0.1,0,0.1,0c0.1,0,0.1,0,0.2,0c0.1,0,0.1,0,0.2,0
	C2.8,55.9,3,56,3.2,56c0.2,0,0.3,0,0.5,0c0.2,0,0.3,0,0.4,0c0.1,0,0.3,0,0.4,0c0.1,0,0.3,0,0.3,0C5,55.9,5,55.8,5.1,55.7
	c0,0,0.1-0.1,0.1-0.1c0,0,0.1-0.1,0.1-0.1c0.3-0.3,0.5-0.6,0.7-1.1c0.2-0.5,0.4-1,0.6-1.5c0.2-0.5,0.4-1,0.6-1.5
	c0-0.1,0.1-0.2,0.1-0.3c0-0.1,0-0.2,0-0.3c0-0.2-0.1-0.3-0.2-0.4c-0.1-0.1-0.3-0.1-0.5-0.1c-0.2,0-0.4,0.1-0.6,0.1
	c-0.2,0-0.4,0.1-0.6,0.2C5.2,50.5,5,50.6,5,50.8c-0.1,0.1-0.1,0.3,0,0.5C5,51.4,5,51.4,5,51.5c0,0.1,0,0.1-0.1,0.2
	c0,0.2-0.1,0.4-0.1,0.5c0,0.2-0.1,0.4-0.2,0.6c-0.1,0.2-0.2,0.4-0.3,0.6c-0.1,0.2-0.3,0.4-0.4,0.4c-0.1,0.1-0.3,0-0.4-0.2
	c-0.1-0.2-0.2-0.6-0.3-1.1c0-0.1,0-0.2,0-0.2c0-0.1,0-0.2,0-0.2c0-0.2,0-0.3,0-0.5c0-0.2,0-0.3,0-0.5c0-0.2,0.1-0.4,0.1-0.7
	c0-0.2,0.1-0.5,0.1-0.7c0-0.2,0-0.5,0.1-0.7c0-0.2,0.1-0.4,0.1-0.7c0-0.3,0.1-0.6,0.2-0.9C3.8,47.2,3.9,47,4,46.7
	c0.1-0.2,0.2-0.4,0.3-0.6c0.1-0.2,0.2-0.4,0.3-0.7c0.1-0.1,0.1-0.3,0.2-0.5c0.1-0.1,0.2-0.3,0.4-0.4c0.1-0.1,0.1-0.2,0.2-0.3
	c0.1-0.1,0.1-0.2,0.1-0.3c0-0.1,0.1-0.2,0.2-0.4c0.1-0.1,0.3-0.2,0.5-0.3c0.2-0.1,0.3-0.1,0.4,0.1c0.1,0.1,0.1,0.4,0.1,0.7
	c0,0,0,0,0,0.1c0,0,0,0.1,0,0.1c0,0.2,0,0.5,0,0.7c0,0.2,0,0.5,0,0.7c0,0.1,0,0.3,0,0.4c0,0.1,0,0.3,0,0.4c0,0.3,0,0.5,0,0.8
	c0,0.3,0,0.5,0,0.8c0,0.1,0,0.1,0,0.1c0,0,0.1,0,0.1,0.1c0.1,0,0.2,0,0.3,0.1c0.1,0,0.2,0,0.3,0.1c0.3,0,0.5,0,0.7,0
	c0.2-0.1,0.4-0.2,0.6-0.4c0.3-0.3,0.4-0.7,0.5-1.3c0.1-0.6,0.1-1.2-0.1-1.9c-0.1-0.7-0.3-1.3-0.6-1.8s-0.6-0.9-1.1-1.1
	C6.8,41.6,6.3,41.7,5.7,42z M78.1,48.5c-0.1,0.2-0.3,0.4-0.5,0.6c-0.1,0.2-0.3,0.4-0.4,0.6c0,0,0,0,0,0c0,0,0,0,0,0
	c-0.1,0.1-0.2,0.2-0.3,0.4c-0.1,0.1-0.1,0.2-0.2,0.3c0,0,0,0.1-0.1,0.1c-0.1,0.1-0.1,0.1-0.2,0.2c-0.1,0.1-0.1,0.1-0.2,0.2
	c-0.1,0.1-0.1,0.1-0.2,0.2c-0.1,0.1-0.2,0.2-0.3,0.3c-0.1,0.1-0.2,0.2-0.4,0.3c-0.1,0.1-0.3,0.2-0.5,0.4c-0.1,0.1-0.3,0.2-0.5,0.4
	c-0.2,0.1-0.4,0.1-0.6,0.2c-0.2,0.1-0.4,0.2-0.5,0.2c-0.1,0-0.3,0-0.3-0.2c0,0-0.1-0.1-0.1-0.2c0-0.1,0-0.1-0.1-0.2
	c-0.1-0.1-0.1-0.2-0.2-0.4c-0.1-0.2-0.2-0.3-0.2-0.5c-0.1-0.2-0.2-0.3-0.3-0.4c0,0-0.1-0.1-0.1-0.1c0,0-0.1-0.1-0.1-0.1
	c0-0.1,0-0.2,0-0.4c0-0.1,0-0.3,0.1-0.4c0,0,0-0.1,0.1-0.2c0-0.1,0.1-0.1,0.1-0.2c0,0,0,0,0,0v0c0,0,0-0.1,0-0.1c0,0,0-0.1,0.1-0.1
	c0,0,0-0.1,0.1-0.1c0,0,0.1-0.1,0.1-0.1c0,0,0.1,0,0.1-0.1c0,0,0-0.1,0.1-0.1c0-0.1,0.1-0.2,0.1-0.3c0-0.1,0.1-0.2,0.1-0.3
	c0-0.1,0-0.1,0-0.2c0-0.1,0-0.1,0-0.2c0,0,0,0,0-0.1c0,0,0-0.1,0-0.1c0-0.1,0-0.2-0.1-0.4c-0.1-0.2-0.1-0.3-0.2-0.5
	c-0.1-0.1-0.1-0.2-0.2-0.3c0,0,0,0,0,0h0c-0.1-0.1-0.1-0.1-0.2-0.1c0,0-0.1-0.1-0.2-0.1c0,0,0,0-0.1,0c0,0-0.1,0-0.1,0.1
	c0,0,0,0.1-0.1,0.1c0,0,0,0-0.1,0.1c0,0,0,0,0,0c0,0,0,0,0,0c0,0.1-0.1,0.1-0.1,0.2c-0.1,0.1-0.1,0.1-0.1,0.2
	c-0.1,0.1-0.1,0.2-0.2,0.4c0,0-0.1,0.1-0.1,0.1c0,0,0,0.1-0.1,0.1c0,0.1,0,0.1-0.1,0.2c0,0,0,0.1-0.1,0.1c0,0.1-0.1,0.1-0.1,0.2
	c0,0.1,0,0.1-0.1,0.2c0,0.1,0,0.1,0,0.2c0,0,0,0.1,0,0.1c0,0.1-0.1,0.1-0.1,0.2c0,0.1,0,0.1,0,0.2c0,0,0,0.1,0,0.1c0,0,0,0.1,0,0.1
	c0,0.1,0,0.4,0.1,0.7c0.1,0.3,0.1,0.6,0.2,0.9v0c0,0-0.1,0.1-0.1,0.1c-0.1,0.1-0.1,0.1-0.2,0.2c-0.1,0.1-0.2,0.2-0.3,0.3
	c-0.1,0.1-0.2,0.2-0.4,0.3c-0.1,0.1-0.3,0.2-0.5,0.4c-0.1,0.1-0.3,0.2-0.5,0.4c-0.2,0.1-0.4,0.1-0.6,0.2c-0.2,0.1-0.4,0.2-0.5,0.2
	c-0.1,0-0.3,0-0.3-0.2c0,0-0.1-0.1-0.1-0.2c0-0.1,0-0.1-0.1-0.2c-0.1-0.1-0.1-0.2-0.2-0.4c-0.1-0.2-0.2-0.3-0.3-0.5
	c-0.1-0.2-0.2-0.3-0.2-0.4c0,0-0.1-0.1-0.1-0.1c0,0-0.1-0.1-0.1-0.1c0-0.1,0-0.2,0-0.4c0-0.1,0-0.3,0.1-0.4c0,0,0-0.1,0.1-0.2
	c0-0.1,0.1-0.1,0.1-0.2c0,0,0,0,0,0v0c0,0,0-0.1,0-0.1c0,0,0-0.1,0.1-0.1c0,0,0-0.1,0.1-0.1c0,0,0.1-0.1,0.1-0.1c0,0,0.1,0,0.1-0.1
	c0,0,0-0.1,0.1-0.1c0-0.1,0.1-0.2,0.1-0.3c0-0.1,0.1-0.2,0.1-0.3c0-0.1,0-0.1,0-0.2c0-0.1,0-0.1,0-0.2c0,0,0,0,0-0.1
	c0,0,0-0.1,0-0.1c0-0.1,0-0.2-0.1-0.4c-0.1-0.2-0.1-0.3-0.2-0.5c-0.1-0.1-0.1-0.2-0.2-0.3c0,0,0,0,0,0h0c-0.1-0.1-0.1-0.1-0.2-0.1
	c0,0-0.1-0.1-0.2-0.1c0,0,0,0-0.1,0c0,0-0.1,0-0.1,0.1c0,0,0,0.1-0.1,0.1c0,0,0,0-0.1,0.1c0,0,0,0,0,0c0,0,0,0,0,0
	c0,0.1-0.1,0.1-0.1,0.2c-0.1,0.1-0.1,0.1-0.1,0.2c-0.1,0.1-0.1,0.2-0.2,0.4c0,0-0.1,0.1-0.1,0.1c0,0,0,0.1-0.1,0.1
	c0,0.1,0,0.1-0.1,0.2c0,0,0,0.1-0.1,0.1c0,0.1-0.1,0.1-0.1,0.2c0,0.1,0,0.1-0.1,0.2c0,0.1,0,0.1,0,0.2c0,0,0,0.1,0,0.1
	c0,0.1-0.1,0.1-0.1,0.2c0,0.1,0,0.1,0,0.2c0,0,0,0.1,0,0.1c0,0,0,0.1,0,0.1c0,0.1,0,0.4,0.1,0.7c0.1,0.3,0.1,0.6,0.2,0.9
	c0,0,0,0,0,0c0,0,0,0,0,0c-0.1,0.2-0.2,0.3-0.4,0.5c-0.1,0.2-0.2,0.3-0.3,0.4c-0.1,0.1-0.1,0.1-0.2,0.1c-0.1,0-0.1,0.1-0.2,0.2
	c-0.1,0-0.2,0.1-0.2,0.1c-0.1,0-0.1,0.1-0.2,0.1c-0.1,0-0.1,0.1-0.2,0.1c-0.1,0-0.1,0.1-0.2,0.1c-0.1,0-0.1,0-0.2,0.1
	c-0.1,0-0.1,0-0.2,0c0,0-0.1,0-0.1,0c0,0-0.1,0-0.1-0.1c0-0.1-0.1-0.2-0.1-0.3c0-0.1-0.1-0.2-0.1-0.2c0-0.1,0-0.3,0.1-0.4
	c0-0.1,0.1-0.2,0.1-0.3c0.1-0.1,0.1-0.2,0.1-0.3c0,0,0,0,0-0.1c0,0,0,0,0-0.1c0-0.1,0-0.2,0-0.3c0-0.1-0.1-0.2-0.1-0.3
	c0,0-0.1-0.1-0.1-0.1c-0.1-0.1-0.1-0.1-0.2-0.1c-0.1,0-0.2,0-0.3,0c-0.1,0.1-0.1,0.2-0.2,0.4c-0.1,0.1-0.1,0.2-0.2,0.4
	c0,0.1-0.1,0.2-0.2,0.2c-0.1,0.1-0.1,0.1-0.2,0.2c0,0-0.1,0.1-0.1,0.1c0,0-0.1,0.1-0.1,0.1c0,0.1-0.1,0.1-0.1,0.2
	c0,0.1-0.1,0.1-0.2,0.2c-0.1,0.1-0.2,0.2-0.4,0.3c-0.1,0.1-0.2,0.2-0.3,0.3c0,0,0,0,0,0c0,0,0,0-0.1,0c0,0,0,0,0-0.1c0,0,0,0,0,0
	c0-0.2,0.1-0.5,0.3-0.7c0,0,0,0,0-0.1c0,0,0,0,0-0.1c0,0,0.1-0.1,0.1-0.1c0-0.1,0.1-0.1,0.1-0.2c0.1-0.1,0.2-0.2,0.3-0.4
	c0.1-0.1,0.1-0.2,0.3-0.3c0,0,0.1-0.1,0.1-0.1c0,0,0.1-0.1,0.1-0.1c0.1-0.1,0.2-0.2,0.3-0.4c0.1-0.1,0.2-0.2,0.4-0.4v0
	c0.1-0.1,0.2-0.1,0.3-0.2c0.1-0.1,0.2-0.1,0.3-0.2c0.1-0.1,0.1-0.1,0.2-0.2c0-0.1,0-0.1,0-0.2c0,0,0-0.1,0-0.1c0,0,0-0.1,0-0.1
	c0-0.1-0.1-0.1-0.2-0.2c-0.1-0.1-0.1-0.1-0.2-0.2c0,0,0,0,0,0c0,0,0,0-0.1,0c0,0-0.1,0-0.1-0.1c0,0-0.1,0-0.1-0.1h0c0,0,0,0,0,0
	c0,0-0.1-0.1-0.1-0.1c0,0-0.1,0-0.1,0c0,0,0,0-0.1,0c0,0,0,0-0.1,0c-0.1,0-0.1,0-0.2,0c-0.1,0-0.1,0-0.2-0.1c0,0,0,0-0.1,0
	c-0.1,0-0.1,0-0.2,0c-0.1,0-0.1,0-0.2,0c0,0-0.1,0-0.1,0c0,0-0.1,0-0.1,0c-0.1,0.1-0.3,0.2-0.4,0.3c-0.1,0.1-0.2,0.2-0.4,0.4
	c-0.1,0.2-0.3,0.4-0.5,0.6c-0.1,0.2-0.3,0.4-0.4,0.6c0,0,0,0,0,0c0,0,0,0,0,0c-0.1,0.1-0.2,0.2-0.3,0.4c-0.1,0.1-0.1,0.2-0.2,0.3
	c-0.1,0-0.1,0.1-0.1,0.1c-0.1,0.1-0.3,0.3-0.5,0.5c-0.2,0.2-0.4,0.3-0.5,0.5c-0.1,0.1-0.2,0.2-0.3,0.4c-0.1,0.2-0.4,0.3-0.6,0.5
	c-0.2,0.2-0.4,0.4-0.6,0.5c-0.1,0.1-0.3,0.2-0.6,0.4c-0.2,0.1-0.5,0.2-0.7,0.3c-0.2,0.1-0.4,0.1-0.6,0.2c-0.1,0-0.2,0.1-0.4,0.1
	c-0.2,0.1-0.3,0.1-0.4,0c0,0-0.1-0.1-0.1-0.1c0,0-0.1-0.1-0.1-0.1c0-0.1-0.1-0.1-0.1-0.2c0-0.1-0.1-0.1-0.1-0.2
	c-0.1-0.1-0.1-0.3-0.1-0.4c0-0.1,0-0.1,0-0.2c0,0,0-0.1,0-0.1c0-0.2,0.1-0.4,0.2-0.5c0.1-0.2,0.1-0.3,0.2-0.5
	c0.1-0.2,0.2-0.4,0.2-0.5c0.1-0.2,0.2-0.3,0.3-0.5c0.1-0.3,0.3-0.5,0.4-0.8c0.1-0.1,0.2-0.2,0.3-0.3c0.1-0.1,0.2-0.2,0.2-0.4
	c0,0,0,0,0,0c0,0,0,0,0.1,0c0,0,0,0.1,0,0.1c0,0,0,0,0,0.1c-0.1,0.2-0.2,0.4-0.2,0.6c-0.1,0.2-0.1,0.4-0.2,0.6c0,0,0,0.1,0,0.1
	c0,0,0,0.1,0,0.1c0,0.1,0,0.1,0,0.1c0,0,0,0.1,0.1,0.1l0,0c0,0,0,0,0,0c0.1,0,0.1,0.1,0.2,0.1c0.1,0,0.1,0.1,0.2,0.1c0,0,0,0,0,0
	c0,0,0,0,0.1,0c0,0,0,0,0.1,0c0,0,0,0,0.1,0c0.1,0,0.1,0,0.2-0.1c0,0,0.1-0.1,0.1-0.2c0.1-0.2,0.1-0.4,0.2-0.5
	c0.1-0.2,0.1-0.4,0.2-0.6c0,0,0-0.1,0-0.1c0-0.1,0-0.1,0-0.2c0-0.1,0-0.2,0-0.3c0-0.1,0-0.2,0-0.3c0-0.1,0-0.1-0.1-0.2
	c0-0.1,0-0.1,0-0.2c0-0.1,0.1-0.1,0.1-0.2c0,0,0,0,0,0c0,0,0,0,0,0c0,0,0-0.1,0-0.1c0,0,0-0.1,0-0.1c0,0,0-0.1,0-0.1
	c0,0,0-0.1-0.1-0.1c0,0-0.1,0-0.1,0c0,0,0,0-0.1,0.1c0,0,0,0,0,0c0,0,0,0,0,0c0,0,0,0,0,0c0,0,0,0,0,0c-0.1-0.1-0.2-0.1-0.3-0.2
	c-0.1,0-0.2,0-0.4,0c0,0,0,0,0,0l0,0c-0.1,0-0.1,0-0.2,0c-0.1,0-0.2,0.1-0.3,0.1c0,0-0.1,0-0.1,0c0,0,0,0-0.1,0c-0.1,0-0.1,0-0.2,0
	c-0.1,0-0.1,0.1-0.2,0.1c-0.1,0.1-0.3,0.2-0.4,0.3c-0.1,0.1-0.3,0.2-0.4,0.3c-0.1,0.1-0.2,0.2-0.3,0.3c-0.1,0.1-0.2,0.2-0.2,0.4
	c0,0-0.1,0.1-0.1,0.1c0,0-0.1,0.1-0.1,0.1c-0.1,0.2-0.2,0.4-0.3,0.6c-0.1,0.2-0.2,0.4-0.3,0.6c0,0.1-0.1,0.1-0.1,0.2
	c0,0.1-0.1,0.1-0.1,0.2c-0.1,0.2-0.1,0.4-0.1,0.6c-0.2,0.2-0.4,0.5-0.5,0.6c-0.1,0.2-0.2,0.3-0.3,0.5c-0.1,0.1-0.2,0.3-0.4,0.4
	c-0.2,0.1-0.5,0.3-0.9,0.4c-0.1,0-0.1,0-0.2,0c0,0-0.1,0-0.2-0.1c-0.1,0-0.1,0-0.2-0.1c-0.1,0-0.1-0.1-0.1-0.1c0,0-0.1-0.1-0.1-0.1
	c0,0,0-0.1-0.1-0.2c0-0.1,0-0.2,0-0.4c0-0.2,0-0.4,0-0.6c0-0.2,0-0.4,0-0.4c0-0.1,0-0.2,0-0.2c0-0.1,0-0.1,0.1-0.2
	c0-0.1,0.1-0.1,0.1-0.3c0,0,0,0,0-0.1c0,0,0-0.1,0-0.1c0-0.1,0,0-0.1,0.1c0,0.1-0.1,0.2-0.1,0.2c0,0.1-0.1,0.1,0,0
	c0.1-0.1,0.1-0.2,0.1-0.3c0-0.1,0.1-0.2,0.1-0.3c0,0,0-0.1,0-0.1c0-0.1,0-0.1,0.1-0.2c0.1-0.2,0.2-0.3,0.2-0.5
	c0.1-0.1,0.1-0.3,0.2-0.4c0-0.1,0-0.2,0-0.3c0-0.1,0-0.1-0.1-0.2c0,0-0.1-0.1-0.2-0.1c-0.1,0-0.1-0.1-0.2-0.1c-0.1,0-0.2,0-0.3,0
	c-0.1,0-0.2,0.1-0.4,0.2c-0.1,0.1-0.2,0.1-0.3,0.1c0,0-0.1,0-0.1,0c0,0-0.1,0.1-0.1,0.1l0,0c0,0-0.1,0-0.1,0c0,0,0,0-0.1,0
	c0,0.1-0.1,0.1-0.1,0.2c0,0,0,0.1,0,0.1c0,0.1,0,0.1,0,0.2c0,0.1,0,0.1-0.1,0.2c0,0,0,0,0,0c0,0,0,0,0,0.1c-0.1,0.1-0.2,0.3-0.3,0.5
	c-0.1,0.2-0.3,0.4-0.4,0.6c-0.1,0.1-0.1,0.2-0.1,0.2c0,0,0.1,0,0.1-0.1c0.1-0.1,0.1-0.1,0.1-0.1c0,0.1-0.1,0.1-0.1,0.2
	c0,0.1-0.1,0.1-0.1,0.2c0,0,0,0,0,0.1c0,0,0,0,0,0c-0.1,0-0.1,0-0.1,0.1c0,0,0,0.1,0,0.1c0,0.1,0,0.1,0,0.2c0,0.1,0,0.1,0,0.2
	c0,0.1,0,0.2-0.1,0.4c0,0.2,0,0.3,0,0.5c0,0.1,0,0.1,0,0.2c0,0.1,0,0.1,0,0.2c0,0.1,0,0.3,0.1,0.4c0,0.1,0.1,0.3,0.1,0.4
	c0.1,0.1,0.2,0.2,0.3,0.3c0.1,0.1,0.2,0.1,0.3,0.2c0.1,0.1,0.3,0.1,0.5,0.2c0.1,0.1,0.3,0.1,0.4,0.1c0.3,0.1,0.7,0.1,1-0.1
	c0.4-0.1,0.7-0.4,1-0.6c0.3-0.2,0.5-0.4,0.6-0.5c0.2-0.1,0.4-0.4,0.6-0.6c0,0,0-0.1,0.1-0.1c0,0.3,0.1,0.5,0.2,0.8
	c0.1,0.2,0.3,0.4,0.5,0.6c0.1,0.1,0.3,0.2,0.4,0.3c0.1,0.1,0.3,0.1,0.4,0.2c0.1,0.1,0.3,0.1,0.6,0.2c0.2,0.1,0.4,0.1,0.6,0.1
	c0.1,0,0.2,0,0.3,0c0.1,0,0.3,0,0.4,0c0.1,0,0.3,0,0.3,0s0.2,0,0.3-0.1c0.1-0.1,0.3-0.1,0.5-0.2c0.1-0.1,0.2-0.1,0.3-0.2
	c0.1-0.1,0.3-0.2,0.4-0.2c0.1-0.1,0.2-0.2,0.4-0.3c0.1-0.1,0.2-0.2,0.4-0.4c0.1-0.1,0.2-0.2,0.3-0.4c0.1-0.1,0.1-0.2,0.2-0.3
	c0.1-0.1,0.1-0.2,0.2-0.3c0,0,0,0,0,0c0,0,0,0,0,0c0-0.1,0.1-0.2,0.2-0.3c0.1-0.1,0.1-0.2,0.2-0.3c0-0.1,0.1-0.1,0.1-0.2
	c0,0.3,0.1,0.6,0.3,0.8c0.2,0.2,0.4,0.4,0.7,0.5c0.1,0,0.1,0,0.2,0.1c0,0,0.1,0,0.2,0.1c0.1,0.1,0.3,0.1,0.4,0.1
	c0.1,0,0.3,0,0.4-0.1C60,53,60,53,60.1,53c0.1,0,0.2-0.1,0.2-0.2l0,0c0,0,0,0,0,0c0,0,0.1-0.1,0.1-0.1c0,0,0.1,0,0.1-0.1
	c0.1-0.1,0.1-0.1,0.2-0.1c0.1,0,0.1-0.1,0.2-0.1c0.1,0.1,0.1,0.2,0.2,0.2c0.1,0.1,0.2,0.1,0.3,0.1c0,0,0,0,0.1,0c0,0,0,0,0,0
	c0.1,0.1,0.2,0.1,0.3,0.2c0.1,0,0.3,0.1,0.4,0.1c0.1,0,0.1,0,0.2,0c0.1,0,0.2,0,0.2,0c0.1,0,0.2,0,0.2-0.1c0.1,0,0.2-0.1,0.3-0.1
	c0.1,0,0.2,0,0.3,0c0.1,0,0.1,0,0.2-0.1c0.1,0,0.1-0.1,0.2-0.1c0.1-0.1,0.1-0.1,0.2-0.2c0.1-0.1,0.1-0.1,0.2-0.2c0,0,0,0,0.1-0.1
	c0,0,0,0,0.1,0c0,0,0.1-0.1,0.1-0.1c0,0,0.1-0.1,0.1-0.2c0,0,0-0.1,0.1-0.1c0,0,0.1-0.1,0.1-0.1c0,0,0.1-0.1,0.1-0.1
	c0,0,0.1-0.1,0.1-0.1c0,0,0,0,0,0c0,0,0,0,0,0c0,0,0,0.1,0,0.1c0.1,0.2,0.2,0.4,0.3,0.6c0.1,0.2,0.2,0.4,0.2,0.6
	c0.1,0.2,0.1,0.4,0.2,0.5c0,0.1,0,0.3-0.1,0.5c-0.1,0.1-0.2,0.4-0.5,0.6c-0.2,0.2-0.4,0.4-0.6,0.6c-0.2,0.2-0.4,0.4-0.5,0.7
	c-0.1,0.1-0.2,0.2-0.2,0.4c-0.1,0.1-0.1,0.2-0.1,0.4c0,0,0,0.1,0,0.2c0,0.1,0,0.1,0,0.2c0,0.1,0,0.2,0.1,0.3c0,0.1,0.1,0.2,0.1,0.3
	c0,0,0.1,0.1,0.1,0.2c0,0.1,0,0.1,0.1,0.2c0,0.1,0.1,0.1,0.1,0.1c0,0,0.1,0,0.2-0.1c0,0,0,0,0.1,0c0,0,0,0,0,0c0,0,0.1,0,0.1,0
	c0,0,0.1,0,0.1,0c0,0,0,0,0,0.1c0,0,0,0,0,0c0,0,0.1,0,0.1,0c0,0,0,0,0.1,0c0.1,0,0.1,0,0.2-0.1c0.1,0,0.1-0.1,0.2-0.1
	c0,0,0,0,0.1-0.1c0,0,0.1,0,0.1-0.1c0,0,0,0,0,0c0,0,0,0,0,0c0,0,0,0,0,0c0,0,0,0,0,0c0.1-0.1,0.1-0.1,0.2-0.1c0,0,0.1,0,0.1,0
	c-0.1,0.1-0.1,0.2-0.2,0.2c-0.1,0.1-0.1,0.2-0.2,0.3c0,0,0,0,0,0c0,0,0,0,0,0c0.1,0,0.1,0,0.2-0.1c0.1,0,0.1-0.1,0.2-0.2
	c0,0,0,0,0,0c0,0,0,0,0,0c0.1,0,0.1-0.1,0.2-0.1c0.1,0,0.1-0.1,0.2-0.2c0,0,0.1-0.1,0.1-0.1c0,0,0.1-0.1,0.1-0.1
	c0.1-0.1,0.1-0.1,0.3-0.3c0.1-0.1,0.2-0.2,0.4-0.4c0.1-0.1,0.2-0.2,0.2-0.3c0-0.1,0.1-0.1,0.1-0.2c0-0.1,0.1-0.1,0.1-0.2
	c0,0,0,0,0,0c0,0,0,0,0,0c0,0,0,0,0.1,0c0,0,0,0,0.1-0.1c0-0.1,0-0.1,0-0.2c0-0.1,0-0.2,0.1-0.2l0,0c0,0,0,0,0-0.1c0,0,0-0.1,0-0.1
	c0,0,0,0,0-0.1c0-0.2,0.1-0.3,0.1-0.4c0-0.1,0-0.1,0-0.2c0-0.1,0-0.2,0-0.3c0-0.2,0.1-0.3,0.2-0.4c0.1-0.1,0.3-0.2,0.4-0.2
	c0.2-0.1,0.3-0.1,0.5-0.2c0,0,0.1-0.1,0.1-0.1c0,0,0.1-0.1,0.1-0.1c0.1-0.1,0.2-0.2,0.3-0.3c0.1-0.1,0.2-0.2,0.3-0.2c0,0,0,0,0,0
	c0,0,0,0,0.1,0c0.1-0.1,0.3-0.2,0.4-0.4c0,0,0.1-0.1,0.1-0.1c0,0,0.1-0.1,0.1-0.1c0.1-0.1,0.1-0.1,0.1-0.2c0-0.1,0.1-0.1,0.1-0.2
	c0,0,0,0,0,0c0,0,0,0,0,0.1c0,0,0,0.1,0,0.1c0.1,0.2,0.2,0.4,0.3,0.6c0.1,0.2,0.2,0.4,0.2,0.6c0.1,0.2,0.1,0.4,0.2,0.5
	c0,0.1,0,0.3-0.1,0.5c-0.1,0.1-0.3,0.4-0.5,0.6c-0.2,0.2-0.4,0.4-0.6,0.6c-0.2,0.2-0.4,0.4-0.5,0.7c-0.1,0.1-0.2,0.2-0.2,0.4
	c-0.1,0.1-0.1,0.2-0.1,0.4c0,0,0,0.1,0,0.2c0,0.1,0,0.1,0,0.2c0,0.1,0,0.2,0.1,0.3c0,0.1,0.1,0.2,0.1,0.3c0,0,0.1,0.1,0.1,0.2
	c0,0.1,0,0.1,0.1,0.2c0,0.1,0.1,0.1,0.1,0.1c0,0,0.1,0,0.2-0.1c0,0,0,0,0.1,0c0,0,0,0,0,0c0,0,0.1,0,0.1,0c0,0,0.1,0,0.1,0
	c0,0,0,0,0,0.1c0,0,0,0,0,0c0,0,0.1,0,0.1,0c0,0,0,0,0.1,0c0.1,0,0.1,0,0.2-0.1c0.1,0,0.1-0.1,0.2-0.1c0,0,0,0,0.1-0.1
	c0,0,0.1,0,0.1-0.1c0,0,0,0,0,0c0,0,0,0,0,0c0,0,0,0,0,0c0,0,0,0,0,0c0.1-0.1,0.1-0.1,0.2-0.1c0,0,0.1,0,0.1,0
	c-0.1,0.1-0.1,0.2-0.2,0.2c-0.1,0.1-0.1,0.2-0.2,0.3c0,0,0,0,0,0c0,0,0,0,0,0c0.1,0,0.1,0,0.2-0.1c0.1,0,0.1-0.1,0.2-0.2
	c0,0,0,0,0,0c0,0,0,0,0,0c0.1,0,0.1-0.1,0.2-0.1c0.1,0,0.1-0.1,0.2-0.2c0,0,0.1-0.1,0.1-0.1c0,0,0.1-0.1,0.1-0.1
	c0.1-0.1,0.1-0.1,0.3-0.3c0.1-0.1,0.2-0.2,0.4-0.4c0.1-0.1,0.2-0.2,0.2-0.3c0-0.1,0.1-0.1,0.1-0.2c0-0.1,0.1-0.1,0.1-0.2
	c0,0,0,0,0,0c0,0,0,0,0,0c0,0,0,0,0.1,0c0,0,0,0,0.1-0.1c0-0.1,0-0.1,0-0.2c0-0.1,0-0.2,0.1-0.2l0,0c0,0,0,0,0-0.1c0,0,0-0.1,0-0.1
	c0,0,0,0,0-0.1c0-0.2,0.1-0.3,0.1-0.4c0-0.1,0-0.1,0-0.2c0-0.1,0-0.2,0-0.3c0-0.2,0.1-0.3,0.2-0.4c0.1-0.1,0.3-0.2,0.4-0.2
	c0.2-0.1,0.3-0.1,0.5-0.2c0,0,0.1-0.1,0.1-0.1c0,0,0.1-0.1,0.1-0.1c0.1-0.1,0.2-0.2,0.3-0.3c0.1-0.1,0.2-0.2,0.3-0.2c0,0,0,0,0,0
	c0,0,0,0,0.1,0c0.1-0.1,0.3-0.2,0.4-0.4c0,0,0.1-0.1,0.1-0.1c0,0,0.1-0.1,0.1-0.1c0.1-0.1,0.1-0.1,0.1-0.2c0,0,0,0,0-0.1
	c0,0.3,0.1,0.5,0.3,0.7c0.2,0.2,0.4,0.4,0.7,0.5c0.1,0,0.1,0,0.2,0.1c0,0,0.1,0,0.2,0.1c0.1,0.1,0.3,0.1,0.4,0.1
	c0.1,0,0.3,0,0.4-0.1c0.1,0,0.2-0.1,0.2-0.1c0.1,0,0.2-0.1,0.2-0.2l0,0c0,0,0,0,0,0c0,0,0.1-0.1,0.1-0.1c0,0,0.1,0,0.1-0.1
	c0.1-0.1,0.1-0.1,0.2-0.1c0.1,0,0.1-0.1,0.2-0.1c0.1,0.1,0.1,0.2,0.2,0.2c0.1,0.1,0.2,0.1,0.3,0.1c0,0,0,0,0.1,0c0,0,0,0,0,0
	c0.1,0.1,0.2,0.1,0.3,0.2c0.1,0,0.3,0.1,0.4,0.1c0.1,0,0.1,0,0.2,0c0.1,0,0.2,0,0.2,0c0.1,0,0.2,0,0.2-0.1c0.1,0,0.2-0.1,0.2-0.1
	c0.1,0,0.2,0,0.3,0c0.1,0,0.1,0,0.2-0.1c0.1,0,0.1-0.1,0.2-0.1c0.1-0.1,0.1-0.1,0.2-0.2c0.1-0.1,0.1-0.1,0.2-0.2c0,0,0,0,0.1-0.1
	c0,0,0,0,0.1,0c0,0,0.1-0.1,0.1-0.1c0,0,0.1-0.1,0.1-0.2c0,0,0-0.1,0.1-0.1c0,0,0.1-0.1,0.1-0.1c0,0,0.1-0.1,0.1-0.1
	c0,0,0.1-0.1,0.1-0.1c0,0,0,0,0.1-0.1c0,0,0,0,0.1-0.1c0.1-0.1,0.1-0.2,0.2-0.3c0.1-0.2,0.1-0.3,0.1-0.4c-0.1-0.1-0.1-0.1-0.2-0.1
	c0,0-0.1-0.1-0.2-0.1c0,0,0,0,0,0c0,0,0,0,0,0c-0.1,0.1-0.2,0.2-0.3,0.4c-0.1,0.2-0.2,0.3-0.4,0.5s-0.2,0.3-0.3,0.4
	C83,51.9,83,51.9,82.9,52c-0.1,0-0.1,0.1-0.2,0.2c-0.1,0-0.2,0.1-0.2,0.1c-0.1,0-0.1,0.1-0.2,0.1c-0.1,0-0.1,0.1-0.2,0.1
	c-0.1,0-0.1,0.1-0.2,0.1c-0.1,0-0.1,0-0.2,0.1c-0.1,0-0.1,0-0.2,0c0,0-0.1,0-0.1,0c0,0-0.1,0-0.1-0.1c0-0.1-0.1-0.2-0.1-0.3
	c0-0.1-0.1-0.2-0.1-0.2c0-0.1,0-0.3,0.1-0.4c0-0.1,0.1-0.2,0.1-0.3c0.1-0.1,0.1-0.2,0.1-0.3c0,0,0,0,0-0.1c0,0,0,0,0-0.1
	c0-0.1,0-0.2,0-0.3c0-0.1-0.1-0.2-0.1-0.3c0,0-0.1-0.1-0.1-0.1c-0.1-0.1-0.1-0.1-0.2-0.1c-0.1,0-0.2,0-0.3,0
	c-0.1,0.1-0.1,0.2-0.2,0.4c-0.1,0.1-0.1,0.2-0.2,0.4c0,0.1-0.1,0.2-0.2,0.2c-0.1,0.1-0.1,0.1-0.2,0.2c0,0-0.1,0.1-0.1,0.1
	c0,0-0.1,0.1-0.1,0.1c0,0.1-0.1,0.1-0.1,0.2c0,0.1-0.1,0.1-0.2,0.2c-0.1,0.1-0.3,0.2-0.4,0.3c-0.1,0.1-0.2,0.2-0.3,0.3c0,0,0,0,0,0
	c0,0,0,0-0.1,0c0,0,0,0,0-0.1c0,0,0,0,0,0c0-0.2,0.1-0.5,0.3-0.7c0,0,0,0,0-0.1c0,0,0,0,0-0.1c0,0,0.1-0.1,0.1-0.1
	c0-0.1,0.1-0.1,0.1-0.2c0.1-0.1,0.2-0.2,0.3-0.4c0.1-0.1,0.1-0.2,0.3-0.3c0,0,0.1-0.1,0.1-0.1c0,0,0.1-0.1,0.1-0.1
	c0.1-0.1,0.2-0.2,0.3-0.4c0.1-0.1,0.2-0.2,0.4-0.4v0c0.1-0.1,0.2-0.1,0.3-0.2c0.1-0.1,0.2-0.1,0.3-0.2c0.1-0.1,0.1-0.1,0.2-0.2
	c0-0.1,0-0.1,0-0.2c0,0,0-0.1,0-0.1c0,0,0-0.1,0-0.1c0-0.1-0.1-0.1-0.2-0.2c-0.1-0.1-0.1-0.1-0.2-0.2c0,0,0,0,0,0c0,0,0,0-0.1,0
	c0,0-0.1,0-0.1-0.1c0,0-0.1,0-0.1-0.1h0c0,0,0,0,0,0c0,0-0.1-0.1-0.1-0.1c0,0-0.1,0-0.1,0c0,0,0,0-0.1,0c0,0,0,0-0.1,0
	c-0.1,0-0.1,0-0.2,0c-0.1,0-0.1,0-0.2-0.1c0,0,0,0-0.1,0c-0.1,0-0.1,0-0.2,0c-0.1,0-0.1,0-0.2,0c0,0-0.1,0-0.1,0c0,0-0.1,0-0.1,0
	c-0.1,0.1-0.3,0.2-0.4,0.3C78.4,48.3,78.3,48.4,78.1,48.5z M66.2,55.2c0,0.1-0.1,0.2-0.1,0.3c0,0.1,0,0.2-0.1,0.3
	c0,0.1-0.1,0.2-0.1,0.3c0,0.1-0.1,0.2-0.1,0.3c0,0,0,0.1,0,0.1c0,0,0,0-0.1,0.1c-0.1,0.1-0.1,0.2-0.2,0.3c-0.1,0.1-0.2,0.2-0.2,0.2
	c0,0-0.1,0.1-0.1,0.1c0,0-0.1,0.1-0.1,0.1c0,0-0.1,0.1-0.1,0.1c0,0-0.1,0.1-0.1,0.1c0,0-0.1,0.1-0.1,0.1c0,0-0.1,0-0.1,0
	c0,0-0.1-0.1-0.1-0.1c0,0-0.1-0.1-0.1-0.1c0,0-0.1-0.1-0.1-0.1c0,0,0-0.1,0-0.2c0-0.1,0-0.1,0-0.2c0-0.1,0-0.1,0-0.2
	c0-0.1,0.1-0.1,0.1-0.1c0,0,0.1-0.1,0.1-0.1c0,0,0.1-0.1,0.1-0.1c0,0,0.1-0.1,0.1-0.2c0-0.1,0.1-0.1,0.1-0.2
	c0.1-0.1,0.1-0.1,0.2-0.1c0,0,0.1,0,0.1-0.1c0,0,0.1,0,0.1-0.1c0.1-0.1,0.2-0.2,0.4-0.4c0.1-0.2,0.3-0.3,0.4-0.4
	c0.1-0.1,0.2,0,0.2,0.2C66.1,55.1,66.1,55.1,66.2,55.2C66.2,55.2,66.2,55.2,66.2,55.2z M71.9,55.1C71.9,55.2,71.9,55.2,71.9,55.1
	C71.9,55.2,71.9,55.2,71.9,55.1c0,0.2-0.1,0.3-0.1,0.4c0,0.1,0,0.2-0.1,0.3c0,0.1-0.1,0.2-0.1,0.3c0,0.1-0.1,0.2-0.1,0.3
	c0,0,0,0.1,0,0.1c0,0,0,0-0.1,0.1c-0.1,0.1-0.1,0.2-0.2,0.3c-0.1,0.1-0.2,0.2-0.2,0.2c0,0-0.1,0.1-0.1,0.1c0,0-0.1,0.1-0.1,0.1
	c0,0-0.1,0.1-0.1,0.1c0,0-0.1,0.1-0.1,0.1c0,0-0.1,0.1-0.1,0.1c0,0-0.1,0-0.1,0c0,0-0.1-0.1-0.1-0.1c0,0-0.1-0.1-0.1-0.1
	c0,0-0.1-0.1-0.1-0.1c0,0,0-0.1,0-0.2c0-0.1,0-0.1,0-0.2c0-0.1,0-0.1,0-0.2c0-0.1,0.1-0.1,0.1-0.1c0,0,0.1-0.1,0.1-0.1
	c0,0,0.1-0.1,0.1-0.1c0,0,0.1-0.1,0.1-0.2c0-0.1,0.1-0.1,0.1-0.2c0.1-0.1,0.1-0.1,0.2-0.1c0,0,0.1,0,0.1-0.1c0,0,0.1,0,0.1-0.1
	c0.1-0.1,0.2-0.2,0.4-0.4c0.1-0.2,0.3-0.3,0.4-0.4C71.8,54.9,71.9,54.9,71.9,55.1z"/>
<path class="st8" d="M55.5,32.7c0,0,0.1,0,0.1,0c-0.7-0.3-1.4-0.4-2.3-0.4c-0.1,0,0,0.1,0.2,0.2C53.8,32.7,54.4,32.7,55.5,32.7z
	 M43.5,31.8c0,0,0.1,0,0.1,0c-0.7-0.3-1.4-0.4-2.3-0.4c-0.1,0,0,0.1,0.2,0.2C41.8,31.7,42.4,31.8,43.5,31.8z M55.3,25.2
	c0.7,0.1,1.3,0.2,1.8,0.2c0.5,0,0.8,0,0.7,0c-1.2-0.6-2.2-0.8-3-0.7c-0.8,0.1-1,0.2-0.9,0.2C54.2,25,54.6,25.1,55.3,25.2z
	 M47.6,24.3c-0.1,0-0.1,0-0.1,0.1c0,0.1,0.6,0.2,1.7,0.2c1.1,0.1,1.8,0.2,2.2,0.2c0.3,0.1,0.5,0.1,0.4,0
	C50.5,24.4,49.2,24.2,47.6,24.3z M41.3,24.1c0.1,0,0.6,0.1,1.4,0.3c0.9,0.2,1.6,0.2,2.1,0.3c0.5,0,0.7,0,0.7,0
	C44.3,24,42.9,23.8,41.3,24.1C41.2,24,41.2,24,41.3,24.1z M46.7,27.1c-0.1,0.1,0.1,0.2,0.6,0.3c0.5,0.1,1.1,0.2,1.8,0.4
	c0.7,0.1,1.2,0.2,1.5,0.1c0.3-0.1,0.1-0.2-0.4-0.5c-0.5-0.3-1-0.4-1.6-0.5C47.6,26.8,46.9,26.9,46.7,27.1z"/>
</svg>
