<svg width="40" height="40" viewBox="0 0 40 40" fill="none" xmlns="http://www.w3.org/2000/svg">
<path d="M33.4344 6.37195H31.482C31.1905 6.37195 31.0059 6.55656 31.0059 6.76054H31.0059V13.0745C31.0059 13.3368 31.3167 13.4728 31.6373 13.4728C31.9481 13.4728 32.2687 13.3369 32.2687 13.0745V10.8209H33.3567C34.6389 10.8209 35.6395 10.2089 35.6395 8.61585V8.55765C35.6395 6.96453 34.668 6.37195 33.4344 6.37195ZM34.3766 8.71304C34.3766 9.4707 33.988 9.83015 33.3566 9.83015H32.2687V7.47937H33.3566C33.988 7.47937 34.3766 7.83882 34.3766 8.59648V8.71304Z" fill="#EDA942"/>
<path d="M22.8952 8.84032C21.0511 6.99626 18.5994 5.98071 15.9915 5.98071C13.3836 5.98071 10.9319 6.99626 9.08783 8.84032C8.86525 9.06282 8.86525 9.4236 9.08783 9.64618C9.31033 9.86868 9.67111 9.86868 9.89361 9.64618C11.5224 8.01743 13.688 7.1204 15.9914 7.1204C18.2949 7.1204 20.4605 8.01743 22.0892 9.64618C22.2006 9.75743 22.3464 9.81306 22.4922 9.81306C22.638 9.81306 22.7838 9.75743 22.8952 9.64618C23.1177 9.42368 23.1177 9.06282 22.8952 8.84032Z" fill="#EDA942"/>
<path d="M20.545 11.1912C18.0345 8.68073 13.9498 8.68073 11.4394 11.1912C11.2168 11.4137 11.2168 11.7746 11.4394 11.9971C11.6619 12.2196 12.0228 12.2196 12.2453 11.9971C14.3113 9.93105 17.6731 9.93105 19.7391 11.9971C19.8504 12.1083 19.9962 12.1639 20.142 12.1639C20.2878 12.1639 20.4337 12.1083 20.545 11.9971C20.7675 11.7746 20.7675 11.4137 20.545 11.1912Z" fill="#EDA942"/>
<path d="M18.2322 13.5049C16.9975 12.2702 14.9885 12.2702 13.7538 13.5049C13.5313 13.7274 13.5313 14.0882 13.7538 14.3107C13.9763 14.5333 14.3372 14.5332 14.5597 14.3107C15.3501 13.5204 16.636 13.5204 17.4264 14.3107C17.5377 14.4221 17.6835 14.4776 17.8293 14.4776C17.9751 14.4776 18.121 14.422 18.2322 14.3107C18.4548 14.0882 18.4548 13.7274 18.2322 13.5049Z" fill="#EDA942"/>
<path d="M28.0407 24.6029C27.7942 24.4672 27.5509 24.3186 27.3178 24.1611L23.5486 21.6148C22.4047 20.842 21.0704 20.4336 19.6899 20.4336H12.7719C10.9356 20.4336 9.20776 21.1474 7.90667 22.4435C7.23792 23.1098 6.47605 23.6672 5.64222 24.1001C5.1491 24.3562 4.84277 24.8602 4.84277 25.4155C4.84277 26.2331 5.50793 26.8983 6.32558 26.8983H8.68416C8.99885 26.8983 9.25401 26.6431 9.25401 26.3284C9.25401 26.0137 8.99885 25.7586 8.68416 25.7586H6.32558C6.13636 25.7586 5.98238 25.6046 5.98238 25.4154C5.98238 25.2872 6.05324 25.1708 6.16738 25.1115C7.10417 24.6251 7.96003 23.9991 8.71096 23.2509C9.79689 22.169 11.2391 21.5732 12.7718 21.5732H14.3206V25.7586H12.4275C12.1128 25.7586 11.8577 26.0137 11.8577 26.3284C11.8577 26.6431 12.1128 26.8983 12.4275 26.8983H28.0523C28.5207 26.8983 28.9018 26.5172 28.9018 26.0487C28.9018 25.4489 28.5718 24.8948 28.0407 24.6029ZM15.4605 25.7587V21.5733H19.69C20.8422 21.5733 21.956 21.9142 22.9107 22.5592L26.6799 25.1055C26.9416 25.2823 27.2146 25.4491 27.4917 25.6015C27.5634 25.6409 27.6235 25.6951 27.6686 25.7587H15.4605Z" fill="#EDA942"/>
<path d="M16.873 27.7645H15.1128C14.7981 27.7645 14.543 28.0197 14.543 28.3344C14.543 28.6491 14.7981 28.9042 15.1128 28.9042H16.873C17.1877 28.9042 17.4428 28.6491 17.4428 28.3344C17.4428 28.0197 17.1877 27.7645 16.873 27.7645Z" fill="#EDA942"/>
<path d="M39.5084 27.2863L39.3284 26.9876C38.65 25.8619 37.5216 25.0692 36.2327 24.8128L34.7615 24.5203V17.0635H38.5687C39.3526 17.0635 39.9902 16.4258 39.9902 15.6419V4.54424C39.9902 3.76033 39.3525 3.12268 38.5687 3.12268H27.471C26.6871 3.12268 26.0494 3.76041 26.0494 4.54424V8.75399C26.0494 9.06867 26.3045 9.32383 26.6193 9.32383C26.934 9.32383 27.1891 9.06867 27.1891 8.75399V4.54424C27.1891 4.38877 27.3156 4.26229 27.4711 4.26229H38.5688C38.7243 4.26229 38.8508 4.38877 38.8508 4.54424V15.642C38.8508 15.7975 38.7243 15.924 38.5688 15.924H27.471C27.3155 15.924 27.189 15.7975 27.189 15.642V12.4585C27.189 12.1438 26.934 11.8887 26.6192 11.8887C26.3044 11.8887 26.0494 12.1438 26.0494 12.4585V15.642C26.0494 16.4259 26.6871 17.0636 27.4709 17.0636H31.7882V23.9291L31.0319 23.7787C29.9882 23.5711 28.9706 22.9412 28.2959 22.4853L24.5269 19.9392C23.0929 18.9705 21.4203 18.4585 19.6898 18.4585H12.7719C10.47 18.4585 8.30411 19.3532 6.67341 20.9778C5.64154 22.0059 4.34264 22.7071 2.9171 23.0056L2.09898 23.177C0.882731 23.4317 0 24.5185 0 25.7612V31.2799C0 31.9382 0.38867 32.5364 0.990309 32.8037L3.25999 33.8125C3.39725 34.5302 3.74303 35.2156 4.29756 35.7701C5.03451 36.5071 6.00255 36.8756 6.97068 36.8756C7.9388 36.8756 8.90676 36.5071 9.64379 35.7701C10.1178 35.2962 10.4384 34.7264 10.6075 34.1227H29.5322C29.7013 34.7264 30.022 35.2962 30.496 35.7701C31.21 36.4841 32.1592 36.8774 33.1691 36.8774C34.1789 36.8774 35.1282 36.4842 35.8423 35.7701C36.3163 35.2962 36.6369 34.7264 36.806 34.1227H37.887C39.0521 34.1227 40 33.1748 40 32.0098V29.0541C39.9998 28.4312 39.8298 27.8199 39.5084 27.2863ZM32.9278 17.0635H33.6219V24.2936L32.9278 24.1556V17.0635ZM8.83786 34.9644C8.33911 35.4631 7.67599 35.7378 6.9706 35.7378C6.26521 35.7378 5.60209 35.4631 5.10334 34.9644C4.30326 34.1643 4.1253 32.9745 4.56858 32.0006C4.57217 31.9928 4.57561 31.9849 4.5792 31.9771C4.59272 31.9482 4.60701 31.9196 4.62162 31.8912C4.6285 31.8777 4.63537 31.8644 4.64256 31.8511C4.65576 31.8264 4.66951 31.8019 4.68358 31.7775C4.69326 31.7607 4.70319 31.7441 4.71326 31.7275C4.72631 31.706 4.73951 31.6846 4.75326 31.6634C4.76568 31.6443 4.7785 31.6254 4.79147 31.6066C4.80428 31.5879 4.81701 31.5691 4.83029 31.5508C4.84553 31.5298 4.86139 31.5091 4.87732 31.4885C4.88975 31.4724 4.90186 31.4562 4.91467 31.4403C4.93342 31.4171 4.95303 31.3944 4.97256 31.3718C4.98373 31.3589 4.99443 31.3457 5.00584 31.333C5.0349 31.3007 5.06482 31.2691 5.0956 31.238C5.09826 31.2354 5.10068 31.2326 5.10334 31.2299C5.1092 31.2241 5.11537 31.2186 5.12131 31.2128C5.1474 31.1872 5.17365 31.1619 5.20045 31.1376C5.2074 31.1312 5.21475 31.1254 5.22178 31.1191C5.24849 31.0955 5.27537 31.0719 5.30287 31.0495C5.30545 31.0474 5.30818 31.0455 5.31076 31.0434C6.27662 30.2617 7.66966 30.2627 8.63434 31.0465C8.63544 31.0474 8.63661 31.0482 8.63778 31.0491C8.66723 31.0731 8.69606 31.0983 8.72473 31.1237C8.72989 31.1283 8.7352 31.1326 8.74028 31.1372C8.7734 31.1671 8.8059 31.198 8.83778 31.2298C8.87215 31.2642 8.90528 31.2996 8.93746 31.3355C8.95161 31.3512 8.96496 31.3674 8.97864 31.3834C8.99536 31.403 9.01215 31.4226 9.02825 31.4425C9.04629 31.4649 9.06371 31.4877 9.0809 31.5105C9.09059 31.5233 9.1002 31.5361 9.10957 31.549C9.13043 31.5777 9.15075 31.6068 9.17035 31.6362C9.17371 31.6412 9.177 31.6463 9.18028 31.6513C9.85059 32.6751 9.73652 34.0656 8.83786 34.9644ZM35.0363 34.9644C34.5374 35.4631 33.8743 35.7378 33.1689 35.7378C32.4635 35.7378 31.8005 35.4631 31.3018 34.9644C30.4029 34.0656 30.2889 32.6749 30.9593 31.6512C30.9625 31.6462 30.9657 31.6413 30.9689 31.6365C30.9886 31.6069 31.0089 31.5778 31.0299 31.5489C31.0392 31.5361 31.0487 31.5234 31.0583 31.5109C31.0756 31.4879 31.0931 31.465 31.1113 31.4424C31.1273 31.4226 31.1439 31.4033 31.1605 31.3839C31.1743 31.3677 31.1878 31.3513 31.2021 31.3355C31.2343 31.2996 31.2675 31.2643 31.3018 31.2299C31.8006 30.7312 32.4636 30.4565 33.169 30.4565C33.8744 30.4565 34.5375 30.7312 35.0363 31.2299C35.0706 31.2643 35.1038 31.2997 35.136 31.3355C35.1502 31.3513 35.1635 31.3676 35.1773 31.3837C35.194 31.4031 35.2107 31.4226 35.2267 31.4425C35.2449 31.465 35.2623 31.4878 35.2795 31.5107C35.2892 31.5234 35.2988 31.5362 35.3081 31.5491C35.329 31.5779 35.3494 31.6069 35.3689 31.6363C35.3723 31.6413 35.3756 31.6463 35.3788 31.6513C36.049 32.6751 35.9349 34.0657 35.0363 34.9644ZM38.8604 32.0098H38.8602C38.8602 32.5465 38.4236 32.9831 37.8869 32.9831H36.9488C36.9264 32.1566 36.6347 31.3681 36.1097 30.7216C36.1062 30.7173 36.1028 30.7127 36.0992 30.7084C36.0667 30.6687 36.0331 30.6299 35.9988 30.5913C35.9901 30.5815 35.9818 30.5713 35.973 30.5615C35.9367 30.5216 35.8992 30.4824 35.8611 30.4438C35.8546 30.4373 35.8487 30.4304 35.8421 30.4239C35.3512 29.933 34.7491 29.5937 34.0926 29.4297C33.7942 29.3551 33.4846 29.3167 33.1689 29.3167C32.9165 29.3167 32.6678 29.3413 32.4257 29.3893C31.6992 29.5334 31.0314 29.8884 30.4958 30.4239C30.4894 30.4303 30.4836 30.437 30.4772 30.4435C30.4389 30.4823 30.4013 30.5216 30.365 30.5616C30.3564 30.5711 30.3484 30.5809 30.34 30.5905C30.3054 30.6294 30.2714 30.6686 30.2386 30.7086C30.2353 30.7126 30.2323 30.7167 30.229 30.7208C29.7036 31.3673 29.4116 32.1563 29.3892 32.9832H10.7503C10.7279 32.1553 10.4353 31.3654 9.90856 30.7183C9.90613 30.7152 9.90379 30.7122 9.90137 30.7091C9.86699 30.6671 9.83129 30.6259 9.79496 30.5852C9.78824 30.5777 9.78199 30.5699 9.7752 30.5624C9.73262 30.5155 9.68887 30.4692 9.64363 30.424C9.45942 30.2398 9.26067 30.0785 9.05122 29.9403C8.42262 29.5258 7.69661 29.3185 6.9706 29.3185C6.00255 29.3185 5.03443 29.687 4.29748 30.424C4.25537 30.4661 4.21467 30.5093 4.17483 30.553C4.16303 30.566 4.1517 30.5792 4.14006 30.5923C4.11194 30.6241 4.08428 30.6562 4.05733 30.6887C4.04537 30.7031 4.03342 30.7177 4.0217 30.7323C3.99381 30.7671 3.96662 30.8023 3.94006 30.8378C3.93178 30.8489 3.92327 30.8598 3.91522 30.8709C3.84381 30.9687 3.77756 31.0694 3.71631 31.1728C3.71459 31.1757 3.71295 31.1787 3.71124 31.1816C3.68131 31.2324 3.65264 31.284 3.62522 31.3361C3.62444 31.3376 3.62366 31.3391 3.6228 31.3406C3.42413 31.7187 3.29053 32.1276 3.22928 32.5517L1.45328 31.7623C1.26281 31.6776 1.13976 31.4883 1.13976 31.2799V25.7612C1.13976 25.0549 1.64156 24.4371 2.33288 24.2923L3.151 24.121C4.79318 23.777 6.28943 22.9692 7.47802 21.7851C8.89364 20.3747 10.7738 19.598 12.7721 19.598H19.6901C21.1923 19.598 22.6443 20.0425 23.8891 20.8834L27.6582 23.4296C28.4145 23.9406 29.5641 24.6485 30.8098 24.8963L36.0106 25.9306C36.9857 26.1245 37.8392 26.7242 38.3524 27.5757L38.5324 27.8745C38.747 28.2305 38.8604 28.6384 38.8604 29.0541V32.0098Z" fill="#EDA942"/>
<path d="M8.19359 31.8738C7.86672 31.547 7.43234 31.3671 6.97023 31.3671C6.50812 31.3671 6.07367 31.5471 5.74695 31.8738C5.42023 32.2005 5.24023 32.635 5.24023 33.0971C5.24023 33.5592 5.42023 33.9936 5.74695 34.3203C6.07367 34.6471 6.50812 34.8271 6.97031 34.8271C7.43242 34.8271 7.86687 34.6471 8.19359 34.3203C8.86812 33.6458 8.86812 32.5483 8.19359 31.8738ZM7.38765 33.5145C7.27617 33.626 7.12789 33.6874 6.97023 33.6874C6.8125 33.6874 6.66429 33.626 6.55281 33.5144C6.44133 33.4029 6.37984 33.2547 6.37984 33.097C6.37984 32.9393 6.44125 32.791 6.55281 32.6796C6.66429 32.5681 6.8125 32.5066 6.97023 32.5066C7.12789 32.5066 7.27617 32.568 7.38765 32.6796C7.61781 32.9098 7.61781 33.2843 7.38765 33.5145Z" fill="#EDA942"/>
<path d="M34.393 31.8739C34.0663 31.5471 33.6318 31.3671 33.1696 31.3671C32.7075 31.3671 32.2731 31.547 31.9463 31.8738C31.2718 32.5483 31.2718 33.6458 31.9463 34.3203C32.2731 34.6471 32.7075 34.8271 33.1696 34.8271C33.6318 34.8271 34.0662 34.6471 34.3929 34.3204C34.7197 33.9937 34.8996 33.5593 34.8996 33.0971C34.8996 32.635 34.7197 32.2006 34.393 31.8739ZM33.587 33.5146C33.4756 33.6261 33.3274 33.6875 33.1696 33.6875C33.012 33.6875 32.8637 33.6261 32.7522 33.5146C32.522 33.2844 32.522 32.9099 32.7522 32.6797C32.8637 32.5682 33.012 32.5068 33.1696 32.5068C33.3274 32.5068 33.4756 32.5682 33.5871 32.6797C33.6986 32.7912 33.76 32.9394 33.76 33.0971C33.76 33.2547 33.6987 33.403 33.587 33.5146Z" fill="#EDA942"/>
</svg>
