<svg width="40" height="40" viewBox="0 0 40 40" fill="none" xmlns="http://www.w3.org/2000/svg">
<g clip-path="url(#clip0)">
<path d="M35.8688 9.04089H4.13121C1.8532 9.04089 0 10.8941 0 13.1721V23.5502C0 25.7219 1.68476 27.5062 3.81558 27.6682V30.1326C3.81558 30.5891 4.18541 30.9589 4.64182 30.9589H10.96C11.4165 30.9589 11.7863 30.5891 11.7863 30.1326V27.6814H28.2138V30.1326C28.2138 30.5891 28.5837 30.9589 29.0401 30.9589H35.3583C35.8147 30.9589 36.1845 30.5891 36.1845 30.1326V27.6682C38.3156 27.5062 40.0001 25.7219 40.0001 23.5502V13.1721C40 10.8942 38.1468 9.04089 35.8688 9.04089ZM10.1337 29.3064H5.46807V27.6814H10.1338V29.3064H10.1337ZM29.8663 29.3064V27.6814H34.532V29.3064H29.8663ZM38.3475 23.5502C38.3475 24.917 37.2355 26.029 35.8688 26.029H4.13121C2.76449 26.029 1.65248 24.917 1.65248 23.5502V13.1721C1.65248 11.8054 2.76449 10.6934 4.13121 10.6934H35.8688C37.2355 10.6934 38.3475 11.8054 38.3475 13.1721V23.5502Z" fill="#EDA942"/>
<path d="M29.3676 24.5463C25.9572 24.5463 23.1826 21.7716 23.1826 18.361C23.1826 14.9507 25.9572 12.176 29.3676 12.176C32.7782 12.176 35.5529 14.9507 35.5529 18.361C35.5529 21.7717 32.7782 24.5463 29.3676 24.5463ZM29.3676 13.8286C26.8684 13.8286 24.8351 15.8618 24.8351 18.3612C24.8351 20.8606 26.8684 22.8939 29.3676 22.8939C31.8671 22.8939 33.9004 20.8606 33.9004 18.3612C33.9004 15.8618 31.8671 13.8286 29.3676 13.8286Z" fill="#EDA942"/>
<path d="M26.6182 19.1874C26.1618 19.1874 25.792 18.8176 25.792 18.3611C25.792 16.3894 27.3963 14.7853 29.3679 14.7853C29.8243 14.7853 30.1941 15.1551 30.1941 15.6115C30.1941 16.0679 29.8243 16.4378 29.3679 16.4378C28.3073 16.4378 27.4445 17.3006 27.4445 18.3611C27.4445 18.8176 27.0746 19.1874 26.6182 19.1874Z" fill="#EDA942"/>
<path d="M14.6631 15.8668H4.31452C3.85811 15.8668 3.48828 15.4969 3.48828 15.0406C3.48828 14.5842 3.85811 14.2144 4.31452 14.2144H14.6631C15.1196 14.2144 15.4894 14.5842 15.4894 15.0406C15.4894 15.497 15.1196 15.8668 14.6631 15.8668Z" fill="#EDA942"/>
<path d="M14.6631 19.1873H4.31452C3.85811 19.1873 3.48828 18.8174 3.48828 18.361C3.48828 17.9046 3.85811 17.5348 4.31452 17.5348H14.6631C15.1196 17.5348 15.4894 17.9046 15.4894 18.361C15.4894 18.8174 15.1196 19.1873 14.6631 19.1873Z" fill="#EDA942"/>
<path d="M14.6631 22.5078H4.31452C3.85811 22.5078 3.48828 22.138 3.48828 21.6816C3.48828 21.2252 3.85811 20.8553 4.31452 20.8553H14.6631C15.1196 20.8553 15.4894 21.2252 15.4894 21.6816C15.4894 22.1379 15.1196 22.5078 14.6631 22.5078Z" fill="#EDA942"/>
</g>
<defs>
<clipPath id="clip0">
<rect width="40" height="40" fill="white"/>
</clipPath>
</defs>
</svg>
