<svg width="16" height="17" viewBox="0 0 16 17" fill="none" xmlns="http://www.w3.org/2000/svg">
<g clip-path="url(#clip0)">
<path fill-rule="evenodd" clip-rule="evenodd" d="M13.7703 9.66942C14.301 10.2123 14.8612 10.723 15.3372 11.3206C15.5475 11.5862 15.7466 11.8602 15.8989 12.1684C16.1147 12.6065 15.9192 13.0886 15.5442 13.1148L13.2133 13.1137C12.6121 13.1659 12.1325 12.9124 11.7293 12.4818C11.4065 12.1374 11.1077 11.7709 10.7974 11.4149C10.6702 11.2694 10.537 11.1325 10.3779 11.0243C10.0597 10.8079 9.78352 10.8741 9.60169 11.2218C9.41648 11.5754 9.37448 11.967 9.35629 12.3611C9.33132 12.9361 9.16541 13.0873 8.61407 13.1136C7.43578 13.1718 6.31752 12.9851 5.2787 12.3624C4.36284 11.8134 3.65263 11.0384 3.03446 10.1611C1.83089 8.45265 0.909193 6.57538 0.0808054 4.64553C-0.105658 4.21073 0.0307068 3.97733 0.488638 3.96907C1.24905 3.9536 2.00936 3.9547 2.77067 3.96797C3.07973 3.97271 3.28433 4.15841 3.40366 4.46428C3.81507 5.52405 4.31847 6.53232 4.95035 7.4669C5.11863 7.71572 5.29021 7.96454 5.53456 8.13967C5.80487 8.33358 6.01068 8.26931 6.13784 7.95385C6.21854 7.75383 6.25386 7.53838 6.27205 7.32415C6.3323 6.58711 6.34023 5.85134 6.23457 5.1169C6.1697 4.65853 5.92325 4.36179 5.48667 4.27505C5.26388 4.23083 5.29705 4.14398 5.40492 4.01076C5.59228 3.781 5.76849 3.63797 6.11976 3.63797H8.75406C9.16878 3.72372 9.26088 3.9189 9.31765 4.35607L9.31991 7.42158C9.31539 7.59081 9.40061 8.09302 9.69158 8.20504C9.92446 8.28478 10.078 8.08961 10.2177 7.93491C10.8484 7.23361 11.2986 6.40482 11.7007 5.54663C11.8792 5.16927 12.0326 4.77737 12.1814 4.38581C12.2916 4.09524 12.4645 3.95227 12.7769 3.95861L15.3122 3.96097C15.3874 3.96097 15.4635 3.96213 15.5363 3.97518C15.9635 4.05146 16.0806 4.24399 15.9486 4.68105C15.7407 5.36676 15.3362 5.93819 14.9407 6.51227C14.5179 7.12517 14.0657 7.7171 13.6464 8.33363C13.2611 8.89664 13.2917 9.18043 13.7703 9.66942Z" fill="white"/>
</g>
<defs>
<clipPath id="clip0">
<rect width="16" height="16.7619" fill="white"/>
</clipPath>
</defs>
</svg>
