<svg width="70" height="70" viewBox="0 0 70 70" fill="none" xmlns="http://www.w3.org/2000/svg">
<g clip-path="url(#clip0)">
<path d="M51.7325 45.0892L42.9035 43.1268V40.3369C46.3155 37.8744 48.5487 33.8756 48.5487 29.3548V26.3099L50.3699 23.5777C52.1334 20.9335 53.0648 17.8556 53.0648 14.6776C53.0648 10.6785 50.0786 7.36369 46.2196 6.84445C45.7011 2.9862 42.3863 0 38.3872 0H31.6131C23.5202 0 16.9357 6.58453 16.9357 14.6774C16.9357 17.8556 17.8671 20.9333 19.6307 23.5775L21.4518 26.3096V29.3546C21.4518 33.8751 23.6851 37.8742 27.097 40.3367V43.1266L18.2681 45.0877C11.5006 46.5928 6.77441 52.4829 6.77441 59.4164V70H63.2261V59.4164C63.2259 52.4831 58.4999 46.593 51.7325 45.0892ZM21.453 22.2319C19.976 19.9794 19.1936 17.3724 19.1936 14.6774C19.1936 7.82989 24.7654 2.25804 31.6129 2.25804H38.387C41.4998 2.25804 44.0322 4.79044 44.0322 7.90326V9.03238H45.1614C48.2742 9.03238 50.8066 11.5648 50.8066 14.6776C50.8066 17.3726 50.0242 19.9796 48.5485 22.2319V19.1937H46.2905V21.883L40.9117 19.1937H37.4073L39.6653 22.5809H36.9297C32.3797 22.5809 27.8274 21.5456 23.7111 19.6024V19.1937H21.453V22.2319ZM23.7098 29.3548V22.0895C27.8681 23.8902 32.4 24.8387 36.9285 24.8387H43.8845L42.2498 22.3864L46.2905 24.4072V29.3546C46.2905 35.58 41.2257 40.645 35.0001 40.645C28.7744 40.645 23.7098 35.5804 23.7098 29.3548ZM40.6453 41.6557V44.397L35.9124 46.2904H34.089L29.3551 44.397V41.6546C31.0756 42.4482 32.9837 42.9033 35.0001 42.9033C37.0165 42.9033 38.9246 42.4482 40.6453 41.6557ZM27.0968 47.0548C27.0968 46.5365 27.6591 46.1504 28.1446 46.3457L33.6543 48.5485H36.3471L41.8545 46.3457C42.3467 46.1504 42.9033 46.5365 42.9033 47.0548V51.1713C42.9033 51.6895 42.3422 52.0757 41.8555 51.8804L36.3458 49.6776H33.6531L28.1457 51.8804C27.6545 52.0746 27.0968 51.6895 27.0968 51.1713V47.0548ZM39.1967 53.2497L38.324 57.1764C37.7765 59.6434 36.635 61.9183 35.0001 63.8254C33.3653 61.9195 32.2238 59.6434 31.6761 57.1764L30.8035 53.2497L34.0878 51.9354H35.9111L39.1967 53.2497ZM19.1936 62.0969H18.0644V67.7422H9.03226V59.4166C9.03226 53.5513 13.0313 48.5655 18.7578 47.2942L20.3227 46.9452V60.9678C20.3227 61.5911 19.8158 62.0969 19.1936 62.0969ZM49.6775 67.7422H20.3227V64.1619C21.6369 63.6957 22.5807 62.4402 22.5807 60.9678V46.4439L25.0737 45.8895C24.9235 46.2486 24.8388 46.6414 24.8388 47.0546V51.1711C24.8388 52.8376 26.1947 54.1935 27.8611 54.1935C28.1377 54.1935 28.4076 54.1427 28.6718 54.0681L29.4711 57.6652C30.1982 60.9349 31.833 63.9144 34.2006 66.282L34.9999 67.0803L35.7981 66.282C38.1657 63.9144 39.8017 60.9359 40.5276 57.6652L41.3269 54.0681C41.5923 54.1427 41.862 54.1935 42.1386 54.1935C43.805 54.1935 45.161 52.8376 45.161 51.1711V47.0546C45.161 46.6414 45.0762 46.2484 44.926 45.8895L47.419 46.4439V60.9678C47.4194 62.44 48.3634 63.6955 49.6775 64.1619V67.7422ZM60.9679 67.742H51.9357V62.0967H50.8066C50.1845 62.0967 49.6775 61.5909 49.6775 60.9676V46.945L51.2423 47.2927C56.9688 48.5653 60.9679 53.5513 60.9679 59.4166V67.742Z" fill="#EDA942"/>
</g>
<defs>
<clipPath id="clip0">
<rect width="70" height="70" fill="white"/>
</clipPath>
</defs>
</svg>
