<?xml version="1.0" encoding="utf-8"?>
<!-- Generator: Adobe Illustrator 23.0.1, SVG Export Plug-In . SVG Version: 6.00 Build 0)  -->
<svg version="1.1" id="Слой_4" xmlns="http://www.w3.org/2000/svg" xmlns:xlink="http://www.w3.org/1999/xlink" x="0px" y="0px"
	 viewBox="0 0 379.8 363.7" style="enable-background:new 0 0 379.8 363.7;" xml:space="preserve">
<style type="text/css">
	.st0{opacity:0.2;}
	.st1{fill:none;}
	.st2{font-family:'ArialMT';}
	.st3{font-size:12px;}
</style>
<g id="hover-back">
	<polygon id="van-gog_1_" class="st0" points="250.3,214.6 188.1,213.4 69.4,152.3 15.1,349.1 227.2,348.6 	"/>
	<polygon id="klimt_1_" class="st0" points="188.1,213.4 67.3,149.9 98.8,11.7 224.1,11.7 	"/>
</g>
<path id="floor" d="M89.3,0.1L0,363.7h316.9L380,0.1H89.3z M230.6,204.6v7.1h-16.2v-7.1h-4v7.1H193l5.5-32h7.8v-4h-7.1l2.8-16.2h6.9
	v-4h-6.2l4.6-26.5h17.1v7.1h4V129h16.2v7.1h4V129H263l-8.4,48.7h-8.2v4h7.5l-2.8,16.2h-7.4v4h6.7l-1.7,9.8h-14.2v-7.1H230.6z
	 M220.5,51.2l2.8-16.2h6.9v-4H224l1.9-10.9h55.8L264,123h-15.5v-7.1h-4v7.1h-16.2v-7.1h-4v7.1h-16.1l11.7-67.8h7.9v-4H220.5z
	 M253.6,218.6h34.3l-0.9,5.1h-34.3L253.6,218.6z M254.3,214.6l0.9-5.2h34.3l-0.9,5.2H254.3z M252.1,227.7h34.3l-0.9,5.3h-34.3
	L252.1,227.7z M250.5,237h34.3l-0.9,5.3h-34.3L250.5,237z M248.9,246.3h34.3l-0.9,5.2H248L248.9,246.3z M247.3,255.5h34.3l-0.9,5.3
	h-34.3L247.3,255.5z M245.7,264.8H280l-0.9,5.3h-34.3L245.7,264.8z M244.1,274.1h34.3l-0.9,5.3h-34.3L244.1,274.1z M242.5,283.4
	h34.3l-0.9,5.2h-34.3L242.5,283.4z M240.9,292.6h34.3l-0.9,5.3H240L240.9,292.6z M239.3,301.9h34.3l-0.9,5.3h-34.3L239.3,301.9z
	 M237.7,311.2H272l-0.9,5.3h-34.3L237.7,311.2z M236.1,320.5h34.2l-0.9,5.2h-34.2L236.1,320.5z M232.9,339h34.2l-0.8,4.7h-34.2
	L232.9,339z M233.6,335l0.9-5.3h34.2l-0.9,5.3H233.6z M270.8,329.7h31.7l-0.9,5.3h-31.7L270.8,329.7z M271.5,325.7l0.9-5.2h31.7
	l-0.9,5.2H271.5z M273.1,316.5l0.9-5.3h31.7l-0.9,5.3H273.1z M274.7,307.2l0.9-5.3h31.7l-0.9,5.3H274.7z M276.3,297.9l0.9-5.3h31.7
	l-0.9,5.3H276.3z M277.9,288.6l0.9-5.2h31.7l-0.9,5.2H277.9z M279.5,279.4l0.9-5.3h31.8l-0.9,5.3H279.5z M281.1,270.1l0.9-5.3h31.8
	l-0.9,5.3H281.1z M282.7,260.8l0.9-5.3h31.8l-0.9,5.3H282.7z M284.3,251.5l0.9-5.2H317l-0.9,5.2H284.3z M285.9,242.3l0.9-5.3h31.8
	l-0.9,5.3H285.9z M287.5,233l0.9-5.3h31.8l-0.9,5.3H287.5z M289.1,223.7l0.9-5.1h31.8l-0.9,5.1H289.1z M290.6,214.6l0.9-5.2h31.9
	l-0.9,5.2H290.6z M255.9,205.4l0.6-3.5h7.4v-4h-6.8l2.8-16.2h6.5v-4h-5.8l0.4-2.4h68.2l-5.2,30.1H255.9z M262.1,169.3l25.7-149.2
	h68.5l-25.9,149.2H262.1z M105,20.1h114.8L217.9,31h-7.9v4h7.2l-2.8,16.2h-6.9v4h6.2l-17.2,100.3h-7.9v4h7.2l-2.8,16.2h-6.9v4h6.2
	l-5.2,30.4L73.2,149.5L105,20.1z M71.7,155.5l116.9,62.2v-1.5v1.5h21.7v7h4v-7h16.2v7h4v-7h13.1l-21.7,126H25.5L71.7,155.5z
	 M268.4,343.7l0.8-4.7h31.7l-0.8,4.7H268.4z"/>
<g id="rooms_1_">
	<g id="van-gog">
		<rect x="54.2" y="254.9" class="st1" width="179.7" height="16.4"/>
		<text transform="matrix(1 0 0 1 122.5418 263.4194)" class="st2 st3">ВАН ГОГ</text>
		<rect x="56.2" y="276.6" class="st1" width="177.7" height="10.8"/>
		<text transform="matrix(1 0 0 1 125.368 285.1518)" class="st2 st3">47 кв.м.</text>
	</g>
	<g id="klimt">
		<rect x="89.4" y="74.9" class="st1" width="120.1" height="16.4"/>
		<text transform="matrix(1 0 0 1 130.8477 83.4402)" class="st2 st3">КЛИМТ</text>
		<rect x="90.8" y="96.7" class="st1" width="118.7" height="10.8"/>
		<text transform="matrix(1 0 0 1 130.4712 105.1717)" class="st2 st3">30 кв.м.</text>
	</g>
	<g id="wc">
		<rect x="220.7" y="63.2" class="st1" width="49.3" height="16.4"/>
		<text transform="matrix(1 0 0 1 236.7185 71.7354)" class="st2 st3">WC</text>
	</g>
</g>
<g id="hover">
	<polygon id="van-gog_2_" class="st0" points="250.3,214.6 188.1,213.4 69.4,152.3 15.1,349.1 227.2,348.6 	"/>
	<polygon id="klimt_2_" class="st0" points="188.1,213.4 67.3,149.9 98.8,11.7 224.1,11.7 	"/>
</g>
</svg>
